<svg version="1.0" xmlns="http://www.w3.org/2000/svg" width="900" height="1706.667" viewBox="0 0 675 1280"><g fill="#004c40"><path d="M170.4 3.7c-1.9 2-3.2 3.9-2.9 4.1.2.2 1.8-.1 3.6-.7S175.5 6 177 6c1.4 0 3.5-.7 4.6-1.5 1.9-1.5 1.9-1.5 0-3-3.5-2.7-7.5-1.9-11.2 2.2z"/><path d="M191 2.5c0 2.3 9 11 14 13.5 6.5 3.3 13.7 11.1 17.2 18.7 2.5 5.3 3.3 8.4 3.6 15 .3 4.5-.1 10.3-.7 12.8-1.9 7.7-9.3 21.6-14.5 27.3-6.6 7.2-13.1 11.4-31.6 20.7-8.5 4.3-16.1 8.6-16.7 9.5-3.3 4.6-8.4 6.5-19.8 7.1-6 .4-16.6 1.2-23.5 1.9-21.5 2-36.1-.3-42.3-6.8-4.9-5.1-5.7-8.7-5.7-26.4 0-26.4 3.9-40.1 15.3-53.6 2.9-3.4 6.9-8.4 8.9-11.1 5.1-6.8 14.6-11.4 29.3-14.1 27.4-5 27.8-5.1 26.1-6.9-2.1-2.1-13.9-2.7-21.9-1.1-3.4.6-11.3 2.7-17.5 4.6-9.1 2.8-11.9 4.1-13.9 6.5-5.3 6.3-8 6.7-30.3 4.3l-5.5-.6-2.5 3.8c-3.3 5.1-8.4 7.8-19.9 10.4-10.5 2.4-16.5 5-17.5 7.5-1.4 3.8-.6 6.2 3.1 8.6 5.7 3.6 6.4 6.9 3 13.2-1.6 2.9-4 7.3-5.3 9.9-1.4 2.6-3.2 7.7-4 11.5-.9 4.6-3.2 9.9-7.1 16.8-11.9 20.9-13.2 26.1-9.4 36.9 2.8 8 4.8 23.7 6.1 49.1.7 11.5 1.3 21.2 1.5 21.4 1 .9 2.5-1.4 4.1-6.2 1.4-4.2 1.8-9.3 1.9-25.7.1-11.3.6-23.2 1-26.5.6-5.2.3-7.3-2.4-15.5-4.4-13.7-4.7-16.9-2.3-22.2 2.5-5.8 8.5-12.4 13.5-14.9 5.2-2.7 14.9-4.6 27.9-5.4l10.8-.7 1 2.8c.7 1.7.8 5.9.4 11-.6 7.8-.5 8.6 2.1 13.6C74.3 136.1 77 147.8 79 173c1 12.2 1.4 13.9 4 18 1.6 2.4 2.7 4.6 2.6 4.8-.2.2-3.6-1.3-7.5-3.2C71 189 65.1 188 62 190c-1.7 1.1-1.6 1.3 3.4 3.1 6.7 2.4 5.5 3.5-6 5.3-12.3 1.9-14.9 3.1-19.6 8.6-4.2 4.8-12.7 21.8-13.5 26.7-.6 3.3-.5 3.5 1.4 2.5 1-.6 3.9-4.7 6.3-9.1 5.2-9.7 13.4-18 21.7-21.9 4.9-2.3 7.2-2.7 15.5-2.9 10.7-.1 12.3-.8 15.7-6.3 3.5-5.8 2.9-14.6-2.3-34.1-4.8-17.9-5.9-22.9-4.9-22.9.3 0 3.9 1.6 7.9 3.5 14.6 7 29.4 20.2 39.3 34.9 2.7 3.9 7.7 9.7 11.2 12.8 3.5 3 7.2 6.9 8.2 8.6 1.7 3 1.7 3.1-.9 6.2-7 8.2-17.4 9.6-33.3 4.2-10.2-3.5-12-3.4-18.8.5-6.3 3.6-9 10.1-4.8 11.7.9.3 2.2-.9 3.5-3 2.5-3.9 5.3-4.4 7.4-1.2.7 1.3 3 11.1 5 21.9 4.7 25.3 7.8 36.6 12.4 45.9 2.8 5.6 4.3 7.6 6 7.8 3 .4 2.8-.6-1.4-9-1.9-3.9-4-9.7-4.5-12.9-.5-3.2-2.7-11.8-4.9-19.1-5.2-17.3-7-26.1-7-34.8 0-5.3.3-7 1.4-7 3.3 0 14.3 9 23.8 19.3 17.7 19.3 25.7 26.5 27.8 25.2 2.1-1.3.8-3.3-8.1-12-9.3-9.3-11.9-12.8-11.9-16.6 0-1.6.4-1.9 1.8-1.4.9.4 7.1 2 13.7 3.6 18.7 4.5 24.4 6.5 32.8 11.5 4.3 2.6 8 4.4 8.3 4.1 1-1-1.5-4.4-6-8-6.4-5.3-16.5-9.5-29.4-12.2-12.5-2.7-13.6-3.1-12.5-4.8.4-.7.6-2.3.4-3.5-.5-4.3 7-10.2 17.4-13.7 2.8-.9 9.5-2.1 15-2.5 10.4-.9 13.5-1.6 13.5-3.1 0-2.2-6.1-3.3-17.7-3.2-6.8 0-12.3-.3-12.3-.7 0-.4 2.5-1.9 5.5-3.5 6.1-3 6.7-5.2 1.4-4.7-9 .9-9.3.9-11-2.5-3.6-7.1-6.3-8-12.5-3.8-2 1.4-4 2.5-4.5 2.5-1.8 0-3.8-3.2-4.4-7.2-1.2-8.5-2.8-14.8-3.7-14.8-.4 0-.8 1.4-.8 3.1 0 4.5-2 11.7-3.7 13-1.8 1.6-3.4-.1-5.7-6-1.6-4.1-1.6-4.5.2-7.4 3.3-5.7 6.8-6.9 22.6-7.7 18.7-.9 24.9-3.5 26.2-10.7 1.3-7.1 9.7-16.6 18.1-20.5 3.5-1.5 5.5-1.7 12.2-1.2 9.9.8 10.7-.1 6.2-7.9-1.7-3-3.1-6.3-3.1-7.4 0-2.3 1.8-4.3 3.9-4.3.8 0 3-1.5 4.9-3.3l3.3-3.2-2.5 5.5c-1.4 3-2.6 7.2-2.6 9.2 0 3.1.5 4 3 5.3 5.1 2.7 6.3 2.1 5.7-2.7-.7-5.4.6-7.8 4.2-7.8 3.2 0 3.6.7 4.6 7.3.9 6.1-1 14.8-5.2 23.2-4.1 8.2-19.3 30.1-25.2 36.2-8.3 8.8-6 19.4 4.9 22.3 4.6 1.2 11.7.6 16.5-1.5 3.6-1.5 2.8-1.9-6.9-3.4-3.8-.5-7.3-1.4-7.8-1.9-1.3-1.3 6.2-12.1 12-17.3 2.7-2.5 10.2-7.3 16.7-10.8 6.4-3.5 14.5-8.5 17.8-11l6.2-4.6-3.3-.3c-2-.2-5.5.7-9 2.3-6.5 3-23.1 13.5-28 17.7-1.8 1.6-3.7 2.6-4.3 2.3-1.1-.7.1-3.3 4.6-9.5 1.8-2.5 3.6-5.5 3.9-6.8.8-2.5 5.5-6.3 10.4-8.2 3.4-1.3 4-2.8 2-4.8-1.6-1.6.1-3.3 10.5-10.2 4.5-3 8.2-6 8.2-6.5 0-.6-1.5-1.1-3.3-1.3-2.6-.3-4.1.4-7.3 3.2-7.1 6.5-10.4 4.3-9.7-6.2.5-6.4 2.9-13.5 6-17.6 1.4-1.8 1.6-1.8 6.1.8 7.5 4.4 21.5 7.3 23.1 4.7.6-.9-2.8-4.3-6.1-6-1.2-.6-4-1.1-6.3-1.1-12.4 0-23.7-12.4-24.8-27.1-.5-7.6.8-12.6 4.3-15.9 2.2-2 3.8-2.3 18.7-3.1 9-.5 27.3-1.5 40.8-2.4 23.4-1.4 39-2.1 99.5-4.5 14.9-.6 37.1-1.8 49.5-2.5 75.2-4.8 108.8-5.8 143.4-4.5 18.6.7 27.7 1.4 30 2.4 5.9 2.4 11.7 8.7 20.1 21.6 7.6 11.6 15.1 20.1 20.2 22.8 3.8 2.1 12.6-5.4 15.1-12.7 3.3-9.6-1.9-25.3-12.5-37.7-2.2-2.7-7.2-5.9-7.9-5.1-.3.3 1.1 3.7 3 7.6 3.5 6.9 4.7 13.3 2.6 14.6-.5.3-1 1.9-1 3.4s-.9 3.6-2 4.6c-7.2 6.5-27.3-14.8-22.8-24.2.7-1.5 2.9-3.7 4.8-5 9.1-5.8 10.1-7.7 5.3-9-3.5-1-8.4-.9-66.8 1.1-75.4 2.6-100.2 3.6-114 4.6-31.7 2.3-77.5 4.5-125.5 6-18.4.6-45.2 1.5-59.5 2-14.3.6-29.9 1-34.8 1H234l-9.3-8.7C205.1 5.9 191-3.2 191 2.5zm439.2 20.7c3.1 2.4 2.6 5.1-1.2 7-4.5 2.3-8.2 2.3-22.1-.2-6.3-1.1-14.8-2-18.9-2.1-4.1 0-8.4-.4-9.4-.8-1.9-.7-1.8-.8.5-1.4 1.3-.4 9.3-1.2 17.8-1.7 8.5-.6 15.7-1.3 16-1.5 1-1.1 15.8-.4 17.3.7zM528 29c0 .5-.9 1-1.9 1-1.1 0-2.3-.5-2.6-1-.4-.6.5-1 1.9-1s2.6.4 2.6 1zm-35.6.9c.8 1.2-5.5 2-21.9 2.7-14.8.7-17.2-.3-5.7-2.2 8.1-1.4 26.9-1.7 27.6-.5zM80.5 34c2.5.6 2 .8-2.8.9-3.7.1-5.6-.3-5.2-.9.7-1.1 3.6-1.1 8 0zM394 34c2 .6 1.6.8-2.3.9-3 .1-4.6-.3-4.2-.9.7-1.1 2.9-1.1 6.5 0zm26.5 0c1.4.6-.2.9-5 .9s-6.4-.3-5-.9c1.1-.5 3.4-.9 5-.9 1.7 0 3.9.4 5 .9zm-87 2.9l5 .7-5.5.7c-19.3 2.6-40.2 3.3-52 1.8l-5.5-.7 8.5-1.2c4.7-.6 10.1-1.3 12-1.5 6.5-.7 32.5-.5 37.5.2zm-72.2 2c9.1 2.1 5.5 4-10.9 5.8-13.1 1.4-13.8 1.4-15.1-.3-2.7-3.8 3-6.1 15.2-6.3 3.9 0 8.7.3 10.8.8zM71.6 41.1c5.8 1.5 5.8 2.9-.8 18.2-4.7 10.8-5.3 13-5.4 19.7-.1 4.1-.2 8-.3 8.7-.2 2-6.7 3.4-14.3 3.1-4-.1-10.1.1-13.5.6-6.2.8-6.2.8-7.5-1.9-2.5-5.5 5.6-28.4 13.3-37.8 5.6-6.8 14-11.4 21.2-11.6 1.6-.1 4.8.4 7.3 1zM37 49.5c0 1.4-4 3.4-5.7 2.8-1.6-.6-1.7-3.5-.2-5 1.4-1.4 5.9.3 5.9 2.2zm629 14.4c0 .6-.5 1.3-1.1 1.7-.6.3-.8 1.5-.5 2.6.4 1.8.1 2-3.1 1.5-6-1-8.2-4-4-5.7 3-1.2 8.7-1.2 8.7-.1zM137 131c0 .5-.9 1-1.9 1-1.1 0-2.3-.5-2.6-1-.4-.6.5-1 1.9-1s2.6.4 2.6 1zm32.7 2.3c-2 1.8-3.7 4-3.7 4.9 0 3.8-2.7 4.8-12.8 4.8-7.4 0-10.7.5-14 2-9.5 4.3-29.8 4.6-41.1.5l-3.6-1.3 3-1.2c1.9-.9 10-1.5 23-1.7 21.7-.5 20.2-.2 44.5-9.2 7.8-2.9 9.1-2.6 4.7 1.2zM122 139c0 .5-1.8 1-3.9 1-2.2 0-4.3-.5-4.6-1-.4-.6 1.2-1 3.9-1 2.5 0 4.6.4 4.6 1zm30.1 55.1c.7 1.4.8 2.4.1 3.1-1.7 1.7-4.2.1-4.2-2.7 0-3.1 2.5-3.4 4.1-.4z"/><path d="M136.5 43c1.6 2.5-2.6 6-9.6 8.1-3.9 1.2-7.3 2.8-7.6 3.6-1 2.6 2.7 5.3 7.3 5.3 5.5 0 8.3-1.1 12.8-5 4.5-4 5-8.8 1.1-11.4-2.8-1.8-4.9-2.1-4-.6zm-11.7 1.4c-1.8 1.3-2.5 4.6-1 4.6 1 0 5.2-4.3 5.2-5.3 0-1.1-2.4-.7-4.2.7zM281 107.2c0 .8 2.8 3 6.3 4.8 22.4 11.7 33 22.3 38.7 38.4 1 2.8 3.4 9.2 5.4 14.3 2 5 5.8 17.8 8.6 28.4 2.8 10.6 5.2 19.4 5.4 19.7.3.2.9.1 1.5-.3 1.9-1.1 1.2-14.4-1.5-27.2-5.7-27.7-15.4-48.4-29.4-62.4-9.1-9.2-35-20.8-35-15.7zm-61.5 16c-1.6 3.9-1.2 4.8 2 4.8 2.8 0 3.8-2.2 2.5-5.5-1.3-3.4-2.8-3.1-4.5.7zm-151 92.7c-4.2 3.1-16.9 16.7-19.9 21.3-1 1.5-1.6 3.3-1.4 4 .3.8 5.2-3.3 12-10 6.4-6.1 12-11.2 12.6-11.2.6 0-.7 3.8-2.9 8.5s-3.7 9-3.3 9.6c.9 1.6 7.7-5.4 10.3-10.6 1.6-3.2 2.1-5.8 1.9-9.2-.3-4.3-.6-4.8-2.8-5.1-1.5-.2-4 .8-6.5 2.7zm89 1c-.7 1.3.5 1.9 16 8.1 21.1 8.5 22.4 9 24.2 9 1.4 0 1.4-.3-.3-2.1-2.8-3.1-9-6.5-21-11.4-10.4-4.3-17.6-5.6-18.9-3.6zm186.9 7.3c-1.6 3.6-1.8 6.6-1.7 18.7.2 12.3-.1 15.2-1.8 20.5-1.9 5.5-2.1 7.2-1.3 17.6.5 6.3.9 17.1.9 24 0 13.5-.8 16.2-6.4 22.4-2.2 2.4-2.3 2.8-.6 2.1 9.3-3.7 10.5-3.9 11.7-2.7.9.9.7 2.3-1 6.5-1.2 2.9-2.2 5.7-2.2 6.2 0 .6 2 5.9 4.5 11.9 4.8 12 6.2 19.3 4.7 24.9-1.3 4.7.6 5 4.9.8 2.6-2.6 2.9-3.6 2.9-9 0-6.9-2.7-14.9-6.8-20.7-2.5-3.5-2.7-4.3-1.9-7.9 1.8-7.6 1.3-26.3-1-35-3-11.2-3.6-20.1-2.3-34 2.4-27.4 2.4-50.5 0-50.5-.4 0-1.6 1.9-2.6 4.2zm-332.8 7.9c-2.4 12.4 2.5 34.6 9.8 44.2 4.1 5.4 7.9 7.9 17.5 11.6 9.7 3.7 19 6.2 35.1 9.5 19.7 3.9 25.1 4.8 31.6 5.1 7.1.3 11.2 2.2 15.1 7 3.9 4.6 5.8 11.1 8.3 28.1 2.4 16.4 5.1 26.7 11 41.9 2.3 6 6.3 16.8 8.8 24l4.5 13-1.1 9c-.6 4.9-3.4 18.9-6.1 31-2.7 12.1-5.5 26-6.1 31-2.2 17.1-4.2 25.9-9.2 39.9-14.9 42.1-17.6 51.6-14.9 51.6 1.3 0 4.6-4.4 5.8-7.7.6-1.5 2-6.2 3.2-10.3 3-10.2 10-29 11.8-31.5 1.2-1.7 1.3-.6.8 8.5-.7 12.6.2 11.8 3.9-3.5 3.2-13.1 4.2-15.1 5.2-11.1 1.1 4.5-.3 17.2-3.6 33.7-1.9 9.6-2.8 16.4-2.4 18.5 1.3 7.2-3.9 10.8-17.4 11.9-4.5.4-8.5 1.1-8.7 1.5-.3.4.8 1.6 2.3 2.6 2 1.4 4.6 1.9 9.7 1.9 6.7 0 7 .1 7.3 2.5.2 1.4-1.3 6.7-3.3 11.7-3.5 9.2-4.7 18.4-2.5 19.8 1.3.8 6.6-8.8 8.9-16.1 1.1-3.3 2.9-11.9 4-19 4.7-28.8 8.3-43.6 10.2-41.7.6.6 1.5 8.4 2 17.4 1 18.1 2.2 29.1 4.4 39.1 3.7 17.5 13 29.3 22.1 28.1 9.5-1.2 18.4 4.6 21.8 14.4 1.1 2.8 2.1 10.5 2.6 18.8 1 15.5 2.7 27.2 4.1 28 1.8 1.2 2.2-5.3 1.3-21.9-.4-9.4-.8-20.2-.9-24 0-6.7.1-6.9 3.8-10.1 4.7-4.1 9.2-5.2 26.1-6.5 11.2-.9 15.2-1.5 13.5-2.2-.2-.1-16.6-.4-36.5-.7l-36-.6-6-3c-5-2.6-6.2-3.8-8.6-8.5-2.9-5.8-4.3-16.5-10.8-79.5-1.1-11-2.9-27.7-4-37.1-2.1-19.5-1.7-27.6 2.3-47.9 1.4-6.6 2.8-14.3 3.1-17 1.7-12.5 2-12.6 7.1-2.7 3 6 3.4 6.4 3.5 3.7 0-3.3-3.4-13.8-14.9-45.7-7.8-21.8-13.4-41.8-15.2-54.8-.6-4.7-1.8-10.4-2.5-12.8-2.3-7.1-1.8-11.7 1.4-14.2 3.3-2.7 8.4-2.4 25.5 1.6 6.9 1.6 14.1 2.6 18.7 2.5 7.1 0 8.1.3 20.3 6.1 10.4 4.9 13 5.8 14.2 4.8 2.8-2.3 1.5-3.7-7.2-7.8-15.3-7-32.8-11.4-60.8-15.2-52.7-7.2-76.4-12.1-93.1-19.3-3.2-1.4-7.7-2.8-9.9-3.2-8.6-1.4-14.6-6.4-18.5-15.3-1.7-3.7-10-33.5-10-35.7 0-.3-.4-.5-.9-.5s-1.1 1.4-1.5 3.1zm99.8.3c-1.8 4.7 18.9 39.6 23.5 39.6 1.7 0 1.3-2-1.5-7.9-2.3-5.2-20.2-33.1-21-33.1-.3 0-.7.6-1 1.4z"/><path d="M178.4 318.2c-3.2 5.1 42 32.8 70.1 43.1 16 5.8 28.5 8.4 28.5 5.9 0-1.5-7.1-4.2-11.1-4.2-4.6 0-16.6-4.9-39.4-16.1-15.5-7.5-28.9-15.9-38-23.7-6.1-5.3-9.1-6.7-10.1-5zm134.1 12c-2.2.5-20.6 1.1-41 1.4-20.3.3-38 .7-39.2 1-3.4.7-2.8 2.2 1.5 3.3 4.9 1.4 49.5 1.4 61.9 0 9.2-1 19.6-4 20.8-6 .4-.5.5-.8.3-.8-.2.1-2.1.6-4.3 1.1zM204 350.6c8.4 8.5 13.1 11.5 36.1 23.3 35.9 18.4 54.1 25.1 75.2 27.6 7.6.9 7.3-.7-.5-3-15.3-4.3-34.4-10.8-45.4-15.5-20-8.6-51.7-25.8-64.8-35.2-6.2-4.5-6.5-3.3-.6 2.8zm85.5-3.9c-9 1.1-13.7 2.5-12.6 3.6 2 2 24.5 1.5 31.5-.6 4.4-1.4 5.6-2.1 4.5-2.8-1.3-.8-17.3-1-23.4-.2zm-26.1 3.4c-1 1.6 2.9 6.3 5.6 6.7 4.1.6 4.3-1.3.5-4.7-3.8-3.3-5-3.7-6.1-2zm59.6 16c-2.8 1.1-7 4.8-7 6.1 0 2.4 13.1-2.1 15.9-5.5 1.2-1.5 1-1.7-2.5-1.6-2.2 0-5 .5-6.4 1zM300.5 382c-1.9.7-1.8.8.7 1.8 1.5.6 8.9 2.7 16.5 4.7s14.6 3.9 15.7 4.2c1.3.4 1.6.1 1.1-.7-1.5-2.5-17.2-9-24.1-10-7.9-1.1-7.3-1.1-9.9 0zm53.1 6.6c-1.1 2.9-.6 6.6 1.8 13.4 7.5 20.7 9.1 43.3 8.8 125.4-.1 35.2 0 64.8.4 65.8.7 2.3 3.7 2.3 5.5.1 1.9-2.3 1.8-88.5-.1-108.8-1.4-14.3-1.6-24.7-.9-51l.4-15-3.2-6.9c-1.8-3.7-3.3-7.4-3.3-8.2 0-2.4-3.2-10.8-5.2-13.7-2.2-3.1-3.3-3.4-4.2-1.1zm-107.5 93.9c-7.2 1.3-10.2 2.7-8.7 4.2.6.6 14.6-1.7 28.6-4.7 6.5-1.4-12-.9-19.9.5zm60.3 9.2c1.7 12.4 3.6 18.6 5.2 17 1.6-1.6.8-10.4-1.5-16-2.9-7-4.6-7.5-3.7-1zm-80.7 2.9c-1.3 1.3-.7 10.9.9 16.5 2.2 7.3 6.2 14.5 9.2 16.5 3.4 2.2 18.2 3 28.9 1.6 12.9-1.8 36.4-7.4 36-8.6-.5-1.6-10.1-1.9-18.2-.7-3.8.6-11.3 1.6-16.5 2.2-5.2.5-11.2 1.2-13.3 1.5-5.6.9-10.4-.4-14.3-3.8-5-4.4-7.5-10-8.3-18.2-.4-5.3-1-7.2-2.1-7.4-.9-.1-1.9 0-2.3.4zm124.6 108.7c-2.7 1.8-8.4 6.2-12.8 9.7-9.5 7.8-13.9 10.6-18 11.5-1.6.4-5.5 1.6-8.5 2.5-3 1-11.5 2.6-18.9 3.5-7.4.9-14.1 2-15 2.4-2.9 1.7 6.1 3.1 19.8 3.1 13.5 0 20.9 1.3 21.8 3.7.3.7 0 14.9-.6 31.6-1.1 32.3-2.2 40.1-9 64.8l-2.9 10.7 3.8-.5c5.7-.8 6.2.9 5.5 18.4-.4 13.7-.4 14.5.9 10.6 3.6-10.5 5.6-33.4 7.8-85.3 1.8-43.2 1.7-47.7-1.5-54.2-1.5-2.9-2.2-5.4-1.8-5.6.5-.2 6.7-4.3 13.8-9.1 7-4.8 16.5-11 21.1-13.6 6.6-3.8 8-5 7.1-6.1-2-2.4-7.4-1.6-12.6 1.9zM318 737.1c0 1.7-.4 2.8-1 2.4-.5-.3-1-1.7-1-3.1 0-1.3.5-2.4 1-2.4.6 0 1 1.4 1 3.1zM124.2 634.9c-1.6 1.6-3.4 4.2-4 5.8-.7 1.5-3.4 15.6-6.2 31.3-7.9 44.8-12.4 62.8-20.1 80.2-8.2 18.7-12.3 40.1-12.3 64.3 0 14.1.4 17.9 3.3 32 4.1 20 4.9 32.3 2.8 42.5-.9 4.1-1.9 10.1-2.2 13.4-.4 3.2-2.2 11.9-4.2 19.5-5.5 21.6-9.3 37-10.9 44.6-2 9.4-2.8 30.1-1.7 40.5 2.9 25.1-8.7 50.9-29.5 65.7-3.6 2.6-6 4.9-5.5 5 .6.2 6-1.2 12-3.2 6.1-1.9 11.8-3.5 12.7-3.5 1 0 3.1.9 4.8 2.1 1.6 1.2 3.2 1.9 3.5 1.5.3-.3-.4-2.9-1.6-5.7-2.4-5.8-2.7-9.9-.8-9.9.6 0 2.6.9 4.2 2 4.1 2.7 4.5 2.6 4.5-2 0-2.9.5-4.3 1.9-5.2 1.9-1.1 1.9-1.3-1-4.5-5.1-5.9-4.3-10.9 5.6-32.9 3-6.7 5.5-13.2 5.5-14.5 0-2.2-.2-2.1-3.5 1.1-2.5 2.4-3.6 3-3.9 1.9-1.4-3.6-2.5-11.2-3.1-19.4-.6-8.5-.4-9.8 3.4-23.5 6.4-22.5 10.8-41.3 13.1-55.5 2-12.8 2.5-14.4 3.6-13.3.6.6 3.6 15.3 5.4 26.7 1.6 9.8 3 7.5 3-5 0-14.6-3.3-36.2-8.9-58.1-6.2-24.4-6.7-31-4.6-54.8 2.3-26.9 4.6-34.1 12.8-41.7l4.4-4.1 2.2-17.3c5.7-44.3 11.6-75.3 19-98.9 1.2-3.6 2.1-7.3 2.1-8.3 0-2.6-2.5-2.1-5.8 1.2zm80.4 79c-.3.5-1 6-1.6 12.2-1.1 12.8-3.7 28-8.1 47.9-1.7 7.4-4.3 19.8-5.9 27.5-1.6 7.7-3.8 17.4-5 21.5-3.9 14.2-7.7 39.9-10 68.5-.6 7.1-1.7 21-2.5 30.8-1.6 19.1-1.1 23.7 1.9 17.8 1-1.8 2.1-7.6 2.6-13.4.5-5.6 1.7-14 2.5-18.7.9-4.7 2.7-18.2 4-30 3.8-33.5 4.1-34.8 11.5-65.5 5.3-21.7 8.7-37.7 9.6-46.2.4-2.9 1-5.3 1.5-5.3 2.1 0 4.9 11.9 7.4 31.6 3.9 30.5 11.8 47.6 35 75.9 16.9 20.5 40 44.2 46.4 47.4 2.3 1.2 4.5 2.1 4.7 1.9.2-.2-5.1-6.4-11.7-13.8-29.5-33.1-35.5-40.2-42.4-50.5-14.4-21.7-21.3-36.9-25.5-56-2.5-11.6-7-46.6-8-62.9-.5-6.5-1.1-13.5-1.5-15.5-.9-5.1-3.4-7.7-4.9-5.2zm56.6 61.4c.8 2.5 14.7 11.9 26.1 17.8 6.5 3.3 12.1 5.8 12.5 5.5.9-.9-3.7-5.3-8.7-8.4-21.1-13-30.8-17.8-29.9-14.9zm53.4 8.7c-5.6 1-10.6 2.9-10.6 4 0 1.6 5.6 2.6 10.5 1.9 2.8-.4 6.8-.8 9-.8l4-.1-4.7 4.1c-2.7 2.2-4.8 4.5-4.8 5 0 1.4 3.8 1.1 7-.6 2.7-1.4 7-7.1 7-9.3 0-3.4-9.2-5.6-17.4-4.2zm9.4 16.5c0 .8.7 3.2 1.6 5.4 1.1 2.9 2.2 4 4.2 4.4 5.4 1 5.6-1.7.6-7.3-3.7-4.1-6.4-5.2-6.4-2.5zm-17.9 10.9c.2.2 6.7 3.8 14.3 8.1 23 12.6 29.1 18.4 37.5 35.2 2.2 4.5 7.4 14 11.5 21.1 6.9 12 12.4 23.4 14.1 29.2.4 1.4 1.8 4.6 3.1 7.2 1.3 2.6 2.4 5 2.4 5.3 0 1.5-4.4-.1-13.4-4.9-5.6-3-12.1-5.9-14.4-6.5-6-1.7-14.2-6.7-30-18.5-36.4-27.1-29.6-19.5 12.8 14.4 11.3 9 23.3 18.8 26.7 21.7 3.5 2.9 15.5 11.4 26.9 18.8 14.3 9.5 22.7 15.7 27.3 20.4 3.6 3.8 11.4 10.9 17.2 15.8 16.7 14.3 19.2 21.4 11.3 31.7-1.9 2.5-3 4.6-2.5 4.6s1.3-.5 1.6-1c1-1.6 10.2-6 12.6-6 2 0 2.1-.4 1.6-4.5-.4-2.5-1.6-6.4-2.8-8.8-2.4-4.6-36.5-39.7-43.9-45.2-2.5-1.8-11.6-7.3-20.2-12.3-14.2-8.1-29.7-18.6-31.3-21.2-1-1.7 3.4-1.1 7.3.9 2 1.1 6 3.9 8.7 6.2 7.9 6.6 23.5 13.2 23.5 9.9 0-.7-1.7-3.2-3.8-5.4-2.6-2.8-8.9-14.3-19-34.7-17.6-35.2-30.6-56.9-38.7-64.6-3.1-3-8.6-6.7-12.8-8.7-7.7-3.7-29.9-10.3-27.6-8.2z"/><path d="M261 839.4c0 1.2 18.4 31.7 24.4 40.4 3.9 5.7 10.3 15.2 14.1 21.2 6.3 9.8 15.4 23.1 30.7 44.7 2.9 4 4.9 7.5 4.6 7.8-1.3 1.3-4.1-1.4-13.2-12.5-9.9-12.2-15.8-17.2-17.8-15.2-1.1 1.1 1.3 4.2 24.8 32.3 7.2 8.7 22.6 28.2 34.1 43.5 26.1 34.6 37.1 47.8 40.3 48.2 1.9.3 2.2 0 1.7-1.7-1.7-6.7-32.9-52.1-48.2-70.1-9.1-10.7-13-16.5-23.5-34.5-5.1-8.8-15-24.1-22-34-7.1-9.9-14.7-21.2-17.1-25-2.3-3.9-5.3-8.3-6.6-9.9-1.4-1.6-5.4-8.8-9-16-6.9-14-11.3-19.6-15-19.6-1.3 0-2.3.2-2.3.4zm-94.7 121.1c-1.1.8-2.8 3.8-3.8 6.7-.9 2.9-5.5 15.2-10.2 27.3-8 20.4-14.3 38.4-14.3 40.7 0 .5-1.1 3.3-2.5 6.3-2.4 5-2.6 6.3-2.4 18.4.2 10.7-.1 13.4-1.4 15.5-2 2.9-5.6 5-10.7 6.1l-3.5.8 5.2-4.9c4.6-4.3 7.5-9.6 6-11-.7-.7-13.5 4.6-19.9 8.3-6.9 4-11.3 9.1-13.6 15.7-2.3 6.5-6.4 9.1-24.3 15.2-14.8 5-21.7 8.6-24.4 12.8-2.2 3.3-1.2 4.6 3.2 4.6 3.5 0 10.3-3.3 10.3-5 0-.5 1.8-1.1 3.9-1.5 6.3-1 14.9-5.7 25.6-13.9 11.3-8.6 16.5-11.4 23.3-12.3 3.1-.4 5.3-1.4 6.4-2.8 2.7-3.5 7.1-4.8 13.6-4.1 18.9 2 17.5 2.1 20.9-.8l3.2-2.7 1.7 3.3 1.8 3.3 1.2-4c.9-3 1.3-3.6 1.9-2.3.4.9 1.8 2.4 3.3 3.4 2.5 1.6 2.6 1.6 4.4-.6 1.2-1.5 1.8-3.8 1.7-7.4-.1-6-1.7-11.3-1.8-5.9-.1 4.2-2.3 5.3-10.4 5.3-5.5 0-6.8.4-8.9 2.5l-2.5 2.5.1-5.4c0-4-.5-6-1.8-7.5-2.3-2.5-3.7-2.6-7.6-.6-1.7.9-3 1.2-3 .8 0-.5.7-4.9 1.6-9.8 1.6-9.3 6.1-23.3 18.4-56.5 13.8-37.5 15.2-42 12.8-42-.7 0-2.3.7-3.5 1.5zm-20.2 113.8c-.6 1.5-1.5 2.7-2.1 2.7-1.6 0-1.2-3.8.8-6.8 1.6-2.4 1.7-2.5 2-.6.2 1.1-.2 3.2-.7 4.7zm-62.4-83.7c-5.7 3-4 7.4 3 7.4 2.4 0 5.2.4 6.1.9 1.8 1 7.2.3 7.2-.9 0-.4-1.2-1.2-2.6-1.9-2.5-1.1-2.5-1.2-1-3.6.9-1.3 1.6-2.6 1.6-2.7 0-1-12.2-.3-14.3.8zm390.7 28.5c1.2 6.3 5.5 13.3 14.4 23.9 9.2 11 12.2 13.1 12.2 8.6 0-1.7-2.7-5.9-7.8-12.3-4.3-5.4-9.6-12.4-11.6-15.6-2.1-3.2-4.7-6.2-5.9-6.8-1.9-1.1-2-.9-1.3 2.2z"/><path d="M440.3 1031.3c-1.5 1.9-2.6 2.2-6.3 1.9-4-.3-5.3.2-10.8 3.8-6.1 4.1-13.2 11.9-13.2 14.6 0 2.4 1.8 1.5 5.6-2.5 8.3-9.1 12.6-7.2 22.1 9.9 3.5 6.3 7.5 12.6 8.8 14 3.1 3.2 3.1 3.4 0 10.4-3.5 7.9-3.3 9 1 8.3 4.3-.7 4.8 0 10 12.8 5.8 14.1 10.3 22.1 15.1 26.5 7.4 6.8 12.2 5.4 23-7.1 6.3-7.3 16.5-27 18.9-36.5 1.7-7.1 2-19.2.4-24.7-.9-3.5-1.3-3.8-4.2-3.5-3.4.3-3.4 0-2.1 8.4.5 3 .2 4.5-.9 5.5-1 .9-1.3 2.6-.9 5.1.7 5.3-1.9 6.1-12.6 4-4.5-.8-8.5-1.2-8.9-.9-1.1 1.2 2.7 4.4 6 5.1 7.1 1.4 9.6 7.8 6.1 15.2-2.3 4.8-11.4 12.8-16.1 14.2-6.5 1.9-8.8 1.5-14.3-2.9-5.1-4-5.2-4.2-4.7-8.5.2-2.5 2-7 4.1-10.5 2-3.4 3.5-6.4 3.2-6.6-.2-.3-1.4.1-2.6.7-3 1.6-9.4.9-9.8-1.1-.5-2.7 5.9-10 11.5-13.1 3.1-1.7 7-3.1 9.4-3.2 2.7-.1 4.6-.9 5.5-2.1 2.3-3.1.6-3.8-7.5-3-4.2.5-11.2.9-15.6.9-7.7.1-8 0-8.3-2.2-.2-1.3.1-3.6.8-5.1.7-1.8.8-3.5.1-5.2-.9-2.3-1-2.3-1 .8-.1 1.8-.5 3.3-1 3.3s-2.8-2.1-5.1-4.6l-4.3-4.7.6-9.8c.3-5.5.4-9.9.2-9.9s-1.2 1-2.2 2.3zm-4.8 12.2l.6 3-2-3.5c-2.4-4.1-2.7-6-.7-4 .8.8 1.7 2.8 2.1 4.5zm28.4 25.4c1.1.7 1 1.1-.7 2-4.1 2.2-7.4.5-3.4-1.8 2.1-1.3 2.4-1.3 4.1-.2zM309 1048.7c-4.4 2.3-4.7 4.9-.5 4.5 3.7-.4 7.8-2.9 7.2-4.5-.6-1.9-2.9-1.9-6.7 0zm3 6.1c0 2.2 1.3 4.2 2.7 4.2 2.1 0 1.2-4.4-.9-4.8-1-.2-1.8.1-1.8.6zm-104.8 7.7c0 5.1.1 5.5.8 2.7.4-1.9.4-4.6 0-6-.6-2.1-.8-1.3-.8 3.3zm96.3-4.5c.9 1.5 6.5 4.2 6.5 3.2 0-1.5-3.5-4.2-5.4-4.2-.9 0-1.4.5-1.1 1z"/><path d="M459.6 1059.5c-1.1.9-1.6 2-1.2 3.1.6 1.6.8 1.5 2.6-.1 2-1.8 2.7-4.5 1.3-4.5-.5 0-1.6.7-2.7 1.5zm-282.9 9.1c-1.6 5.6-1.8 12.1-.4 13.2 2.5 2.1 4-1.1 3.5-7.3-.5-5.9-2.2-9.1-3.1-5.9zm36.5 2.5c-2.8 3.5-5.5 3.7-11.7.8-4.8-2.2-8.3-2-14 .9-3.9 2-5.4 4.1-5.5 7.6 0 2.3.3 2.7 1.8 2.1 9.2-3.5 13.8-4.5 17.8-3.9 2.7.4 4.4 1.2 4.4 2 0 4.3 5.7.9 8.1-4.8l1.2-3 1.8 4.7c3.5 9.3 7.5 10.5 6.2 2-.5-3.6-5.5-11.6-7.1-11.4-.4 0-1.7 1.3-3 3zm98.3-.8c-1 4-.2 9.2 1.5 9.2 1.1 0 1.5-1.3 1.5-5.4 0-5.8-1.9-8.2-3-3.8zM226 1077c0 3.8.2 4 3 4 4.4 0 5-2.6 1.4-5.6-3.9-3.2-4.4-3-4.4 1.6zm13.6-2.5c-1.3 1-1.7 2.1-1.2 3.9 1.2 4.7 5.6 2 5.6-3.3 0-2.4-1.7-2.6-4.4-.6zm-162.3 4.8c-3.9 3.6-4.1 7-.5 6 2.8-.7 9.2-6.2 9.2-7.9 0-2.6-4.9-1.5-8.7 1.9zm-22.3-.1c1.6 1.6 9.9 4.2 10.7 3.4.7-.7-4.7-3.3-8.7-4.1-3.1-.6-3.3-.5-2 .7zm372.2 2c-2.2 2.2-1.4 5.5 1.8 6.8 1.7.7 3 1.8 3 2.4.1.6.8-.2 1.6-1.7s1.4-4 1.2-5.5c-.2-2.2-.9-2.8-3.3-3-1.7-.2-3.6.3-4.3 1zm12 1.5c-.6 1-1.3 3.7-1.7 6-.5 3.4-.4 4.3.8 4.3.8 0 1.7-1.4 2.1-3.3.3-1.7.9-4.4 1.2-6 .7-3.1-1-3.7-2.4-1zm-22.2-.2c0 2.1 3.2 7.5 4.4 7.5 2.1 0 2-.8-.4-4.8-1.7-2.8-4-4.3-4-2.7zm-386 5.2c-5 2.5-11.2 9.1-14.1 14.8-2.8 5.8-3.4 17.4-1 21.8 2.8 5.2 13.3 7.2 21.2 4l4.1-1.6-3.8-1.9c-8.7-4.2-12.9-11.5-12.2-21 .4-5.5.8-6.4 4.1-9.4 3.3-3.1 4.2-3.4 9.9-3.4h6.2l-2-2c-2.9-2.9-8.1-3.4-12.4-1.3zm261.1.7c-.9 1.1-.8 1.8.4 3 2 2 3.5 2 6 .2 1.6-1.2 1.7-1.6.6-3-1.7-2-5.5-2.1-7-.2zm13.9 1.2c-1.4 3.5-1.3 7.7.2 7.2 1.7-.6 4.7-6.8 4.1-8.4-.8-2.3-3.3-1.6-4.3 1.2zm-251.3 5c-.9.9 2.1 7.7 4 9.1 2.4 1.8 4.3 1.6 4.3-.5-.1-2.7-7-9.9-8.3-8.6zm232.3 10.1c0 1 8.2 9.3 9.3 9.3 1.2 0 .8-5.5-.6-7.3-1.3-1.9-8.7-3.6-8.7-2zm14.8 14.7c-1 .7-1.8 1.8-1.8 2.5 0 1.7 4 1.3 4.7-.5.8-2.3-.9-3.5-2.9-2zm-14.8 10.1c-1.6 1.9-.5 4.7 1.7 4.3 2.2-.4 2.9-4.3.9-5.1-.8-.3-2 .1-2.6.8zm-2.4 11c-1.8 1.9-2 3.4-.6 5.5.9 1.3 1.3 1.2 3-.9 2.4-2.8 2.5-3.5.6-5-1.1-.9-1.8-.8-3 .4zm12.4 8.5c0 1.6.5 3 1 3 .6 0 1-1.4 1-3 0-1.7-.4-3-1-3-.5 0-1 1.3-1 3zm-6.8 31.2c-1.4 1.4-1.6 5.8-.4 5.8.9 0 3.2-4.4 3.2-6 0-1.4-1.4-1.2-2.8.2zm-14.8 2.2c-.8 2.1.3 3.6 2.7 3.6 1.5 0 2-.6 1.7-2.2-.4-2.7-3.5-3.7-4.4-1.4zm0 19c-.8 2.1 1.3 4.6 3.2 3.9 2-.8 1.3-4.7-.9-5.1-.9-.2-2 .4-2.3 1.2zm11 .1c-.3.8-.3 1.9.1 2.5.9 1.4 4.5-.6 4.5-2.5s-3.9-1.9-4.6 0zm-.1 17.1c-.3.8-.1 2 .5 2.6 1.6 1.6 4.2.2 4.2-2.2 0-2.4-3.8-2.8-4.7-.4zm-20 11.6c-3.5 1.7-2.7 3 1.4 2.6 2.7-.2 3.9-.8 4.1-2.1.4-2-2-2.2-5.5-.5zm16.4 5.6c-3.5 3.8-.9 7.2 2.7 3.6 2-1.9 2.1-5.4.3-5.4-.8 0-2.1.8-3 1.8zm-29.8 8c.5 1 1.7 2.5 2.6 3.2 2.7 2.2 5.5 8.7 5.5 12.6v3.7l-2.3-2.1c-3.1-2.9-3.9-2.8-9.9 1.2l-5.1 3.5 5.1.7c6.8.9 6.9 2.8.1 2.2-10.1-1-13.3-6-10.5-16.5 2.1-8.2.9-10.3-2.7-4.7-3.3 5-5.1 11.5-4.3 14.8 1 3.9 7.3 7.6 15.3 8.8 12.3 1.8 11.5 1.5 10.8 5.1l-.7 3.2 2.5-2.8c3.1-3.2 6.6-4.7 11.3-4.7 2.8 0 3.6.5 4.4 2.5.6 1.5 1.7 2.5 2.9 2.5 5.2 0 2-4.1-6.6-8.4-2.8-1.4-5.5-3.1-5.9-3.8-.5-.7-.7-3.8-.6-7 .2-5.1-.1-6-2.9-9.3-2.8-3.1-7.6-6.5-9.4-6.5-.3 0-.1.8.4 1.8z"/></g></svg>