<svg xmlns="http://www.w3.org/2000/svg" viewBox="0 0 512 512" style="width:48px;height:48px"><path d="M297.841 259.508v67.249c16.96 6.448 27.968 16.696 27.968 28.264 0 19.112-29.944 34.704-67.385 35.337-.784.048-1.616.048-2.448.048-17.304 0-33.08-3.184-45.289-8.472-14.992-6.472-24.504-16.128-24.504-26.912s9.512-20.432 24.504-26.905c3.688-1.592 7.808-2.92 12.104-4.096v37.833c9.656 4.952 22.144 7.927 35.824 7.927.664 0 1.32 0 1.944-.047V161.387l138.418-72.01L222.792 0v258.812c-122.866 8.24-217.716 61.48-217.716 126.01C5.076 455.055 117.421 512 255.992 512c138.586 0 250.932-56.945 250.932-127.178 0-63.001-90.449-115.218-209.083-125.314zm119.466 176.867c-17.72 0-32.08-14.361-32.08-32.081 0-17.72 14.36-32.08 32.08-32.08s32.08 14.361 32.08 32.08c0 17.72-14.36 32.081-32.08 32.081z" fill="#004c42"/></svg>