<svg version="1.1" id="_x32_" xmlns="http://www.w3.org/2000/svg" x="0" y="0" viewBox="0 0 512 512" style="width:64px;height:64px" xml:space="preserve" opacity="1"><style>.st0{fill:#004c42}</style><path class="st0" d="M417.656 468.125c-12.115 0-21.941 9.814-21.941 21.937 0 12.116 9.826 21.938 21.941 21.938 12.12 0 21.938-9.822 21.938-21.938 0-12.124-9.818-21.937-21.938-21.937zM255.181 96.232c26.561 0 48.116-21.555 48.116-48.112 0-26.59-21.555-48.12-48.116-48.12-26.582 0-48.124 21.531-48.124 48.12 0 26.557 21.542 48.112 48.124 48.112zm121.142 383.475a12.67 12.67 0 00-5.361-8.929 12.575 12.575 0 00-10.252-1.84l-45.173 7.296-63.495-141.144a33.422 33.422 0 01-10.243 4.277c-1.725.391-3.477.598-5.246.725l70.348 161.488c1.9 5.592 7.09 9.399 12.992 9.503l45.755.908a12.557 12.557 0 009.57-4.11 12.57 12.57 0 003.19-9.925l-2.085-18.249z" fill="#fff"/><path class="st0" d="M252.505 302.463l-17.572-95.006s-13.124-73.284-13.367-74.017c-2.016-15.142-6.5-26.764-21.288-34.834-21.351-11.669-47.814-9.782-62.486 22.814-14.673 32.596-50.375 99.22-58.52 118.784-8.153 19.564-8.472 42.632-3.955 61.152l19.58 186.101c-.08 13.486 10.786 24.462 24.263 24.542 13.486.08 24.474-10.778 24.559-24.255l9.506-198.926 35.24-77.116 1.693 6.086 25.864 93.094c2.322 10.093 12.379 16.37 22.448 14.036 10.071-2.31 16.364-12.378 14.035-22.455z" fill="#fff"/></svg>