<svg version="1.1" id="_x32_" xmlns="http://www.w3.org/2000/svg" x="0" y="0" viewBox="0 0 512 512" style="width:32px;height:32px" xml:space="preserve" opacity="1"><style>.st0{fill:#fff}</style><path class="st0" fill="#fff" d="M265.373 0v146.049l166.361-73.013zm223.656 310.082c-20.685-27.047-53.325-49.38-93.476-65.439-21.541-8.564-45.395-15.14-70.747-19.513v33.306c35.341 6.718 66.849 18.222 91.765 32.712 20.123 11.646 35.936 25.122 46.338 38.804 10.442 13.753 15.417 27.308 15.417 40.27-.04 12.953-4.88 25.621-15.123 38.448-15.307 19.132-43.106 37.243-79.225 50.014-36.086 12.834-80.301 20.503-127.978 20.503-63.561.04-121.006-13.729-161.165-34.898-20.107-10.536-35.801-22.904-46.029-35.619-10.252-12.827-15.084-25.494-15.124-38.448 0-12.962 4.975-26.517 15.41-40.27 15.559-20.558 43.47-40.506 79.516-54.814 30.081-12.003 65.764-20.099 104.314-22.436V220.03c-59.434 3.351-113.052 19.038-153.948 42.71-23.086 13.404-42.234 29.297-55.995 47.344C9.249 328.068.859 348.627.859 370.223c-.023 21.604 8.502 41.862 22.397 59.037 20.946 25.843 53.69 46.045 93.785 60.337C157.153 503.848 204.798 511.984 256 512c68.268-.056 130.212-14.419 176.432-38.654 23.118-12.177 42.385-26.825 56.32-44.088 13.888-17.175 22.42-37.433 22.388-59.037.001-21.597-8.389-42.155-22.111-60.139z"/><path class="st0" d="M278.873 370.791c20.17 0 36.522-8.992 36.522-20.098 0-8.477-9.554-15.678-23.038-18.634v-179.87l-26.984 11.852v168.026c-13.484 2.947-23.031 10.149-23.031 18.626 0 11.106 16.344 20.098 36.531 20.098z" fill="#fff"/></svg>