<svg version="1.0" xmlns="http://www.w3.org/2000/svg" width="1706.667" height="853.333" viewBox="0 0 1280 640"><g fill="#004c40"><path d="M474.5 151c-19 1-27.8 2.5-35.1 6.3-1.6.8-7.3 2-12.7 2.5-7.2.8-11 1.7-14 3.5-2.3 1.3-12.3 4.7-22.2 7.5-33 9.4-42.4 12.8-60.7 22-24.1 12.3-28.8 15.4-28.8 19.1 0 4.1 9.2 30.2 15.7 44.8 6.7 15 13.6 27.2 21.5 38 7 9.8 14.8 22.3 14.8 23.8 0 2.4-26.6 27.9-42.3 40.5-19.7 15.8-28.9 22.3-40 28.2-8 4.2-8.4 4.3-17.7 4.3-16.6 0-26-6.2-26-17.2 0-4.7-3.6-28.4-5-33.6-.7-2.5-1.7-3.7-2.8-3.7-3.4 0-4 1.8-2.6 7.5 1.8 7.9.1 12.5-2.7 7.3-.7-1.2-3.3-4.5-5.9-7.3-9.3-9.9-12-14.2-12-19.2 0-4.1.5-5.1 4.9-9.4 2.6-2.7 5.7-4.9 6.9-4.9 1.1 0 5.6-1.4 9.9-3 6-2.4 8.9-4.2 12.3-7.9 5.5-5.8 8.2-7.7 18.8-13.1 5.8-3 9.6-5.7 12.7-9.4 2.5-2.8 4.5-5.5 4.5-6.1 0-.6 2.5-3.5 5.6-6.5 4.6-4.5 22.2-24.7 27.2-31.1.7-.9 1-2.4.6-3.3-1.3-3.4-4.4-1.4-12.1 7.6-15 18-20.6 23.7-26.7 27.7-3.3 2.2-9.2 7.1-13.1 10.8-3.8 3.8-8.8 7.9-11 9.3-2.2 1.3-6.5 4.8-9.5 7.8-5.4 5.2-13 9.2-20.4 10.8-4.9 1-13.1 7.7-15.5 12.7-4.4 9.2-2.1 16.1 9.7 29.1 4.9 5.4 8.1 9.9 8.9 12.4.7 2.2 2.7 6.4 4.4 9.4 1.7 2.9 4 7.8 5.1 10.8 3.8 11.2 9.1 16.1 21.2 19.5 7.9 2.3 20.6 1.6 34.6-2 14.6-3.7 18.7-6.2 31.4-19.2 7-7.2 12.7-12.2 16.1-14 3-1.5 5.1-3.1 4.9-3.5-.3-.4.2-.8 1.1-.8 2.9 0 9-3.8 17-10.5 4.4-3.6 9.2-7.3 10.8-8.1 3.1-1.6 3.1-1.6 4.2 5 .8 4.7 6.1 10.6 9.5 10.6 4.2 0 18.2-10.3 28-20.6 5.2-5.5 11.5-11.5 14-13.4 6.7-5.2 7.6-7.1 4-9-2.9-1.6-9.3 3.1-21.9 16.2-11.4 11.9-18.8 17.3-22 16.3-1.3-.4-2.4-2.1-3.2-4.8-.6-2.3-1.6-5.1-2.3-6.2-.7-1.1-1.9-3.8-2.6-6-2-6.1-10.5-22-15.7-29.4-18.4-25.9-27.9-44.7-37.8-74.9-3.2-9.6-3.5-11.6-2.4-12.7 2.2-2.1 26.5-15 37.5-19.9 9.1-4 32.8-11.6 55.9-17.9 5-1.3 11.1-3.6 13.7-5 3.4-1.8 7-2.7 13-3.2 4.6-.4 10.3-1.6 12.7-2.6 8.7-3.8 15.7-5 36.1-6 24.2-1.3 56.2-.6 64 1.4 3 .7 12.1 4.7 20.1 8.8 8 4.1 19.2 9.6 24.9 12.3 11.2 5.4 22 14.4 22 18.3 0 2.7 2.3 4.5 4.5 3.7 2.2-.9 1.5-6.4-1.6-10.8-3.4-5-13.1-12.1-23-16.7-5.1-2.4-16.2-7.9-24.6-12.2-9.5-4.9-17.9-8.4-22.1-9.3-8.2-1.9-43.3-2.6-66.7-1.4zM356.9 330.1c.7 2.3 1.1 4.2.9 4.4-.2.1-2.1 1.4-4.3 2.7-2.2 1.4-7.3 5.3-11.3 8.7-7.6 6.4-13.2 9.8-13.2 8.2 0-1.6 24.6-28.1 26.1-28.1.3 0 1.1 1.8 1.8 4.1zm305.6-171.5c-4.5 2.3-6.9 4.9-10.1 10.7-1.5 2.9-3.4 5.9-4.3 6.7-2 2-5.8 10.8-6.6 15.1-.9 4.9 1.9 7.5 8.9 8.4 2.8.4 6.3 1.4 7.8 2.1 1.5.8 3.8 1.4 5.2 1.4 1.4 0 2.7.4 3 .9.9 1.3 13 5.1 16.4 5.1 1.7 0 4.3.7 5.8 1.5 1.6.8 3.6 1.5 4.5 1.5.9 0 3 .7 4.5 1.5 1.6.8 3.9 1.5 5 1.5 1.2 0 2.7.6 3.3 1.4.7.8 2.7 1.8 4.4 2.1 3.9.9 14.2 5.6 21.5 10.1 3.1 1.8 5.9 3.1 6.2 2.9.4-.2.9-5.8 1.2-12.3.5-10.7.9-12.4 3.8-18.1 1.7-3.5 3.4-8.4 3.7-11 .8-6.7-1.6-9-14.7-14.1-5.8-2.3-15.8-6.6-22.4-9.7-17.9-8.3-39.2-11.8-47.1-7.7zm29 6.9c3.3.9 11.2 4.1 17.5 7 6.3 3 15.1 6.8 19.5 8.5 14.3 5.6 14.6 6.2 8.9 17.7-3 6.2-3.9 7.3-6.7 7.8-1.8.4-6.5 2.5-10.6 4.7-5.8 3.2-7.8 3.8-9.5 3-1.9-.8-1.4-1.3 5-5.4 3.9-2.6 7.4-5.3 7.7-6.2.9-2.2-.1-4.4-2.4-5.1-1-.4-3.1-1.6-4.7-2.9-3.3-2.7-10.8-5.6-15.4-6-1.8-.1-4.7-1-6.5-1.9-1.8-.9-4.1-1.7-5.2-1.7-1.1 0-2.3-.5-2.6-1-.3-.6-2.2-1-4.1-1-1.9 0-4.7-.6-6.2-1.3-1.5-.8-5.4-1.9-8.7-2.7-12.1-2.6-12.6-3.2-8.3-9.6 3.9-5.8 6.2-6.6 16.8-6 5.2.3 12.2 1.2 15.5 2.1zm-27 18.5c1.7.6.8 1.3-5.4 4.3-4 2-8.2 4.4-9.2 5.3-1.6 1.4-2.2 1.5-3.2.5-.9-1-.9-1.4.3-2.1.8-.5 4.2-2.7 7.5-4.9 6.4-4.2 6.9-4.4 10-3.1zm9.1 2.1c.8 1.4-.7 2.4-7.8 5-3.1 1.2-6.5 3-7.4 4-1.6 1.8-7.4 2.7-7.4 1.1 0-.8 18.8-11 20.7-11.1.6-.1 1.5.4 1.9 1zm8.9 2.9c-.4.6-3 2.2-5.8 3.6-2.9 1.5-6.6 3.7-8.4 5-3.2 2.4-6.7 3.1-7.7 1.5-.8-1.2.9-2.3 8.6-5.5 3.7-1.5 7.2-3.4 7.9-4.2 1.3-1.6 6.4-2 5.4-.4zm9.4 1.9c2.1 1.4.7 2.5-6.7 5.4-3.8 1.5-7.8 3.6-9 4.7-1.2 1.1-3 2-4.1 2-3.8 0-3.1-1.9 1.6-4.6 2.7-1.4 6.8-3.9 9.3-5.4 4.8-3 6.7-3.5 8.9-2.1zm11.6 3.1c1.7.7.9 1.3-5 4-3.8 1.8-8.5 4.3-10.3 5.7-2.2 1.6-4.2 2.3-6.4 2.1-4.6-.4-4.5-2.4.4-4.5 2.3-1 7.2-3.2 10.8-5 7-3.5 7.5-3.6 10.5-2.3zm7.5 3c1.1.7-.2 1.6-5.3 3.9-3.7 1.7-7.7 4.2-9 5.6-2 2.4-2.5 2.5-5.1 1.5-2.9-1.1-2.9-1.1-.8-2.6 1.1-.8 5-2.7 8.5-4.3 3.6-1.6 6.8-3.4 7.1-4 .9-1.3 2.6-1.4 4.6-.1zm7.4 3.9c.4.5-1.8 2.4-4.6 4.1-2.9 1.8-6.3 4.1-7.4 5.2-1.6 1.4-2.9 1.7-4.8 1.2-4-1-2.9-3.4 2.9-6.1 2.8-1.3 6.1-3 7.5-3.7 3-1.7 5.7-1.9 6.4-.7zm15 10.4c-.2.7-2.8 2.1-5.7 3.1-2.8 1-5.8 2.1-6.4 2.3-.7.3-1.3.1-1.3-.4 0-1.2 9.9-6.3 12.2-6.3 1 0 1.5.5 1.2 1.3z"/><path d="M613.7 179.6c-1.3 1.3-.7 7.9 1.2 11.9 2.2 4.9 9.3 11.6 15.8 14.8 2.6 1.3 9.2 4.1 14.7 6.2l9.8 3.8-3.7 1.3c-4.7 1.6-8.2 4.8-9.5 8.8-.5 1.7-1.1 8-1.3 14-.2 10.6-.1 10.9 2.4 12.8 3.3 2.5 9.4 1.4 9.4-1.8 0-1.5-.8-2-3.8-2.2l-3.7-.3.6-8.2c1.1-14.7 2.1-16.6 9-18.1 3-.7 3.5-.3 7.6 5.1 6.9 9.1 10.7 8 7.2-2.2-1-3-1.6-5.7-1.3-6 .9-.8 26.9 6.1 36.5 9.8 10.6 4.1 26 11.7 29 14.3 1.9 1.6 2 2.4 1.2 5.3l-.9 3.4-5.7-5.6c-5.6-5.5-8.4-6.8-9.7-4.6-.7 1 11 12.5 15.1 14.7 2.1 1.1 2.5 1 3.9-1.7.8-1.7 1.5-3.8 1.5-4.8.1-4.4 1.4-4.4 12 .7 11.9 5.6 20 7.8 23.6 6.1 3.6-1.6 2-4.1-2.6-4.1-6.9 0-18.4-4.9-36.7-15.7-17.6-10.3-32.3-16-56-21.8-8.1-2-16-3.4-17.4-3.1-1.4.3-3 .1-3.5-.3-.5-.5-6.3-2.9-12.9-5.5-19.1-7.3-25-12.4-27.3-23.3-.7-3.5-2.9-5.3-4.5-3.7zM546 185c-8.2.4-16.7 1.4-19.5 2.3-2.7.8-8.4 2.5-12.5 3.7-4.1 1.2-9.2 3.1-11.2 4.1-2.1 1.1-4.7 1.9-5.9 1.9-1.2 0-8.7 1.6-16.8 3.6-8 1.9-20.9 4.7-28.6 6-26.3 4.5-35.7 12-40.5 32.3-1.7 7.1-.8 21.1 2 31.5 1.2 4.4 5.2 16.1 8.9 26 7.9 21.3 9 24.6 10.5 34.6 1.1 7 1.3 7.5 3.8 7.8 1.9.2 2.8-.2 3.2-1.6 1.1-3.4-2.3-18.8-7-31.8-2.6-7.1-6.4-17.8-8.6-23.9-2.2-6-4.6-14-5.4-17.8-4.5-21.5 1.7-39.6 15.8-45.7 2.9-1.2 13.1-3.7 22.8-5.6 9.6-1.8 22-4.5 27.5-6 8.8-2.4 12-2.7 26-2.9 22-.2 22-.2 20.5-2-.7-.9-2.9-1.5-5.4-1.5-3.6 0-10.3-2.9-6.8-3 .6 0 2.1-.9 3.1-1.9 3.6-3.6 11.6-5.3 27.6-5.7 17.1-.6 19.5-.9 19.5-2.8 0-1.7-2.3-2.7-5.8-2.4-1.5.1-9.2.4-17.2.8zm67.5 32c-.3.5-1.4 4.4-2.5 8.7-3.3 12.8-8 23.2-15.7 34.5-8.9 13.2-12.1 19.4-13.3 26-.9 4.3-.8 5.5.5 6.8 1.5 1.4 1.8 1.3 3.1-.4.8-1.1 1.4-3.4 1.4-5 0-4.3 3.7-11.7 11.2-22.7 7-10 10.6-16.7 13.8-25.1 2.9-7.9 6-20.6 5.4-22.3-.7-1.7-3-2-3.9-.5z"/><path d="M631 220.2c-6.5 25.3-36.6 80.2-54.7 99.8-7.3 7.9-10.1 9-18.2 7-4.4-1-8.7-3.4-15.9-8.6-2.1-1.5-2.5-1.6-3.8-.2-4 4 11.8 13.9 23.3 14.6 3.7.3 7.6-.1 9.3-.8 13.4-5.6 51.8-68.6 63.2-103.6 3.2-9.9 3.2-12.4-.1-12.4-1.5 0-2.3 1-3.1 4.2z"/><path d="M481 231.5c-1 1.2-.4 2.3 3.2 6.5 4.2 4.9 5.8 8.7 6.1 14.4.3 4.7-2.2 4.2-7.7-1.6-2.8-3-6.4-6.3-7.9-7.3-2.5-1.6-3-1.6-4.3-.3-2.1 2-1.2 3.4 7 10.6 16.4 14.5 18 16.1 17.5 16.7-.4.3-1.8.1-3.3-.5-4.1-1.5-7.6-1.3-7.6.5 0 2.9 3.3 6.7 11.2 12.6 4.3 3.3 7.8 6.5 7.8 7.2 0 .7 1.6 4.5 3.7 8.4 2 4 3.5 7.4 3.2 7.7-.2.2-2.9 0-5.9-.5-8.9-1.3-34.8-1-43.2.6-9.2 1.6-14.4 4-17.2 7.8-1.8 2.5-2.1 4.4-2.3 15 0 6.7.4 13.4.9 15 1.5 3.9 5.3 4.6 9.8 1.8 14.4-8.9 28.2-13.1 43.5-13.1 5.6 0 10.5.3 10.8.7 1.1 1.1 10.9 4.3 14.6 4.8 5.7.7 7.1 1.5 7.1 3.9 0 3.8 5.5 18.5 11.6 31.1l5.9 12-.1 9c0 4.9-.6 10.8-1.2 13.1-.7 2.3-1.6 7.9-2.2 12.5-.5 4.6-1.4 10.4-2.1 12.9-.6 2.5-1.2 7.7-1.3 11.7-.3 9.2-2.4 11.8-8 9.7-2.7-1-1.9-8.7 2.5-24.6 3.8-14 4.6-21.3 2.4-21.3-.5 0-1.3 2.6-1.7 5.7-.4 3.2-2.1 10.6-3.9 16.5-1.7 5.9-3.4 13.5-3.6 16.8-.5 5.1-1 6.4-3.7 8.7-3.8 3.3-4.4 3.3-7.7.5-4-3.6-4.5-11.6-1.2-19.8 2.9-7.1 8.4-28 7.6-29.1-1.2-2.1-2.2.1-4.7 10.4-2.6 10.9-6.5 22.1-8.4 24-1.3 1.3-6.8-1.6-8.2-4.2-1.1-2.1-.4-11.2 1.1-14.2 2.1-4 7.9-29.2 7-30.1-1.3-1.3-2.5 1.6-5.1 12.3-2.8 11.6-5 18-6 18-2 0-3.2-4.4-2.6-9.4 1.8-13.8 2.4-24.4 1.5-28.3-.5-2.3-3.5-9.5-6.7-16-3.9-8.2-6.3-14.4-7.4-20.3-1.9-9.2-4-12.2-6.6-9.6-1.3 1.2-1.2 2.6.2 10 1 4.7 1.5 9 1.2 9.4-1 1.7-9.9 3.6-16.1 3.5-3.4 0-8.8-.8-12-1.8-6.6-1.9-17.7-7.2-21.5-10.3l-2.4-2 2.8-3.6c3.1-4.1 2.8-6.9-.6-6.4-2.4.3-7.3 6.8-8.2 10.9-.5 2.3.2 3 7.2 7.2 9.4 5.6 15 8.1 22.7 10.2 7.4 1.9 18.7 1.9 24.8.1l4.7-1.4.6 2.6c2.2 10.1 5.9 18.4 10.4 23.6l3 3.4-1.2 10.1c-.6 5.5-1.5 10.6-1.8 11.2-.8 1.1-17.5-.1-30.7-2.3-6.6-1.1-7.4-1-9.2.6-3 2.7-3.7 7.8-1.6 11.4 3.2 5.4 10.1 7.3 32 9.2 7.2.6 13.2 1.6 13.4 2.2.8 2.4 6.7 8 9.7 9.3 2.9 1.2 3.4 1.9 3.4 4.9 0 4.5 3.3 12.2 5.9 13.5 3.4 1.9 5.5 1.2 10.1-2.9 2.5-2.2 5.1-3.8 5.8-3.5 3.9 1.5 6.5 1.6 9.2.5 3.1-1.3 7-6.5 7-9.4 0-.9.4-2.4.9-3.4.5-.9 1.2-2.5 1.5-3.4 1-3.5 16.5-3.5 63.1-.1 19.8 1.5 67.4 2.3 89 1.5 4.4-.1 16.1.4 26 1.3 9.9.8 24.5 1.8 32.5 2.1 13.6.6 14.8.5 19.7-1.5 2.8-1.3 6.1-3.3 7.3-4.6 1.2-1.3 4.5-3.5 7.4-5 4.7-2.3 6.3-4 13.1-13.6 3.3-4.8 8.5-3.3 8.5 2.3 0 4.6-7.7 17.8-10.4 17.8-.5 0-1.8.9-3 2s-3.6 3.3-5.3 4.9c-1.8 1.6-3.3 3.8-3.3 4.9 0 2.8-12.8 15.2-15.7 15.2-1.3 0-4.6 1.1-7.3 2.5-5.3 2.7-9 3-16 1.4-4.7-1.1-21-8.3-21-9.4 0-.3 1.6-2.8 3.5-5.6 3.9-5.7 4.2-6.7 2.1-7.5-1.9-.7-6.5 1.7-13 7-3 2.5-7.7 6.1-10.6 8.2-4.7 3.3-5.3 3.6-7.5 2.4-1.4-.7-4.3-4.1-6.5-7.5-5.1-7.8-8.2-10.8-10.3-9.9-2.1.8-2.2 4.7-.3 6.3.8.7 3.3 4.1 5.6 7.6 5.8 8.9 9.3 10.9 17.9 10.3 4.5-.3 8.4-1.4 11.9-3.1 3.1-1.5 5.2-2.1 5.2-1.5 0 .7 1 2.2 2.2 3.5 1.2 1.3 1.9 2.6 1.5 2.9-2.5 2.5-19.6 3.1-38.9 1.3-10.6-1-12.2-.9-13.6.5-1.4 1.4-1.5 1.8-.1 3.1 2.3 2.3 21 3.8 37.9 3 19.3-.9 32.7-1.1 61.5-.6 24.4.4 46-.8 50.5-2.9 1.8-.8 4.7-.8 10.5 0 17.6 2.4 16.2 2.4 17 0 .5-1.5 1.2-1.9 2.3-1.4 3.6 1.5 11.8 3.4 14.8 3.4 1.7 0 5.1-.6 7.5-1.3 2.4-.7 7.3-1.2 10.9-1.1 10.3.3 39.3 2.4 41.3 3 1.8.6 4.7-1.1 4.7-2.7 0-1.9-5.5-2.9-21.3-3.9-23.5-1.5-23.4-1.5-24.1-5.6-.7-3.5-.9-3.6-6.6-3.9-1.9-.1-7.5-.8-12.3-1.5-7.7-1.2-9.8-1.9-15.8-5.9l-7-4.6 11.3-.3c6.2-.2 29.3.6 51.3 1.7 22 1.1 46.9 2.2 55.3 2.3l15.4.3 2.4-2.8c2.4-2.8 5.4-11.3 5.4-15.2 0-1.1 1.3-5.9 3-10.5 3.4-9.7 3.6-11.9 1.5-16-2.7-5.2-12.7-6.2-17.4-1.9-2.9 2.7-3.5 6-2.6 14.3 1.3 12.3 1.4 19 .4 22.8l-1 3.8h-16.2c-8.9 0-28.3-.7-43.2-1.5-14.8-.8-36.3-1.7-47.7-2-15.1-.4-21.9-1-25-2.1-3-1.1-8.6-1.7-19-1.8-8.1-.1-15.1-.5-15.4-.9-.4-.4.5-2.2 2-4.2 3.6-4.7 7.6-13.4 7.6-16.7 0-1.5-.4-3.8-1-5.2-1.3-3.5-8.6-10.6-10.9-10.6-2.8 0-6.8 3.7-8.1 7.4-1.6 5.1-3.5 6.1-9.9 5.8-4.5-.3-7.3.3-13.5 2.8-4.3 1.7-9.5 3.4-11.5 3.8-2.6.6-3.6 1.3-3.6 2.7 0 3 5.7 2.4 15.3-1.4 5.4-2.2 9.2-3.1 11.8-2.9l3.9.3-4.5 2.4c-2.5 1.3-6.2 3.9-8.2 5.7-5.8 5.2-9.7 5.8-28.8 4.5-9.1-.7-21.2-1.6-26.9-2.1-5.8-.6-12.8-1-15.7-1-2.8 0-6.8-.7-8.9-1.6-8.1-3.3-44.8-6.5-102.5-8.9-20.1-.8-39.5-1.8-43.2-2.1-8.1-.7-7.9 0-4.7-17.4 3.2-17.5 2.6-21.8-5.4-38.7-9.5-20-12.2-29.7-9.6-34.5.7-1.2 1.1-4.5 1.1-7.4-.1-8.8-5.5-16.6-13.7-19.5-3-1.1-4.2-2.6-8.1-10.2-2.5-4.9-4.3-9.5-4-10.3.8-2.1 13.3-1.9 17.7.3 5.4 2.8 18.8 2.5 26.4-.7 4.5-1.9 6.1-3.1 6.3-4.8.5-3.4-1.9-3.6-10.2-.8-4.1 1.4-8.5 2.6-9.8 2.6-2.3 0-4.8-1.6-4.8-3.1 0-.8 11.7-6 18.8-8.3 3.9-1.3 5.2-2.2 5.2-3.7 0-1-.5-1.9-1.1-1.9-.5 0-6.1 2.1-12.2 4.6-14.2 5.8-19.3 7.1-29.3 7.6l-8 .4-4.3-9.4c-3.1-6.7-4.1-10.1-3.6-11.9.6-2.4.7-2.5 2.5-.8 1.1 1 2.4 3.2 3 5 1.3 3.8 3.3 5 5 3 1.9-2.3.1-7.4-3.9-11.4-2-2-5-5.5-6.6-7.6-3.3-4.5-16.4-17.5-17.5-17.5-.4 0-1.3.7-2 1.5zm14.2 79.4c6.5.5 12.3 1.3 13 1.9.8.6 3.8 1.4 6.7 1.8 8.8 1.1 15.3 8.9 13.5 16.1-.8 3-3.1 2.9-6.5-.3-4-3.8-8.6-4.4-24.9-3.4-20 1.3-34 5.2-44.7 12.4-2 1.4-4.1 2.6-4.5 2.6-.5 0-.8-5.4-.8-11.9 0-11.7.1-12 2.6-14 6.1-4.8 22.9-6.7 45.6-5.2zm-25.7 110.6c6.6.8 13.8 1.5 16.1 1.5 3.3 0 4.4.5 6.2 3 2.4 3.2 2.9 6 1 6-5.1-.1-31.4-3.1-34.6-3.9-4.9-1.4-7.3-3.9-6.5-7 .5-1.9 1.1-2.2 3.2-1.7 1.4.3 8 1.3 14.6 2.1zm522.3.3c.4 2.5-4.7 18.2-5.8 18.2-.4 0-1.3-4-2-9-1.5-10.4-.8-12.3 4.4-11.8 2.4.2 3.2.8 3.4 2.6zM595 433c39.8 1.6 60 2.9 79.4 5 9.9 1.1 18.1 2.2 18.3 2.4.2.2-4.9.7-11.4 1.1-13.6.9-33.4.2-72.8-2.5-15.4-1.1-35.3-2-44.1-2-13.1 0-16.4-.3-17.4-1.5-.7-.8-.9-2.2-.6-3.1.6-1.5 2-1.6 11.9-1 6.1.3 22.7 1.1 36.7 1.6zm246.7 22.6c3.1.8 5.7 2.2 6.3 3.4.5 1 3.8 3.6 7.2 5.7 5.8 3.6 6 3.8 3.4 4.1-3.8.5-7.8-1.2-15.9-6.6-5.9-4-6.9-4.4-8.2-3.1-1.9 1.9-1.2 2.8 6.3 7.8 6.5 4.4 7.1 5.4 4.7 8.5-1.2 1.6-2.2 1.8-6.7 1.2-11.1-1.5-23.5-6.9-31.5-13.7-1.7-1.5-4.5-3-6.2-3.4-3.7-.8-4-2.7-.8-4.8 1.8-1.2 5.2-1.4 19.2-1 10.3.3 19.1 1 22.2 1.9zm-39.2 15c2.8.3 6.8 1.8 9 3.2 3.9 2.5 3.9 2.5 1.5 3.4-3.2 1.2-27.2 2.3-29.6 1.4-1.5-.6-1.1-1.3 2.7-5.2 3.9-4 4.8-4.4 7.9-4 1.9.3 5.8.8 8.5 1.2zm74.6 2.5c7.2 1.2 7.5 1.4 5.9 3.9-.7 1.1-2.8 1.5-8.2 1.5-4 0-8.1-.3-9.1-.7-1.7-.8-1.7-.9 0-3.3 2.1-2.8 2.2-2.9 11.4-1.4zM349.6 244.7c1.1 4.6 7.5 16.3 12 22.2.1.1.7 0 1.3-.3.6-.4-1-3.8-4-8.4-2.8-4.2-5.5-9.6-6.2-11.9-1.2-4.8-4.2-6.2-3.1-1.6zm353.9 5.7c-4.2 1.9-7.2 5.3-5.7 6.8.8.8 1.9.4 4.3-1.6 2.9-2.5 3.8-2.7 8.8-2.3 3.1.3 6.8.8 8.4 1.2 2.1.6 2.7.4 2.7-.8 0-1.8-7.8-4.7-12.4-4.7-1.7.1-4.4.7-6.1 1.4zm10.5 23.2c-2.2 2-4 4.4-4 5.4 0 2.6 2.9 3.3 5.7 1.5 2.6-1.7 6.3-7.2 6.3-9.3 0-2.4-4-1.2-8 2.4zm14.9 1.1c-3.1 7.6-1.6 16.5 2.4 15 1.4-.5 1.5-1 .5-3.2-.9-2-.9-3.7.1-7.5 1.2-4.8.9-7-1-7-.5 0-1.4 1.2-2 2.7zM363 284.5c0 .4.7 1.9 1.5 3.4 1.8 3.6 6.4 5.5 11.2 4.8 4-.7 14.3-5.6 14.3-6.8 0-1.9-2-1.6-7.5 1.2-7.6 3.8-11.6 3.8-14.8-.1-2.3-2.7-4.7-3.9-4.7-2.5z"/><path d="M743.5 286.7c-4.4 2.3-8.5 6.4-8.5 8.5 0 1.1.7 3.2 1.5 4.8 2.5 4.9-.2 8-6.9 8-4.6 0-8.6-1.6-8.6-3.4 0-2.2-4-4.6-7.8-4.6-3.5 0-8.4 2.1-11.7 5-2.8 2.4-18.7 8.6-26.9 10.5-7.1 1.7-20.3 2.1-25.1.9-1.6-.4-5.3-2-8.3-3.6-3-1.5-6.4-2.8-7.6-2.8-1.1 0-5.9-2.7-10.5-6-6.6-4.8-8.7-5.8-9.7-4.9-1.9 1.5-1 2.5 7 7.9 7.7 5.2 7.4 6.8-1 5.1-7.4-1.4-8.4-1.4-8.4.3 0 2.2 2.8 2.8 14 3.1 11.2.2 15 1.3 15 4.6s2.6 7.2 7.9 11.7c5.1 4.3 6.3 6.6 3.9 7.5-1 .3-.9 1.3.5 4.1.9 2 1.7 3.8 1.7 4 0 1.4-7.2 1.2-13.7-.4-5-1.3-8-1.7-8.7-1-2.3 2.3 14.8 6.6 21 5.2 6.1-1.4 13.8-.7 17.5 1.4 2.9 1.7 3.5 2.7 3.9 6.6.7 5.3 2.4 7.6 9.6 12.4 2.8 1.9 8.4 7.1 12.4 11.7 4 4.5 11.6 12.5 16.9 17.8 5.3 5.3 12.1 12.3 15.1 15.6 4.3 4.6 6.7 6.4 10.8 7.8 3 .9 6.9 3.1 8.8 4.7 2.8 2.5 3.7 2.8 4.9 1.8.8-.7 1.5-1.8 1.5-2.5 0-2.2-6.5-7.1-12.1-9.1-3.7-1.3-6.6-3.3-9.4-6.3-2.2-2.5-8.3-8.8-13.5-14.1-5.2-5.3-13.5-14-18.4-19.3-4.8-5.4-11.5-11.6-14.7-13.8-5.5-3.7-5.9-4.2-5.9-7.9 0-5.4-4.3-10.3-10.7-12-5.7-1.5-10.3-5.9-10.3-9.8 0-1.9-1.6-4.2-6-8.4-3.3-3.1-6-5.9-6-6.1 0-.2 2.6 0 5.8.5 10.7 1.8 26.1-1.1 41.7-7.8l8-3.4 4 2c5.1 2.6 9.9 2.6 12.3 0 1.6-1.7 2.4-1.9 4.6-1 7.3 2.7 15.8.2 18.2-5.6 1.3-3 1.3-3.8-.1-6.4-2.3-4.5-1.9-5.7 3.5-8.6 3.2-1.7 5-3.4 5-4.6 0-2.2-2.4-2.3-6.5-.1zm-177.2 12.5c-.6.7-1.8 3.9-2.7 7.2-1 3.2-2.7 7.1-3.8 8.7-3.9 5.3 1 8.5 5.1 3.3 2.3-2.9 6.4-15.6 5.9-18.2-.4-2.1-3.1-2.7-4.5-1zm23.4 17.5c-3.6 3.8-7.9 13.7-8.5 19.4-.4 4-.1 4.8 1.9 6.3 2.9 2 11.7 2.1 16.4.2 5.7-2.4 6.9-7.2 3.9-15.8-1.6-4.8-7.7-12.8-9.8-12.8-.7 0-2.4 1.2-3.9 2.7zm-421.5 28.7c-11.6 10.9-36.6 29.7-57.8 43.4-12.1 7.8-24.5 16.3-27.8 18.9-8.8 7.2-8.4 7-10.2 5.2-1.4-1.5-1.4-1.7 1-2.3 3.9-1 3.1-2.3-2.5-4.1-5.4-1.8-9.9-1-9.9 1.8 0 .7-1.6 2.9-3.6 4.8-4.5 4.3-9.7 13.7-11.9 21.3-1.4 4.8-1.6 8.6-1.2 21.7l.6 15.9h-2.5c-12.5.3-21.7.1-22.2-.4-1-1.1-5.8-.6-7.7.8-1.6 1.2-2.2 1.2-4.1 0-4-2.7-9.5 1.6-7.8 6 .4 1.1 1.3 1.5 2.3 1.1 4.4-1.8 7.7-1.7 9.5.4 2.2 2.4 4.6 2.6 8.4.7 4.2-2.1 29-2.7 37.2-.8 7.4 1.7 29.8 2 37.2.5 3.1-.7 5-.7 5.7 0 1.2 1.2 8.1 0 8.1-1.4 0-.5-.7-1.2-1.5-1.5-.8-.4-1.2-1-.9-1.5.6-1.1 5.4-1.2 5.3-.2-.5 3 .5 4.6 3.6 5.9 4.2 1.7 10.9 1.8 16.8.2 3.8-1 6.2-.8 18.1 1.6 11 2.3 15.3 2.7 21.4 2.2 9.6-.7 9.5-.7 19.5-.6 5.9.1 11.4-.6 19.7-2.6 16.3-3.8 16.5-3.8 22.7-1.9 4.6 1.5 7.8 1.7 17.6 1.2 10.6-.5 12.5-.3 15.6 1.4 4.4 2.3 7.9 2.4 11 .3 2.2-1.6 2.4-1.6 3.3.1.6.9 1.9 2.6 2.9 3.6 1.7 1.7 2.2 1.7 5.1.5 4.4-1.9 17.4-4.6 21.8-4.6 4.7 0 6.2-1.2 5.8-4.5-.4-3.9-3.6-4.6-13.9-2.9-9.6 1.6-14.4 1.1-16.2-1.6-1.5-2.5-3.4-2.5-9.4-.1-3.7 1.5-7.9 1.9-18.3 2.1-15.7.3-18.7.3-21.8-.5-2.2-.5-2.1-.8 2.2-5 5.3-5.1 6.2-9.8 2.5-13.1-1.1-1-2.6-3.2-3.3-4.9-3.1-7.1-8.7-9-22.1-7.3-7.7 1-10.2.9-18.1-.7-8.6-1.7-14.4-1.5-14.4.4 0 .5 1.4 1.1 3 1.4 3.7.8 3.8 2 .5 3.5-1.4.6-2.5 1.6-2.5 2.1 0 1.3-8.7 4.1-13 4.1-4 0-6.1 1.5-5.3 3.6.7 2 9.3 1.8 15-.4 2.7-1 6.6-1.9 8.8-2 2.1-.2 6.6-1.4 10-2.8 6.5-2.6 24.2-5.2 28.6-4.1 1.4.4 3.1 1.8 3.7 3.2 1.1 2.4.9 2.7-4.8 6.5-4 2.5-11.4 5.6-21.3 8.8-8.4 2.7-18.1 6.2-21.6 7.7-9.5 4-17.7 4.2-33 1.1-6.8-1.4-13.5-2.6-14.9-2.6-4.7 0-26.2-7-35.8-11.7l-9.5-4.6L74 458c-17-.6-18.1-.8-20.5-3-1.4-1.3-2.7-3.7-3.1-5.5-1.4-7.8 4.2-23.7 10.9-30.9 3.5-3.6 3.8-3.8 5.5-2.3 1 .9 4.9 2.9 8.7 4.5 3.9 1.7 10.4 4.5 14.5 6.3 6.7 3 8.5 3.4 16.6 3.4 8.2 0 9.4-.2 12.5-2.6 4.9-3.7 25.6-10.4 27.5-8.8 2 1.6 1.7 2.9-.6 2.9-2.2 0-7 4.2-7 6.1 0 1.1 1.6 1 9.8-.7 3.5-.7 3.9.1 1.7 3-3 3.9-2 4.8 4.6 4 6-.7 6.1-.6 8.9 2.7 1.6 1.9 2.9 3.7 3 4.1 0 .3-2.6 2.1-5.7 3.8-7.2 4-9.3 5.8-9.3 8 0 3.1 2.4 2.9 8.7-.9 3.3-2 7.5-4.4 9.2-5.3 4.1-2.3 4-5-.4-11.8-1.9-3-3.5-5.9-3.5-6.5 0-1.8-5.6-6.6-10.7-9.4-4.6-2.5-4.8-2.8-4.5-6.6.2-3.4 1.1-4.8 5.8-9.2 6.8-6.5 12.7-10.5 32.9-22.2 18-10.5 19.5-11.5 17.8-13.2-.9-.9-5.4 1.3-18 8.6-20.8 12.1-27 16.2-35.3 23.5-6.5 5.7-6.6 5.7-13.2 5.9-9.7.2-18.4 3.7-21 8.5-.7 1.2-1.4 3.7-1.7 5.6-.5 2.8-1.3 3.9-4.5 5.4-3.5 1.7-4.7 1.8-10.3.9-3.5-.6-10-2.8-14.5-4.9l-8.1-3.8 4-3.6c4.5-3.9 10.1-7.8 35.7-24.4 17.1-11.2 42.4-30.4 51.3-38.9 2.4-2.2 4.5-3.9 4.7-3.6.2.2.7 1.5 1.1 2.9.5 2.2 0 3-3.2 5-5.1 3.4-6.2 6.7-3.6 11.6 1.1 2.2 3.2 4.6 4.6 5.4 2.6 1.5 2.8 1.4 6.3-2.4 2.7-3 4-3.7 6-3.3 2.3.4 2.5.2 1.8-2.7-.3-1.7-1.7-5.1-3-7.6s-2.4-5.1-2.4-5.8c0-2.3-3.9-8.9-5.5-9.6-3.2-1.2-4.7-.5-10.3 4.8zm-23.2 67c0 .9-3.3 2.3-8.7 4-4.9 1.5-9.8 3.1-11 3.6-1.7.7-2.3.6-2.3-.3.1-4.1 8.8-8.6 16.8-8.7 3.8 0 5.2.4 5.2 1.4zm93.7 49.3c.5 1.2-.9 3.1-5 6.8-5.5 5.1-6 5.3-19.4 8.5-13.9 3.3-27.7 5.1-25.8 3.3.6-.5 7.8-3.1 16-5.7 14.8-4.8 24.7-9.1 29.4-12.7 2.9-2.3 4-2.4 4.8-.2zm-143.9 2.8c3.3 1.3 4.1 2.1 3.6 3.4-.3.9-.9 2.6-1.1 3.9-.3 1.3-1.6 2.5-3.2 2.9-4.6 1.3-28.3.9-34.8-.6l-6.3-1.4v-4.8c0-6.3.9-6.5 21.2-5.8 12.4.4 17.3 1 20.6 2.4zm506.8-115.9c-1.2 3.2 8.1 16 15.8 21.6 2.3 1.6 4.6 3.8 5.1 4.8 1 1.9 10.1 13 16.9 20.7 2.2 2.4 8.1 7.5 13.2 11.3 5 3.8 11.8 9.8 15 13.4 6.2 6.9 7.4 7.6 9.4 5.1 2.9-3.5-4-12-19.6-23.7-10.1-7.6-17.4-15-17.4-17.5 0-2.8 3-1 9.8 5.8 6.3 6.2 7.3 6.9 9.1 5.9 1.2-.6 2.1-1.6 2.1-2.3 0-2.5-13.8-14.6-23-20-5.3-3.2-9.9-5.7-10.4-5.7-2.3 0-12.2-9-16.3-14.7-3.3-4.6-5.1-6.3-6.8-6.3-1.2 0-2.6.7-2.9 1.6z"/><path d="M207 378.2c-1.4 1.1-6.1 3.8-10.5 5.8-4.4 2.1-12 5.6-17 7.9C167.1 397.7 163 402 163 409c0 4.7 1.4 6.6 11.8 16.8 6.7 6.5 9.8 9 10.6 8.2 1.7-1.7-1.9-7-8.5-12.5-3.4-2.8-6.9-6.7-7.9-8.9-3.4-7.4.1-11.3 16.7-18.5 18.4-8 27.3-13.4 27.3-16.7 0-2.1-3.1-1.7-6 .8zm35.3 63.5c-.4 1 .4 2.5 2.3 4.2 8.1 7.3 10.2 12.4 6.8 16.2-1.9 2.1-1.1 5.2 1.2 4.7 2.6-.5 5.7-5.4 5.6-8.8-.1-4-4.1-10.8-8.7-14.9-4-3.5-6.2-3.9-7.2-1.4zm794.5 11.5c-4.1 1.1-8.4 5.5-9.4 9.4-.8 3.1 1.3 10.7 3.8 14 4.3 5.4 13.7 7.9 20.5 5.3 6-2.2 11.3-9.3 11.3-15 0-9.6-14.3-17.1-26.2-13.7zm15 6.8c5.4 2.5 6.9 5.8 4.6 10.6-2.1 4.3-5.9 6.4-11.8 6.4-6.4 0-10.6-3.8-11.3-10.1-.5-4.1-.2-4.8 2.2-6.7 3.5-2.8 10.4-2.9 16.3-.2zm143.6 13.5c-1.2.9-4.4 1.5-8.9 1.5-7.3.1-10.5 1.4-10.5 4.3 0 2.5 4 4.6 12.1 6.3 6.2 1.3 14.1 1.5 48.7 1.1 27.8-.3 41.7-.8 42.4-1.5 1.5-1.5-3.5-8-6.5-8.6-1.2-.3-6.1-.7-10.9-.9-5.1-.2-9.3-.9-10.2-1.6-1.3-1.1-2.2-1.1-4.6-.1-2.4 1-3.6 1-5.9 0-4.1-1.7-9.7-1.5-12.6.4-3 2-3.5 2-3.5.1 0-2.4-2.6-2.8-5.9-.9-2.8 1.7-3.1 1.7-4.9.1-2.5-2.3-15.9-2.4-18.8-.2zm-874.9 2.1c-.9.9-1.5 2.8-1.3 4.3.3 2.5.6 2.6 6.4 2.6 4.5 0 6.7.5 8.2 1.8 1.6 1.5 2.4 1.6 4.6.6 2.1-1 3.3-.9 6.7.6 3.6 1.6 4.8 1.7 9.6.7 6.4-1.3 9.5-3.6 9.1-6.6-.3-1.9-1-2.1-7.3-2.1-3.8 0-8-.6-9.2-1.3-2.7-1.5-9-1.6-15 0-4 1-4.8.9-5.8-.5-1.5-2.1-3.9-2.2-6-.1zm47.2.1c-1.1 1.1-.8 4 .6 5.1 1.8 1.5 24.8 4.2 36.1 4.2 5.2 0 9.8.4 10.1 1 .3.5 2 1 3.7 1 2.1 0 3.1-.6 3.5-2 .8-2.9 3.5-3.3 12.6-2 10.3 1.5 13.1 1.2 13.5-1.7.4-2.5.3-2.5-11.8-4.3-4.1-.6-10.4-.8-14-.5-17.2 1.6-21.4 1.6-34.4.1-15.3-1.8-18.9-1.9-19.9-.9zm96.6.4c-2.3.6-4.6 1.6-5.3 2.3-1.6 2-.2 6.3 2.7 8.6 2.5 1.9 2.5 1.9 5.3-.2l2.8-2.1 2.8 2.2c3.4 2.7 6.2 2.7 11.9-.1 4.3-2.1 4.7-2.1 8.8-.6 4 1.4 4.6 1.4 9-.3l4.8-1.9 4 2.7c3.8 2.5 4.3 2.6 8.5 1.5 5.6-1.5 16.5-1.5 19.8-.1 5.4 2.5 7.9-4.3 2.9-7.7-2.3-1.6-4.5-1.9-12.8-1.7-5.7.1-13.1-.4-17.2-1.2-9.9-2-21.3-1.9-25.8.2-3.3 1.6-3.7 1.6-7.9-.5-4.6-2.3-7.6-2.6-14.3-1.1zm125.7 2.5c-2.5.7-9.2 1.3-15 1.4-5.8.1-12.5.5-15 .8-4 .6-4.5 1-4.8 3.4-.4 3.3-1.3 3.1 14.9 2.8 8.9-.1 13.2.2 14.7 1.1 1.7 1.1 2.6 1 5.6-.6 3-1.6 3.8-1.7 6.3-.6 2.1 1 9.1 1.3 27.3 1.2 42.9-.2 50.6-1.2 48-6-.8-1.7-3.1-1.7-34-1.3-32.8.5-33.1.5-35.1-1.7-2.3-2.4-5.9-2.6-12.9-.5zm379.8 1.5c-3.1 1.8-2 2.9 2.8 2.9 3.8 0 4.5-.3 4.2-1.8-.4-2-4.5-2.7-7-1.1zm20.9.1c-2.7 1.7 1.3 2.7 11.1 2.9 10.1.1 12.5-.3 10.6-2-1.2-1.1-20-1.9-21.7-.9zm-35.3.9c-.9 1.6 1.5 2.9 5.3 2.9 4.3 0 5-1.6 1.1-2.9-3.9-1.4-5.5-1.4-6.4 0z"/></g></svg>