<svg version="1.0" xmlns="http://www.w3.org/2000/svg" width="1706.667" height="1613.333" viewBox="0 0 1280 1210"><g fill="#004c40"><path d="M1203.3 1.2c-.5.7-1.8 3.5-2.8 6.3-3.6 9.9-23.8 61.3-54.3 138-120.5 303.1-109.9 277.3-118.7 288.5-10.3 13.3-14.3 22.3-93 213.5-44.3 107.7-56.7 136.8-64.7 153-8.8 17.6-16.4 26.4-31.3 36.3-9.9 6.7-16.3 8.9-31.1 10.8-10.5 1.4-14.4 1.4-23.7.5-21.8-2.3-38.6-6.8-100.7-27.1-100.6-32.8-165.8-50.5-265.5-71.9-97.9-21-190.8-32.5-248.5-30.8-29.5.9-43.6 4.1-66.8 15.2-37.9 18.2-64.9 46.7-82.1 86.6-9.3 21.7-14.5 38.6-17.8 58.2-2.5 14.3-2.4 62 .1 82.7 7.3 61 25.1 109.5 55.9 152.6 30.6 42.8 63.5 69.4 104.7 84.7 23.7 8.8 41.6 11.1 88 11.1 36.1 0 50.1-.8 82.5-4.9 141.9-18.2 371.6-82.1 458.5-127.6 22.8-12 43.7-27.7 66.9-50.3 38.7-37.8 80.6-93.4 99.6-132.1 13.2-26.9 54.8-123.4 82.7-192 27.7-68 41.8-107.2 64.4-178.4 11.7-36.9 13.4-43.2 13.4-49.1 0-3.7-.5-8.1-1.1-9.7-2.2-6.5-.4-11.3 67.4-183.8 15.1-38.5 37-94.3 48.6-124 11.7-29.7 26.9-68.3 33.9-85.9l12.6-31.9-3.2-2.7c-2.4-2-39.9-22-43.7-23.3-.9-.3-32.7 79.8-43.5 109.3-10.1 27.8-22.8 61.2-66.5 175.5-15.8 41.2-33.4 87.6-39.2 103-5.7 15.4-11.1 29-11.9 30.2-1.6 2.5-5.4 3-9.8 1.3-5.7-2.1-8.9 6.6 67.6-185.5 24.7-62.2 53.2-133.7 63.3-159 10.1-25.3 21.5-53.3 25.3-62.2 5.1-11.8 6.7-16.5 5.8-17.2-1.7-1.5-17.8-9.1-19.2-9.1-.6 0-1.6.6-2.1 1.2zm-145.4 448.3c2.2 2.2 2.3 2.6 1.1 5.5-1.9 4.6-4.2 5.4-11.4 4-3.3-.7-6.8-1.6-7.8-2.1-2.1-1.1-1.4-4 1.7-6.9 4.7-4.4 12.1-4.7 16.4-.5zM291.5 845.9c15.3 1.7 55.4 6 66.5 7.1 5.8.5 22.9 1.4 38 2 109 4 186.9 14 265.7 34.1 13.1 3.3 35.1 8.9 48.8 12.4 34.2 8.6 44.9 12.7 58.2 22.1 17 12.1 26.7 32.4 28 58.4.4 9.3.1 13.4-1.5 21.4-3.9 18.4-15.3 37.1-29.8 48.6-13.4 10.7-21.7 13.9-79.7 31.5-11.9 3.6-35.6 11.6-52.5 17.6-84.5 30.5-150.1 49.4-212.2 61.2-48.7 9.3-80.5 12.7-119.7 12.7-42.3 0-79.4-6-100.2-16.1-13.5-6.6-31.3-28.1-41.7-50.6-11-23.4-23.1-69.4-30.4-114.7-8.9-55.8-1.9-93.6 21.7-117.3 17.5-17.5 40.1-27.4 71.3-31.2 9.2-1.2 57.1-.6 69.5.8z"/><path d="M451.5 891c-37.3 6.5-109 19-219.2 38-28.1 4.9-52.5 9.6-54.1 10.4-3.9 2-6.9 5.9-8.2 10.5-2.4 9.1 5 18.1 15 18.1 2.2 0 31.2-4.7 64.3-10.5 56-9.7 165.4-28.6 223.1-38.6 26.8-4.6 29-5.5 33.3-11.8 5.9-8.7-.4-21.2-11.2-22.5-2.5-.3-18.6 2.1-43 6.4zm124 38c-51.8 8.9-81.9 14.1-93 16-6 1.1-74.2 12.8-151.5 26s-147 25.2-155 26.6c-15.6 2.7-19.5 4.5-22.5 10.4-5 9.6 2.5 22 13.4 22 2.8 0 49.2-7.8 166.6-28 36.2-6.3 61.6-10.6 166.5-28.6 72.1-12.3 109.5-19.1 111.5-20.3 3.7-2.1 7.2-7.2 8.1-11.7 1.3-6.8-5.5-15.4-13.1-16.7-1.6-.3-15.6 1.7-31 4.3zm41.5 52c-91.1 15.7-90.6 15.6-198 34-51.4 8.8-101.4 17.3-111 19-9.6 1.7-39.8 6.8-67 11.5-51.6 8.8-52 8.9-56.3 14.7-2.7 3.6-3.3 10.7-1.3 14.5 2.1 4.3 7 8.1 11.2 8.9 3.1.6 50.2-7.1 168.9-27.7 15.9-2.7 212.3-36.4 271.5-46.5 14.6-2.5 33-5.6 41-7 16.9-2.9 19.2-3.6 22.5-7.6 8.1-9.6 2.8-22.8-10-25.1-1.7-.3-32.4 4.5-71.5 11.3zm-65.5 70c-37.4 6.5-115.5 20-173.5 30-145 24.9-140.2 24.1-143.2 25.6-3.7 1.9-7.5 7.2-8.3 11.6-1.6 8.4 6.3 17.1 15.2 17 2.7 0 20.3-2.7 39.3-6 19-3.3 80.6-14 137-23.7 56.4-9.7 125.9-21.6 154.5-26.6 28.6-4.9 53.2-9.4 54.6-10 5.4-2.1 9.9-8.8 9.9-14.6 0-6.6-6.6-13.6-14-14.7-2.1-.3-30.7 4.3-71.5 11.4z"/></g></svg>