<svg version="1.1" id="_x32_" xmlns="http://www.w3.org/2000/svg" x="0" y="0" viewBox="0 0 512 512" style="width:64px;height:64px" xml:space="preserve" opacity="1"><style>.st0{fill:#fff}</style><path class="st0" d="M275.076 93.952c2.991-24.117-14.126-46.108-38.252-49.108-24.126-3-46.107 14.117-49.107 38.252-3 24.126 14.126 46.108 38.256 49.107 24.112 2.992 46.103-14.125 49.103-38.251z" fill="#004c42"/><path class="st0" d="M384.588 229.743c-20.572-32.927-36.882-70.296-41.076-77.557-2.487-4.316-2.73-7.361-.78-11.622a1795.46 1795.46 0 0125.685-36.125c7.54-10.352 18.319-21.802 14.202-35.9-2.364-8.108-9.541-11.486-15.604-16.424-15.23-12.441-30.414-24.982-45.742-37.333-4.292-3.45-8.436-7.08-12.783-10.45-7.068-6.288-17.897-5.658-24.18 1.424-5.297 5.964-5.617 14.576-1.361 20.9L266.932 43.34c3.928 3.1 7.446 6.658 10.436 10.648l15.987-16.648 40.324 39.126-31.878 33.954c-17.613 17.252-59.472 42.072-49.891 77.035 7.302 26.648 32.418 72.404 32.418 85.323 0 17.892-9.81 108.287-9.81 108.287-.064.352-.081.703-.126 1.063l-28.396 98.143c-3.225 10.612 2.775 21.838 13.4 25.054 10.617 3.225 21.842-2.766 25.063-13.396l34.162-90.873a25.393 25.393 0 001.225-3.297l.37-.982c.518-1.721 18.468-86.8 18.468-86.8l.798-7.91-8.586 85.324c-.248 1.504-.41 3.027-.41 4.613l4.207 97.665c0 12.333 9.991 22.333 22.324 22.333 12.33 0 22.333-10 22.333-22.333l5.77-94.134 13.792-86.927c2.977-26.84 6.243-45.938-14.324-78.865zM187.676 125.879l-73.224 76.242a12.819 12.819 0 00-2.239 14.55l18.554 37.531c1.464 2.991 4.162 5.171 7.379 6.036 3.216.847 6.64.279 9.396-1.586l13.936-9.397a11.557 11.557 0 004.987-8.117 11.519 11.519 0 00-2.815-9.099l-24.972-33.594 60.035-62.53c-4.073-2.811-7.762-6.198-11.037-10.036z" fill="#004c42"/></svg>