<svg version="1.1" id="_x32_" xmlns="http://www.w3.org/2000/svg" x="0" y="0" viewBox="0 0 512 512" style="width:48px;height:48px" xml:space="preserve" opacity="1"><style>.st0{fill:#004c40}</style><path class="st0" d="M260.567 216.439c15.443 0 27.973-5.8 27.973-12.999 0-5.946-8.612-10.889-20.304-12.45V76.291l79.235-34.768L252.898 0v190.99c-11.701 1.553-20.296 6.504-20.296 12.45 0 7.199 12.497 12.999 27.965 12.999z" fill="#004c40"/><path class="st0" d="M426.107 190.634c-13.274-18.152-34.323-33.32-60.395-44.961-21.226-9.44-45.899-16.413-72.626-20.223v21.801c33.838 5.193 63.671 15.863 85.545 29.502 13.113 8.146 23.346 17.302 30.068 26.557 6.747 9.295 9.982 18.46 9.991 27.432 0 1.01-.041 2.03-.129 3.066-.275 3.543-1.78 8.202-4.668 13.695-4.303 8.243-11.568 18.12-20.182 29.154-8.551 10.977-18.42 23.16-28.006 36.653-17.311 20.668-29.089 44.953-37.138 65.702-4.045 10.443-7.135 19.996-9.424 27.73-2.288 7.701-3.818 13.695-4.619 16.567-5.897 21.009-17.254 37.414-33.57 48.949-16.333 11.495-37.956 18.193-64.812 18.201-8.599 0-17.724-.688-27.342-2.144-29.332-4.401-53.835-14.238-70.345-27.213-8.275-6.488-14.561-13.695-18.751-21.364-4.19-7.684-6.374-15.815-6.383-24.705 0-2.434.162-4.918.51-7.458.955-7.053 3.721-13.987 7.758-21.089 6.035-10.654 14.884-21.356 22.925-32.746 4.013-5.719 7.83-11.649 10.872-18.056 2.936-6.18 5.129-12.87 5.84-20.078 1.19-4.562 1.812-9.06 1.812-13.388 0-8.988-2.322-17.126-5.396-24.487-4.651-11.066-10.872-20.79-15.621-30.894-4.78-10.12-8.194-20.328-8.218-32.705 0-1.812.08-3.673.243-5.59.712-8.397 4.174-16.309 10.621-24.002 9.626-11.495 26.185-21.946 47.613-29.243 16.228-5.549 35.189-9.311 55.769-10.815v-21.526c-32.633 2.201-62.029 9.61-85.278 21.421-13.962 7.126-25.773 15.854-34.574 26.29-8.784 10.395-14.52 22.707-15.62 36.087a88.339 88.339 0 00-.308 7.377c-.007 22.108 8.494 39.104 15.888 52.92 3.729 6.933 7.208 13.186 9.602 18.962 2.411 5.792 3.738 10.962 3.738 16.204 0 2.791-.364 5.646-1.262 8.801l-.283 1.003-.089 1.043c-.453 5.655-2.702 11.641-6.455 18.185-5.573 9.821-14.391 20.426-22.65 32.228-8.194 11.811-16.049 25.126-18.265 41.199a76.185 76.185 0 00-.712 10.354c-.008 12.514 3.203 24.422 9.028 35.044 8.744 15.96 23.094 29 41.029 38.958 17.959 9.966 39.622 16.931 63.752 20.58 10.604 1.594 20.798 2.386 30.554 2.386 30.407.008 56.714-7.685 77.212-22.141 20.523-14.415 34.914-35.529 41.911-60.775.922-3.317 2.338-8.866 4.522-16.211 6.464-21.955 19.851-59.142 42.712-86.079l.291-.348.267-.38c12.199-17.222 25.361-32.754 36.079-47.242 5.364-7.256 10.12-14.261 13.832-21.323 3.681-7.054 6.399-14.237 7.063-21.914a61.13 61.13 0 00.194-4.845c.004-14.342-5.302-28.028-14.12-40.106z" fill="#004c40"/></svg>