<svg version="1.0" xmlns="http://www.w3.org/2000/svg" width="1128" height="1706.667" viewBox="0 0 846 1280"><g fill="#004c42"><path d="M586.2 1c-15.2.9-25.8 2.5-28.7 4.4-1.1.7-4.2 2.1-7 3.2-6.8 2.5-22.6 14.5-33.2 25.1-4.9 4.8-14.6 13.9-21.5 20-7 6.2-16.9 15.9-22 21.6-8.1 9-9.7 11.4-12.6 18.8-1.8 4.6-3.2 10-3.2 12 0 7.6 7.6 12.2 16.5 10 4.7-1.2 31.4-14.2 37-18 4.1-2.8 5.5-2.6 5.5.8 0 1.9 1.3 4.3 3.8 7.2l3.9 4.3-6 9.1c-7.6 11.5-10.8 18.6-11.4 25.5-.4 4.6-.2 5.9 1.6 7.7 3.1 3.2 7.8 3.8 15.2 1.7 3.5-1 8.4-1.8 10.8-1.8 4.6-.1 5.5.7 6.6 5.6.3 1.5 1.9 4.1 3.5 5.8 1.7 1.7 3 3.8 3 4.8 0 2.1-3.3 7.8-6.5 11.2-2.9 3-5.5 9-5.5 12.4 0 3.4 3.9 7.6 7 7.7 1.4 0 13.9-.6 27.7-1.2 13.9-.7 25.6-.9 26-.6.3.4-.7 2.1-2.3 3.8-2.8 2.9-2.9 3.3-2.6 11.6.1 5.6-.3 10.6-1.3 13.9-1 3.6-1.3 7.1-.9 10.8.6 5.1.4 5.8-2.3 9.3-12.4 15.7-15.5 40.3-7.2 56.4l3 5.7-.7 14.3c-.4 8.6-.2 19.2.5 26.4.7 6.6 1.8 26.8 2.6 44.8 2.3 52.4 5.4 64.9 20.3 82.5 3 3.5 5.2 6.5 5 6.7-.1.2-2.3-.1-4.8-.5-5.4-1.1-13.4-1.3-14.3-.4-.4.4.9 2.4 2.8 4.6 1.9 2.1 3.5 4.2 3.5 4.7s-1.1 1.6-2.5 2.5c-1.4.9-2.5 2.5-2.5 3.5 0 2.5-16.6 27.3-33.9 50.6-7.7 10.4-14.1 19.6-14.1 20.2 0 2.5 4 1.2 7.5-2.5 6.4-6.5 16.6-18.4 22.4-26.2 3.2-4.1 8.1-10.6 10.9-14.3 2.9-3.8 7.3-10.4 9.8-14.7 6.5-11.4 14.2-17.7 22.1-18.1 1.5-.1 4.9.1 7.6.6 3.4.5 4.7.4 4.7-.5 0-1.5 4.2-.9 4.7.7.5 1.4-6.6 5.7-12.4 7.5-2.4.7-4.3 1.9-4.3 2.5 0 1.9 2.4 1.6 8-.8 5.3-2.3 8.4-2 7.8.8-.4 2.2-6.6 5.2-20.8 10.1-15.5 5.5-18 6.5-18 7.5 0 .4 1.7.5 3.8.1 5.7-1 23.2-6.3 26.4-8 1.6-.8 3.3-1.2 3.8-.9 1.7 1.1-.2 3.4-5.3 6.6-7.3 4.5-4.5 4.7 5.9.4 9.2-3.8 13.9-4.2 15.8-1.3 1.4 2.3.9 2.6-6.9 3.7-3.7.6-7.3 1.5-7.8 2-.8.8-.7 1.1.3 1.1 4 0-1.3 1.2-14.8 3.5-8.3 1.4-16.4 3-17.9 3.6-2.6 1-2.7 1.1-.9 2.1 2.9 1.6 21.4-.2 37.9-3.8 1.5-.3 2.7-.1 2.7.4 0 .9-7.8 4.7-20 9.7-10.3 4.2-10.7 6-.6 3 10.2-3.1 8.5-.8-1.9 2.5-13.2 4.3-24.3 10-19.4 10 .6 0 6.8-1.8 13.6-4 6.9-2.2 13.5-4 14.6-4h2.1l-2 1.4c-1.1.8-5.1 2.7-8.9 4.2-3.7 1.5-8.8 4.3-11.4 6.3-4.6 3.5-10 6-13.4 6.1-4.3.1-17 7.1-15.5 8.5.2.2 9.3-2.5 20.2-6.1 24.4-7.9 27.1-7.5 9.4 1.6-4.2 2.2-7.9 4.4-8.2 4.9-1.2 1.9 1.1 1.9 5.3 0 2.4-1.1 4.7-1.7 5-1.3 1 1-4.1 4.6-11.8 8.1-4.3 2-7.5 4.2-7.8 5.3-.6 2.2-12.4 7.4-15 6.6-1-.4-3.4-1.9-5.3-3.5l-3.4-2.9 3.7-4.1c2-2.3 3.7-5 3.7-6.2 0-2.8-2.3-6.9-5.7-10.1l-2.8-2.7-6.8 5.9c-3.7 3.3-7.8 6.2-9 6.4-1.2.3-6.5.7-11.7.9-9.8.5-15 2-15 4.4 0 .7 1.2 1.8 2.6 2.4l2.7 1-2.4 2.5c-1.3 1.4-6.1 5-10.6 8-7.6 5-11.9 9.1-10.8 10.2.7.7 12.6-6.3 21.5-12.7 6.8-4.8 9.3-6.1 12.3-6.1 2.4 0 3.7.5 3.7 1.3 0 1.4-6.2 10.4-14.5 21-2.5 3.2-4.5 6.5-4.5 7.3 0 1.7 2.7 1.9 3.3.1.5-1.4.2-1.7 4.9 5.3 4.2 6.3 6.8 12 6.8 15 0 3.3-1.7 2.3-2.4-1.5-1.2-6.4-2.5-3.6-1.9 4.1.5 6.3.4 7.6-.8 7.2-1.7-.6-4.8-8.2-4.8-12.1-.1-1.6-.6-3.8-1.2-5-2.1-3.9-8.6-11.2-11.7-13-4.4-2.5-5-.4-1.1 4 1.7 2 4 5.5 5 7.8 3.4 7.7 4.7 29.5 1.7 29.5-1.6 0-3.6-6.2-5.8-17.6-2.7-14.3-4.1-19.4-5.1-19.4-.5 0-.9 1.5-.9 3.3 0 1.8-.5 3.8-1.1 4.4-1.6 1.6-.8 41 .9 44 1.1 2.1 1 2.3-.8 2.3-5.9 0-9.8-23.7-6.4-38.4.5-2.2.4-2.8-.7-2.4-1.7.6-4.8 10-4.8 14.9-.1 2.7-1 4.5-3.6 7.2-1.9 2-3.5 4.3-3.5 5.2 0 1.8 1.6 2 2.3.2.8-2.2 2.7 4.3 2.7 9.6 0 5.9-1.5 9.5-2.5 6.2-.3-1.1-1.7-4.1-3-6.8-1.9-3.6-2.5-6.2-2.5-11.5v-6.7l-2.3 2.7c-2.6 3.1-8.1 6.1-10.5 5.6-1.3-.2-.2-2 4.4-6.9 8.5-9.1 9.1-10.2 11.3-20.9 1.7-8.5 3.5-14 9.6-28.8 1.9-4.5 1.5-6.3-1-4.2-2.5 2.1-9.3 16.7-12.1 25.9-4 13.3-8.8 21.5-17.2 29.8-4.1 4-7.2 7.8-6.9 8.5.6 1.9 10.5 1.5 14.4-.5 6.9-3.6 4.7.7-8.8 17.6-4.4 5.4-9.5 12.8-11.3 16.5-1.9 3.8-5.1 8.8-7.1 11.2-2.1 2.5-6.5 8.1-9.8 12.5-10.8 14.3-16.9 21.5-18.3 21.5-2 0-14.4 16-27.9 36-19.7 29.2-31.5 45.6-58.9 82.3-43.6 58.4-55.4 76.1-45.1 67.8 1.9-1.6 1.9-1.5.4.9-.9 1.4-2.7 2.7-4 2.8-1.3.2-3 .9-3.8 1.5-3.2 2.7-22.1 27.1-30.6 39.7-8.5 12.6-24.3 34.9-35.3 50-2.6 3.6-9 12.6-14.2 20.1-24.7 35.4-53.8 73.6-63.1 82.9-10 10.1-18.9 22.3-18.9 25.9 0 1.5-.6 2.1-2.1 2.1-1.3 0-5.3 3.2-10.4 8.3-4.5 4.6-12 10.9-16.6 14l-8.4 5.6-12.5-.9c-16.6-1.2-40.6-1.2-45.2 0-3.5 1-5.6 3.4-3.8 4.5 1.6 1 29.1 3 40.5 3 10 0 11.7-.3 19.3-3.3 10.2-4 10.3-2.6.1 4.4-22.2 15.1-50.9 18.8-62.7 8.1-2.3-2.1-2.9-5.1-1.2-6.2.6-.3.9-2.5.9-4.8-.1-2.3.2-5.3.6-6.6.8-2.3.8-2.3-1.8-.7-3.5 2.3-9.3 11-11.3 16.9-1.9 5.5-1.4 11.9 1 14.6 2.5 2.8 8.3 4.2 20 4.8 9 .5 10.8.4 10.4-.8-.3-1-3.1-1.6-9.3-2.1-8.4-.7-10.4-1.2-9.4-2.2.3-.3 8.8-.8 18.9-1.2 20.6-.7 27.1-1.9 36.9-6.9 14.2-7.1 26-17.4 39.4-34.5 5-6.3 12.3-15.1 16.2-19.5 21.8-24.5 43.8-54.5 42-57.5-.3-.4.8-1 2.3-1.3 1.9-.4 5-3.4 10.7-10.4 4.4-5.4 14.5-17.4 22.4-26.8 7.9-9.3 18.8-23.5 24.1-31.5 5.3-8 13.9-20.1 19-27 5.1-6.8 11.1-15.8 13.3-20 4.7-9 11.1-18.1 40.7-58 12.4-16.8 28.2-38.3 35-47.8 6.8-9.6 14-18.8 15.9-20.5 2-1.7 4.7-4.9 6.2-7.1 1.4-2.3 5.9-7.7 9.9-12.1 10.1-11.1 26.8-31.4 43.3-52.5 3.2-4.1 7.9-9.6 10.4-12.3 2.5-2.6 5.5-6.8 6.8-9.2 2.7-5.1 25.8-36.1 38-51 4.5-5.5 9.4-11.9 11-14.3 3-4.6 4.9-5.2 6.5-2.3 1.8 3.4 4.1 5.1 6.9 5.1 3.4 0 5.1-1.8 6-6.3.6-2.9 1-3.2 5.3-3.7 4.1-.5 5.6-1.6 15.4-10.6 6-5.5 12.8-11.5 15.2-13.3 3-2.4 5.2-5.3 7.5-10.4 3-6.5 13.3-19.5 14.4-18.3.2.2-.3 1.8-1.1 3.5-2.3 4.3-2 5.8.5 3.5 2.3-2 6.9-10.9 6.9-13.4 0-.8 1.4-3.9 3.1-6.9l3.1-5.3 4.4 4.3c3.9 3.8 4.4 4.1 4.4 2.1 0-1.2-3.4-7.2-7.6-13.3-4.1-6.1-7.3-11.3-7-11.6.3-.3 2.7.9 5.5 2.7 3.7 2.5 5.5 4.4 7.1 8.1 1.1 2.7 2.3 4.9 2.6 4.9.2 0 2.1-.7 4.1-1.5 5.5-2.3 6.3-2 5.6 2-.9 5.3 1 4.3 6.3-3.3 6.3-8.9 11.4-14.2 13.7-14.2 1.7 0 1.8.5 1.3 3.5-.4 2-1.6 5.6-2.7 8.1-5.2 12.2-10.8 33.6-13.4 50.9-2.9 19.4-4.1 23.5-7.7 25.9-1.2.8-8.1 2.6-15.3 4-17.3 3.5-22.4 5.2-23.7 8.2-.6 1.3-.8 2.7-.5 3.1.4.3 4-.1 8-1 8.3-1.8 25.9-4.1 33.2-4.2 2.8-.1 6.4-.8 8-1.7 1.7-.8 5.5-2.3 8.5-3.3s8.5-3.3 12.3-5.2c3.7-1.8 6.7-2.9 6.7-2.4s-2.7 3.9-6 7.5c-3.3 3.7-6 7.3-6 8.1 0 2.1 3.2 3.5 7.9 3.5 5.5 0 9.1 1.5 9.1 3.9 0 3.6-2.3 7.3-12.5 20.2-11 14.1-16.9 23.1-16.3 25.1.3.8 5.6-3.7 13-11l12.5-12.2 1.1 16.4c.6 9.1 1.5 17.3 2.1 18.3.8 1.4 1 .9 1.1-2.7 0-2.5.5-5.2 1-6 2.3-3.5 3.9 4.7 2.1 10.9-.7 2.5-1.5 3.2-7 5.2-7.8 2.9-23.4 20.5-34.6 38.8-6.3 10.3-24.5 46.5-24.5 48.7 0 3.7 2.4.3 8.5-11.9 7.7-15.1 19.7-33.7 31.2-48.2 12.7-15.8 24.2-27 26-25.2.9 1-1.7 4.4-11.1 14.7-15.8 17.1-28.1 33.7-37.4 50.1-7.1 12.5-2.9 8.4 12.8-12.6 15-20 33.2-42 36.2-43.6 1.1-.6 2.4-.7 2.8-.2.5.4 1.4 4.6 2 9.3.6 4.7 2.4 15.5 4 24.1 3.1 16.4 3.7 22.9 2 22.9-1.9 0-4.1-8-8-30-1.1-6.3-2.5-12.9-3-14.5-1.9-5.7-.1 17.5 2.5 33 2.7 16.1 3 19.5 1.6 19.5-.5 0-1.7-3.4-2.6-7.5-.9-4.1-1.8-7.5-2-7.5-.1 0 0 4 .3 8.9l.5 8.9-13.9 14.9c-17.4 18.5-28.7 31.6-43.9 50.8-15 19-14 17.5-12.6 17.5.7 0 4.4-3.3 8.3-7.3 8-8.1 43.6-46.7 54.8-59.5 4.6-5.1 7.7-7.9 8.3-7.3.5.5 1.9 7.9 3.2 16.4 1.3 8.5 3.1 19.3 4.1 24.1 2.2 10.4 2.1 10.6-8.1 13-23.3 5.7-52.7 30.5-64.1 54.1-3.4 7-4.2 9.9-2.5 9.3.5-.1 3.8-4.6 7.3-9.8 7.1-10.6 16.7-19.6 31-29 9.9-6.6 31.9-19 33.6-19 .7 0 1.4 1.1 1.8 2.5 1.4 5.6-.1 7.5-19.1 24.8-2.7 2.5-4.7 4.9-4.3 5.2 1.6 1.7 21.2-12.1 22.3-15.6 1.3-4 3.4-1.9 5.5 5.3 3.2 11.3 4.9 15.4 7 17.3 1.1 1 2 2.4 2 3.1 0 .8 1.7 1.6 4 2 3.9.6 4 .7 1.8 1.8-1.3.6-2.4 2.2-2.6 3.4-.2 1.2-.6 2.2-.9 2.2-.2 0-3-2.2-6.1-5-3-2.7-5.8-4.7-6.1-4.4-.9.9 18.4 19.1 21.1 19.9 3.5 1.1 7.8 5.6 7.8 8.2 0 1.3.4 2.3 1 2.3 2.8 0 15.1 14.2 13.7 15.7-1.3 1.2-8.9-4.9-10.3-8.3-.8-1.9-2.2-3.8-3.2-4.1-.9-.3-3.4-2.2-5.4-4.1-4.2-3.9-5.5-3.9-3.7.2.7 1.4.9 2.9.5 3.3-1.2 1.2-4-1.2-6.6-5.8-3.5-6.2-3.9-2.6-.6 4.7 1.4 3.1 2.6 6 2.6 6.5s-1.8 2.1-4 3.5c-3.9 2.6-5.5 2.7-12 .9l-2.5-.8 2.2 2.2c2.7 2.5 2.1 4.5-1.7 6.1-2 .8-3.4.9-4.8.1-2.8-1.5-3.1-1.4-2.5.8.3 1.3-.5 2.9-2.2 4.7-2.2 2.2-3.3 2.6-6.6 2.1-3.3-.4-3.9-.2-3.9 1.4 0 4.2-10.9 5.5-16.9 1.8-4.7-2.8-5.6-2-2 1.9l3 3.2h-7.9c-12.4 0-17.2-.9-17.2-3.2 0-1.1-.9-2.2-2-2.5-1.8-.5-9.1-8.8-14.9-16.9-1.3-1.9-3-3.4-3.7-3.4-.7 0-1.9-1-2.5-2.2-.7-1.3-1.8-2.9-2.6-3.6-1.5-1.6-1.7-5.8-.3-6.7 1.1-.7 5.1 1.4 18.2 9.7 4.7 3 11.9 6.6 16 7.9 6.4 2.1 9.1 2.4 22.8 2.4 9.9 0 16.2-.4 17.5-1.2 1.9-1.1 1.9-1.2-.5-1.7-1.4-.2-8.1-.7-15-1-14.2-.6-21.1-2.2-32.5-7.5-10.4-4.9-26.2-14.7-27.5-17.1-.7-1.3-.5-3.1.5-6 1.9-5.5 1.9-5.7-.6-3.5-1.1 1.1-3.6 5-5.6 8.7-1.9 3.7-3.9 6.8-4.4 6.8-2.1 0-4.1-5.1-3.6-9.1l.5-4.1-2.2 2.1c-2 1.9-2.4 2-3.6.7-1-1.2-1-2.6 0-6.6 1.5-6.3.7-7.4-2.5-3.5-2.9 3.6-3.2 1.9-.8-4.7 2.2-6.1.9-7.3-2.9-2.8l-2.9 3.5.7-3c.3-1.7 1.8-5.6 3.1-8.7 3.2-7.3 2.5-9.6-1.3-4.1s-5.9 5.7-5 .5c1.8-10.1 3.8-14.5 8.7-19.7 4.7-5 5.3-7.3 1.4-5.9-1.5.6-1.6.4-.4-1.7.6-1.3 1.5-3.1 1.9-3.9.4-.8 3.1-2.9 6-4.5 6-3.4 6.3-5 .8-4.9-2.1 0-3.8-.3-3.8-.7 0-1.9 3.2-14.5 4.2-16.3.6-1.2 3-4.2 5.4-6.8 2.4-2.6 4.4-5.2 4.4-5.8 0-.5-1.3-1-2.9-1-4.1 0-4.6-1.4-2.2-5.4 1.2-1.8 2.1-4 2.1-4.7 0-.8 1.2-3.2 2.6-5.2 2.9-4.3 2.6-5.6-1.1-3.9-2.3 1.1-2.5.9-2.5-1.1 0-3.2 2.3-6.2 8.6-10.8 3-2.2 5.4-4.4 5.4-4.9 0-1.9-3.8-.9-7.9 2.1-2.4 1.7-4.5 2.9-4.7 2.6-.2-.2.8-2.8 2.4-5.8 2-3.9 4.5-6.7 8.9-9.9 5.9-4.3 7.8-7 4.9-7-.7 0-3 1.3-5.1 3-4.5 3.6-5.5 3.7-5.5.7 0-3.9 5.4-11 12.6-16.7 3.8-2.9 7.3-5.7 7.9-6.2.5-.4-.5-.8-2.2-.8-1.9 0-4.3 1-6.1 2.5-2.7 2.2-6.2 3.4-6.2 2 0-.3 3.8-5.9 8.5-12.6 13.4-19.1 15.7-23.3 15-27.1-.5-2.7.1-4.4 3.1-9.3 2-3.3 5.4-9 7.4-12.6 2-3.7 6-9.5 8.9-13 2.8-3.5 5.1-6.7 5.1-7.2 0-1.1-3.3.8-5 2.8-1.9 2.3-6.8 4.7-7.4 3.6-1.1-1.7.4-3.6 6.5-9 8.4-7.5 9-9.1 5.1-14-2-2.5-3.2-5.1-3.2-7 0-2.1-.5-3.1-1.5-3.1-3.2 0-4.8 7.7-2 10 .8.7 1.5 2.6 1.5 4.3 0 2.6-1.2 4.2-6.5 9.2l-6.5 6v6.9c0 6.8-.1 7.1-6.2 16.5-16.8 25.7-35 68.8-42.4 100.1-1.4 5.8-3.6 13-5 16.1-2.1 4.6-2.3 6-1.4 8.4 1.4 3.8-.6 14.2-6.9 36.1-6.7 23.3-7.5 27.2-7.5 40.9-.1 9.9.2 12.4 1.7 14.5 3.5 5 16.2 24.8 17.9 27.9.9 1.7 2.8 3.5 4.2 4.1 1.3.5 2.7 1.8 3.1 2.9.3 1.1 3.5 4.7 7.1 7.9 4.7 4.4 6.4 6.6 6.4 8.5 0 2 .6 2.6 2.7 2.9 3.2.4 3.8 1.7 2 4.2-1.7 2.3-4.1 1.6-9.2-2.4-4.2-3.3-5.5-3.7-5.5-1.6 0 2.2 7.8 8.4 15 11.9l6.5 3.2h54l6 2.8c3.3 1.5 9.2 4.7 13 7.1 3.9 2.4 12 7.1 18 10.6 12.5 7.1 30.2 19 33 22 2.4 2.6 1.1 3.9-1.5 1.5-2.9-2.6-3.5-1.2-1 2.3 5.6 7.6 2.5 42.8-6.6 75.6-3.4 12.2-6.5 19.5-11.2 26.3-2.1 3.2-4.6 7-5.6 8.5-.9 1.6-3.2 3.5-5.2 4.3-2 .8-4.9 2.6-6.6 4-1.6 1.4-3.4 2.5-3.9 2.5-.9 0-26.1 12-43.8 20.8-7.1 3.5-10 6.2-6.7 6.2 2.7 0 10.8-3.1 21.6-8.2 5.8-2.8 12.1-5.7 14-6.5l3.5-1.5-3.3 3.5c-4.4 4.5-10 7.5-26.7 14.2-13.3 5.4-13.9 5.5-23.4 5.5-11.4 0-18.2 1.7-23.6 6-2.1 1.6-4.8 3-6.1 3-3.6 0-6.7 4.7-6.1 9.3.7 5.2 2.8 7.2 9.5 9.1 7.4 2.1 8.3 2.7 10.7 7.7 2.6 5.5 4.2 5.9 6 1.5.9-2 1.9-3.6 2.3-3.6 1.7 0 14.3 3.9 18.5 5.8 3.3 1.5 4.7 2.7 4.7 4.1 0 2.1 4.3 6.1 6.6 6.1.7 0 2-1.3 2.8-2.9 1.4-2.7 1.9-2.9 10.6-3.5 8.4-.7 9.2-.9 10-3.2 1.2-3 2.8-3 7.4.1 2 1.4 3.9 2.5 4.2 2.5.2 0 2.1-1.1 4.2-2.5 4.8-3.2 14.4-5.9 19.9-5.7 2.3.1 7.5 1.6 11.7 3.2 4.7 1.9 9.2 3 12.3 3 6.4 0 31.5-6.3 37.6-9.5 2.7-1.4 6.1-2.5 7.6-2.5 2.3 0 3 .7 4.8 4.9 1.1 2.7 3.2 5.7 4.7 6.6 6.2 4.1 19.2 2.4 28.6-3.5 2.5-1.6 6.2-3.6 8.3-4.5 2.8-1.2 3.9-2.3 4.4-4.5.7-3.5 2-3.9 2.5-.8.6 4.2 2.6 3 3.3-1.9 1-7.6 1.5-9.4 2.5-8.8.6.3 1 1.8 1 3.3 0 3.7 1.1 7.2 2.1 7.2.5 0 .9-1.4.9-3 0-3.7 1.3-3.9 2.8-.5 2.1 4.5 3.3 3.3 4.5-4.5.4-2.5.4-2.5 1.2-.2.4 1.2 1.1 2.2 1.5 2.2 1.5 0 2-3.2 1.4-8.6-.4-3.4-.3-5.4.4-5.4 1.2 0 2.2 2.3 2.3 5.3 0 2.1.1 2.1 1-.2 1.6-4 3-21.3 2-24.6l-.8-3-1.2 2.8c-.6 1.6-1.1 3.6-1.1 4.5 0 .9-.5 2.4-1.1 3.2-.8 1.1-.9.4-.6-2.7.6-4.9 6.1-17.3 7.6-17.3.7 0 1.1 5.3 1.1 15.2.1 11.7.3 14.8 1.2 13.3.6-1.1 2.1-3.1 3.3-4.5 2.7-2.9 4.1-7.7 5-17 .3-3.6.8-7.7 1.1-9.2.5-2.3.1-3-2.1-3.8-1.4-.5-3.8-2.3-5.2-4-1.3-1.6-3.1-3-3.8-3-2.1 0-2.5-2.5-2.5-14.3 0-11.4 1.1-18 3.3-19.4.6-.4 3.6-1 6.7-1.4 6.7-1 10.1-4.2 12.6-12.1 2.1-6.8 3-24.9 1.5-30.5-1.8-6.7-7-13.3-13.1-16.7-5.1-2.9-6.2-3.1-15-3.1-5.2 0-11.4.4-13.8.8-4 .8-4.4.7-4.9-1.3-.5-1.7-1.1-2-3.2-1.5-8.8 1.9-34.1-17.3-40.4-30.8l-2.5-5.2 1.1-20.3 1.1-20.2h2.8c3 0 3.5-.9 1.6-2.8-2-2 2.2-1.5 4.4.5 2.8 2.5 4.4.2 6.3-8.8.8-4.2 3.3-12 5.5-17.2 5.5-13.2 6.7-21.5 5-36.1-1.2-10.9-1.2-11.8.6-15.8 1.4-3.2 1.9-6.5 1.9-13.3 0-11.5-.5-13.2-6.1-19.7-6.5-7.5-8.7-11.7-13.5-25.2l-4.2-11.9 2.2-11.6c1.1-6.4 2.1-13 2.1-14.6 0-1.7.7-4.3 1.5-5.9.9-1.6 1.8-5.7 2.1-9 .9-9.7 7.1-39.5 9.6-46.1 1.9-5.2 2.2-7.9 2.3-21.5 0-14.2-.2-16-2.4-21.2l-2.4-5.6 2.5-4.4c1.4-2.3 3.1-5.9 3.7-7.9.7-2.1 2.1-4.1 3.6-4.7 1.5-.7 2.7-2.3 3-3.9.8-4 3.7-12.5 7.9-22.3 3.3-8 3.7-8.5 6.8-8.8 5.2-.6 13.1 1.6 19.2 5.3 6.2 3.7 11.6 4.9 16.1 3.7 3.7-1 4.3-3.4 1.6-6.8-3.5-4.4-2.2-8.4 2.6-8.4 3.7 0 4.5-3.9 5.1-25.2.5-21.9-.6-35.9-4.3-54.4-4-19.9-8.6-31.3-21.8-53.9-5.6-9.6-5.9-13.2-2.1-25 3.3-10.1 4.5-27.8 2.1-31-1.5-2-1.6-1.9-2.6.7-.6 1.6-1.5 2.8-1.9 2.8-1.1 0-2.2-5.9-2.2-12.3 0-7.5-3.9-24.6-7.1-30.8-4.6-9.2-7.2-17.9-6.5-22.2.6-3.5.4-3.9-2.3-4.8-3.4-1.2-5.4-5.5-6.5-13.4-1.1-7.6-1.5-8.3-5.1-10-4.4-2.2-8.9-10.6-12.2-23.2-2.2-8.7-2.6-12.7-3.3-35.8-1.2-38.5-4.2-53.8-14.7-74.9-5.7-11.3-28.2-44.8-36.8-54.6-3.6-4.1-7.8-9.4-9.3-11.7-1.5-2.4-3.7-4.6-4.9-4.9-3.6-1-7.9-6.7-10.2-13.7-2.4-7.1-8.2-16.7-12.4-20.6-2.1-1.9-3.2-2.2-6.1-1.7-3.2.6-3.5.4-4-2.1-6.3-30.7-6.9-35.8-6.8-65.6 0-15.9.3-29.1.6-29.4.3-.4.6-2.1.6-3.8 0-2.8.8-3.9 5.4-7.3 7.8-5.9 10.1-11.1 10.1-22.9 0-10.9-1.3-13.4-9.1-17.3L665.5.5l-33-.1c-18.1-.1-39 .2-46.3.6zm65.6 3.2c.7.7 1.2 2.1 1.2 3.2 0 1.9 0 1.9 1.4.1 1.2-1.7 1.5-1.7 3.6-.2 1.5 1 3.3 1.4 5.1 1 1.9-.3 2.9-.1 2.9.6s-6.5 7.8-14.4 15.9c-15.3 15.7-17.2 18.2-15.4 20 .8.8.7 1.3-.6 1.8-2.1.8-6.6-1.1-6.6-2.7 0-.7 4.8-6.2 10.8-12.3 14.3-14.8 16.7-17.5 16-18.2-.4-.3-8.3 7.1-17.6 16.5-14.9 15-20.2 19.3-20.2 16.3 0-.5 1.1-1.9 2.4-3.1 2.4-2.3 4.1-6.1 2.6-6.1-1.2 0-8.9 8.7-10.2 11.5-.6 1.4-1.5 2.5-1.9 2.5-3.9 0 1-8.8 8.9-16 3.6-3.3 6.3-6.2 6-6.5-1.3-1.3-4.9 1.8-17.3 15C597.1 55.6 593 58.9 593 56.1c0-.5 2-3.7 4.5-7.2 5.8-8.3 6.8-9.9 5.7-9.9-.5 0-4 3.4-7.7 7.6-3.8 4.3-7.1 7.2-7.3 6.6-.2-.6 1.8-4.1 4.3-7.7 2.6-3.6 4.5-6.8 4.3-7.1-.5-.4-7.1 6.4-14.6 14.9-3.6 4.1-5.7 4.8-4.9 1.7.3-1.1.1-2-.4-2s-.9.4-.9.9c0 1.1-6.9 3.7-11.7 4.5-3.7.6-4 .2-1.8-2 1.6-1.6 2-4.4.7-4.4-.5 0-2.1 1.4-3.8 3.1C555 59.9 545 63.9 545 61c0-.6 1.1-1.6 2.5-2.2 1.5-.7 2.5-1.9 2.5-3.3 0-1.1 1.4-4 3.1-6.3 1.7-2.4 2.9-4.5 2.6-4.8-.4-.5-15.8 18-21.5 25.9-1.3 1.8-2.7 3.3-3.3 3.5-1.5.6-1-2.4.6-3.8 1.7-1.4 2-3 .6-3-.5 0-3.5 2.3-6.5 5.1-3.1 2.8-5.6 4.9-5.6 4.7 0-.2.9-2.4 2.1-4.7 2.6-5.5 1.6-6.6-1.9-2.1-5.4 6.9-9.5 11-11.1 11-.9 0-2.7.9-4.1 2-2.4 1.9-5 2.6-5 1.4 0-.3.5-1.4 1.1-2.5.6-1.1.9-2.5.6-3.2-.2-.6-2.3 1.8-4.8 5.3-3.4 5.1-4.5 6.1-4.7 4.4-.2-1.1 1.1-4.9 2.8-8.5 1.6-3.5 3-7.3 3-8.4 0-2.6 3.6-8.5 5.2-8.5.9 0 .9.3 0 1.2-.7.7-1.2 2.1-1.2 3.2 0 1.8.1 1.8 2 .1 1.1-1 4.1-5.2 6.7-9.4 9-14.6 26.3-36.8 26.3-33.7 0 .4-3.9 6.5-8.8 13.4C517.8 53 512.8 60.6 511.1 64c-2.3 4.7 3.4-2.7 15.2-19.9 14.5-21.3 18.3-25.4 25.3-28 6.5-2.5 7.8-2.6 7-.6-.9 2.5 1.8 1.7 4.8-1.4 3.4-3.5 6.1-4.4 7.7-2.5 1.9 2.4.2 7.2-5.6 15.5-6.6 9.4-8.1 12.5-4.3 9.1 1.4-1.3 3.8-2.5 5.4-2.7 1.7-.1 3.9-1.6 5.6-3.6 4.3-5.2 8.9-12.2 8.3-12.8-.7-.6-6.2 5.8-7 8.1-.8 2.1-3.5 2.4-3.5.4 0-1.9 7.5-11.3 10.2-12.7 1.2-.7 5.4-1.6 9.3-2.1 3.8-.4 8.7-1.1 10.8-1.4 5.2-.9 4.9 1-1.8 9.3-3 3.7-5.5 7.1-5.5 7.5 0 1.7 2.3.6 6.4-3.2 3.9-3.6 4.8-4 9.6-4h5.3l-.6-3c-.6-2.7-.4-3 3.1-4 2-.6 5.5-2.4 7.6-4 7.1-5.4 7.5-3.6 1.1 3.9-2.5 2.9-4.5 5.5-4.5 5.8 0 .3 2.9-2.2 6.5-5.6 9.4-8.7 11-8.3 3.5.9-6.3 7.7-5.6 7.8 2.2.2 9.5-9 15.6-12 18.6-9zM586 7c-1.9 1.2-13.5 2.4-14.9 1.5-2.6-1.5.6-2.5 8.2-2.5 5.4 0 7.7.3 6.7 1zm87.6 7.5c1.3 2 1.4 3 .5 5.8-.7 1.9-2.1 4.3-3.1 5.2-2.8 2.5-2.5 3.5 1 3.5s3.8 1 .9 3.6c-1.9 1.7-2.1 1.8-3 .1-1.5-2.5-4.8-2.1-5.9.7-.8 2.2-5.7 6.5-6.3 5.5-2.5-4.4-2.5-4.7-1-6.8.8-1.2 3.3-3.3 5.4-4.7 3.9-2.4 6.6-6.6 4.7-7.3-.5-.1-6.3 5-12.9 11.4-6.6 6.5-12.2 11.5-12.5 11.2-1.5-1.4 1.6-5.8 10.5-14.7 7.6-7.7 17.9-16 19.8-16 .1 0 1 1.1 1.9 2.5zm-30.1 35.6l-.7 2.2 3-2.2c3.1-2.2 5.8-2.8 4.7-1.1-.4.6 1 1.7 3 2.6 4.4 1.8 3.7 3.4-1.6 3.4-2.2 0-7.2.5-11 1.1-3.9.6-7.3.8-7.6.5-.3-.3 1.2-2.4 3.4-4.6 4.5-4.5 7.9-5.4 6.8-1.9zm-9.5.2c0 .7-1.3 2.6-2.9 4.1-2.2 2.1-4.4 3-9.9 3.8-7.1 1-12.2.6-12.2-1.1 0-1.3 5.3-2.9 12.1-3.6 3.2-.4 7-1.5 8.5-2.5 3.5-2.3 4.4-2.4 4.4-.7zm-129.6 4.9c-.5.7-2.8 4.4-5.3 8.3-2.5 3.8-5.8 10.1-7.4 14-3.1 7.2-8.7 16.8-10.6 17.9-1.8 1.2-1.2-2.7.9-5.4 2.7-3.4 2.7-5.9 0-3.5-3.6 3.3-2.1-.2 3.5-8.2C497.7 61.2 503.2 54 504.1 54c.6 0 .7.6.3 1.2zm137.1 7.4c-2.5 3.8-1.1 4 2.3.3l3.1-3.3 3.5 1.7c2 .9 3.6 2 3.6 2.4 0 .5-1.1 3-2.5 5.7S649 75 649 75.7c0 2.1-5.6 12.7-7.6 14.4-1.6 1.3-1.7 1.1-1.2-2.8.4-2.4 1.5-6.2 2.7-8.6 1.2-2.4 2.1-4.6 2.1-5 0-1.8-1.9-.3-4.7 3.7l-3.2 4.5-5.8-.2c-4.2-.1-6.7.3-8.6 1.6-2.9 1.9-7.1 7.7-8.2 11.4-1.1 3.8 1.3 2.6 3.5-1.6 4.9-9.6 14.3-9.4 19 .4 3.1 6.4 2.5 17.9-1.3 25.6-3 6.3-9.1 13.3-10.9 12.7-.8-.3-1.4-2.4-1.6-5.1-.3-4.4-.2-4.7 3.1-6 5.6-2.4 9.8-11.7 7.7-17.2-.5-1.3-2.2-3.1-3.8-3.9-3.8-1.9-4.6-4.3-2.7-7.2 1.7-2.7 1.9-3.4.5-3.4-1.9 0-4.8 4.3-5.9 8.5-1.3 5.4-.1 9.5 2.9 9.5 2.2 0 2.8-2.5.8-3.3-.7-.3-.1-.6 1.5-.6 4.1-.1 3.5 2.9-2.4 11.4-4.1 5.9-5.3 8.4-5.7 12.4-.4 4.5-.1 5.4 2.7 8.9 1.7 2.2 3.1 4.6 3.1 5.3 0 2.8 5.9-4.6 11.8-14.9l6.3-10.9-.3-9.9c-.2-9.7-.2-10.1 3.9-18.9 2.3-5 5.1-11.6 6.3-14.8 3.1-8.4 4.5-7 4.4 4.4-.2 15.5-1.8 27.1-4.3 31.3l-2.3 3.6 2.4-.2c3.5-.4 3.5 3.6-.1 12.8-1.7 4.3-2.9 7.9-2.7 8.1.2.2 1.5-1.2 3-3.2 1.5-1.9 3.1-3.5 3.5-3.5.5 0 1.1 2.6 1.4 5.8.4 3.2 1.5 7.8 2.6 10.3 1.1 2.5 2.3 6.3 2.6 8.5.7 3.9.6 4-4.3 7.2-5.9 3.8-14.3 7.6-18.9 8.6-1.8.4-4.3 2-5.5 3.6-2.4 2.9-6.6 5.5-7.5 4.6-.3-.3 1.9-3.8 5-7.8 3-4 6.3-8.9 7.2-10.8l1.8-3.5-2.3 2c-1.2 1.1-6.8 8.1-12.5 15.5s-11.6 14.7-13.1 16.2c-6.4 6-9.3 6.4-65.4 8.2-6.1.2-6.2-1.7-.6-11.1 2.5-4.3 4.8-9.3 5.2-11.3 1-6.1 2-7.5 8.5-11 3.5-1.8 10-5.5 14.3-8.2 6.6-4.1 8.5-4.8 11.2-4.4 2.6.5 3.2.3 3.7-1.5.8-3-.7-6.3-3.9-8.8-3.5-2.7-10.1-2.8-17.2-.1-9.5 3.6-19.8 2.2-25.9-3.7-3.1-2.8-3.5-3.7-3.1-7.3.2-2.2 0-4-.4-4-1.5 0-3 4.4-3.2 9.9-.3 7-.6 7.5-5.9 10.3-4 2.2-4.1 2.3-1.5 2.6 2.4.3 7.5-1.9 11.9-5 1.3-.9 2.8-.7 7 1 8 3.2 12.4 3.5 23.3 1.8 5.4-.9 10.2-1.4 10.5-1 1.2 1.1-9.9 7.8-23.1 13.8l-7.6 3.5-2.7-4c-3.9-6-7.4-7.1-20.4-6.3-10.6.7-10.8.6-12.4-1.7-1-1.3-1.7-3.5-1.7-4.9 0-3.6 4-11.5 9.3-18.6 7.6-10 8.2-12.9 3.7-19.5-3.4-5.1-3.7-8.3-1.2-12.2 2.9-4.4 7.9-7.5 16.6-10.3 7.2-2.3 9.1-2.6 16.9-2 5.3.4 8.7.3 8.7-.3 0-.5-.6-1.1-1.2-1.4-1.8-.6 3.7-6.4 8.3-8.7 5.4-2.8 6.8-.6 2.3 3.5-3.5 3.3-1.1 3.2 2.8 0 3.9-3.3 5.7-3.7 33.3-8.1 5.5-.8 13.4-2.1 17.5-2.8 4.1-.8 8.6-1.4 9.9-1.5 2.3-.1 2.3 0 .6 2.5zm-69.2.5c-.8.8-30.9 8.8-33.5 8.9-1.5 0-.8-3 1-3.8.9-.6 4.2-1.3 7.2-1.7 3-.4 8-1.6 11-2.6 6.2-2 16.1-2.6 14.3-.8zm-90.2 16.7c-2.7 5.4-5.4 11.7-6.1 14-.6 2.4-2 5.2-3.1 6.3-1.9 1.9-6.9 2.7-6.9 1 0-1 19.8-31.1 20.5-31.1.3 0-1.7 4.4-4.4 9.8zM520 86c0 1.4-9.1 7.1-10.2 6.4-1.3-.8 1.7-3.9 5.5-5.8 3.8-1.8 4.7-2 4.7-.6zm-13 6.4c0 2.5-7.2 7.8-16.6 12.3-8.9 4.2-11.4 5-11.4 3.6 0-1.6 4.5-5.3 6.5-5.3 1.2 0 3.4-1.4 5.1-3.1 6.2-6.7 16.4-11.3 16.4-7.5zm164 65.2c0 1.8-6.8 12.1-9.9 14.8-3.1 2.8-2.5 1.1 1.4-4.1 5.1-6.6 4.3-7.5-1.2-1.6-10.3 11.1-52.8 50.5-56.5 52.4-3.6 1.8-4.2 1.9-6.2.5-3.2-2-5-6.8-4.2-11.1.5-2.7 1.7-4.1 4.7-6.1 2.2-1.4 7.5-5.4 11.7-9 10.4-8.7 29.4-21.5 40-26.8 4.8-2.4 10.4-5.8 12.6-7.5 4.2-3.3 7.6-4 7.6-1.5zm10.3 7.8l3.6 5.4-2.9 1.1c-2.4.8-3 1.6-3 3.9 0 4.4-2.6 10.9-7 17.7-5 7.8-19 43.2-19 48.3 0 3-1.6 4.3-7.1 5.7-6 1.6-20.9 7.7-20.9 8.6 0 .6 25.7 13.6 27.9 14.1.8.2 1.7-.8 2.1-2.2.7-2.3.8-2.3 1.5-.6.5 1.1.4 3.2-.2 4.7-.9 2.3-.8 3.1.4 3.7 1.2.7 1 1.2-1.1 2.6-1.4.9-2.6 2.3-2.6 3.1 0 .7-.5 1.7-1.2 2.1-1.1.7-.8-3 .8-8.4.5-1.6.2-2.2-.9-2.2-1.8 0-3.3 3.9-7.8 19.5-3.1 11.1-6 17.5-12.3 28.1-2 3.2-3.6 6.6-3.6 7.5 0 .9-1 2.4-2.1 3.5-1.2 1-3.4 4.4-4.8 7.4-1.5 3-4.3 8-6.3 11-5.4 8.5-14.6 26.2-18.4 35.3l-3.4 8.2v-15.1c0-22.6 2.7-46 6.9-59.2 1.1-3.3 2.3-9.3 2.6-13.4 1.1-11.8 2.5-18.9 5.2-25.3 1.4-3.3 2.9-7.4 3.4-9 .7-3 13.4-34 18.2-44.5 5.1-11.3 21-36 28.6-44.4 2.6-2.8 6.9-8.3 9.6-12.1 6.3-9 7.6-10.5 9-10.5.7 0 2.8 2.4 4.8 5.4zm-25.9 13.3c-.9 1.6-2.9 4.6-4.3 6.8s-5.2 7.1-8.4 11c-10.5 12.6-21.6 32.3-29.1 51.5-2.1 5.2-4.7 11.9-5.8 14.8-1.1 2.9-2.2 5.1-2.4 4.9-.2-.2.3-5.9 1.1-12.6 1.4-11.4 3.7-19.3 9-31.6.7-1.7 4.4-6.6 8.2-11 3.8-4.4 9.5-11.4 12.8-15.5 10.6-13.4 24.6-26.9 18.9-18.3zm30.6 3.2c0 1.3-4 6.1-5.1 6.1-1.6 0-1-2.3 1.3-4.7 2.2-2.4 3.8-3 3.8-1.4zm5.3 6.9c-.4.9-1.9 3.7-3.5 6.1-3.7 5.9-2.7 6.5 1.8 1.3 1.9-2.3 4-4.2 4.5-4.2s.9 1.6.9 3.7c0 3.4.1 3.5 1.8 2 2.8-2.6 3.8-2.1 8.6 4l4.5 5.7-7.4 7.8c-4.1 4.3-7.5 8.3-7.5 9 0 1.2.5.8 9.2-7 4.9-4.3 7.5-5.1 9.6-3 2.4 2.4 1.1 4.9-5.4 11-11.5 10.9-11 13.4.8 3.8 4-3.3 8.1-6 9.1-6 3.3 0 1.7 3.5-4.5 9.7-3.4 3.4-6 6.5-5.7 6.7.3.3 3.8-1.7 7.8-4.4 7.9-5.4 8.9-5.8 9.7-3.5.9 2.3-.4 6.2-3.1 9.1-3.7 3.9-3.1 4.5 2.1 2.2 5.5-2.4 7.5-1.4 5.6 2.7-1.6 3.5-1.6 3.6 1.5 2.9 1.9-.5 3-.2 3.9 1 1.6 2.3.6 5.5-5 15.9-2.5 4.6-4.6 8.8-4.6 9.2 0 1.7 4.1-3 6.9-7.9 4.9-8.7 5.5-8.8 9.4-.9 4.1 8.1 12.6 32.2 16.9 48.3 2.4 8.6 3.2 13.7 3.2 20.2.1 12.9-2.2 13.5-5 1.3-4-17.6-5.2-18.8-17.8-19.3-6.8-.3-9.5.1-15.9 2.2-7.9 2.7-15.7 6.9-15.7 8.5 0 .5 2.6 0 5.7-1.1 12.5-4.3 30-6.1 34-3.3 3.2 2.3 6 13 4.8 18.6-.7 3.2-.3 3.1-19 4.9-7.8.7-13 1.7-14.9 2.8-4.3 2.5-4.4 4.2-.2 4.2 3.6 0 29.8-3.6 32.7-4.5 2.4-.8 3.6 1.3 6.9 11.4 3.9 12 8.2 21.3 11.1 24 2 1.8 2.1 2.3.9 3.1-.8.5-2.3 1-3.3 1-3.9 0-11.7 6.1-11.7 9.1 0 1.6 3 .9 6.9-1.6 2.1-1.4 5.1-2.7 6.7-2.8 4.3-.3 4.2 2.6-.2 7.5s-3.2 6.2 2.7 2.9c3.8-2.1 3.8-2.1 4.8-.2 1.4 2.5 1.4 6.8.1 7.6-.5.3-1 1.3-1 2.1 0 1.2.7 1.4 2.9.9 2.8-.6 2.9-.5 4 4.4.6 2.7 2.4 7.2 4.1 9.9 3.1 5 3.9 9.5 1.9 10.7-.6.5.3 2 2.5 4 2.6 2.3 3.6 4.1 3.6 6.2 0 1.7.9 4 2 5.3 2.4 2.7 2.5 4.9.5 7.6-2.4 3.2-1.9 4.6 1.8 4.2 4.6-.4 5 3.1.7 7.3l-3.1 3.1 2.6-.6c5.3-1.3 8.5 1.5 4.9 4.4-1.3 1.2-1.2 1.6 1.1 3.4 6.3 5.1 4.3 32.5-2.5 34.3-1.1.3-2 1.1-2 1.9 0 1.9-10.9 17.8-18 26.2-5 6-5.9 7.6-4.9 8.8.6.8 2.1 1.4 3.4 1.4 5.7 0 12.5 3.9 12.5 7.2 0 1 .4 1.8.9 1.8 2.7 0 4.5-1.8 6.5-6.4 2.6-5.7 6.7-10.6 9.1-10.6 1.9 0 1.9 2.3 0 6-.9 1.7-2 4.2-2.5 5.7-1 2.7-.9 2.7 1.9-.6 2.8-3.4 2.9-3.4 4-1.3 1.6 3 1.4 5.3-.9 8.7-2.9 4.4-2.6 6.4.5 3.5 2.8-2.6 4.6-2 2.7 1-1.7 2.7-1.5 3.7.7 4.3 2 .5 3.2 4.8 4.7 15.4.9 6.8-.7 6.9-3.4.3-1.2-2.8-2.6-5-3.2-5-1.2 0 .8 5.3 4.4 11.5 3.5 6 4.9 11.2 4.1 15.2l-.7 3.7-4.6-7.4c-2.5-4-4.8-6.8-5-6.2-.4 1.2 2.7 7.3 9.1 17.6 3.6 5.8 4.5 8.6 2.9 8.6-1.2 0-5.3-4.6-11.6-13.3-5.8-7.9-8.4-9.9-6.5-5 .5 1.5 3.9 7.1 7.4 12.5 8.7 13.2 10.5 17 11.2 23.1l.5 5.2-6.6-7c-3.6-3.9-6.5-6.6-6.6-6.2 0 1.1 2.2 5.5 8.3 16 5.5 9.6 5.5 12.5 0 6.2l-3.4-4 2.9 6c4.3 8.8 5.6 13.5 4.3 14.8-.8.8-2.6-.6-6.6-4.9-5.3-5.8-6.5-6-4.6-1.1 1.4 3.6.4 3.9-4.2 1.5-14.4-7.3-25.5-19.9-43.6-49.6l-6.3-10.2 5.4-5.9c5.9-6.3 12.1-17.4 16.2-29.1 2.7-7.4 4.1-10 5.6-10 .5 0 2.3 1.2 4 2.6 2.3 2 3.4 2.4 4.3 1.5 1.6-1.6-1.9-6-7.3-9-3-1.7-6.7-2.6-12.7-3.2-4.7-.4-8.8-1-9.1-1.4-.4-.3.4-2.4 1.6-4.7 1.3-2.2 2.1-4.2 1.8-4.6-.9-.9-5.3 3.6-6.6 6.8-1.6 3.9 0 6.5 5.2 8.2 3.9 1.3 4.3 1.8 4.6 5.2.8 9.6-11.9 28.3-29.9 44.1-4.2 3.6-9.1 8.6-10.8 11.1-3.9 5.3-5.9 5.5-11.2 1.3-4.6-3.6-4.8-4.7-1.1-5.1l2.7-.3-3.8-2.4c-9.1-5.6-20.7-23.7-21.5-33.5-.4-4.8-.2-5.4 2.2-6.9 3.2-2.1 3.6-5.2.6-4.2-1.7.5-2 .2-2-2 0-1.4-.9-3.8-2-5.3-2.2-3-2.9-12-1.4-19.7.6-3.5.5-3.9-.8-2.7-.9.7-3.8 5.9-6.6 11.5-2.7 5.6-5.6 10.8-6.4 11.4-.8.7-4.2 2.1-7.6 3.2-18.9 5.8-52.2 35.2-52.2 45.9 0 3.6 2.1 2.3 6.4-4.4 5.4-8 15.6-17.8 26.2-25.1 15.8-10.7 20.7-12.4 22.4-7.7 2.2 5.7-2.6 18.4-14.7 38.6-8.8 14.8-13.6 20.6-15.6 18.9-1.1-.8-1.8.1-3.6 4.5-4.4 10.5-22.4 27.2-37.7 34.9-6.5 3.3-6.6 3.3-8.5 1.4-1.4-1.4-1.8-2.7-1.3-4.7 1.1-4.3 3.3-8.2 4.8-8.2 1.7 0 2.2-2.2 3.6-16 3.7-35.4 18.4-70.8 41.4-99.5 13.3-16.6 13.5-17.2 9.7-26.2-2.9-6.7-2.5-8.6 1.9-9.4 1.9-.3 4.9-1.4 6.5-2.3 1.7-.9 3.5-1.6 4.1-1.6.5 0 5-1.6 10-3.6 4.9-2 15.1-5.8 22.8-8.5 7.6-2.6 14.1-5 14.3-5.3.3-.3.2-1-.2-1.7-.5-.8-3.1-1-8.4-.7-12.8.8-33.8 8.7-47.3 17.9-3.1 2.2-6 3.9-6.4 3.9-1.1 0 .4-15.2 2.2-23 1-3.8 1.4-7.3 1-7.8-1.2-1.2-3.4 2.7-4.6 8.2-1.3 6-2.4 8.1-3.9 7.2-3.4-2.1 2.3-32.6 9.4-50.1 4.6-11.3 5.3-14.5 3.4-14.5-3.1 0-16.1 34.4-18 47.5-.6 4.4-1.3 8.4-1.6 8.8-.8 1.4-7 .1-10.8-2.3-3.7-2.3-4.2-3.8-2.4-7.1.6-1.1 1.4-5.8 1.9-10.5.5-4.6 1.2-10.5 1.5-13.1.6-4.4.5-4.7-.9-2.9-.9 1.1-2.1 4.5-2.7 7.6-1.6 8-2.3 9-4.9 6.5-4.6-4.6-5-22-.9-41.8 1.1-5.4 1.8-10.5 1.6-11.5-1.2-4.8-8 20.2-9.5 35l-.8 7.3-2.3-6c-3.4-9-3.9-16.5-1.2-20.8 3.1-5 2.5-6.8-.9-2.7-3.5 4-3.4 4.7-2-12.6 2.5-30.7 10.6-52.8 30-81.4 4.4-6.5 9.2-15.9 11-21.5 1.7-5.4 2.1-5.9 3.1-4.4.5.8.6 3.7.3 6.6-1.2 10.5 4.5 25.1 13.6 34.5 7.6 7.9 11.2 8 4.9.2-6.5-8-11.8-23-13.4-37.4-.7-6.7.7-15 2.5-15 1.3 0 1.8 2.9 2.4 15 .8 15.5 5.1 27.4 14.6 40 4.8 6.4 5.6 8.9 4.2 12.9-1.7 4.9.8 5.8 2.8 1.1 1.3-3.1 3-4 3-1.7 0 .8-1.3 6-2.9 11.8-3.9 14.2-4.4 16.6-3.2 17.3 1.6 1 3.8-3.2 6.2-11.9 2.2-8.2 4.2-12.9 5.8-14 2.3-1.3 1.8 1.9-1.9 12.6-2.2 6.3-4 11.5-4 11.6 0 .1.7 0 1.5-.3s3.1-4.2 5.2-8.5c3.3-7.1 5.3-9.7 5.3-6.9 0 .6-2 6.5-4.5 13.2-2.5 6.6-4.3 12.3-4.1 12.6.9.8 3.5-1.8 4.2-4.1 1.2-3.9 5.7-12.7 6.5-12.7.9 0-.6 5.1-5 16.8-3.3 8.8-4 13.7-1.8 13 .6-.3 3-5.5 5.2-11.7 2.2-6.2 4.5-11.4 5-11.5 2.2-.3 1.4 5.4-2 14.7-3.7 10.3-4.3 14.1-2.3 13.5.7-.3 2.3-3.7 3.5-7.7 2.1-7.2 3.7-10.1 5.4-10.1 1.7 0 .9 7.7-1.6 15.1-1.4 4-2.3 7.9-2.1 8.6 1 2.6 2.5 1.2 4-4 2.3-7.7 3.1-8.6 5.3-6.4 1.6 1.6 1.8 3.8 1.8 17.8 0 14.6.2 16.2 1.9 17.4 2.6 2 1.2 3.5-7.8 8.4-9 5-11.3 6.7-10.3 7.7.4.4 5-1.4 10.2-4 8.1-4.3 10.2-4.9 15.6-5 4.9-.1 6.4.2 6.6 1.4.4 1.9-8.2 7-22.6 13.4-5.6 2.6-12 5.9-14.3 7.4-2.2 1.5-5.1 3.3-6.3 3.9-1.2.7-2.8 2-3.5 2.8-4.3 5.2 14.8-2.8 37-15.4 15.7-8.9 17-9.1 11.4-1.6-6.7 8.9-5.2 11.4 7.4 12.6 5.1.5 10.1 1.3 11.2 1.9 1.5.8 2.4.6 4-1 2.2-2.2 2.4-2.9 1.2-4.6-1.4-2.2-5.4-3.5-12.3-4.1-3.8-.3-6.9-.8-6.9-1 0-.2 2-2.9 4.5-6 8.6-10.6 7.1-13.7-7.2-14.8-4.9-.3-9.8-.8-11-1.1-3.4-.7-3.7-4.2-.9-10.6 6.5-14.7 4.2-25.1-11.8-54.2-3.9-6.9-5.1-10.2-5.5-15-.5-5.4-.9-6.1-2.8-6.4-3-.4-2.9-1.5.7-11.2 4.7-12.6 3.5-14.9-2-4-1.6 3.2-3.4 6.1-4 6.5-2.1 1.3-.9-5.7 2.6-15.2 5.4-14.7 6.4-18.2 5.4-18.8-.5-.3-3.6 5-6.9 11.7l-6.1 12.3.3-6.8c.3-7.1-.1-7.9-2.1-4.7-1.5 2.5-3.2 2.6-3.2.2 0-.9 2.9-7.9 6.4-15.5 7.7-16.4 6.6-18.2-2.5-4.2-3.4 5.2-6.6 9.5-7 9.5-1.7 0 1.4-5.8 7.6-14.5 6.6-9.2 7.6-11.5 5-11.5-3.4 0-20.4 25.2-22.8 33.7-1.3 4.9-1.9 5.2-3.5 2-6.6-12.8-9.2-36.1-5.3-48.5 1.5-5.1 6.3-14.6 18.3-36.6 3-5.4 2.7-8.4-.4-4.6-1.1 1.3-3.8 5.6-6 9.5-9.5 16.5-12.8 20.4-11.4 13.3 1.7-8.7 15.8-31.9 25.4-42 3-3.2 5.3-6.1 5-6.3-.7-.8-10.8 5.5-13.1 8-2.7 3.1-12 19-17.3 29.8-4.7 9.5-7.2 11.8-6.6 6.2.2-1.6 1.5-5.1 2.9-7.9 2.6-5.2 15.4-27 21.2-36 3.2-5.1 3.9-7.2 2.1-6.1-.6.4-4.9 6.6-9.7 13.8-10.2 15.5-9.2 14.2-9.8 13.5-1-1 2.7-10.2 6.8-17.1 3-5.1 3.7-7.1 2.8-8-2.6-2.6-.2-8.6 6.9-17.6 5.8-7.3 13.2-11.5 11.3-6.3zM601 229.6c0 2.3-2 5.5-3.1 4.9-1-.7-1.2-4.8-.2-5.8 1.2-1.3 3.3-.7 3.3.9zm.8 32.5c-.5 7.7-1.3 10.4-2.9 9.4-1.3-.9-1.1-17.8.2-21.2l1.2-2.8.9 3.5c.6 1.9.8 6.9.6 11.1zm50-7.9c1.5 1.5 1.5 3-.1 5.2-1.2 1.7-1.6 1.6-7-1l-5.8-2.9 3.3-1.2c4.3-1.5 8.1-1.6 9.6-.1zm-59.8 3.6c0 1.4-.7 6.7-1.6 11.8-1.6 8.6-1.6 9.5 0 12.7 1.7 3.8 2.1 8.3.7 9.1-.5.3-2.1-1.3-3.7-3.7-2.6-3.7-2.9-5.1-2.9-12.2 0-9.6.8-13.9 3.5-18.3 2.3-3.7 4-3.4 4 .6zm157 8.9c1.7 4.1 2.9 7.7 2.6 8-.6.6-6.9-12.8-8.1-16.9-1.2-4.6 2.3 1.1 5.5 8.9zM589.6 324c1.6 9.6 1.5 25.3-.2 29.5-1.3 3.1-2.2-4.3-3-24-.7-19.3.4-21.3 3.2-5.5zm89.1 11.6c-.4 7-.2 9.4.6 9.1.7-.2 1.3-1.3 1.5-2.5.5-3 1.8-2.8 2.6.3.4 1.5 0 3.8-.9 5.6-1.9 3.6-3.2 3-7.2-3.8-2.8-4.8-2.8-7.9.1-14.6 2.8-6.7 4-4.7 3.3 5.9zm8.4 17.7c-1.2 3.1-3.7 2.8-3.3-.3.5-4.8 1.2-5.7 2.7-3.7.9 1.2 1.1 2.7.6 4zm-83.5 40.8c-1.9 8.5-3.7 17.3-4.1 19.6-.8 5.2-1.8 5.4-3.3.7-.8-2.7-.7-4.8.4-9.2 3.1-12 8.9-28 9.9-27 .3.2-1 7.4-2.9 15.9zm-4.8 43.3c-.2 1.1-.9 2.1-1.5 2.4-.9.2-1.3-.9-1.3-4 .1-4 .2-4.2 1.6-2.3.8 1.1 1.3 2.9 1.2 3.9zm9.8 23.1c3.6 7.3 7.1 13.9 7.9 14.5 1.5 1.2 1.6 1.1 1.9-1 .3-2.7 2.1-1.1 2.4 2.1.4 5-1.8 5.7-6.1 1.9-4-3.5-8.9-12.4-12.3-22.2-5-14.9-2.2-12.7 6.2 4.7zm2.9 30.4c-.6 1.1-6.4 2.5-7.2 1.8-1.2-1.3 1.1-2.7 4.3-2.7 1.9 0 3.3.4 2.9.9zm36 36c.7 1.2-3.3 4.1-5.7 4.1-2.3 0-1.3-2.4 1.5-3.8s3.5-1.4 4.2-.3zm.5 6.8c0 1.4-7 9.6-10.2 11.9-4.5 3.4-6.7 1.2-3-3.1 5-5.8 13.2-11.3 13.2-8.8zm159 8.2c0 1.4-9.3 13.4-10.7 13.9-2.6.8-1.1-2.5 3.8-8.6 4.8-5.8 6.9-7.4 6.9-5.3zm-13 6.9c0 3.2-1.6 5.2-4.1 5.2-3 0-3-1.7-.3-4.9 3.2-3.8 4.4-3.9 4.4-.3zm-164.4 9.7c-2.8 4.8-4.6 6.4-4.6 4.3 0-2.2 6.3-11.5 6.7-10 .3.7-.7 3.2-2.1 5.7zm-11.6-.7c0 1-4 3-8.2 4.2-4.7 1.4-3.1-.4 2.5-2.7 6.2-2.6 5.7-2.5 5.7-1.5zm1.5 13.1c-2.1 6-3.4 8.1-5 8.1-2.1 0-1.9-.7 1.7-6.7 3.8-6.3 5.3-6.9 3.3-1.4zm209.3 8c5.6 14.7 8.7 32.3 7.7 43.6-.4 4.4-1 14.9-1.4 23.3-.7 14.7-1.5 18.3-4 16.8-1.3-.9-1.5-11.1-.2-13.4.6-1.1.5-3.6-.2-6.6-.8-3.5-.8-5.6.1-7.9.9-2.3.9-5.5 0-12.8-.7-7-.8-11.4 0-15.1.9-4.5.7-5.8-.9-9-2.4-4.7-6.5-18.8-7.4-25.7-1.2-8.7 1.4-5.9 6.3 6.8zm-145.1-2.2c-.9 1.6-2.3 3.6-3.3 4.4-1.6 1.3-1.7 1.2-1-1.6 1.1-4.4 3.6-7.9 4.8-6.7.6.6.5 2-.5 3.9zm2.7 8c-1.1 3.3-4.4 4.4-4.4 1.6 0-1 .7-2.9 1.6-4.2 2.2-3.1 4.2-1.3 2.8 2.6zm-74 1.5c-1.1 3.8-2.5 4.8-6.3 4.8l-3.6-.1 3.9-3.4c4.6-4.1 7.1-4.6 6-1.3zm81.7 14.5c8.4 17.7 9.9 21.3 8.9 21.3-1.2 0-13.3-18.3-15.9-24-1.9-4.3-1.5-8 .9-8 .5 0 3.3 4.8 6.1 10.7zm-99.5-7.5c-.9 1.3-2.3 3.7-3.1 5.5-1.6 3.4-6.9 5.9-10.3 4.9-2.9-1-6.7-5.5-5.6-6.6 1.5-1.5 14.5-5.8 17.8-5.9 2.8-.1 2.8 0 1.2 2.1zm83 7.3c-1.5 2.4-3.1 4.7-3.8 5.1-2 1.3 0-5.8 3-10.1 2.4-3.6 2.7-3.8 3-1.7.2 1.2-.8 4.3-2.2 6.7zm-132.7-.8c-2.6 4.3-12.7 15.3-14.1 15.3-.5 0 2.8-4.5 7.3-10 8.3-10.1 11.1-12.3 6.8-5.3zm11.1 1.7c0 1.4-5 18.7-6.2 21.6-1.9 4.5-6.5 10-8.4 10-.8 0-2.6-2.5-4.1-5.5-2.6-5.3-2.6-5.5-1-8.9 2-4.4 8-11 13.1-14.8 3.4-2.5 6.6-3.6 6.6-2.4zm132.2 6.9c6.7 12.3 18.1 24.5 28.1 30.3 3 1.7 5.7 2.4 9.5 2.4 3 0 8.3 1.1 12.4 2.5 7.9 2.7 9.8 3 9.8 1.4 0-.5-3.2-2.5-7-4.2l-7-3.2 4.7-4.1c2.7-2.2 6-4.8 7.4-5.7 2.4-1.6 2.7-1.6 4.1 0 .9 1 2.8 4.7 4.3 8.3 1.5 3.6 6 12.8 10 20.5 11.9 22.7 17 37.3 14.1 40.2-.4.4-2.1-.7-3.7-2.6-3.8-4.6-4.7-3.3-2.1 3.2 2.3 5.5 2.8 8.7 1.4 8.7-1.2 0-2.6-2.9-6.7-14-3.7-9.6-5-12-6.7-12-1.5 0 0 5.6 5.2 18.8 8.8 22.1 7.6 26.1-2.3 7.6-3.2-6-6.5-11.6-7.3-12.4-1.2-1.2-1.4-1.1-1.4.8 0 1.3.9 4 2 6.2 2.6 5.1 2.6 6.8-.1 4.4-3.4-3.1-14.8-18-22.4-29.3-7-10.4-9.5-12.9-9.5-9.4 0 3.4 14.7 31.7 21.1 40.7 7.2 10.1 17.1 20.6 19.4 20.6 1.6 0 1.9 2 .9 5.8l-.7 2.3-2.3-2.2c-3.3-3.1-3.9-1.9-1.9 3.6 1.2 3.1 1.5 4.9.8 5.6-.7.7-2.1-1.5-4.3-6.6-4.8-10.9-6.2-8.2-1.6 3.1 1.9 4.9 3.3 9 3.1 9.2-.6.6-5.9-7-8.9-13.1-3.3-6.4-5.6-8.4-5.6-4.6 0 3 6.2 15.8 10.4 21.2 1.9 2.4 3.7 5.4 4.1 6.6.5 1.8.9 2 2.1 1 .8-.6 1.4-2.2 1.4-3.5 0-1.2.5-2.6 1-2.9.6-.3 1-1.9 1-3.4 0-3.5.8-4.3 3.1-3 2.1 1.1 2.4 3.8.9 10.1-.5 2.4-1.2 5.5-1.5 7-.6 3.2-2.9 3.7-4.4 1.1-1.8-3.3-2.1-.6-.4 4 .9 2.5 1.4 4.9 1 5.3-1.5 1.5-3.7-.9-7.1-8-1.9-4.2-3.8-7.6-4.2-7.6-1.1 0 .6 5.1 4.7 14.9 3.8 8.9 4.9 15.8 2.4 15.5-.5-.1-2-3.1-3.3-6.5-1.3-3.5-2.7-6.8-3.3-7.3-1.8-1.9-.9 3.4 2.2 11.8 1.9 5.4 2.9 9.8 2.7 12.3-.4 4.8-1.8 4.3-4-1.5-1.8-4.8-3.4-6.9-4.3-6-.3.3.8 4.9 2.5 10.2 3.3 10.4 3.6 15.2.9 15-1.5-.1-1.6.8-1.1 8s.3 8-1 6.8c-.9-.7-2.1-3.3-2.8-5.7-1.3-4.6-3-6.9-3-4.1 0 .8 1.1 5 2.5 9.3 2.7 8.5 3.1 11.3 1.5 11.3-1.7 0-4.8-6.1-8-15.6-3.1-9.1-5.9-14.5-6-11.4 0 .9 1.7 6.7 3.8 13 5.9 17.4 8.7 28.9 7.5 30.1-.7.7-1.9-1.2-3.9-6.3-5.5-14.6-18.3-43.6-20.6-46.9-1.6-2.2-1.7-2.3-1.7-.4-.1 2.5 4.3 15 14.7 41.5 4.4 11.3 8.6 22.7 9.3 25.5 2.6 10.7 4.9 11.4 4.9 1.5 0-3.9.4-7 .8-7 .5 0 1.6 3.8 2.5 8.4.9 4.6 4.4 16.7 7.7 27 3.3 10.2 6 19.9 6 21.4l-.1 2.7-2-2.4c-3.2-3.9-3.2-1.7.1 6.5 2.2 5.6 3 9.1 2.8 12.3-.4 6-2.7 6.6-5.2 1.4-1-2.1-2.1-3.3-2.3-2.6-.5 1.5 2.5 7.4 4.6 9 1.3.9 1.4 1.4.4 2.4-2.2 2.2-7.4-4.1-22.7-27.1-19.7-29.7-43.2-61-45.7-61-1.5 0 2.3 6.7 10 17.5 3.8 5.5 9.1 13 11.7 16.7 2.6 3.8 4.4 7.1 4 7.5-.4.4-3.9-2.8-7.9-7.2-8-8.8-28.8-27.8-29.5-27-.7.7 8.5 11.3 27.3 31.6 9 9.7 19.3 21.4 23 26 3.7 4.6 9 10.2 11.8 12.4 4.7 3.7 9 9.3 11.8 15.5 1.6 3.5 2.3 12.4 1.1 14.5-.9 1.6-1.1 1.5-2.7-1.1-10.8-17.6-12.5-17.1-3.1 1 6.2 11.9 8.6 18.9 7.1 20.4-.6.6-3-1.7-9.7-9.7-1.5-1.8-3.2-3-3.8-2.6-1.5.9-1.2 4.1.5 5.5.8.7 2.4 3.1 3.5 5.4 1 2.2 3.1 5.6 4.6 7.3 5.7 7 .1 2.8-12.1-9.2-17.4-17-19.1-16.8-5 .5 4.2 5.1 8.3 10.6 9.1 12.2 2.4 4.6-.9 3.6-7.4-2.4-12.6-11.6-13.5-12.3-12.9-10.5.4.9 2.5 4.2 4.8 7.2 2.3 3.1 3.9 5.8 3.6 6.1-2 2.1-25-15.6-40-30.7-6.4-6.6-12.2-11.9-12.7-11.9-7.2 0 24.2 33 40 42.1 3.3 1.9 6 3.7 6 4.1 0 .5-3.1.8-6.9.8-5.3 0-7.8-.5-11.5-2.5-2.6-1.4-5.3-2.5-6-2.5-.8 0-2-.8-2.7-1.7-1.2-1.5-1.2-1.6.4-1 .9.3 1.7.2 1.7-.3 0-.6-.3-1-.7-1.1-4.8-.5-8-2.7-13.9-9.5-7.8-9.2-6.1-5.2 2 4.8 4.2 5.1 7.6 9.9 7.6 10.5 0 3.8-8.9-2-14.2-9.3-5.9-8.1-7.1-11.1-6.3-16 .6-4.3-.1-5.4-2.1-3.4-.6.6-1.8.8-2.7.4-2.3-.8-8.7-11.3-8.7-14.1 0-1.3-1.3-3.5-2.9-4.9-5.1-4.5-8.4-15.9-9.6-33.4-.8-11.7-1.1-12.7-3.5-13.3-2.7-.7-4.8-6-7.6-19.2-2.4-11.7-6.4-38.6-6.4-43.2.1-4.8 1.8-.4 4.1 10.6 1.2 5.5 2.5 10.1 3 10.1.4 0 .6-1.5.3-3.3-2.7-20.4-3-26.2-1.4-27.2 1.9-1.2 3.9 6.2 5 18 1.3 13 .7 20-1.6 19.1-1.8-.7-1.8-.7.6 4.6 1.1 2.5 2.6 8.8 3.5 14.1 1.7 10.5 2.3 12.7 3.5 12.7.5 0 3.1 4.5 6 10.1 2.8 5.5 5.4 9.8 5.7 9.5.3-.3-1.8-6.1-4.6-13-3.2-7.9-5.2-14.2-5.4-17.3-.2-4.4 0-4.8 2.1-4.6 2.6.3 2.6.6.8-6.6-.8-3.1-2.6-13.5-4.1-23.2-1.4-9.7-4.7-30-7.4-45-6.9-38.8-7.6-44.1-5.6-47.9 1.7-3.2 1.3-5-1-5-1.8 0-2.3-1.8-3-13-.6-9 1.1-28.4 3.5-39.6.5-2.2 1.9-13 3-23.9 1.2-11 2.6-22.1 3.1-24.9 1-5.5 6.9-15.6 14.9-25.6 5.1-6.3 11.7-16.8 18.1-28.8 2.1-3.9 4-6.1 4.9-5.9.8.1 3.1 3.3 5.2 7zm-126.9-1.2c1 2.8-.8 8.4-2.3 7.4-1.5-.9-1.3-10.8.3-10.3.6.3 1.6 1.6 2 2.9zm183.8 13.4c-1.3 2.9-2.9 4.9-4.6 5.5-3.6 1.4-5.5 1.2-5.5-.4 0-1.8 11.3-12.2 11.8-10.8.2.6-.6 3.2-1.7 5.7zm15.3 4.7c1.8 4 6.3 12.2 10 18.2 6.6 10.9 7.9 14 5.1 11.6-3.7-3.1-20.5-31.6-20.5-34.9 0-4 2.1-2.1 5.4 5.1zm-42.7 9c.9 1 1.2 1.8.7 1.8-1.5 0-8.4-5-8.4-6.1 0-1.2 5.5 1.9 7.7 4.3zm-207.4 19.1c.9 3 2.6 6.2 3.7 7.2s2 2.6 2 3.6c0 2.3-7 7.3-8.4 5.9-2.1-2.1-1.9-22 .3-22 .4 0 1.5 2.4 2.4 5.3zm16.7 1.4c0 1.3-.4 2.3-.9 2.3-1.2 0-2.1-2.6-2.1-5.8.1-2.6.1-2.6 1.5-.8.8 1.1 1.5 3 1.5 4.3zm311.5 12c-.3 1.3-1 2.1-1.6 1.7-1-.6-.8-2.4.8-9.7.8-3.2.8-3.2 1.1 1.2.2 2.5.1 5.5-.3 6.8zm-55.8-.4c1.7 3.4 2.4 12 1 13.4-.5.4-1.5-.1-2.3-1.2-2-2.7-5.7-15.2-4.9-16.5 1-1.6 4.2.6 6.2 4.3zm-143.7 0c0 1.8-1.7 11.7-3.6 20.4-2.3 10.7-3.8 9.4-3.1-2.5.5-9.3 1.9-15.2 4-18 1.2-1.6 2.7-1.5 2.7.1zm-10.5 15.5c-.6 3.7-1.5 7.3-1.9 8-.9 1.5-10.6 1.6-10.6.1 0-1.2 12-14.9 13.1-14.9.3 0 .1 3.1-.6 6.8zM436 734.4c0 1.6-12.9 14-13.8 13.2-.7-.8 6.6-11.4 9.2-13.2 2.6-1.8 4.6-1.8 4.6 0zm-12 19.1c0 1.2-6.8 11.1-8.9 13l-2.2 1.9 1-2.8c.6-1.5 1.1-4.3 1.1-6.1 0-2.4.7-3.9 2.2-4.9 2.1-1.5 6.8-2.2 6.8-1.1zm-13.4 8.2c-.5 4-1.7 7.5-4.1 11.5-1.9 3.1-3.5 6-3.5 6.5-.1.4-1.6 1.5-3.4 2.4-3.4 1.5-3.4 1.5-3.9-1-.3-1.5.3-4.2 1.5-6.6 2.8-5.4 12.1-18.4 13.2-18.5.5 0 .6 2.6.2 5.7zm-19.7 25c-1.5 4-4.9 9.3-6 9.3-1.2 0-1.1-.6.7-4.3 1.5-2.9 5.3-7.7 6-7.7.2 0-.1 1.2-.7 2.7zm-19.3 28.2c-1.5 2.1-4.1 5.1-5.8 6.7l-3.1 2.9 2.3-4c3.7-6.3 8.4-11.9 8.8-10.6.2.7-.8 2.9-2.2 5zm-51.6 70c-2.4 4.2-10.7 13.8-9.1 10.6 1.3-2.7 9.9-14.5 10.7-14.5.3 0-.5 1.7-1.6 3.9zm449.5 25.2c1.7 6.2 1.9 10.3.6 9.5-1-.7-5.1-13.5-5.1-16.2 0-3.5 3 .9 4.5 6.7zm-477 11.4c-2 2.5-4 4.4-4.3 4.1-.2-.3 1.2-2.6 3.3-5.1 2-2.5 4-4.4 4.3-4.1.2.3-1.2 2.6-3.3 5.1zm480.3 36.6c-.5 3.5-2.8 3.6-2.8.1 0-1.6.3-3.2.7-3.6 1.1-1.1 2.5 1 2.1 3.5zm-.8 10.4c1 1.2 1 1.8 0 3-1.6 1.9-4 .3-4-2.6 0-2.3 2.3-2.5 4-.4zm-518 8c0 3-15.6 25.4-39.1 56-15.5 20.4-20.5 26.2-21.2 25.5-.3-.3 8.6-13.1 19.9-28.5 11.2-15.4 24.6-33.7 29.7-40.7 8.1-11.2 10.7-14.2 10.7-12.3zm296 2.7c0 2.2-2.6 5.8-4.2 5.8-1 0-1.1-6.4-.1-7.3 1.5-1.6 4.3-.6 4.3 1.5zm135.5 32.3c4.4 2.9 8.8 6.7 9.8 8.4 1 1.7 1.4 3.1 1 3.1-1.9 0-26.3-17.7-26.3-19 0-1.5 7.2 2 15.5 7.5zm-10.8.1c26.6 18.1 67.3 52.5 67.3 57 0 1.5-.2 1.6-1.7.2-1-.8-7-5.7-13.3-10.8-6.3-5.2-15.3-12.6-20-16.5-8.3-6.9-19-14.8-31.9-23.5-7.1-4.8-14.1-10.8-14.1-12.1 0-2.3 4.8-.3 13.7 5.7zm-7.6 5.2c4.1 2.7 15.3 11.2 25 18.8 75.8 59.9 88.3 70.2 92.9 76.6 2.9 4 3.9 9.1 2.1 10.2-.5.3-5.4-4.3-10.9-10.2-12-12.9-24.9-23.9-52.2-44.7-11.3-8.5-27.4-20.8-35.8-27.3-8.4-6.4-17.6-13.1-20.5-14.9-12-7.3-13.9-8.7-15-11-.8-1.9-.8-2.6.2-3.3 2.2-1.3 6.3.4 14.2 5.8zm74.3 1.3c-.1 1.9-.5 9.8-.9 17.6-.5 9.6-.5 14.3.2 14.3 1.5 0 2.3-3.6 2.3-11.2 0-6.9 1.4-9.8 2.6-5.3 1.3 5-1.7 24.5-3.7 24.5-.5 0-.9-.8-.9-1.8 0-.9-1.3-2.4-2.9-3.3-2.4-1.4-3-2.6-3.6-7-.8-5.4-.8-5.4-1.7-2.1-.5 1.9-1.4 3.2-2.1 2.9-1.7-.5-2.1-5.3-.8-10.4.9-3.5.9-4.9-.4-7.3-1.5-3-1.3-5 .5-5 .5 0 1.5 2 2.2 4.4 2 6.6 3.2 5.9 4.1-2.2.9-8.6 2.2-12.5 4-11.9.7.2 1.2 1.9 1.1 3.8zm-33.6 2.8c-.2.9-1.1 1.7-2 1.9-2 .4-3.4-3.7-2.3-6.5.6-1.6.8-1.6 2.6.6 1.1 1.3 1.8 3.1 1.7 4zm-52.3-.4c5.5 2.7 25.9 17.5 25.1 18.2-.2.3-4.4-2.2-9.3-5.5-11.4-7.6-18.3-11.6-18.9-10.9-.3.3 2.1 2.3 5.3 4.5 55.2 37.3 61.5 42.2 105.6 81.3 6.7 5.8 10.5 7.5 5.7 2.4-3.7-4-1.4-2.9 3.5 1.6 4.1 3.8 6.2 7 3.4 5.3-.7-.4-1-.1-.7.7.2.8 1.6 2 3.1 2.7 4.8 2.3 4.8 9.3 0 11.5-2.4 1.1-2.8.9-5.7-2.8-5.3-6.8-20.5-22.2-33.6-33.9-14.5-13-16.6-14.6-19.7-14.6-1.3 0-2.3-.6-2.3-1.4 0-3.2-30.3-26.5-55-42.3-17.5-11.3-21.9-13.7-22.8-12.8-1 .9 3.9 4.7 13 10.3 4.2 2.5 7.5 4.8 7.3 5-.2.2-6.4-2.7-13.6-6.5-12.4-6.5-16.2-9.3-12.5-9.3.8 0 3-1.3 4.8-2.9 1.8-1.5 4-3.1 4.8-3.4 2.3-1 7 .1 12.5 2.8zm59 3.9c.7 4.4.2 6.6-1.5 6.6-1.3 0-2.2-5.4-1.4-8.4.9-3.9 2.2-3.2 2.9 1.8zm11.3 8c.2 7.1 0 8.6-1.2 8.6-2.6 0-3.6-3.6-3.4-11.3.3-7 .4-7.4 2.3-6.7 1.8.6 2 1.8 2.3 9.4zm52 62.7c4.8 2.8 9.7 6 11 7.2 2.7 2.5 2.9 5.7.4 5.7-1.9 0-15.8-10.8-20.7-16.1-3.8-4.1-2.1-3.5 9.3 3.2zm-68.8 8.6c0 7.9-3.4 22.7-8.3 36.3-12.4 34.8-30.7 66.7-33.4 58.5-.2-.6 2.2-4.9 5.3-9.5 14.1-21.2 25.3-49.5 31.4-79.2 2.6-12.6 2.7-12.8 4-12.8.6 0 1 2.8 1 6.7zm102.3 3.8c1.5 5.7 3.2 6 2.8.5-.2-3.7 1.2-5.6 2.1-2.8.3.9.9.8 2.2-.5 2.1-2.1 2.9-2.1 7-.2 3.7 1.8 4.5 3 8.1 12 2.5 6.2 2.7 7.6 2.3 17.4-.7 15.7-5 22.9-10.3 17.1-2.5-2.8-3.9-2.5-7.2 1.5-4.1 5-7.6 15.5-7.6 22.6.1 6.7-1.2 8.5-2.8 4-2-5.6-2.7-3.3-1.3 4 1.2 6.5 1.2 7.5-.6 12.2-2.3 5.9-2.4 6.7-1 6.7.5 0 1.6-1.6 2.5-3.6 1.8-4.5 3.5-3.6 3.5 1.9-.1 10.2-13.5 32.1-29.4 48.3-10.4 10.4-17.3 15.8-21.9 16.9-2.2.6-2.7.3-3.2-1.8-.4-1.4 0-5.1.8-8.4 2-7.7 8.4-21.6 9.7-20.8 4 2.5 8.3-28 4.6-33-1-1.4-1.1-2.5-.4-3.9.7-1.4.5-4.2-.7-9.9-3.5-16 1-31.3 9.6-33.2 3.1-.7 5.2-3.6 3.1-4.3-1.8-.6-1.4-4.3.8-8 2.4-4 3.8-4.1 3.2-.3-1.1 7.7 9.2 30 12.4 26.8.3-.3-.6-2.7-1.9-5.4-4.9-9.6-7.8-32.1-4.6-35.9.9-1.1.9-1.8.1-2.6-1.6-1.6-1.5-3.8.1-3.8.7 0 2.2-.7 3.3-1.5 1.8-1.4 1.8-1.5-1-3.8-2.4-1.9-2.8-2.8-2.2-5 .3-1.5 1.1-2.7 1.7-2.7.5 0 2.2-1.2 3.6-2.6 2.4-2.4 2.7-2.4 4.2-1 .9.9 2.1 3 2.6 4.6 1.4 4.1 3 3.3 3.1-1.5.3-7.4.8-7.4 2.7 0zm-95.4-2.6c3.7 2.3-2.4 25.9-13.4 51.6-7.7 18.2-21.4 45.5-23.1 46.2-.8.3-2.1 0-2.7-.6-1.3-1.3-1.4-1.1 6.3-13.6 11-17.6 24.8-54.1 27.5-72.4 1.9-12.8 2.2-13.2 5.4-11.2zm9.1 6.9c0 .5-.9 4.4-2 8.7-1.1 4.3-2 8.9-2 10.3 0 4.7-21.2 54.6-28.8 67.9-3.4 5.9-6.2 8.1-6.2 4.9 0-.8 3.8-9.1 8.4-18.4 9.7-19.7 15-32.7 17.7-42.9 1.6-6.2 5.9-18.7 9.8-28.6 1-2.5 3.1-3.8 3.1-1.9zm21.7 13.2c3.3 4.7 7.9 11.8 10.3 15.9l4.4 7.4-2.4 1.6c-4.5 3-6.5 4.9-5.8 5.6.4.4 2.3-.2 4.3-1.4 2-1.1 3.8-2.1 3.9-2.1.7 0-1.7 10.8-3.1 13.8-1.5 3.1-1.4 3.9 2.2 16.5 2.1 7.3 4.7 15.7 5.8 18.7 3 7.7 2.8 24-.3 24-.5 0-1.5-1.6-2.2-3.7l-1.3-3.6-.6 6.1c-.4 4.5-1.2 6.8-3.2 9.2-1.5 1.7-2.7 4-2.7 5 0 3-1.8 3.3-3.6.5-1.1-1.7-1.4-3.4-.9-5.3.3-1.5.9-4.3 1.1-6.2.5-3.1.4-3.3-.9-1.8-2 2.5-2.7 1.2-2.7-4.6-.1-7.3-1.8-3.7-2.8 5.6-.6 6.8-.9 7.3-3.1 7.3-2 0-2.3-.5-2.5-4-.4-7.9-10.1-25.2-15.5-27.4-4.4-1.9-5.6-5.9-5.5-18.1 0-11.7 2.4-21.8 11-47.6 5.1-15.4 8.1-22.1 9.4-20.8.4.5 3.4 4.7 6.7 9.4zm-17.7-2.9c0 2.2-.4 3.8-.9 3.5-1.1-.7-2.3-6.5-1.5-7.7 1.1-1.9 2.4.3 2.4 4.2zm28.7-3.4c3.4 2.2 15.3 16.2 15.3 18 0 2.8-4.5 1.2-8.4-3.1-3.9-4.1-11.4-16.6-10.1-16.6.3 0 1.7.8 3.2 1.7zm30.3 11.4c0 1.7-2 5.1-5.4 9.1-1.7 2.1-4.1 5-5.3 6.5-1.9 2.4-2.4 2.6-3.3 1.3-1.6-2.4-1.2-4.9 1.3-7.4 1.2-1.2 3.7-4.1 5.6-6.4 3-3.9 7.1-5.7 7.1-3.1zm-655.8 7c-2.8 4.5-12.1 14.9-13.3 14.9-.6 0 0-1.5 1.2-3.3 2.5-3.4 12.9-14.7 13.7-14.7.2 0-.5 1.4-1.6 3.1zm586.8 16.6c-3.8 13.5-12.7 39.6-15.6 45.8-2.3 5.1-2.8 5.6-3.1 3.5-.4-2.5 1.4-8.1 8.5-27 2.1-5.8 5.6-15.4 7.7-21.5 4.3-12.2 5.8-12.8 2.5-.8zm51.4-6.1c2.5 2.4 2.1 5.6-.6 5.2-2.3-.3-3.4-2.8-2.4-5.4.7-1.8 1.1-1.8 3 .2zm-6 23c1 2.5.7 8.4-.4 8.4-.5 0-1.2-1.2-1.6-2.8-.3-1.5-.8-3.3-1-4-.9-2.9 1.9-4.4 3-1.6zM7.6 1199.4c.7 2.9-1.1 6.6-3.1 6.6-1.8 0-2-4.2-.5-7.1 1.4-2.6 2.8-2.4 3.6.5zm650.1 8.1c-.3 1.9-.1 3.7.5 4.1.6.4.8 2.3.4 4.6l-.7 4 3.8-3c2.1-1.6 4.9-4.2 6.2-5.6 2.9-3.1 4.1-3.3 4.1-.8 0 2-2.4 5-16.2 20.5-11.1 12.4-11.8 15-2.3 8.2 7.2-5 16.3-14.2 20.2-20.2l3.3-5.2h11.8c6.4.1 12.8-.4 14.2-.9 2.5-1.1 2.5-1.1-.7-1.1-6.2-.2-4.5-3.1 1.8-3.1 1.5 0 6.2-.7 10.3-1.6 8.2-1.8 10.6-1.2 10.6 2.9 0 1.1.9 3.4 1.9 5.1 1.6 2.5 9.1 26.6 9.1 29 0 .3-.6.6-1.4.6-.8 0-3.6 1.8-6.1 4-5.8 5.1-11.7 8.1-22 11.3-15.6 4.8-18.1 4.5-17.7-2.2.4-5.9-3-9.1-9.5-9.1-3.8 0-7 1.1-16.2 5.7l-11.4 5.8h-17.1c-14.2 0-19-.4-28.1-2.3-22.7-4.9-36.5-9.9-36.5-13.2 0-2.6 4.8-5.8 10.8-7.1 4.1-1 5.8-.9 10.5.6 6.3 2 12.7 6.8 12.7 9.5 0 2.3 4.7 5 8.4 5 1.6 0 4.2 1.4 6.6 3.6 3.5 3.2 6 3.8 6 1.4 0-2.1-6.4-8-9.8-9.1-4.2-1.3-7.2-3.6-7.2-5.5 0-3.2 10-5.1 14.4-2.9 3.9 2 8.5 1.9 14.9-.5 6.3-2.4 13.7-8.3 13.7-11.1 0-3.1-2.5-2.2-9.5 3.6-8.2 6.7-10.9 7.3-5.7 1.3 2.3-2.7.5-4-2.9-2.2-3.9 2-4.5 1.4-2.4-2.6.9-1.8 1.5-3.4 1.2-3.6-.2-.2-3 1.1-6.2 3.1-5.8 3.4-11.2 5.1-13.7 4.2-.7-.2 3-2.5 8.2-5 5.9-2.8 12-6.7 16-10.2 8.1-7.1 17.7-13.5 20.3-13.5 1.7 0 1.9.5 1.4 3.5zm5.7 1.2c-1.3 3.8-3.4 4.1-3.4.6 0-3.4 1.9-5.8 3.4-4.3.6.6.7 1.9 0 3.7zm79.3 38.1c-1 1-1.7 2.4-1.7 3.1 0 2-4.7 3.2-7.7 2l-2.8-1.1 2.4-1.6c2.7-1.9 7.9-4 10-4.1 1.1-.1 1.1.3-.2 1.7zm8.1 14.1c.6 8.3-.6 9.2-3.8 2.7-1.8-3.9-2-5-1-8.7 1-3.8 1.3-4 2.7-2.6 1 1 1.7 4.1 2.1 8.6zm-176.1-5.8c2.8 1 37.6 9.9 46.3 11.7l4.5 1-6.5.1c-3.6 0-10.1-.8-14.5-1.8-9.2-2.3-31.5-9.8-32.9-11.2-1.3-1.2-.4-1.1 3.1.2zm107.3-.2c0 1.3-9.8 3.4-13.5 2.9l-3-.4 3.5-1.7c3.8-1.7 13-2.3 13-.8z"/><path d="M637.1 14.4c-4.2 4.2-5.9 6.6-5.1 7.1 1.2.7 9.9-7.5 12-11.4 1.9-3.7-.4-2.2-6.9 4.3zm6.9 1.3c-5.9 6-7.3 10.9-1.4 5.2 4.5-4.3 7.8-8.8 7-9.6-.3-.3-2.8 1.6-5.6 4.4zm-91.1 7.4c-4.5 5.6-14.2 19.6-15.9 22.9-3.7 7.3 11.6-10.9 17.9-21.3 3.4-5.5 2-6.7-2-1.6zm28.5-.9c-3.8 4-5.7 7.5-4.5 8.2 1.5 1 8.6-8.3 7.9-10.4-.2-.6-1.7.4-3.4 2.2zm-20.1.1C557.8 26.2 545 44.8 545 46c0 3.7 8.9-7.2 16.5-20.3 3-5.3 3-7-.2-3.4zM578.6 41c-8.9 10.6-11.1 13.8-10.2 14.7 1.4 1.5 14.4-13.6 18.5-21.5 2.5-4.7-1-1.9-8.3 6.8zm6 1.7c-3.6 4.2-6.6 8-6.6 8.5 0 2.8 6-2.9 11.9-11.5 4.9-7.2 2.2-5.6-5.3 3zm-54.5 1.9c-1.2 1.5-2.1 3.3-2.1 4.1 0 .7-.7 1.6-1.5 1.9-1.6.7-11.5 14.9-11.5 16.6 0 2.3 12-12.1 15.5-18.5 3.7-6.7 3.4-9-.4-4.1zm76.1 34c-2.8 4.8-4.9 9-4.6 9.3.9.9 4.3-3.7 7.6-10.2 4.6-9.3 2.8-8.7-3 .9zm9.4-.3c-5.7 8.7-7.2 12.5-3.8 9.4 2.4-2.2 10.6-16.6 9.9-17.3-.3-.4-3.1 3.2-6.1 7.9zM580 83.7c-6.7 4-15 10.2-15 11.3 0 1.7 1.6 1.1 7.2-2.8 11.8-8.1 17.4-14.1 7.8-8.5zm-45.4 5.8c-4.4 1.5-7.4 4.1-6.2 5.2 1.1 1.1 15.6 1 18.1-.1 1.9-.8 1.8-.9-.9-2.1l-2.8-1.2 3.3-.8c3.3-.7 3.3-.7.9-1.5-3.8-1.2-8.1-1.1-12.4.5zm43.9 7.2c-1.1.2-5.7 1.8-10.3 3.5-7.3 2.7-8.6 3-11 1.8-3.4-1.6-19.2-2.4-21.2-1.1-1.2.8-1.2 1.2.3 2.9.9 1 1.7 2.8 1.7 3.9 0 3.5 3 3.6 9.6.3 7.5-3.6 8.4-3.7 8.4-.5 0 3.1-3 5.1-10 6.5-8.5 1.7-8.6 1.8-6.8 3.7 1.4 1.4 2.3 1.4 6.5.4 6.1-1.6 12.8-5.5 14.9-8.7 3.3-5 15.9-10.4 24.6-10.4 4.2 0 6.8-.8 6.8-2.1 0-.9-9.7-1.1-13.5-.2zm14.5 32.5c0 .6.7 2 1.6 2.9 2.1 2.3 3.1 14.5 1.6 18.8-.8 2.3-.7 3.2.2 4.1 2.5 2 4-1.8 4.4-10.9.5-10.7-1.2-16.1-5.2-16.1-1.5 0-2.6.5-2.6 1.2zm34.6 18.4c-4.9 7.5-5.9 11.3-1.3 5.2 2.7-3.6 7-11.8 6.5-12.3-.2-.2-2.5 3-5.2 7.1zm-2 12.4c-1.4 1.7-2.6 3.6-2.6 4.2 0 1.4 3.8-2 5.2-4.5 1.6-3.2.2-2.9-2.6.3zm7.5 118.2c-3.4 7-6.7 13-7.2 13.3-1.6 1-.9-3.8 1.1-8.4 2.2-4.9 2.6-7.5.9-6.9-1.1.4-9.9 22.8-9.9 25.1 0 .6 1 .2 2.2-.9l2.1-1.9-.7 3.4c-.3 1.9-2.4 7.4-4.6 12.1-2.2 4.8-4 9.5-4 10.4 0 2.4 2.2 1.5 3.7-1.5 2.4-4.9 18.6-42.3 20.9-48.7 4.3-11.3 1.9-9.2-4.5 4zm-11.9 43.4c-4.4 8.8-9.5 22.4-8.7 23.2.5.6 6-10.9 10.7-22.6 1.6-4.1 2.7-7.6 2.4-7.9-.2-.3-2.2 3-4.4 7.3zm81.6-66.9c-3.5.6-3.6 2.1-.1 3.4 3.5 1.3 20.5.8 21-.7.2-.7-.7-1.4-2-1.8-3.5-.9-15.8-1.5-18.9-.9zm34.9 175.7c-5.1 1.4-8.6 4-7.3 5.3 1 1 31.7 1.7 37.4.8 2.3-.3 4.2-1 4.2-1.5s-3-1.9-6.7-3c-8.7-2.7-21.2-3.4-27.6-1.6zm20.8 36.5c-1.6 2.7 11.5 5.2 16.5 3.1 5.9-2.5 2.7-4-8.7-4-3.9 0-7.4.4-7.8.9zM744 488.6c-2.9 1.4-9.4 5.5-14.4 9.2-4.9 3.7-10.5 7.6-12.4 8.7-1.9 1.1-3.4 2.4-3.4 3 .1.5 2.6 1 5.4 1.1 7.7.3 17 4.9 13.9 6.9-.6.3-8.9.9-18.6 1.4l-17.5.7-9.2 4.7c-14.6 7.2-32.4 21.7-26.8 21.7.7 0 2.5-1.1 4.2-2.5 1.6-1.4 4.2-2.5 5.6-2.5 1.5 0 11.3-3 21.7-6.6 37.8-13 39-13.2 37.9-7.4-.6 2.6-.4 3 1.5 3 2.5 0 5.5-4.4 7.3-10.5 1.7-6 4.4-8.3 13-11 10.9-3.5 19.8-4.7 30.7-4.3 10.8.3 12-.5 7.3-5.1-2-2.1-4.3-3.1-7.7-3.7-7-1-22.5.2-27.1 2.1-3.5 1.5-21.2 4-22.1 3.2-.2-.2 2.6-1.9 6.1-3.7 11.8-6 16.1-13.7 4.6-8.4zm0 15.3c0 1.8-5.3 5.1-8 5.1-1.5 0-3.3-.7-4-1.5-1-1.3-.7-1.7 2.1-3 3.8-1.6 9.9-2 9.9-.6zm-38.4 20.7c-4.7 2.6-23.8 9.5-25 9.1-1.7-.6 6.5-4.4 16.2-7.7 9.6-3.2 13.2-3.8 8.8-1.4z"/><path d="M795 507.2c-4.2 1.8-5.1 1.9-12.7.7-4.7-.7-10.9-.9-14.5-.5-8 .8-19.6 4.2-22.8 6.7l-2.5 1.9h4.1c2.2 0 7.4-.9 11.5-1.9 8.2-2.2 19.7-3.7 16.4-2.2-1.1.5-4.5 1.6-7.5 2.5-3.1.8-6.5 2.3-7.5 3.1-2 1.5-2 1.5-.1 3 3.1 2.3 6.5 1.8 20.8-3.1 14.1-4.9 18.2-6.7 21.1-9.2 4.1-3.6.7-4.2-6.3-1zm-80 24.5c-7.6 8.6-15.6 23.8-14.5 27.3.9 2.7 3 1.1 3.8-2.8.3-1.5 4-7.8 8.1-14 7.1-10.7 8.8-14.2 6.7-14.2-.5 0-2.3 1.7-4.1 3.7zm12 7.1c0 1.9 8.2 8.1 12.8 9.6 9.3 3.2 23.3 1.2 28-4.1 3.2-3.6 1.6-4.5-4.8-2.8-10.7 2.9-23.4 1.8-34.2-3-1.1-.4-1.8-.3-1.8.3zm-19 14.7c-2.2 2.6-.4 4.5 4.2 4.5 8.8.1 19.2 7.6 26.7 19.4 4.8 7.6 8.4 11.1 10.7 10.2 1.9-.7 1.4-3.8-1.9-10.5-3.1-6.1-16-18-23.9-21.9-7.2-3.5-13.7-4.2-15.8-1.7zm-4.6 23.6c1.3 6.8 13 18.5 24.1 24.2 5.3 2.7 19.1 3.6 22 1.4 3-2.3.8-3.9-6.7-4.9-10.1-1.4-21.8-7.6-30.6-16.4-4.1-4.1-7.9-7.4-8.4-7.4-.6 0-.8 1.2-.4 3.1zm-32.1 124c1.4 16.1 11.2 51.7 20.4 73.9 9.3 22.7 13 29.7 16 31.2 2.4 1.1 3.5 3.4 7.6 14.8 10.8 30.7 19.7 51 22.3 51 1.2 0 1.4-.5.9-1.8-.5-.9-2.8-7.1-5.2-13.7-2.4-6.6-6.2-17-8.4-23-2.3-6.1-6.9-18.9-10.2-28.5-7-19.8-7.6-21-8.8-18.7-.6.9-.2 3.2.8 6.1 1.8 4.8 1.2 7-1.2 4.5-.8-.8-3.7-8.8-6.5-17.9-2.8-9.1-8-25.3-11.5-36s-8.1-26-10.3-33.9c-4.4-16.6-6.9-20-5.9-8zm133.2 422c-.9 1.4 2.3 4.9 6.2 6.5 3.8 1.7 4.9 5.5 3.9 14.5-.6 5.9.1 7.2 2.3 4.5 1.7-2 2.5-11.4 1.4-15.6-.7-2.6-2.3-4.5-6.3-7.3-5.8-4-6.5-4.3-7.5-2.6zm-12.5 46.5c0 2.4 1.9 5.4 3.5 5.4 1.9 0 1.9-.6-.2-4.1-1.9-3.2-3.3-3.8-3.3-1.3zm-13.3.1c-.8 1.3 1.3 12.3 2.9 15.4.8 1.6 2.1 2.9 2.9 2.9 1.9 0 1.9.2-1.1-9.6-2.4-8-3.7-10.4-4.7-8.7zm6.3 3.8c0 3.9 3.4 11.5 5.1 11.5.6 0 .9-.6.7-1.3-2.3-7.8-4.4-13.7-5-13.7-.5 0-.8 1.6-.8 3.5zm-11.4 6.3c-.6 1.1 1 11.1 2.5 14.8 1.3 3.6 2.9 2.9 2.9-1.4-.1-7.9-3.5-16.4-5.4-13.4zm13.9 37.2c-2.6 2.7-2.7 3-.9 3 1.9 0 6.4-3.8 6.4-5.3 0-1.7-2.9-.5-5.5 2.3zm-5.8 9.4c-.8.8-3 1.9-4.8 2.3-1.9.5-3.4 1.6-3.4 2.4 0 2 5 2.3 7.7.5 1.2-.9 3.1-1.6 4.1-1.6 2.3 0 3.4-2.9 1.6-4.1-2-1.3-3.6-1.1-5.2.5zm-66.8-9.3c-3.6 3.9-3.6 4.7 0 4.1 3.4-.5 4.6 1 3.1 3.9-1 1.8-1 1.9.8 1 3.6-1.9 4.1-3.3 2.9-7.9-1.3-5-2.9-5.3-6.8-1.1zm-25.1 8.2c-10.9 2.1-14.8 4.1-6 3.1 13.9-1.5 20.9-2.7 23.2-3.9 2.4-1.4 2.4-1.4-2-1.4-2.5.1-9.3 1-15.2 2.2zm30.1 4.2c-5 2.6-8.1 5.5-5.8 5.5 1.7 0 11.9-6.2 11.9-7.2 0-1.2-1.1-.9-6.1 1.7zm-22.4 2.5c-.8 1.2 1 3.7 3.7 5.1 2.6 1.4 3.6-1.6 1.3-4.1-2-2.2-4-2.6-5-1zm22.3 4c-3.6 1.9-5.4 3.7-4.6 4.5.6.6 10.5-4.1 11.2-5.4 1.1-1.7-2.5-1.2-6.6.9zm-27.5 7.6c-1 2.6 3.8 4.7 5.2 2.4.8-1.4-1.3-4-3.2-4-.7 0-1.6.7-2 1.6zm-71.6-317c-11.9 4.2-43.2 26-46.8 32.6-1.7 3.1.6 2 10.1-5.1 5.1-3.8 15.1-10.2 22.2-14.2 13.3-7.6 20.9-13.1 19.2-14.1-.5-.3-2.6 0-4.7.8zm-61.5 50.6c.5 1.7 16.9 9.8 27.1 13.3 14.9 5.1 37.6 4.6 48.8-1.1 9-4.5 7.3-5.7-3.1-2.2-5.1 1.7-9 2.1-18 2.2-10.7 0-12.5-.3-25.5-4.1-7.7-2.3-17-5.3-20.8-6.8-7.6-2.8-9-3-8.5-1.3zm-458.6 220.5c-14.7 3.1-40.5 13-43.5 16.6-2.3 2.8.3 2.2 20.4-5.3 10.4-3.9 21.9-8 25.7-9.1 3.7-1.2 6.5-2.5 6.2-3-.6-1.1-.2-1.1-8.8.8zm13.5 3.8c-12.1 2.7-27.9 8.8-29.5 11.4-1.3 2 1.4 2 6.1 0 2.6-1.1 12.1-3.8 21.1-5.9 9-2.1 16.6-4.1 17-4.5 1.1-1-2.1-2.5-5.3-2.4-1.6 0-5.9.7-9.4 1.4zm720.5 9.8c-.3 1.4-.8 7.1-1.2 12.8-.4 7.8-.3 10 .6 8.6.6-.9 2-1.7 3-1.7 2.3 0 4.2-3.2 3.8-6.3-.2-1.7-.9-2.1-2.7-1.9-2.2.3-2.3.2-1.6-4.5 1.1-7.9 1-8.6-.1-9-.7-.2-1.4.7-1.8 2zm10.2 13.7c-1.2 2.6-2.8 9.4-2.8 11.7 0 3.6 2.8 2.8 3.5-1 .8-4.1.2-12.8-.7-10.7z"/></g></svg>