<?xml version="1.0" standalone="no"?>
<!DOCTYPE svg PUBLIC "-//W3C//DTD SVG 20010904//EN"
 "http://www.w3.org/TR/2001/REC-SVG-20010904/DTD/svg10.dtd">
<svg version="1.0" xmlns="http://www.w3.org/2000/svg"
 width="675.000000pt" height="1280.000000pt" viewBox="0 0 675.000000 1280.000000"
 preserveAspectRatio="xMidYMid meet">
<metadata>
Created by potrace 1.15, written by Peter Selinger 2001-2017
</metadata>
<g transform="translate(0.000000,1280.000000) scale(0.100000,-0.100000)"
fill="#004c40" stroke="none">
<path d="M1704 12763 c-19 -20 -32 -39 -29 -41 2 -2 18 1 36 7 18 6 44 11 59
11 14 0 35 7 46 15 19 15 19 15 0 30 -35 27 -75 19 -112 -22z"/>
<path d="M1910 12775 c0 -23 90 -110 140 -135 65 -33 137 -111 172 -187 25
-53 33 -84 36 -150 3 -45 -1 -103 -7 -128 -19 -77 -93 -216 -145 -273 -66 -72
-131 -114 -316 -207 -85 -43 -161 -86 -167 -95 -33 -46 -84 -65 -198 -71 -60
-4 -166 -12 -235 -19 -215 -20 -361 3 -423 68 -49 51 -57 87 -57 264 0 264 39
401 153 536 29 34 69 84 89 111 51 68 146 114 293 141 274 50 278 51 261 69
-21 21 -139 27 -219 11 -34 -6 -113 -27 -175 -46 -91 -28 -119 -41 -139 -65
-53 -63 -80 -67 -303 -43 l-55 6 -25 -38 c-33 -51 -84 -78 -199 -104 -105 -24
-165 -50 -175 -75 -14 -38 -6 -62 31 -86 57 -36 64 -69 30 -132 -16 -29 -40
-73 -53 -99 -14 -26 -32 -77 -40 -115 -9 -46 -32 -99 -71 -168 -119 -209 -132
-261 -94 -369 28 -80 48 -237 61 -491 7 -115 13 -212 15 -214 10 -9 25 14 41
62 14 42 18 93 19 257 1 113 6 232 10 265 6 52 3 73 -24 155 -44 137 -47 169
-23 222 25 58 85 124 135 149 52 27 149 46 279 54 l108 7 10 -28 c7 -17 8 -59
4 -110 -6 -78 -5 -86 21 -136 68 -129 95 -246 115 -498 10 -122 14 -139 40
-180 16 -24 27 -46 26 -48 -2 -2 -36 13 -75 32 -71 36 -130 46 -161 26 -17
-11 -16 -13 34 -31 67 -24 55 -35 -60 -53 -123 -19 -149 -31 -196 -86 -42 -48
-127 -218 -135 -267 -6 -33 -5 -35 14 -25 10 6 39 47 63 91 52 97 134 180 217
219 49 23 72 27 155 29 107 1 123 8 157 63 35 58 29 146 -23 341 -48 179 -59
229 -49 229 3 0 39 -16 79 -35 146 -70 294 -202 393 -349 27 -39 77 -97 112
-128 35 -30 72 -69 82 -86 17 -30 17 -31 -9 -62 -70 -82 -174 -96 -333 -42
-102 35 -120 34 -188 -5 -63 -36 -90 -101 -48 -117 9 -3 22 9 35 30 25 39 53
44 74 12 7 -13 30 -111 50 -219 47 -253 78 -366 124 -459 28 -56 43 -76 60
-78 30 -4 28 6 -14 90 -19 39 -40 97 -45 129 -5 32 -27 118 -49 191 -52 173
-70 261 -70 348 0 53 3 70 14 70 33 0 143 -90 238 -193 177 -193 257 -265 278
-252 21 13 8 33 -81 120 -93 93 -119 128 -119 166 0 16 4 19 18 14 9 -4 71
-20 137 -36 187 -45 244 -65 328 -115 43 -26 80 -44 83 -41 10 10 -15 44 -60
80 -64 53 -165 95 -294 122 -125 27 -136 31 -125 48 4 7 6 23 4 35 -5 43 70
102 174 137 28 9 95 21 150 25 104 9 135 16 135 31 0 22 -61 33 -177 32 -68 0
-123 3 -123 7 0 4 25 19 55 35 61 30 67 52 14 47 -90 -9 -93 -9 -110 25 -36
71 -63 80 -125 38 -20 -14 -40 -25 -45 -25 -18 0 -38 32 -44 72 -12 85 -28
148 -37 148 -4 0 -8 -14 -8 -31 0 -45 -20 -117 -37 -130 -18 -16 -34 1 -57 60
-16 41 -16 45 2 74 33 57 68 69 226 77 187 9 249 35 262 107 13 71 97 166 181
205 35 15 55 17 122 12 99 -8 107 1 62 79 -17 30 -31 63 -31 74 0 23 18 43 39
43 8 0 30 15 49 33 l33 32 -25 -55 c-14 -30 -26 -72 -26 -92 0 -31 5 -40 30
-53 51 -27 63 -21 57 27 -7 54 6 78 42 78 32 0 36 -7 46 -73 9 -61 -10 -148
-52 -232 -41 -82 -193 -301 -252 -362 -83 -88 -60 -194 49 -223 46 -12 117 -6
165 15 36 15 28 19 -69 34 -38 5 -73 14 -78 19 -13 13 62 121 120 173 27 25
102 73 167 108 64 35 145 85 178 110 l62 46 -33 3 c-20 2 -55 -7 -90 -23 -65
-30 -231 -135 -280 -177 -18 -16 -37 -26 -43 -23 -11 7 1 33 46 95 18 25 36
55 39 68 8 25 55 63 104 82 34 13 40 28 20 48 -16 16 1 33 105 102 45 30 82
60 82 65 0 6 -15 11 -33 13 -26 3 -41 -4 -73 -32 -71 -65 -104 -43 -97 62 5
64 29 135 60 176 14 18 16 18 61 -8 75 -44 215 -73 231 -47 6 9 -28 43 -61 60
-12 6 -40 11 -63 11 -124 0 -237 124 -248 271 -5 76 8 126 43 159 22 20 38 23
187 31 90 5 273 15 408 24 234 14 390 21 995 45 149 6 371 18 495 25 752 48
1088 58 1434 45 186 -7 277 -14 300 -24 59 -24 117 -87 201 -216 76 -116 151
-201 202 -228 38 -21 126 54 151 127 33 96 -19 253 -125 377 -22 27 -72 59
-79 51 -3 -3 11 -37 30 -76 35 -69 47 -133 26 -146 -5 -3 -10 -19 -10 -34 0
-15 -9 -36 -20 -46 -72 -65 -273 148 -228 242 7 15 29 37 48 50 91 58 101 77
53 90 -35 10 -84 9 -668 -11 -754 -26 -1002 -36 -1140 -46 -317 -23 -775 -45
-1255 -60 -184 -6 -452 -15 -595 -20 -143 -6 -299 -10 -348 -10 l-87 0 -93 87
c-196 184 -337 275 -337 218z m4392 -207 c31 -24 26 -51 -12 -70 -45 -23 -82
-23 -221 2 -63 11 -148 20 -189 21 -41 0 -84 4 -94 8 -19 7 -18 8 5 14 13 4
93 12 178 17 85 6 157 13 160 15 10 11 158 4 173 -7z m-1022 -58 c0 -5 -9 -10
-19 -10 -11 0 -23 5 -26 10 -4 6 5 10 19 10 14 0 26 -4 26 -10z m-356 -9 c8
-12 -55 -20 -219 -27 -148 -7 -172 3 -57 22 81 14 269 17 276 5z m-4119 -41
c25 -6 20 -8 -28 -9 -37 -1 -56 3 -52 9 7 11 36 11 80 0z m3135 0 c20 -6 16
-8 -23 -9 -30 -1 -46 3 -42 9 7 11 29 11 65 0z m265 0 c14 -6 -2 -9 -50 -9
-48 0 -64 3 -50 9 11 5 34 9 50 9 17 0 39 -4 50 -9z m-870 -29 l50 -7 -55 -7
c-193 -26 -402 -33 -520 -18 l-55 7 85 12 c47 6 101 13 120 15 65 7 325 5 375
-2z m-722 -20 c91 -21 55 -40 -109 -58 -131 -14 -138 -14 -151 3 -27 38 30 61
152 63 39 0 87 -3 108 -8z m-1897 -22 c58 -15 58 -29 -8 -182 -47 -108 -53
-130 -54 -197 -1 -41 -2 -80 -3 -87 -2 -20 -67 -34 -143 -31 -40 1 -101 -1
-135 -6 -62 -8 -62 -8 -75 19 -25 55 56 284 133 378 56 68 140 114 212 116 16
1 48 -4 73 -10z m-346 -84 c0 -14 -40 -34 -57 -28 -16 6 -17 35 -2 50 14 14
59 -3 59 -22z m6290 -144 c0 -6 -5 -13 -11 -17 -6 -3 -8 -15 -5 -26 4 -18 1
-20 -31 -15 -60 10 -82 40 -40 57 30 12 87 12 87 1z m-5290 -671 c0 -5 -9 -10
-19 -10 -11 0 -23 5 -26 10 -4 6 5 10 19 10 14 0 26 -4 26 -10z m327 -23 c-20
-18 -37 -40 -37 -49 0 -38 -27 -48 -128 -48 -74 0 -107 -5 -140 -20 -95 -43
-298 -46 -411 -5 l-36 13 30 12 c19 9 100 15 230 17 217 5 202 2 445 92 78 29
91 26 47 -12z m-477 -57 c0 -5 -18 -10 -39 -10 -22 0 -43 5 -46 10 -4 6 12 10
39 10 25 0 46 -4 46 -10z m301 -551 c7 -14 8 -24 1 -31 -17 -17 -42 -1 -42 27
0 31 25 34 41 4z"/>
<path d="M1365 12370 c16 -25 -26 -60 -96 -81 -39 -12 -73 -28 -76 -36 -10
-26 27 -53 73 -53 55 0 83 11 128 50 45 40 50 88 11 114 -28 18 -49 21 -40 6z"/>
<path d="M1248 12356 c-18 -13 -25 -46 -10 -46 10 0 52 43 52 53 0 11 -24 7
-42 -7z"/>
<path d="M2810 11728 c0 -8 28 -30 63 -48 224 -117 330 -223 387 -384 10 -28
34 -92 54 -143 20 -50 58 -178 86 -284 28 -106 52 -194 54 -197 3 -2 9 -1 15
3 19 11 12 144 -15 272 -57 277 -154 484 -294 624 -91 92 -350 208 -350 157z"/>
<path d="M2195 11568 c-16 -39 -12 -48 20 -48 28 0 38 22 25 55 -13 34 -28 31
-45 -7z"/>
<path d="M685 10641 c-42 -31 -169 -167 -199 -213 -10 -15 -16 -33 -14 -40 3
-8 52 33 120 100 64 61 120 112 126 112 6 0 -7 -38 -29 -85 -22 -47 -37 -90
-33 -96 9 -16 77 54 103 106 16 32 21 58 19 92 -3 43 -6 48 -28 51 -15 2 -40
-8 -65 -27z"/>
<path d="M1575 10631 c-7 -13 5 -19 160 -81 211 -85 224 -90 242 -90 14 0 14
3 -3 21 -28 31 -90 65 -210 114 -104 43 -176 56 -189 36z"/>
<path d="M3444 10558 c-16 -36 -18 -66 -17 -187 2 -123 -1 -152 -18 -205 -19
-55 -21 -72 -13 -176 5 -63 9 -171 9 -240 0 -135 -8 -162 -64 -224 -22 -24
-23 -28 -6 -21 93 37 105 39 117 27 9 -9 7 -23 -10 -65 -12 -29 -22 -57 -22
-62 0 -6 20 -59 45 -119 48 -120 62 -193 47 -249 -13 -47 6 -50 49 -8 26 26
29 36 29 90 0 69 -27 149 -68 207 -25 35 -27 43 -19 79 18 76 13 263 -10 350
-30 112 -36 201 -23 340 24 274 24 505 0 505 -4 0 -16 -19 -26 -42z"/>
<path d="M116 10479 c-24 -124 25 -346 98 -442 41 -54 79 -79 175 -116 97 -37
190 -62 351 -95 197 -39 251 -48 316 -51 71 -3 112 -22 151 -70 39 -46 58
-111 83 -281 24 -164 51 -267 110 -419 23 -60 63 -168 88 -240 l45 -130 -11
-90 c-6 -49 -34 -189 -61 -310 -27 -121 -55 -260 -61 -310 -22 -171 -42 -259
-92 -399 -149 -421 -176 -516 -149 -516 13 0 46 44 58 77 6 15 20 62 32 103
30 102 100 290 118 315 12 17 13 6 8 -85 -7 -126 2 -118 39 35 32 131 42 151
52 111 11 -45 -3 -172 -36 -337 -19 -96 -28 -164 -24 -185 13 -72 -39 -108
-174 -119 -45 -4 -85 -11 -87 -15 -3 -4 8 -16 23 -26 20 -14 46 -19 97 -19 67
0 70 -1 73 -25 2 -14 -13 -67 -33 -117 -35 -92 -47 -184 -25 -198 13 -8 66 88
89 161 11 33 29 119 40 190 47 288 83 436 102 417 6 -6 15 -84 20 -174 10
-181 22 -291 44 -391 37 -175 130 -293 221 -281 95 12 184 -46 218 -144 11
-28 21 -105 26 -188 10 -155 27 -272 41 -280 18 -12 22 53 13 219 -4 94 -8
202 -9 240 0 67 1 69 38 101 47 41 92 52 261 65 112 9 152 15 135 22 -2 1
-166 4 -365 7 l-360 6 -60 30 c-50 26 -62 38 -86 85 -29 58 -43 165 -108 795
-11 110 -29 277 -40 371 -21 195 -17 276 23 479 14 66 28 143 31 170 17 125
20 126 71 27 30 -60 34 -64 35 -37 0 33 -34 138 -149 457 -78 218 -134 418
-152 548 -6 47 -18 104 -25 128 -23 71 -18 117 14 142 33 27 84 24 255 -16 69
-16 141 -26 187 -25 71 0 81 -3 203 -61 104 -49 130 -58 142 -48 28 23 15 37
-72 78 -153 70 -328 114 -608 152 -527 72 -764 121 -931 193 -32 14 -77 28
-99 32 -86 14 -146 64 -185 153 -17 37 -100 335 -100 357 0 3 -4 5 -9 5 -5 0
-11 -14 -15 -31z"/>
<path d="M1114 10476 c-18 -47 189 -396 235 -396 17 0 13 20 -15 79 -23 52
-202 331 -210 331 -3 0 -7 -6 -10 -14z"/>
<path d="M1784 9618 c-32 -51 420 -328 701 -431 160 -58 285 -84 285 -59 0 15
-71 42 -111 42 -46 0 -166 49 -394 161 -155 75 -289 159 -380 237 -61 53 -91
67 -101 50z"/>
<path d="M3125 9498 c-22 -5 -206 -11 -410 -14 -203 -3 -380 -7 -392 -10 -34
-7 -28 -22 15 -33 49 -14 495 -14 619 0 92 10 196 40 208 60 4 5 5 8 3 8 -2
-1 -21 -6 -43 -11z"/>
<path d="M2040 9294 c84 -85 131 -115 361 -233 359 -184 541 -251 752 -276 76
-9 73 7 -5 30 -153 43 -344 108 -454 155 -200 86 -517 258 -648 352 -62 45
-65 33 -6 -28z"/>
<path d="M2895 9333 c-90 -11 -137 -25 -126 -36 20 -20 245 -15 315 6 44 14
56 21 45 28 -13 8 -173 10 -234 2z"/>
<path d="M2634 9299 c-10 -16 29 -63 56 -67 41 -6 43 13 5 47 -38 33 -50 37
-61 20z"/>
<path d="M3230 9139 c-28 -11 -70 -48 -70 -61 0 -24 131 21 159 55 12 15 10
17 -25 16 -22 0 -50 -5 -64 -10z"/>
<path d="M3005 8980 c-19 -7 -18 -8 7 -18 15 -6 89 -27 165 -47 76 -20 146
-39 157 -42 13 -4 16 -1 11 7 -15 25 -172 90 -241 100 -79 11 -73 11 -99 0z"/>
<path d="M3536 8914 c-11 -29 -6 -66 18 -134 75 -207 91 -433 88 -1254 -1
-352 0 -648 4 -658 7 -23 37 -23 55 -1 19 23 18 885 -1 1088 -14 143 -16 247
-9 510 l4 150 -32 69 c-18 37 -33 74 -33 82 0 24 -32 108 -52 137 -22 31 -33
34 -42 11z"/>
<path d="M2461 7975 c-72 -13 -102 -27 -87 -42 6 -6 146 17 286 47 65 14 -120
9 -199 -5z"/>
<path d="M3064 7883 c17 -124 36 -186 52 -170 16 16 8 104 -15 160 -29 70 -46
75 -37 10z"/>
<path d="M2257 7854 c-13 -13 -7 -109 9 -165 22 -73 62 -145 92 -165 34 -22
182 -30 289 -16 129 18 364 74 360 86 -5 16 -101 19 -182 7 -38 -6 -113 -16
-165 -22 -52 -5 -112 -12 -133 -15 -56 -9 -104 4 -143 38 -50 44 -75 100 -83
182 -4 53 -10 72 -21 74 -9 1 -19 0 -23 -4z"/>
<path d="M3503 6767 c-27 -18 -84 -62 -128 -97 -95 -78 -139 -106 -180 -115
-16 -4 -55 -16 -85 -25 -30 -10 -115 -26 -189 -35 -74 -9 -141 -20 -150 -24
-29 -17 61 -31 198 -31 135 0 209 -13 218 -37 3 -7 0 -149 -6 -316 -11 -323
-22 -401 -90 -648 l-29 -107 38 5 c57 8 62 -9 55 -184 -4 -137 -4 -145 9 -106
36 105 56 334 78 853 18 432 17 477 -15 542 -15 29 -22 54 -18 56 5 2 67 43
138 91 70 48 165 110 211 136 66 38 80 50 71 61 -20 24 -74 16 -126 -19z
m-323 -1338 c0 -17 -4 -28 -10 -24 -5 3 -10 17 -10 31 0 13 5 24 10 24 6 0 10
-14 10 -31z"/>
<path d="M1242 6451 c-16 -16 -34 -42 -40 -58 -7 -15 -34 -156 -62 -313 -79
-448 -124 -628 -201 -802 -82 -187 -123 -401 -123 -643 0 -141 4 -179 33 -320
41 -200 49 -323 28 -425 -9 -41 -19 -101 -22 -134 -4 -32 -22 -119 -42 -195
-55 -216 -93 -370 -109 -446 -20 -94 -28 -301 -17 -405 29 -251 -87 -509 -295
-657 -36 -26 -60 -49 -55 -50 6 -2 60 12 120 32 61 19 118 35 127 35 10 0 31
-9 48 -21 16 -12 32 -19 35 -15 3 3 -4 29 -16 57 -24 58 -27 99 -8 99 6 0 26
-9 42 -20 41 -27 45 -26 45 20 0 29 5 43 19 52 19 11 19 13 -10 45 -51 59 -43
109 56 329 30 67 55 132 55 145 0 22 -2 21 -35 -11 -25 -24 -36 -30 -39 -19
-14 36 -25 112 -31 194 -6 85 -4 98 34 235 64 225 108 413 131 555 20 128 25
144 36 133 6 -6 36 -153 54 -267 16 -98 30 -75 30 50 0 146 -33 362 -89 581
-62 244 -67 310 -46 548 23 269 46 341 128 417 l44 41 22 173 c57 443 116 753
190 989 12 36 21 73 21 83 0 26 -25 21 -58 -12z"/>
<path d="M2046 5661 c-3 -5 -10 -60 -16 -122 -11 -128 -37 -280 -81 -479 -17
-74 -43 -198 -59 -275 -16 -77 -38 -174 -50 -215 -39 -142 -77 -399 -100 -685
-6 -71 -17 -210 -25 -308 -16 -191 -11 -237 19 -178 10 18 21 76 26 134 5 56
17 140 25 187 9 47 27 182 40 300 38 335 41 348 115 655 53 217 87 377 96 462
4 29 10 53 15 53 21 0 49 -119 74 -316 39 -305 118 -476 350 -759 169 -205
400 -442 464 -474 23 -12 45 -21 47 -19 2 2 -51 64 -117 138 -295 331 -355
402 -424 505 -144 217 -213 369 -255 560 -25 116 -70 466 -80 629 -5 65 -11
135 -15 155 -9 51 -34 77 -49 52z"/>
<path d="M2612 5047 c8 -25 147 -119 261 -178 65 -33 121 -58 125 -55 9 9 -37
53 -87 84 -211 130 -308 178 -299 149z"/>
<path d="M3146 4960 c-56 -10 -106 -29 -106 -40 0 -16 56 -26 105 -19 28 4 68
8 90 8 l40 1 -47 -41 c-27 -22 -48 -45 -48 -50 0 -14 38 -11 70 6 27 14 70 71
70 93 0 34 -92 56 -174 42z"/>
<path d="M3240 4795 c0 -8 7 -32 16 -54 11 -29 22 -40 42 -44 54 -10 56 17 6
73 -37 41 -64 52 -64 25z"/>
<path d="M3061 4686 c2 -2 67 -38 143 -81 230 -126 291 -184 375 -352 22 -45
74 -140 115 -211 69 -120 124 -234 141 -292 4 -14 18 -46 31 -72 13 -26 24
-50 24 -53 0 -15 -44 1 -134 49 -56 30 -121 59 -144 65 -60 17 -142 67 -300
185 -364 271 -296 195 128 -144 113 -90 233 -188 267 -217 35 -29 155 -114
269 -188 143 -95 227 -157 273 -204 36 -38 114 -109 172 -158 167 -143 192
-214 113 -317 -19 -25 -30 -46 -25 -46 5 0 13 5 16 10 10 16 102 60 126 60 20
0 21 4 16 45 -4 25 -16 64 -28 88 -24 46 -365 397 -439 452 -25 18 -116 73
-202 123 -142 81 -297 186 -313 212 -10 17 34 11 73 -9 20 -11 60 -39 87 -62
79 -66 235 -132 235 -99 0 7 -17 32 -38 54 -26 28 -89 143 -190 347 -176 352
-306 569 -387 646 -31 30 -86 67 -128 87 -77 37 -299 103 -276 82z"/>
<path d="M2610 4406 c0 -12 184 -317 244 -404 39 -57 103 -152 141 -212 63
-98 154 -231 307 -447 29 -40 49 -75 46 -78 -13 -13 -41 14 -132 125 -99 122
-158 172 -178 152 -11 -11 13 -42 248 -323 72 -87 226 -282 341 -435 261 -346
371 -478 403 -482 19 -3 22 0 17 17 -17 67 -329 521 -482 701 -91 107 -130
165 -235 345 -51 88 -150 241 -220 340 -71 99 -147 212 -171 250 -23 39 -53
83 -66 99 -14 16 -54 88 -90 160 -69 140 -113 196 -150 196 -13 0 -23 -2 -23
-4z"/>
<path d="M1663 3195 c-11 -8 -28 -38 -38 -67 -9 -29 -55 -152 -102 -273 -80
-204 -143 -384 -143 -407 0 -5 -11 -33 -25 -63 -24 -50 -26 -63 -24 -184 2
-107 -1 -134 -14 -155 -20 -29 -56 -50 -107 -61 l-35 -8 52 49 c46 43 75 96
60 110 -7 7 -135 -46 -199 -83 -69 -40 -113 -91 -136 -157 -23 -65 -64 -91
-243 -152 -148 -50 -217 -86 -244 -128 -22 -33 -12 -46 32 -46 35 0 103 33
103 50 0 5 18 11 39 15 63 10 149 57 256 139 113 86 165 114 233 123 31 4 53
14 64 28 27 35 71 48 136 41 189 -20 175 -21 209 8 l32 27 17 -33 18 -33 12
40 c9 30 13 36 19 23 4 -9 18 -24 33 -34 25 -16 26 -16 44 6 12 15 18 38 17
74 -1 60 -17 113 -18 59 -1 -42 -23 -53 -104 -53 -55 0 -68 -4 -89 -25 l-25
-25 1 54 c0 40 -5 60 -18 75 -23 25 -37 26 -76 6 -17 -9 -30 -12 -30 -8 0 5 7
49 16 98 16 93 61 233 184 565 138 375 152 420 128 420 -7 0 -23 -7 -35 -15z
m-202 -1138 c-6 -15 -15 -27 -21 -27 -16 0 -12 38 8 68 16 24 17 25 20 6 2
-11 -2 -32 -7 -47z"/>
<path d="M837 2894 c-57 -30 -40 -74 30 -74 24 0 52 -4 61 -9 18 -10 72 -3 72
9 0 4 -12 12 -26 19 -25 11 -25 12 -10 36 9 13 16 26 16 27 0 10 -122 3 -143
-8z"/>
<path d="M4744 2609 c12 -63 55 -133 144 -239 92 -110 122 -131 122 -86 0 17
-27 59 -78 123 -43 54 -96 124 -116 156 -21 32 -47 62 -59 68 -19 11 -20 9
-13 -22z"/>
<path d="M4403 2487 c-15 -19 -26 -22 -63 -19 -40 3 -53 -2 -108 -38 -61 -41
-132 -119 -132 -146 0 -24 18 -15 56 25 83 91 126 72 221 -99 35 -63 75 -126
88 -140 31 -32 31 -34 0 -104 -35 -79 -33 -90 10 -83 43 7 48 0 100 -128 58
-141 103 -221 151 -265 74 -68 122 -54 230 71 63 73 165 270 189 365 17 71 20
192 4 247 -9 35 -13 38 -42 35 -34 -3 -34 0 -21 -84 5 -30 2 -45 -9 -55 -10
-9 -13 -26 -9 -51 7 -53 -19 -61 -126 -40 -45 8 -85 12 -89 9 -11 -12 27 -44
60 -51 71 -14 96 -78 61 -152 -23 -48 -114 -128 -161 -142 -65 -19 -88 -15
-143 29 -51 40 -52 42 -47 85 2 25 20 70 41 105 20 34 35 64 32 66 -2 3 -14
-1 -26 -7 -30 -16 -94 -9 -98 11 -5 27 59 100 115 131 31 17 70 31 94 32 27 1
46 9 55 21 23 31 6 38 -75 30 -42 -5 -112 -9 -156 -9 -77 -1 -80 0 -83 22 -2
13 1 36 8 51 7 18 8 35 1 52 -9 23 -10 23 -10 -8 -1 -18 -5 -33 -10 -33 -5 0
-28 21 -51 46 l-43 47 6 98 c3 55 4 99 2 99 -2 0 -12 -10 -22 -23z m-48 -122
l6 -30 -20 35 c-24 41 -27 60 -7 40 8 -8 17 -28 21 -45z m284 -254 c11 -7 10
-11 -7 -20 -41 -22 -74 -5 -34 18 21 13 24 13 41 2z"/>
<path d="M3090 2313 c-44 -23 -47 -49 -5 -45 37 4 78 29 72 45 -6 19 -29 19
-67 0z"/>
<path d="M3120 2252 c0 -22 13 -42 27 -42 21 0 12 44 -9 48 -10 2 -18 -1 -18
-6z"/>
<path d="M2072 2175 c0 -51 1 -55 8 -27 4 19 4 46 0 60 -6 21 -8 13 -8 -33z"/>
<path d="M3035 2220 c9 -15 65 -42 65 -32 0 15 -35 42 -54 42 -9 0 -14 -5 -11
-10z"/>
<path d="M4596 2205 c-11 -9 -16 -20 -12 -31 6 -16 8 -15 26 1 20 18 27 45 13
45 -5 0 -16 -7 -27 -15z"/>
<path d="M1767 2114 c-16 -56 -18 -121 -4 -132 25 -21 40 11 35 73 -5 59 -22
91 -31 59z"/>
<path d="M2132 2089 c-28 -35 -55 -37 -117 -8 -48 22 -83 20 -140 -9 -39 -20
-54 -41 -55 -76 0 -23 3 -27 18 -21 92 35 138 45 178 39 27 -4 44 -12 44 -20
0 -43 57 -9 81 48 l12 30 18 -47 c35 -93 75 -105 62 -20 -5 36 -55 116 -71
114 -4 0 -17 -13 -30 -30z"/>
<path d="M3115 2097 c-10 -40 -2 -92 15 -92 11 0 15 13 15 54 0 58 -19 82 -30
38z"/>
<path d="M2260 2030 c0 -38 2 -40 30 -40 44 0 50 26 14 56 -39 32 -44 30 -44
-16z"/>
<path d="M2396 2055 c-13 -10 -17 -21 -12 -39 12 -47 56 -20 56 33 0 24 -17
26 -44 6z"/>
<path d="M773 2007 c-39 -36 -41 -70 -5 -60 28 7 92 62 92 79 0 26 -49 15 -87
-19z"/>
<path d="M550 2008 c16 -16 99 -42 107 -34 7 7 -47 33 -87 41 -31 6 -33 5 -20
-7z"/>
<path d="M4272 1988 c-22 -22 -14 -55 18 -68 17 -7 30 -18 30 -24 1 -6 8 2 16
17 8 15 14 40 12 55 -2 22 -9 28 -33 30 -17 2 -36 -3 -43 -10z"/>
<path d="M4392 1973 c-6 -10 -13 -37 -17 -60 -5 -34 -4 -43 8 -43 8 0 17 14
21 33 3 17 9 44 12 60 7 31 -10 37 -24 10z"/>
<path d="M4170 1975 c0 -21 32 -75 44 -75 21 0 20 8 -4 48 -17 28 -40 43 -40
27z"/>
<path d="M310 1923 c-50 -25 -112 -91 -141 -148 -28 -58 -34 -174 -10 -218 28
-52 133 -72 212 -40 l41 16 -38 19 c-87 42 -129 115 -122 210 4 55 8 64 41 94
33 31 42 34 99 34 l62 0 -20 20 c-29 29 -81 34 -124 13z"/>
<path d="M2921 1916 c-9 -11 -8 -18 4 -30 20 -20 35 -20 60 -2 16 12 17 16 6
30 -17 20 -55 21 -70 2z"/>
<path d="M3060 1904 c-14 -35 -13 -77 2 -72 17 6 47 68 41 84 -8 23 -33 16
-43 -12z"/>
<path d="M547 1854 c-9 -9 21 -77 40 -91 24 -18 43 -16 43 5 -1 27 -70 99 -83
86z"/>
<path d="M2870 1753 c0 -10 82 -93 93 -93 12 0 8 55 -6 73 -13 19 -87 36 -87
20z"/>
<path d="M3018 1606 c-10 -7 -18 -18 -18 -25 0 -17 40 -13 47 5 8 23 -9 35
-29 20z"/>
<path d="M2870 1505 c-16 -19 -5 -47 17 -43 22 4 29 43 9 51 -8 3 -20 -1 -26
-8z"/>
<path d="M2846 1395 c-18 -19 -20 -34 -6 -55 9 -13 13 -12 30 9 24 28 25 35 6
50 -11 9 -18 8 -30 -4z"/>
<path d="M2970 1310 c0 -16 5 -30 10 -30 6 0 10 14 10 30 0 17 -4 30 -10 30
-5 0 -10 -13 -10 -30z"/>
<path d="M2902 998 c-14 -14 -16 -58 -4 -58 9 0 32 44 32 60 0 14 -14 12 -28
-2z"/>
<path d="M2754 976 c-8 -21 3 -36 27 -36 15 0 20 6 17 22 -4 27 -35 37 -44 14z"/>
<path d="M2754 786 c-8 -21 13 -46 32 -39 20 8 13 47 -9 51 -9 2 -20 -4 -23
-12z"/>
<path d="M2864 785 c-3 -8 -3 -19 1 -25 9 -14 45 6 45 25 0 19 -39 19 -46 0z"/>
<path d="M2863 614 c-3 -8 -1 -20 5 -26 16 -16 42 -2 42 22 0 24 -38 28 -47 4z"/>
<path d="M2663 498 c-35 -17 -27 -30 14 -26 27 2 39 8 41 21 4 20 -20 22 -55
5z"/>
<path d="M2827 442 c-35 -38 -9 -72 27 -36 20 19 21 54 3 54 -8 0 -21 -8 -30
-18z"/>
<path d="M2529 362 c5 -10 17 -25 26 -32 27 -22 55 -87 55 -126 l0 -37 -23 21
c-31 29 -39 28 -99 -12 l-51 -35 51 -7 c68 -9 69 -28 1 -22 -101 10 -133 60
-105 165 21 82 9 103 -27 47 -33 -50 -51 -115 -43 -148 10 -39 73 -76 153 -88
123 -18 115 -15 108 -51 l-7 -32 25 28 c31 32 66 47 113 47 28 0 36 -5 44 -25
6 -15 17 -25 29 -25 52 0 20 41 -66 84 -28 14 -55 31 -59 38 -5 7 -7 38 -6 70
2 51 -1 60 -29 93 -28 31 -76 65 -94 65 -3 0 -1 -8 4 -18z"/>
</g>
</svg>
