<?xml version="1.0" standalone="no"?>
<!DOCTYPE svg PUBLIC "-//W3C//DTD SVG 20010904//EN"
 "http://www.w3.org/TR/2001/REC-SVG-20010904/DTD/svg10.dtd">
<svg version="1.0" xmlns="http://www.w3.org/2000/svg"
 width="819.000000pt" height="1280.000000pt" viewBox="0 0 819.000000 1280.000000"
 preserveAspectRatio="xMidYMid meet">
<metadata>
Created by potrace 1.15, written by Peter Selinger 2001-2017
</metadata>
<g transform="translate(0.000000,1280.000000) scale(0.100000,-0.100000)"
fill="#fffffa" stroke="none">
<path d="M1683 12780 c-16 -18 -18 -18 -45 -2 -23 14 -32 14 -46 4 -31 -22
-81 -42 -107 -42 -14 0 -43 -9 -63 -20 -20 -10 -53 -22 -73 -25 -25 -4 -48
-19 -83 -55 -66 -69 -90 -147 -86 -290 7 -280 4 -357 -25 -620 -40 -363 -46
-457 -43 -733 2 -154 6 -281 10 -284 5 -2 31 -52 59 -110 27 -59 65 -123 82
-144 18 -21 54 -77 81 -126 27 -48 61 -106 75 -127 14 -21 31 -46 36 -55 39
-62 144 -213 172 -246 19 -22 49 -58 68 -80 19 -22 64 -82 100 -134 l66 -94
-16 -44 c-16 -40 -16 -46 -1 -68 9 -13 31 -28 48 -33 27 -7 36 -16 48 -52 16
-46 36 -62 46 -36 3 9 10 16 14 16 14 0 18 -65 8 -140 -10 -68 -8 -89 21 -227
17 -83 38 -168 46 -187 8 -20 14 -39 13 -43 -1 -5 3 -33 9 -63 7 -30 15 -77
19 -105 3 -27 9 -45 11 -38 2 7 10 10 17 7 16 -6 20 51 5 77 -6 12 -5 19 4 23
9 5 9 7 0 12 -8 3 -11 15 -7 30 6 21 -15 103 -37 146 -5 10 -9 25 -9 34 0 18
-19 64 -57 137 -19 37 -22 51 -13 62 7 9 8 15 0 20 -6 4 -5 12 6 22 9 9 14 26
11 40 -5 25 10 32 19 8 4 -8 11 -15 18 -15 11 0 31 -18 93 -85 31 -33 56 -82
48 -95 -3 -4 13 -38 35 -75 23 -36 45 -78 51 -92 5 -14 12 -23 15 -20 10 9
-35 136 -72 207 -34 65 -153 209 -183 221 -14 6 -14 8 1 14 10 4 18 13 18 20
0 16 85 3 128 -19 58 -30 132 -109 151 -161 37 -104 379 -567 474 -642 13 -10
26 -25 29 -34 4 -10 32 -24 65 -34 86 -25 122 -42 179 -86 73 -56 200 -101
267 -94 28 2 58 12 66 21 15 15 14 16 -4 11 -78 -22 -103 -16 -191 45 -27 19
-84 50 -126 70 -98 46 -156 86 -221 152 -48 48 -80 92 -182 251 -22 33 -74
101 -117 150 -42 50 -73 92 -68 93 17 6 11 20 -11 27 -16 5 -18 10 -8 21 16
20 28 18 71 -12 21 -15 40 -25 43 -23 5 5 -18 75 -28 85 -4 4 -7 2 -7 -4 0
-19 -20 -14 -94 24 -50 26 -101 66 -171 133 -107 103 -186 151 -310 186 -33
10 -82 29 -108 42 -42 21 -48 28 -43 46 4 12 9 52 13 90 3 37 9 67 14 67 4 0
7 91 6 203 -1 167 2 208 16 240 9 21 14 43 12 50 -2 6 -6 24 -9 40 -4 15 -13
27 -20 27 -8 0 -17 -12 -20 -27 -7 -34 -26 -155 -26 -165 0 -5 -5 -8 -11 -8
-8 0 -10 19 -5 63 7 72 50 168 95 211 24 23 34 27 61 21 17 -4 34 -13 37 -21
3 -8 16 -14 29 -14 15 0 24 -6 24 -16 0 -12 3 -14 13 -6 9 8 28 -5 73 -51 80
-81 96 -106 88 -143 -3 -17 1 -41 9 -57 19 -37 31 -19 22 33 -5 31 -2 45 13
65 11 13 22 21 26 18 4 -4 24 -8 46 -9 25 -1 57 -13 86 -33 31 -20 51 -28 58
-21 13 10 86 -3 116 -22 15 -10 29 -10 65 0 51 14 62 10 75 -22 8 -20 9 -20
10 4 1 51 15 55 58 20 23 -18 43 -38 46 -45 2 -7 41 -42 85 -78 44 -36 105
-96 136 -133 61 -77 126 -193 130 -233 1 -14 7 -38 14 -53 11 -29 2 -70 -18
-83 -6 -3 -11 -15 -11 -27 0 -16 -5 -19 -25 -16 -16 4 -25 1 -25 -8 0 -7 -5
-14 -10 -16 -6 -2 2 -20 17 -41 25 -36 27 -37 46 -20 40 37 47 67 47 207 0
135 0 135 -32 183 -17 26 -61 80 -98 118 -37 39 -79 89 -93 112 -31 49 -140
143 -166 143 -32 0 -51 35 -52 94 0 26 1 26 121 90 79 41 122 58 172 65 36 5
75 17 85 25 10 9 47 39 82 67 39 32 69 65 78 88 8 20 23 45 34 57 10 11 30 48
44 82 23 57 24 68 15 125 -10 67 -28 88 -102 128 -44 23 -58 45 -58 93 0 28 4
36 18 36 25 0 122 -49 122 -62 0 -12 98 -109 124 -123 11 -5 30 -30 44 -55 13
-25 36 -61 51 -80 15 -19 44 -57 64 -85 21 -27 42 -56 47 -62 21 -26 28 -62
26 -132 -2 -39 -6 -74 -9 -77 -3 -3 -2 -17 3 -30 7 -18 6 -24 -4 -24 -16 0
-10 -89 10 -137 7 -19 9 -35 4 -38 -5 -3 -4 -16 2 -31 8 -18 8 -37 0 -75 -7
-28 -12 -69 -12 -92 0 -23 -7 -91 -15 -152 -8 -60 -14 -132 -14 -160 l1 -50
14 33 c8 17 15 32 17 32 2 0 0 -26 -5 -57 -4 -32 -12 -96 -16 -143 -5 -47 -11
-89 -12 -95 -11 -34 24 -205 51 -253 11 -18 19 -35 19 -37 0 -2 -12 -16 -27
-30 -20 -18 -35 -24 -51 -20 -21 5 -22 4 -11 -17 7 -13 15 -30 19 -38 4 -8 11
-14 16 -12 15 5 22 -39 23 -148 1 -103 2 -107 35 -159 19 -29 32 -59 29 -67
-3 -8 -9 -12 -13 -9 -12 7 -22 -48 -15 -76 5 -20 -1 -28 -34 -49 -22 -14 -41
-29 -41 -34 0 -5 -7 -3 -15 4 -8 7 -15 9 -15 5 0 -4 -6 -2 -14 4 -11 9 -21 6
-46 -17 -17 -16 -41 -30 -53 -30 -12 0 -35 -5 -52 -12 -29 -11 -29 -12 -11
-25 10 -8 22 -12 27 -10 4 3 54 0 111 -7 83 -9 109 -16 136 -36 17 -13 32 -31
32 -39 0 -8 -14 -34 -32 -57 -17 -22 -33 -43 -35 -46 -2 -2 -8 2 -12 9 -7 10
-18 7 -52 -15 -86 -56 -154 -85 -207 -90 -29 -2 -75 -15 -102 -29 -27 -14 -59
-25 -71 -25 -12 0 -72 -12 -132 -27 -78 -20 -111 -33 -114 -45 -3 -9 -16 -18
-29 -21 -19 -3 -24 0 -24 18 0 19 -9 24 -75 38 -97 22 -104 21 -114 -5 -8 -22
-11 -21 -62 32 -30 30 -70 73 -89 95 -47 54 -109 101 -142 109 -15 3 -35 19
-45 34 -30 47 -104 115 -115 104 -11 -11 6 -52 21 -52 5 0 20 -18 35 -40 15
-23 30 -39 34 -36 5 3 34 -19 64 -47 58 -53 98 -113 98 -146 0 -26 -33 -53
-56 -45 -11 4 -16 3 -11 -2 5 -5 25 -9 44 -9 20 0 38 -5 40 -12 6 -18 -64 -4
-116 24 -24 13 -49 23 -56 23 -6 0 -31 9 -54 21 -24 11 -45 18 -48 15 -3 -3
-15 6 -25 20 -13 15 -28 24 -42 22 -16 -2 -25 5 -35 29 -8 18 -22 35 -30 38
-20 6 -65 78 -81 130 -7 22 -17 50 -23 62 -7 15 -6 39 1 75 6 32 7 57 1 63 -5
5 -9 19 -9 31 0 12 -9 32 -21 45 l-20 24 7 -65 c3 -36 7 -105 8 -155 2 -80 5
-98 35 -158 36 -74 36 -70 -18 -130 -15 -16 -31 -25 -41 -22 -18 6 -38 -65
-64 -235 -9 -52 -27 -151 -41 -220 l-25 -125 -50 -45 -50 -45 0 -128 c0 -153
-17 -257 -41 -257 -23 0 -28 -18 -40 -129 -5 -53 -13 -127 -19 -166 -12 -92
-12 -209 1 -265 8 -34 5 -114 -10 -325 -11 -154 -25 -390 -31 -525 -6 -135
-15 -267 -20 -295 -15 -85 -33 -484 -26 -590 5 -86 2 -115 -20 -210 -15 -60
-35 -124 -45 -141 -25 -42 -29 -86 -39 -499 -10 -394 -22 -589 -45 -765 -8
-63 -20 -161 -26 -218 -10 -95 -13 -104 -35 -112 -13 -5 -24 -13 -24 -17 -1
-5 -3 -68 -6 -141 -6 -144 -1 -162 42 -162 20 0 24 -5 24 -32 0 -52 -57 -197
-130 -328 -10 -19 -24 -57 -30 -85 -7 -27 -28 -83 -47 -123 -31 -65 -38 -73
-57 -67 -40 13 -181 17 -208 6 -16 -6 -30 -21 -33 -34 -11 -42 -62 -57 -189
-57 -101 0 -116 -2 -141 -22 -27 -21 -27 -21 -339 -11 -171 5 -321 6 -334 2
-33 -12 -29 -52 9 -83 35 -30 56 -32 88 -10 19 14 41 16 122 12 86 -4 103 -8
137 -32 l39 -27 112 12 c87 10 120 10 149 0 20 -6 96 -14 167 -17 105 -5 135
-10 157 -25 15 -10 59 -24 99 -30 39 -6 96 -19 126 -30 55 -19 96 -14 116 14
6 9 10 8 14 -3 4 -8 18 -27 33 -41 23 -24 35 -27 130 -33 129 -9 168 2 273 73
66 44 77 49 77 32 0 -30 30 -41 143 -51 56 -5 151 -14 211 -20 l110 -11 24 27
25 26 241 -5 c238 -5 466 -23 466 -37 0 -4 -18 -10 -41 -14 -22 -4 -50 -13
-63 -21 -15 -10 -66 -17 -165 -21 -105 -5 -152 -12 -177 -24 -30 -16 -51 -17
-209 -8 -199 11 -225 8 -225 -26 0 -40 19 -46 176 -50 138 -4 216 -14 366 -46
72 -16 102 -8 118 29 l12 30 191 -4 c106 -2 215 -6 244 -10 64 -9 99 -1 113
26 9 16 8 26 -5 46 -9 13 -15 26 -13 28 6 5 224 25 280 25 31 0 59 -4 62 -9
10 -16 79 -23 247 -26 92 -2 200 -9 241 -15 56 -9 80 -9 96 -1 16 8 35 7 78
-4 72 -19 83 -19 104 0 14 13 22 10 75 -26 68 -45 69 -45 182 3 75 31 123 62
123 80 0 10 -28 7 -65 -7 -13 -6 -8 3 14 24 30 28 37 31 60 21 18 -7 37 -7 61
0 19 5 83 10 142 10 99 0 108 2 122 22 9 12 16 31 16 42 0 18 5 18 83 12 45
-4 131 -13 190 -21 136 -18 183 -4 157 45 l-11 21 280 -7 c255 -6 281 -6 281
9 0 9 -8 21 -18 26 -23 12 -254 37 -472 51 -201 12 -657 13 -664 1 -3 -4 -19
-11 -35 -14 -37 -8 -61 -32 -61 -63 0 -18 -10 -29 -41 -44 -23 -12 -43 -19
-46 -16 -3 3 -12 45 -19 94 -7 49 -25 120 -40 158 -25 62 -40 82 -163 204 -75
74 -143 148 -151 164 -13 25 -13 29 4 42 17 12 18 24 11 171 l-7 158 -61 85
c-33 47 -79 105 -102 130 -24 25 -77 92 -119 149 -56 75 -75 109 -70 123 4 12
-9 49 -35 101 -43 84 -74 191 -136 467 -20 85 -51 220 -71 300 -19 80 -37 154
-39 166 -2 11 -34 61 -70 112 -36 50 -79 120 -96 154 l-30 63 2 213 c2 234 7
211 -68 293 l-33 35 14 125 c36 300 48 391 67 499 20 112 154 657 186 754 14
42 14 60 3 147 -11 85 -11 108 3 176 20 101 34 191 42 278 4 39 18 138 32 220
32 195 55 475 44 544 -5 34 -15 57 -28 66 -39 27 -89 199 -108 372 -7 59 -6
64 30 122 43 69 43 111 0 151 -32 30 -31 47 1 81 30 31 45 89 34 128 -4 16
-16 94 -26 174 -15 121 -16 159 -7 223 7 51 16 80 27 86 24 13 20 38 -16 104
l-33 59 4 408 c2 263 0 412 -7 420 -5 7 -12 107 -15 227 -6 224 -30 404 -60
439 -8 9 -17 30 -21 46 -7 30 -19 44 -140 166 -65 66 -274 219 -299 219 -17 0
-15 100 2 153 7 20 10 40 8 44 -5 9 17 165 28 202 7 20 5 22 -11 17 -16 -5
-25 4 -48 51 -54 110 -140 241 -161 245 -12 2 -21 12 -23 25 -2 15 -12 25 -30
29 -15 4 -78 22 -140 40 -94 28 -129 34 -207 34 -56 0 -96 4 -101 11 -20 33
-195 -65 -346 -194 -62 -52 -118 -147 -118 -199 0 -15 -4 -36 -9 -46 -5 -9
-14 -48 -21 -86 -6 -37 -17 -78 -25 -90 -20 -31 -45 -140 -46 -199 l-1 -52
-15 70 c-8 39 -16 106 -18 150 -2 44 -13 123 -24 175 -12 52 -25 164 -31 248
-5 84 -12 158 -16 163 -3 6 -3 30 0 54 11 71 63 126 182 192 l103 58 26 82
c36 117 41 143 23 143 -9 0 -24 -30 -41 -88 -15 -48 -27 -93 -27 -100 0 -6
-15 -18 -32 -26 -124 -56 -223 -138 -260 -216 -30 -61 -29 -103 11 -590 6 -69
15 -141 21 -160 5 -19 10 -52 10 -73 0 -47 43 -214 72 -277 11 -25 21 -71 23
-103 3 -47 8 -63 30 -85 22 -22 25 -32 20 -62 -3 -19 -12 -39 -19 -45 -9 -7
-11 -26 -6 -65 6 -56 18 -86 51 -129 11 -13 19 -28 19 -32 0 -14 -26 -10 -39
5 -7 8 -32 24 -56 35 -52 24 -67 48 -63 99 2 29 8 38 25 40 12 2 27 10 33 18
18 20 -24 18 -74 -4 l-39 -18 -145 144 -144 144 -9 61 c-5 34 -9 105 -9 157 0
52 -7 151 -15 219 -8 68 -13 126 -11 130 2 3 -2 40 -9 81 -9 53 -10 102 -4
170 5 52 12 141 15 197 5 75 10 100 19 96 22 -8 25 12 11 88 -18 103 -15 219
7 252 27 42 65 63 88 49 10 -7 28 -12 39 -12 10 0 24 -9 30 -20 15 -28 31 -25
59 13 13 17 49 51 79 74 50 38 57 41 72 28 14 -13 20 -13 47 3 65 37 73 47 88
117 12 60 35 101 70 127 6 4 25 8 43 8 25 0 32 -4 32 -19 0 -11 -5 -23 -10
-26 -18 -11 -47 -78 -59 -134 -6 -30 -16 -60 -22 -67 -15 -18 -24 -140 -10
-148 7 -5 11 4 11 27 0 35 26 123 42 144 7 9 114 13 412 15 321 2 406 6 419
17 18 14 24 14 1052 -14 292 -9 631 -20 755 -25 220 -10 377 -14 1510 -45 935
-25 1159 -37 1337 -66 34 -6 66 -16 71 -22 5 -7 12 -60 14 -119 4 -97 8 -114
37 -170 18 -35 60 -91 93 -125 l61 -61 36 12 c77 27 131 146 116 259 -11 82
-115 253 -181 297 l-38 25 -360 1 c-199 1 -397 4 -441 8 -44 3 -307 13 -585
21 -278 8 -613 19 -745 25 -132 5 -692 26 -1245 45 -1195 42 -1438 52 -1590
65 -63 6 -232 16 -374 23 l-259 12 -11 33 c-15 43 -33 54 -76 47 -33 -6 -38
-3 -60 32 -30 46 -80 58 -101 24 -12 -18 -15 -18 -42 -4 -24 12 -35 13 -55 4
-20 -10 -28 -9 -43 5 -14 12 -29 15 -57 10 -32 -5 -46 -1 -76 19 -33 22 -98
44 -134 45 -7 0 -20 -9 -29 -20z m85 -30 c16 0 22 -6 22 -21 0 -11 -4 -17 -10
-14 -5 3 -10 1 -10 -5 0 -6 -11 -15 -25 -22 -30 -13 -55 3 -55 37 0 29 10 37
35 31 11 -3 30 -6 43 -6z m-126 -27 c14 -16 28 -37 30 -47 8 -47 68 -45 120 4
36 35 53 38 68 11 15 -30 13 -52 -20 -149 -16 -50 -30 -99 -30 -111 0 -41 20
-20 37 39 17 62 27 74 38 41 10 -33 46 -71 66 -71 26 0 24 18 -5 41 -58 46
-73 173 -24 212 22 18 23 18 40 -3 14 -18 17 -33 12 -70 -5 -40 7 -135 23
-177 3 -7 -2 -13 -11 -13 -9 0 -37 -11 -63 -24 -27 -14 -77 -33 -112 -42 -35
-10 -88 -35 -118 -56 -45 -32 -57 -36 -74 -27 -12 6 -23 9 -25 6 -10 -10 -46
-158 -59 -244 -21 -142 -11 -395 20 -488 33 -97 63 -328 70 -527 5 -147 3
-167 -10 -162 -18 7 -19 0 -1 -51 9 -28 27 -50 62 -75 115 -83 302 -286 290
-315 -2 -7 -27 -43 -54 -81 -79 -108 -95 -158 -96 -291 -1 -82 -4 -113 -13
-113 -7 0 -17 -9 -23 -20 -6 -11 -15 -20 -20 -20 -5 0 -28 38 -51 85 -22 47
-45 85 -49 85 -21 0 -20 -24 4 -75 14 -30 21 -55 17 -55 -11 0 -75 142 -97
213 -10 31 -21 57 -25 57 -5 0 -1 -21 7 -47 8 -27 17 -59 20 -73 13 -56 -224
322 -299 477 -25 52 -40 70 -70 86 -21 11 -43 32 -50 46 -15 38 -22 619 -8
751 11 106 32 316 52 535 8 77 9 164 3 245 -15 224 -8 276 49 362 36 53 103
91 118 66 6 -10 16 -5 41 18 27 26 44 33 92 37 33 3 66 13 75 21 20 21 23 21
53 -11z m557 -45 c13 -23 12 -28 -12 -60 -15 -19 -27 -43 -27 -52 0 -12 -7
-16 -22 -14 -20 3 -23 10 -26 59 -3 52 0 59 24 78 32 25 44 23 63 -11z m-121
-66 c3 -66 5 -74 27 -84 15 -7 25 -20 25 -32 0 -16 -2 -18 -9 -7 -7 11 -10 10
-18 -4 -12 -20 -70 -48 -77 -37 -3 5 -12 38 -20 75 -24 103 -4 171 49 165 18
-3 20 -12 23 -76z m650 -78 c249 -6 302 -9 298 -20 -3 -8 -1 -14 4 -14 6 0 10
-9 10 -20 0 -14 -7 -20 -21 -20 -15 0 -19 5 -15 15 4 12 -5 15 -52 15 -31 0
-93 3 -137 5 -44 3 -177 6 -297 8 -120 1 -218 3 -218 5 0 1 6 12 13 23 10 18
19 20 62 15 28 -3 186 -9 353 -12z m495 -41 c-13 -2 -35 -2 -50 0 -16 2 -5 4
22 4 28 0 40 -2 28 -4z m305 -10 c-10 -2 -28 -2 -40 0 -13 2 -5 4 17 4 22 1
32 -1 23 -4z m447 -13 c57 -5 14 -6 -115 -2 -113 2 -207 6 -209 8 -7 7 230 2
324 -6z m4004 -137 c51 -22 89 -95 98 -187 l6 -66 -101 0 -100 0 -4 61 c-1 33
-1 63 1 65 2 2 32 4 65 4 91 0 103 16 18 25 -60 6 -71 10 -80 30 -6 13 -24 31
-41 41 -17 10 -31 22 -31 25 0 22 119 24 169 2z m-6373 -350 c-13 -269 -16
-306 -21 -311 -6 -7 4 401 11 436 2 12 7 22 11 22 3 0 3 -66 -1 -147z m6471
61 c9 -24 -13 -62 -49 -84 l-33 -21 -49 53 -50 53 50 6 c95 11 124 10 131 -7z
m-5249 -184 c118 -13 200 -38 245 -76 18 -15 54 -56 80 -92 52 -71 58 -107 19
-107 -16 0 -29 -12 -48 -44 -41 -74 -25 -84 35 -22 61 63 69 62 110 -12 31
-56 24 -74 -34 -92 -22 -6 -55 -19 -73 -29 -19 -10 -36 -15 -39 -13 -7 8 53
72 98 103 31 21 38 30 25 32 -24 5 -103 -63 -137 -117 -16 -25 -50 -65 -76
-88 -36 -31 -45 -45 -37 -53 8 -8 29 -1 79 30 37 23 68 40 69 38 2 -2 -4 -25
-12 -51 -12 -43 -15 -47 -27 -31 -12 17 -15 16 -66 -9 -70 -34 -130 -85 -165
-141 -26 -41 -74 -78 -74 -57 0 5 16 35 35 67 19 32 35 67 35 78 0 19 -1 19
-23 -2 -13 -12 -26 -22 -30 -22 -16 0 -5 50 19 85 17 25 23 46 20 60 -5 18 3
31 34 59 73 66 41 79 -39 16 -64 -51 -151 -156 -188 -227 -28 -53 -28 -53 -45
-32 -19 23 -24 59 -9 59 5 0 34 46 65 103 62 116 96 144 190 156 28 3 51 11
51 16 0 16 -58 17 -101 2 -21 -8 -48 -18 -59 -22 -11 -4 2 13 29 37 29 27 46
49 42 56 -4 7 18 28 61 55 116 75 140 117 67 117 -66 0 -171 -43 -237 -97 -16
-13 -33 -21 -38 -18 -11 7 -58 -17 -98 -50 -43 -37 -56 -27 -25 19 21 30 24
40 13 47 -9 5 -22 1 -36 -13 -13 -12 -23 -17 -23 -12 0 19 44 73 122 151 54
54 22 49 -42 -7 -73 -63 -140 -138 -140 -156 0 -7 -10 -18 -21 -25 -21 -11
-21 -10 -14 27 4 22 9 51 10 66 2 15 11 41 20 57 24 47 -1 39 -61 -19 -44 -43
-54 -60 -68 -115 -9 -36 -19 -93 -23 -127 -5 -49 -12 -67 -35 -92 -28 -30 -29
-30 -24 -7 3 13 1 32 -4 41 -7 12 -1 38 20 86 37 87 38 105 5 74 -14 -13 -25
-29 -25 -36 0 -17 -27 -37 -34 -26 -9 15 41 119 81 171 71 90 151 148 264 190
31 12 64 30 74 41 18 20 13 20 213 0z m105 -228 c-39 -34 -292 -166 -300 -158
-8 7 46 65 100 108 42 34 157 78 202 77 l30 0 -32 -27z m-233 -187 c-19 -19
-39 -35 -44 -35 -12 1 59 70 71 70 4 0 -8 -16 -27 -35z m565 -113 c-27 -26
-42 -38 -35 -27 25 36 73 85 79 79 3 -2 -17 -26 -44 -52z m-989 -149 c-1 -145
2 -153 73 -223 54 -52 104 -74 132 -57 14 9 22 8 37 -6 20 -18 62 -23 62 -8 0
5 -13 19 -29 30 -34 24 -54 104 -49 191 4 61 8 56 31 -43 25 -101 56 -166 88
-182 81 -42 169 5 254 137 56 86 167 168 227 168 23 0 -21 -46 -101 -105 -61
-45 -101 -83 -126 -121 -41 -61 -41 -46 3 -194 17 -59 21 -65 43 -61 64 11 64
11 64 -56 1 -35 5 -67 11 -73 6 -6 31 10 72 48 56 51 62 61 63 97 0 34 2 37 9
18 13 -32 25 -29 44 12 17 35 42 55 70 55 24 0 19 -13 -13 -31 -29 -17 -84
-116 -73 -133 3 -5 25 13 49 40 l44 49 -21 -53 c-23 -60 -24 -72 -9 -72 11 0
51 85 63 133 3 15 13 27 21 27 19 0 19 -8 0 -81 -12 -45 -26 -69 -59 -102 -23
-24 -51 -58 -62 -75 -23 -40 -59 -52 -78 -27 -18 25 -46 12 -46 -21 0 -15 -16
-55 -35 -89 -26 -48 -45 -68 -77 -85 -65 -33 -161 -104 -196 -144 -29 -34 -35
-36 -91 -36 -71 0 -305 59 -354 89 -34 21 -77 85 -64 97 3 4 -9 28 -27 53 -18
25 -41 60 -50 78 -26 53 -18 183 12 183 25 0 92 -23 92 -31 0 -5 -12 -4 -26 1
-36 14 -64 12 -64 -4 0 -8 21 -22 46 -32 38 -14 52 -15 77 -6 38 15 47 9 47
-32 0 -73 -9 -93 -52 -107 -35 -11 -39 -15 -33 -37 3 -14 17 -39 31 -57 13
-17 24 -36 24 -42 0 -25 48 -52 140 -78 24 -7 24 -7 8 12 -17 18 -16 21 13 56
17 20 39 37 49 37 17 0 70 -52 70 -70 0 -10 -26 -20 -55 -20 -13 0 -26 -4 -29
-9 -8 -12 18 -21 64 -21 29 0 42 -5 50 -20 6 -12 21 -20 36 -20 14 0 22 4 19
10 -3 6 1 10 10 10 13 0 14 4 4 23 -15 30 -191 207 -205 207 -7 0 -22 -9 -35
-19 -18 -15 -21 -22 -13 -31 9 -9 17 -9 34 0 13 7 26 8 31 3 6 -6 -10 -20 -40
-37 -28 -15 -53 -31 -56 -36 -3 -4 -17 -5 -31 -1 -30 8 -90 83 -80 100 12 18
36 12 36 -9 0 -30 18 -24 24 8 27 144 29 168 12 200 -9 18 -23 32 -30 32 -7 0
-51 25 -96 55 -45 30 -93 55 -105 55 -22 0 -22 2 -20 113 3 126 23 223 61 298
14 29 23 60 20 71 -5 21 18 80 43 111 8 9 15 17 16 17 1 0 2 -57 1 -127z m144
-98 c0 -16 4 -45 9 -63 13 -45 5 -40 -18 12 -33 76 -35 85 -11 83 15 -1 20 -8
20 -32z m650 5 c0 -5 -30 -34 -67 -65 -37 -30 -76 -69 -86 -85 -19 -30 -37
-39 -37 -19 0 21 43 71 108 125 66 54 82 63 82 44z m-700 -65 c5 -14 12 -38
15 -53 4 -21 1 -18 -15 13 -19 39 -25 65 -15 65 3 0 10 -11 15 -25z m694 -13
c9 -14 -19 -51 -67 -87 -27 -20 -51 -34 -54 -31 -5 5 10 24 82 109 16 18 31
22 39 9z m336 -201 c25 -47 1 -184 -47 -274 -60 -110 -168 -190 -273 -204
l-42 -6 23 41 c14 25 31 42 42 42 38 0 86 29 102 62 20 39 74 98 90 98 15 0
35 44 35 75 0 13 9 47 20 75 27 68 25 85 -10 112 -16 12 -30 26 -30 30 0 14
79 -31 90 -51z m425 -2761 c3 -10 1 -29 -5 -41 -15 -28 -6 -116 27 -244 41
-162 41 -152 -6 -166 -42 -12 -80 -44 -67 -56 3 -4 40 1 81 11 41 10 80 14 86
10 9 -5 10 -48 6 -158 -4 -118 -14 -195 -45 -356 -37 -188 -82 -459 -86 -520
-1 -14 -7 -38 -14 -53 -7 -16 -12 -42 -12 -58 0 -16 -3 -29 -6 -29 -3 0 -23
13 -43 29 -47 37 -75 51 -100 51 -12 0 -59 29 -107 63 -136 101 -316 188 -302
146 3 -8 38 -26 78 -41 86 -32 191 -100 270 -174 100 -94 165 -159 204 -204
l38 -44 -17 -91 c-10 -49 -24 -108 -32 -130 -8 -22 -26 -89 -40 -150 -14 -60
-36 -144 -49 -186 -21 -65 -67 -281 -93 -442 -5 -26 -11 -50 -15 -54 -9 -10
-6 135 5 197 6 30 14 123 19 205 5 83 14 195 19 250 6 55 10 177 11 270 0 159
-2 173 -24 221 -24 51 -42 71 -53 60 -4 -3 2 -15 11 -25 36 -40 45 -91 45
-251 0 -154 -3 -208 -35 -515 -9 -88 -20 -259 -24 -380 -4 -121 -10 -229 -13
-240 -3 -11 -11 -54 -17 -96 -11 -65 -10 -80 3 -100 8 -13 17 -60 20 -105 4
-44 11 -93 17 -108 5 -15 10 -45 10 -66 0 -47 -19 -64 -126 -114 -69 -33 -85
-48 -66 -60 14 -9 95 14 160 45 57 28 66 37 88 82 25 54 30 92 15 102 -5 3
-16 -4 -24 -15 -7 -11 -16 -18 -19 -15 -7 8 3 219 12 228 4 5 17 -3 28 -17 26
-34 38 -181 24 -303 -13 -113 -4 -175 32 -208 14 -13 35 -45 46 -70 11 -25 42
-80 71 -123 46 -70 53 -87 70 -182 10 -58 35 -153 54 -212 42 -125 103 -396
104 -461 1 -25 -4 -22 -66 45 -126 135 -140 148 -165 148 -15 0 -32 11 -46 29
-46 62 -135 151 -152 151 -10 0 -44 34 -80 81 -35 45 -78 90 -96 101 -18 11
-47 42 -64 69 -38 63 -61 64 -24 2 37 -66 179 -254 254 -338 148 -168 295
-328 425 -464 143 -149 295 -335 330 -405 11 -21 39 -60 62 -86 32 -35 39 -49
29 -53 -30 -12 -336 -219 -336 -228 0 -13 6 -12 52 12 38 20 71 40 242 151 33
21 63 38 68 38 4 0 8 -17 8 -37 0 -21 5 -67 11 -103 5 -35 8 -74 5 -86 -4 -13
-35 -39 -83 -67 -43 -26 -95 -61 -116 -79 -28 -24 -50 -33 -90 -38 -77 -8
-107 -2 -107 20 0 10 -6 31 -14 47 -7 15 -27 57 -44 93 -16 36 -132 243 -258
460 -125 217 -256 446 -290 509 -35 63 -67 117 -72 120 -16 11 -154 306 -154
330 0 14 -25 71 -55 128 l-55 104 21 20 c11 11 21 25 21 31 0 6 -36 64 -81
130 -44 65 -93 145 -109 177 -16 32 -41 73 -55 89 -41 49 -64 134 -58 211 4
49 -2 99 -21 192 -16 76 -26 159 -26 208 0 52 -9 120 -25 189 -14 59 -34 159
-45 222 -10 63 -30 155 -44 204 -14 48 -26 105 -26 125 0 20 -10 56 -21 81
-25 55 -50 169 -43 197 3 11 -2 46 -11 79 -9 32 -25 106 -35 164 -33 181 -89
392 -124 465 -19 39 -51 116 -71 170 -55 147 -106 242 -125 230 -13 -8 1 -47
26 -69 12 -12 38 -61 57 -111 46 -118 48 -127 37 -145 -8 -13 -14 -12 -45 5
-53 28 -220 236 -270 335 -19 39 -54 80 -67 80 -15 0 -8 -39 14 -76 17 -29 19
-40 10 -55 -19 -29 -15 -43 27 -90 21 -24 64 -95 95 -156 l57 -113 57 -17 c33
-10 81 -16 113 -14 45 2 58 -1 63 -14 5 -13 -10 -23 -67 -49 -39 -19 -97 -39
-127 -46 -76 -16 -101 -30 -127 -69 -31 -46 -29 -63 11 -85 53 -28 88 -12 160
74 27 32 40 39 136 65 14 4 20 3 14 -2 -23 -16 -24 -51 -4 -124 11 -40 20 -85
20 -99 0 -14 15 -53 33 -86 30 -55 32 -64 19 -80 -21 -28 -10 -122 27 -230 17
-51 31 -96 31 -101 0 -4 -10 -13 -22 -18 -17 -8 -36 -45 -75 -150 -30 -77 -67
-171 -83 -210 -16 -38 -36 -96 -45 -127 -9 -32 -21 -60 -26 -63 -5 -4 -9 -15
-9 -26 0 -11 -7 -27 -15 -35 -8 -9 -15 -24 -15 -33 0 -20 -38 -111 -46 -111
-3 0 -2 9 1 20 3 11 2 20 -3 20 -5 0 -15 -25 -22 -55 -7 -30 -17 -55 -22 -55
-5 0 -8 -10 -6 -22 2 -13 10 -23 18 -23 12 0 15 -19 16 -109 0 -60 -6 -136
-13 -170 -7 -33 -15 -91 -16 -128 -2 -37 -6 -71 -10 -74 -4 -4 -7 -20 -7 -35
0 -93 -59 -334 -87 -356 -8 -6 -21 -28 -28 -49 -12 -36 -13 -34 -19 72 -4 60
-5 140 -2 178 5 65 4 68 -12 52 -14 -13 -17 -37 -18 -119 -1 -94 -13 -162 -43
-239 -11 -30 -29 -195 -35 -323 -2 -44 -7 -176 -11 -293 -5 -119 -12 -207 -16
-200 -6 9 -9 7 -9 -7 0 -11 -7 -28 -15 -38 -7 -10 -19 -50 -26 -88 -12 -68
-13 -70 -60 -97 -55 -32 -111 -102 -113 -143 -1 -15 -4 -30 -6 -33 -11 -10
-105 50 -109 69 -2 11 -10 25 -19 31 -13 9 -12 12 7 17 18 4 21 12 21 51 0 25
7 96 15 158 24 187 44 585 44 893 1 333 6 401 32 430 10 12 33 73 51 138 33
117 48 144 48 86 0 -20 4 -28 11 -23 16 9 5 103 -17 149 -14 29 -16 52 -10
123 3 48 10 159 16 247 5 88 14 216 20 285 5 69 15 271 20 450 6 179 17 444
26 589 11 193 13 275 5 306 -8 30 -7 58 2 103 7 33 15 64 18 67 4 3 17 -19 29
-50 26 -64 54 -89 82 -74 22 12 23 40 3 94 -28 78 -11 492 19 482 6 -2 12 -20
14 -40 2 -28 10 -40 35 -56 49 -30 84 -71 122 -142 42 -77 47 -62 6 19 -15 31
-31 74 -35 94 -5 26 -26 59 -66 105 -33 38 -60 77 -60 87 0 24 86 489 99 531
6 20 10 25 14 15 29 -86 41 -110 53 -110 18 0 18 2 -6 79 -11 35 -18 71 -15
81 3 9 23 33 45 55 32 32 42 36 54 26 10 -9 20 -10 32 -3 14 8 32 2 73 -21 31
-17 58 -35 59 -39 2 -4 9 -8 15 -8 7 0 21 -7 31 -15 16 -12 20 -29 22 -85 1
-38 7 -76 13 -84 18 -21 135 -79 139 -68 1 5 21 3 45 -5 88 -31 358 -58 343
-34 -3 4 -35 11 -71 14 -35 3 -100 15 -142 26 -43 11 -121 27 -173 37 -52 9
-103 20 -112 25 -13 7 -17 27 -20 94 -2 47 -2 85 -1 85 1 0 8 3 17 6 12 4 16
0 16 -15 0 -35 70 -58 232 -75 163 -17 314 -13 403 11 33 8 83 19 110 24 93
14 136 26 154 43 9 9 32 16 49 16 18 0 40 8 51 19 38 38 59 43 91 25 28 -17
29 -17 55 9 15 14 41 27 58 29 23 2 35 10 45 31 15 32 28 35 37 7z m-1179
-2547 l-15 -28 -1 36 c0 41 10 57 22 34 6 -9 3 -25 -6 -42z m-79 -243 c-9 -46
-18 -66 -30 -68 -26 -5 -22 54 11 140 l27 73 3 -40 c1 -22 -3 -69 -11 -105z
m148 48 c3 -35 5 -83 5 -108 -3 -118 11 -283 30 -360 11 -47 25 -127 30 -178
5 -51 14 -101 20 -112 5 -10 10 -42 10 -71 0 -39 5 -58 20 -74 11 -12 22 -42
26 -71 3 -27 15 -61 25 -76 10 -15 19 -35 19 -46 0 -10 33 -83 74 -162 74
-147 92 -203 141 -442 11 -55 27 -95 53 -135 21 -32 66 -114 101 -183 35 -69
72 -136 81 -150 25 -38 60 -126 60 -152 0 -13 4 -28 9 -34 5 -5 14 -25 19 -44
22 -72 84 -236 122 -322 22 -48 40 -94 40 -101 0 -8 14 -52 31 -98 17 -46 35
-99 41 -118 5 -18 18 -50 28 -70 9 -20 30 -67 46 -105 21 -51 37 -74 60 -88
18 -10 34 -28 37 -39 5 -17 11 -20 34 -15 36 8 42 3 92 -71 23 -34 70 -85 103
-113 50 -42 66 -50 88 -45 23 5 29 2 38 -22 25 -65 40 -123 34 -125 -4 -1 -27
-2 -52 -3 -25 -1 -74 -7 -110 -14 -79 -16 -273 -7 -324 14 -23 10 -70 15 -137
15 -91 0 -101 2 -106 19 -10 39 -54 50 -318 78 l-70 7 92 6 c97 6 109 10 100
35 -6 13 -37 15 -225 15 -169 0 -228 3 -254 15 -19 7 -120 26 -224 41 -158 23
-226 27 -411 28 -123 1 -223 4 -223 7 0 4 7 22 14 41 19 45 6 146 -30 232 -38
89 -48 129 -40 159 6 26 9 27 69 27 54 0 67 4 87 24 12 14 35 28 50 31 44 10
58 34 79 136 11 53 25 117 32 143 9 35 9 50 0 59 -15 15 -14 56 3 147 8 41 22
145 31 230 9 85 25 216 35 290 11 74 25 194 30 265 14 176 26 264 60 435 16
80 41 210 56 290 31 166 138 608 158 654 8 17 19 67 24 111 11 84 60 255 73
255 4 0 10 -28 14 -62z m-240 -326 c-4 -34 -11 -52 -18 -49 -20 6 -20 45 0
116 18 66 18 66 21 26 2 -22 1 -64 -3 -93z m-124 -619 c-17 -159 -18 -163 -20
-56 -1 83 16 190 28 178 2 -3 -1 -58 -8 -122z m-50 -386 c-17 -17 -24 -1 -10
25 12 21 14 21 17 4 2 -10 -1 -23 -7 -29z m-36 -114 c-3 -16 -12 -93 -20 -173
-9 -80 -20 -183 -25 -230 -6 -47 -10 -106 -10 -132 0 -26 -5 -50 -11 -54 -9
-5 -10 19 -5 92 8 131 23 274 36 354 6 36 13 89 17 118 3 28 10 52 14 52 5 0
6 -12 4 -27z m948 -217 c12 -22 22 -57 22 -77 1 -20 18 -70 38 -112 24 -52 32
-77 23 -77 -20 0 -30 16 -66 100 -17 41 -39 84 -49 95 -16 17 -61 180 -61 218
0 12 53 -72 93 -147z m157 -387 c0 -6 41 -96 90 -201 50 -105 89 -193 86 -195
-6 -6 -20 22 -106 212 -86 191 -93 208 -80 200 6 -3 10 -11 10 -16z m620 -189
c0 -5 -2 -10 -4 -10 -3 0 -8 5 -11 10 -3 6 -1 10 4 10 6 0 11 -4 11 -10z m50
-40 c0 -15 -5 -12 -26 11 -19 22 -19 22 4 10 12 -6 22 -16 22 -21z m-1959
-423 c-13 -13 -15 50 -3 80 5 13 8 5 10 -26 2 -24 -2 -49 -7 -54z m1634 53 c9
-16 13 -30 11 -30 -3 0 -12 14 -21 30 -9 17 -13 30 -11 30 3 0 12 -13 21 -30z
m-1923 -18 c30 5 64 -12 52 -25 -5 -5 -126 3 -133 9 -2 2 2 10 9 19 10 12 16
13 26 4 8 -6 28 -9 46 -7z m1963 -52 c9 -16 13 -30 11 -30 -3 0 -12 14 -21 30
-9 17 -13 30 -11 30 3 0 12 -13 21 -30z m-2042 -10 c79 -30 99 -47 93 -78 -20
-106 -19 -111 11 -123 15 -6 46 -14 68 -18 32 -6 36 -10 22 -16 -12 -5 -32 -2
-53 8 -19 9 -34 12 -34 7 0 -22 -58 -1 -227 82 -59 28 -63 33 -63 64 0 18 8
50 17 69 17 36 17 36 68 29 27 -3 72 -14 98 -24z m2124 -132 c72 -120 133
-234 133 -247 0 -6 -12 -11 -27 -11 -25 0 -34 12 -83 98 -40 72 -56 111 -61
152 -3 30 -9 63 -14 73 -18 42 7 10 52 -65z m-2109 -288 c45 -34 84 -65 87
-70 11 -17 35 -11 60 15 l25 24 25 -37 c20 -29 25 -49 25 -97 0 -54 -4 -64
-37 -107 -46 -57 -66 -63 -51 -15 5 17 12 40 15 51 4 13 2 17 -8 14 -35 -11
-49 -148 -29 -277 16 -95 -6 -134 -116 -206 l-85 -55 -99 6 -99 7 -52 78 c-77
118 -79 141 -29 301 23 73 48 144 55 158 8 14 32 65 55 114 22 49 52 105 66
123 21 28 31 33 68 33 37 0 54 -8 124 -60z m2271 -22 c4 -13 6 -39 4 -58 -4
-27 0 -40 16 -54 12 -11 21 -23 21 -28 0 -11 -112 -10 -130 2 -8 5 -13 10 -10
11 3 0 16 2 30 5 14 2 31 6 38 9 18 7 14 56 -8 93 -25 41 -25 42 5 42 17 0 28
-7 34 -22z m-99 -12 c9 -24 3 -66 -9 -66 -8 0 -41 65 -41 80 0 21 41 9 50 -14z
m730 -223 c158 -162 186 -208 203 -333 15 -112 13 -167 -6 -188 -9 -9 -41 -32
-71 -51 l-56 -34 -72 32 c-39 18 -96 49 -127 70 -31 21 -74 47 -97 59 -53 27
-110 91 -123 139 -6 21 -17 64 -26 95 -11 42 -23 62 -47 80 -50 36 -168 159
-168 174 0 10 14 14 49 14 39 0 56 -6 86 -30 21 -17 45 -29 53 -28 8 2 24 26
34 55 11 28 27 54 36 57 10 3 41 19 70 35 l54 30 37 -18 c20 -11 97 -82 171
-158z m-588 -8 c8 -14 2 -12 -21 9 -17 17 -31 34 -31 39 0 14 39 -23 52 -48z
m-1345 -193 c156 -2 281 -8 278 -12 -3 -4 -40 -11 -82 -15 -43 -4 -82 -10 -88
-15 -20 -15 -97 -18 -158 -5 -61 12 -153 27 -252 41 -39 5 -46 8 -30 15 11 4
27 5 35 2 8 -3 142 -8 297 -11z m-827 -178 c0 -16 -51 -68 -85 -86 -11 -6 3
14 30 44 58 65 55 62 55 42z m2487 -85 c39 -20 251 -163 233 -157 -19 7 -275
169 -312 198 -16 12 -28 26 -28 32 0 5 18 -6 40 -24 21 -19 52 -41 67 -49z
m-854 -28 c9 -9 -230 -24 -243 -16 -6 4 -10 13 -10 22 0 13 15 14 123 8 67 -4
126 -10 130 -14z m582 -5 c18 -13 13 -14 -40 -11 -76 4 -79 6 -30 15 22 4 43
8 46 9 3 0 14 -5 24 -13z m-2507 -43 c-10 -2 -28 -2 -40 0 -13 2 -5 4 17 4 22
1 32 -1 23 -4z"/>
<path d="M1225 11011 c10 -31 8 -104 -4 -134 -16 -40 -14 -68 3 -61 22 8 46
79 46 133 0 63 -7 81 -32 81 -14 0 -18 -5 -13 -19z"/>
<path d="M7932 12178 c-7 -7 -12 -19 -12 -28 0 -41 61 -55 80 -19 21 38 -37
78 -68 47z"/>
<path d="M2435 10654 c4 -58 21 -121 29 -113 4 4 -8 75 -25 139 -7 28 -8 23
-4 -26z"/>
<path d="M2888 10661 c-34 -40 -56 -107 -40 -123 8 -8 19 8 42 58 37 83 37
112 -2 65z"/>
<path d="M2515 10568 c-32 -28 -27 -51 11 -42 17 5 24 2 24 -9 0 -16 60 -73
94 -88 28 -13 101 10 101 31 0 11 -12 15 -47 16 -26 0 -58 8 -74 19 -24 15
-25 19 -10 27 12 6 36 3 80 -12 89 -29 166 -38 166 -17 0 16 -20 27 -52 27
-12 0 -42 13 -67 30 -26 16 -55 29 -66 28 -11 -1 -45 2 -76 6 -50 7 -58 6 -84
-16z"/>
<path d="M2231 7938 c-6 -17 -2 -36 16 -72 22 -44 24 -55 15 -100 -7 -34 -7
-57 0 -70 6 -10 19 -55 29 -100 22 -92 49 -175 63 -194 5 -7 26 -49 47 -93 32
-70 36 -85 27 -112 -14 -46 -14 -46 28 -117 21 -36 50 -94 65 -130 39 -98 92
-96 63 2 -8 27 -12 52 -10 57 3 5 -24 69 -60 142 -95 193 -188 451 -201 554
l-6 50 52 -55 c34 -37 49 -61 46 -74 -8 -39 27 -117 80 -175 28 -31 61 -72 72
-91 28 -46 71 -86 106 -99 23 -9 38 -32 78 -115 27 -58 55 -107 62 -109 7 -2
20 0 29 5 15 7 24 -1 49 -42 32 -52 54 -70 87 -70 11 0 23 -7 26 -16 4 -10 15
-14 33 -12 26 3 31 -3 68 -77 30 -60 45 -80 60 -80 26 0 31 33 15 104 -21 92
-78 235 -102 254 -13 10 -44 36 -70 57 -26 22 -53 40 -61 40 -8 0 -36 22 -62
49 -34 35 -53 47 -67 43 -12 -3 -29 5 -46 21 -15 13 -36 28 -47 31 -12 3 -28
19 -38 35 -9 16 -39 46 -66 65 -46 34 -103 96 -165 179 -25 32 -29 47 -31 114
-2 75 -3 77 -39 106 -33 27 -48 57 -27 57 5 0 11 6 14 14 7 17 -30 19 -52 2
-10 -8 -18 -3 -33 17 -24 33 -36 34 -47 5z"/>
<path d="M3680 7814 c-52 -24 -124 -50 -160 -58 -133 -29 -222 -54 -233 -65
-8 -8 -8 -11 0 -11 16 0 190 37 257 55 69 18 246 101 246 115 0 14 -5 13 -110
-36z"/>
<path d="M3050 7778 c0 -21 46 -146 60 -163 7 -9 50 -44 95 -79 129 -101 265
-288 265 -364 0 -25 4 -32 19 -32 11 0 26 9 34 21 14 19 11 27 -23 95 -55 105
-70 125 -196 254 -76 78 -129 142 -163 199 -28 46 -51 78 -51 70 0 -8 16 -40
35 -72 19 -32 35 -62 35 -66 0 -5 44 -51 98 -102 53 -52 118 -119 143 -149 66
-78 120 -190 92 -190 -5 0 -21 25 -37 55 -46 88 -114 172 -233 285 -103 98
-112 109 -132 172 -21 63 -41 96 -41 66z"/>
<path d="M2234 7666 c-11 -28 47 -350 67 -370 13 -14 12 -6 -11 110 -10 56
-22 138 -26 183 -7 79 -18 108 -30 77z"/>
<path d="M3775 7483 c22 -51 28 -154 17 -298 -14 -179 -15 -236 -3 -215 16 28
34 260 28 368 -6 110 -18 162 -38 162 -7 0 -8 -7 -4 -17z"/>
<path d="M3490 7087 c0 -7 7 -22 15 -33 21 -27 19 -43 -15 -128 -34 -86 -34
-119 1 -256 26 -99 36 -120 54 -120 20 0 19 12 -10 103 -37 115 -41 170 -16
241 22 63 28 155 11 187 -12 21 -40 26 -40 6z"/>
<path d="M2500 6660 c0 -12 58 -78 190 -213 47 -48 76 -85 66 -81 -19 7 -19 6
2 -23 24 -34 52 -59 52 -47 0 11 119 -106 172 -168 22 -27 35 -48 29 -48 -6 0
-50 45 -98 100 -48 54 -89 97 -91 95 -5 -4 125 -160 157 -189 11 -11 21 -24
21 -29 0 -6 -13 2 -30 18 -16 16 -32 26 -34 24 -3 -3 17 -42 44 -87 28 -45 50
-88 50 -96 0 -37 51 -221 66 -237 10 -11 30 -19 45 -19 40 0 62 37 63 109 1
54 -2 62 -51 133 -38 55 -53 86 -53 110 0 30 -22 56 -200 243 -110 116 -241
255 -292 310 -95 103 -108 115 -108 95z"/>
<path d="M3371 4101 c-25 -16 2 -44 114 -118 113 -75 134 -90 178 -131 38 -35
53 -43 73 -38 14 4 37 0 55 -10 18 -9 41 -13 55 -10 35 9 31 44 -13 101 -23
30 -32 50 -25 53 7 2 12 9 12 17 0 19 -182 85 -235 85 -24 0 -68 10 -97 21
-77 31 -104 38 -117 30z"/>
<path d="M2840 8920 c0 -18 47 -79 77 -100 20 -13 71 -30 127 -41 51 -11 137
-32 191 -49 54 -16 103 -30 109 -30 7 0 22 -14 35 -31 21 -28 25 -30 69 -24
26 3 66 13 89 21 40 15 41 16 36 52 -7 45 -16 52 -70 52 -47 0 -48 -1 -32 -32
22 -41 -6 -42 -83 -4 -40 20 -80 36 -89 36 -9 0 -22 6 -28 14 -6 8 -31 17 -54
20 -67 10 -178 51 -189 69 -5 9 -18 17 -28 17 -11 0 -20 4 -20 9 0 9 -41 19
-102 25 -21 2 -38 0 -38 -4z"/>
<path d="M2330 8783 c0 -5 4 -13 9 -18 16 -19 41 -133 41 -192 0 -80 10 -153
22 -153 5 0 14 14 20 31 7 20 15 28 25 25 38 -15 63 -18 63 -7 0 13 -84 172
-112 213 -10 14 -18 33 -18 41 0 8 -11 26 -25 41 -14 15 -25 23 -25 19z"/>
<path d="M3803 497 c-39 -26 -83 -108 -83 -154 0 -60 33 -102 114 -143 15 -8
32 -25 37 -37 10 -26 27 -30 35 -8 3 8 28 28 55 46 80 51 107 104 90 180 -12
52 -42 85 -106 115 -61 29 -100 29 -142 1z m179 -59 c25 -32 41 -85 34 -112
-9 -36 -45 -76 -69 -76 -18 0 -22 6 -22 32 0 25 -5 33 -20 36 -31 6 -45 22
-45 53 0 27 -22 59 -41 59 -5 0 -19 -15 -30 -32 -17 -28 -20 -29 -14 -8 22 80
158 112 207 48z"/>
<path d="M3611 151 c-6 -11 -11 -27 -11 -36 0 -15 -37 -35 -64 -35 -7 0 -18
11 -24 25 -15 32 -40 32 -48 0 -6 -23 -10 -25 -41 -19 -28 5 -35 4 -31 -7 2
-8 17 -15 31 -17 19 -2 27 -9 27 -23 0 -29 30 -36 49 -11 19 25 74 25 79 -1 5
-25 43 -33 58 -12 11 15 23 16 84 10 44 -4 75 -3 83 3 7 6 33 12 57 14 44 3
45 4 48 41 4 42 -14 51 -24 12 -6 -23 -10 -25 -42 -19 -20 4 -69 7 -109 8
l-72 1 -3 40 c-3 45 -29 60 -47 26z"/>
</g>
</svg>
