<?xml version="1.0" standalone="no"?>
<!DOCTYPE svg PUBLIC "-//W3C//DTD SVG 20010904//EN"
 "http://www.w3.org/TR/2001/REC-SVG-20010904/DTD/svg10.dtd">
<svg version="1.0" xmlns="http://www.w3.org/2000/svg"
 width="1280.000000pt" height="1210.000000pt" viewBox="0 0 1280.000000 1210.000000"
 preserveAspectRatio="xMidYMid meet">
<metadata>
Created by potrace 1.15, written by Peter Selinger 2001-2017
</metadata>
<g transform="translate(0.000000,1210.000000) scale(0.100000,-0.100000)"
fill="#004c40" stroke="none">
<path d="M12033 12088 c-5 -7 -18 -35 -28 -63 -36 -99 -238 -613 -543 -1380
-1205 -3031 -1099 -2773 -1187 -2885 -103 -133 -143 -223 -930 -2135 -443
-1077 -567 -1368 -647 -1530 -88 -176 -164 -264 -313 -363 -99 -67 -163 -89
-311 -108 -105 -14 -144 -14 -237 -5 -218 23 -386 68 -1007 271 -1006 328
-1658 505 -2655 719 -979 210 -1908 325 -2485 308 -295 -9 -436 -41 -668 -152
-379 -182 -649 -467 -821 -866 -93 -217 -145 -386 -178 -582 -25 -143 -24
-620 1 -827 73 -610 251 -1095 559 -1526 306 -428 635 -694 1047 -847 237 -88
416 -111 880 -111 361 0 501 8 825 49 1419 182 3716 821 4585 1276 228 120
437 277 669 503 387 378 806 934 996 1321 132 269 548 1234 827 1920 277 680
418 1072 644 1784 117 369 134 432 134 491 0 37 -5 81 -11 97 -22 65 -4 113
674 1838 151 385 370 943 486 1240 117 297 269 683 339 859 l126 319 -32 27
c-24 20 -399 220 -437 233 -9 3 -327 -798 -435 -1093 -101 -278 -228 -612
-665 -1755 -158 -412 -334 -876 -392 -1030 -57 -154 -111 -290 -119 -302 -16
-25 -54 -30 -98 -13 -57 21 -89 -66 676 1855 247 622 532 1337 633 1590 101
253 215 533 253 622 51 118 67 165 58 172 -17 15 -178 91 -192 91 -6 0 -16 -6
-21 -12z m-1454 -4483 c22 -22 23 -26 11 -55 -19 -46 -42 -54 -114 -40 -33 7
-68 16 -78 21 -21 11 -14 40 17 69 47 44 121 47 164 5z m-7664 -3964 c153 -17
554 -60 665 -71 58 -5 229 -14 380 -20 1090 -40 1869 -140 2657 -341 131 -33
351 -89 488 -124 342 -86 449 -127 582 -221 170 -121 267 -324 280 -584 4 -93
1 -134 -15 -214 -39 -184 -153 -371 -298 -486 -134 -107 -217 -139 -797 -315
-119 -36 -356 -116 -525 -176 -845 -305 -1501 -494 -2122 -612 -487 -93 -805
-127 -1197 -127 -423 0 -794 60 -1002 161 -135 66 -313 281 -417 506 -110 234
-231 694 -304 1147 -89 558 -19 936 217 1173 175 175 401 274 713 312 92 12
571 6 695 -8z"/>
<path d="M4515 3190 c-373 -65 -1090 -190 -2192 -380 -281 -49 -525 -96 -541
-104 -39 -20 -69 -59 -82 -105 -24 -91 50 -181 150 -181 22 0 312 47 643 105
560 97 1654 286 2231 386 268 46 290 55 333 118 59 87 -4 212 -112 225 -25 3
-186 -21 -430 -64z"/>
<path d="M5755 2810 c-518 -89 -819 -141 -930 -160 -60 -11 -742 -128 -1515
-260 -773 -132 -1470 -252 -1550 -266 -156 -27 -195 -45 -225 -104 -50 -96 25
-220 134 -220 28 0 492 78 1666 280 362 63 616 106 1665 286 721 123 1095 191
1115 203 37 21 72 72 81 117 13 68 -55 154 -131 167 -16 3 -156 -17 -310 -43z"/>
<path d="M6170 2290 c-911 -157 -906 -156 -1980 -340 -514 -88 -1014 -173
-1110 -190 -96 -17 -398 -68 -670 -115 -516 -88 -520 -89 -563 -147 -27 -36
-33 -107 -13 -145 21 -43 70 -81 112 -89 31 -6 502 71 1689 277 159 27 2123
364 2715 465 146 25 330 56 410 70 169 29 192 36 225 76 81 96 28 228 -100
251 -17 3 -324 -45 -715 -113z"/>
<path d="M5515 1590 c-374 -65 -1155 -200 -1735 -300 -1450 -249 -1402 -241
-1432 -256 -37 -19 -75 -72 -83 -116 -16 -84 63 -171 152 -170 27 0 203 27
393 60 190 33 806 140 1370 237 564 97 1259 216 1545 266 286 49 532 94 546
100 54 21 99 88 99 146 0 66 -66 136 -140 147 -21 3 -307 -43 -715 -114z"/>
</g>
</svg>
