<?xml version="1.0" standalone="no"?>
<!DOCTYPE svg PUBLIC "-//W3C//DTD SVG 20010904//EN"
 "http://www.w3.org/TR/2001/REC-SVG-20010904/DTD/svg10.dtd">
<svg version="1.0" xmlns="http://www.w3.org/2000/svg"
 width="1280.000000pt" height="1002.000000pt" viewBox="0 0 1280.000000 1002.000000"
 preserveAspectRatio="xMidYMid meet">
<metadata>
Created by potrace 1.15, written by Peter Selinger 2001-2017
</metadata>
<g transform="translate(0.000000,1002.000000) scale(0.100000,-0.100000)"
fill="#004c42" stroke="none">
<path d="M2234 9999 c-10 -12 -50 -42 -87 -67 -87 -57 -106 -92 -88 -160 28
-105 83 -162 173 -177 72 -12 97 1 193 101 104 108 124 115 177 61 18 -18 52
-65 76 -104 23 -38 76 -110 118 -159 209 -248 354 -433 707 -902 213 -282 422
-556 465 -610 43 -53 136 -173 206 -266 70 -92 170 -220 222 -282 51 -63 107
-134 123 -158 l30 -44 -63 -31 c-69 -34 -94 -69 -82 -117 4 -15 42 -63 85
-108 67 -69 80 -89 89 -132 12 -55 7 -86 -28 -182 -18 -48 -22 -75 -17 -117
l6 -55 -37 -9 c-20 -5 -53 -12 -73 -15 -41 -7 -89 -40 -89 -61 0 -23 39 -23
84 1 25 13 47 24 49 24 3 0 8 -12 12 -27 4 -16 36 -90 71 -166 65 -138 106
-251 118 -318 6 -35 4 -39 -41 -72 -27 -19 -67 -49 -90 -67 -39 -29 -44 -30
-50 -13 -3 10 -39 96 -80 191 -73 173 -113 298 -113 356 0 60 -7 60 -149 -4
-73 -33 -147 -68 -165 -78 -17 -10 -47 -20 -66 -21 -19 -1 -52 -13 -73 -27
-31 -21 -38 -22 -43 -9 -16 42 -40 1 -66 -114 -21 -94 -29 -112 -69 -159 -17
-19 -29 -44 -29 -60 l1 -27 24 30 c14 16 51 82 84 145 57 110 60 114 70 87 20
-52 51 -25 51 45 0 23 9 30 58 53 125 58 335 146 339 142 2 -3 19 -71 37 -153
33 -146 63 -236 92 -282 9 -13 14 -25 12 -26 -34 -25 -58 -36 -80 -36 -30 0
-35 9 -17 27 6 6 10 16 8 21 -2 6 -31 -10 -64 -35 -121 -92 -282 -153 -455
-174 -80 -9 -109 -9 -185 5 -121 22 -248 34 -505 45 -176 8 -217 7 -229 -4
-20 -20 13 -34 111 -46 98 -12 120 -17 113 -29 -3 -5 -72 -30 -153 -55 -81
-26 -164 -56 -184 -66 -73 -37 -46 -36 65 3 248 88 285 99 371 114 95 17 129
15 285 -17 128 -26 191 -24 350 12 75 16 168 31 208 33 76 3 75 3 278 120 44
25 85 46 91 46 12 0 28 -34 40 -82 11 -47 48 -37 200 56 55 34 62 42 68 77 4
22 -1 82 -10 135 -26 154 -8 204 74 204 80 0 203 101 272 223 18 31 37 57 43
58 12 0 77 94 77 110 0 5 5 9 11 9 6 0 27 18 46 40 41 45 70 51 78 17 10 -37
-13 -79 -73 -136 -31 -30 -49 -51 -39 -47 10 3 25 6 32 6 7 0 38 23 69 51 l55
50 21 -33 c73 -121 -75 -258 -239 -220 -25 6 -48 9 -49 7 -2 -2 -1 -13 3 -25
11 -34 65 -52 121 -40 60 14 88 29 152 84 30 25 57 46 62 46 10 0 20 -37 20
-81 0 -41 -27 -82 -70 -104 -46 -24 -143 -35 -211 -24 -34 5 -64 7 -67 4 -11
-11 15 -40 51 -58 21 -9 37 -21 37 -26 0 -4 -37 -23 -82 -42 -118 -48 -163
-46 -253 9 -58 36 -71 40 -73 26 -2 -9 10 -36 27 -61 17 -24 31 -46 31 -49 0
-2 -12 -10 -27 -16 -27 -12 -27 -13 21 -16 67 -4 129 11 265 64 64 26 137 52
163 59 54 15 57 13 122 -87 32 -48 43 -58 67 -58 31 0 61 26 79 71 11 26 9 31
-37 77 -26 26 -54 60 -62 75 -13 25 -13 29 6 50 59 64 72 176 29 240 -14 20
-28 57 -31 84 -4 26 -16 57 -26 68 -10 11 -32 51 -49 89 -27 58 -30 73 -21 99
15 41 14 81 -3 120 -24 58 -37 65 -113 60 -92 -7 -93 -8 -78 -66 23 -89 75
-119 75 -42 0 51 16 59 50 25 44 -44 16 -161 -48 -194 -17 -9 -49 -48 -79 -98
-77 -124 -183 -259 -228 -290 -22 -15 -54 -31 -72 -34 -28 -6 -31 -4 -26 14 3
11 27 48 54 81 27 34 44 61 39 61 -21 0 -93 -77 -154 -164 -101 -145 -90 -144
-165 -13 -82 144 -85 167 -32 231 44 51 51 79 25 94 -15 8 -14 18 10 98 30
101 34 190 10 239 -8 18 -46 66 -85 108 -38 41 -69 82 -69 91 0 45 89 43 164
-5 59 -37 73 -66 58 -118 -25 -80 -7 -69 48 30 51 92 88 129 131 129 35 0 73
-36 89 -85 9 -28 19 -37 59 -50 40 -13 50 -21 57 -47 15 -52 34 -47 34 9 0 65
-10 77 -58 75 l-40 -3 -21 58 c-36 99 -42 108 -86 111 -52 5 -94 -19 -127 -68
l-25 -40 -84 103 c-47 56 -98 120 -114 142 -16 22 -97 117 -180 210 -230 261
-241 275 -417 515 -90 124 -231 313 -313 420 -83 107 -199 263 -260 345 -139
191 -194 260 -324 415 -163 191 -208 250 -242 314 -18 32 -61 91 -97 130 -36
39 -84 100 -107 136 -52 80 -79 105 -133 124 -32 12 -188 46 -207 46 -1 0 -10
-10 -21 -21z m236 -89 l35 -25 -79 -7 c-96 -9 -178 -45 -207 -92 -27 -45 -6
-45 78 -1 80 41 143 56 143 33 0 -9 -18 -34 -40 -56 -81 -84 -181 -127 -235
-101 -71 34 -81 118 -23 185 56 63 134 94 228 91 51 -2 73 -8 100 -27z m2940
-3799 c-1 -13 -3 -13 -15 3 -19 26 -19 42 0 26 8 -7 15 -20 15 -29z"/>
<path d="M1760 8251 c-7 -19 -9 -49 -5 -85 8 -62 25 -66 25 -7 0 22 6 44 15
51 22 18 36 -26 42 -130 4 -69 -4 -138 -42 -375 -55 -339 -60 -448 -26 -534
12 -30 26 -95 31 -150 5 -53 21 -144 35 -203 32 -134 55 -262 55 -310 0 -34
-3 -38 -34 -43 -85 -16 -91 -7 -107 180 -10 125 -31 219 -51 231 -6 4 -9 3 -6
-2 8 -12 36 -251 41 -336 2 -43 -1 -68 -8 -68 -5 0 -37 -18 -70 -40 -45 -30
-70 -40 -101 -40 -55 0 -79 28 -99 114 -9 38 -27 91 -41 117 -13 27 -29 72
-35 101 -6 28 -33 96 -60 150 -61 125 -67 163 -39 248 11 36 36 119 55 185 49
178 89 278 134 342 33 47 42 73 53 138 l13 80 45 22 c63 31 86 30 94 -4 3 -16
9 -92 12 -170 6 -118 9 -141 21 -132 10 9 12 47 9 178 -2 91 -8 180 -13 196
-8 27 -14 30 -56 33 -54 4 -115 -24 -141 -63 -10 -15 -24 -63 -33 -108 -10
-53 -37 -129 -78 -222 -194 -434 -205 -582 -67 -887 17 -38 52 -130 77 -205
50 -152 68 -181 119 -193 47 -10 94 9 160 64 46 40 58 46 75 37 34 -19 79 -12
134 19 64 36 113 39 192 9 56 -21 88 -51 78 -75 -2 -7 -29 -27 -59 -44 -69
-38 -76 -62 -36 -121 34 -50 62 -136 62 -188 0 -22 10 -51 25 -73 14 -20 51
-95 84 -167 74 -165 93 -195 181 -306 104 -129 105 -133 65 -297 -14 -57 -25
-119 -25 -138 0 -33 -4 -37 -66 -69 -142 -73 -233 -216 -234 -367 0 -53 11
-62 139 -119 57 -25 157 -79 221 -120 65 -40 135 -82 156 -93 22 -11 74 -59
117 -106 44 -48 97 -96 118 -107 52 -26 124 -40 138 -26 6 6 11 7 11 3 0 -5
18 8 40 27 21 20 57 45 79 56 31 16 48 37 82 98 89 161 118 224 124 270 16
115 46 229 72 272 l28 46 6 -100 c4 -55 14 -149 23 -209 20 -136 20 -218 1
-283 -23 -78 -33 -80 -88 -18 -54 62 -56 74 -27 184 11 41 20 91 19 110 l-1
36 -14 -33 c-8 -18 -28 -103 -45 -190 -19 -97 -44 -189 -66 -241 -19 -46 -43
-129 -54 -185 -19 -103 -139 -472 -202 -626 -59 -141 -68 -204 -74 -498 l-6
-263 -23 -16 c-22 -14 -32 -14 -113 2 -70 13 -93 14 -110 5 -36 -19 -21 -43
39 -63 53 -17 84 -42 74 -58 -9 -16 -5 -486 5 -570 6 -48 20 -119 30 -160 18
-72 18 -73 -2 -123 -27 -69 -38 -79 -68 -67 -14 5 -55 12 -92 16 -91 10 -100
18 -83 75 39 130 44 374 11 609 -29 201 -36 233 -51 220 -25 -20 -27 -78 -9
-287 20 -234 24 -415 12 -514 -8 -63 -10 -67 -37 -73 -57 -13 -137 -114 -161
-206 -12 -46 -12 -49 30 -131 42 -84 42 -85 39 -184 l-3 -99 -130 -6 c-71 -4
-156 -12 -189 -19 -52 -12 -64 -11 -112 5 -41 14 -66 16 -111 10 -32 -4 -87
-8 -123 -9 -43 -1 -84 -10 -123 -26 -57 -24 -58 -24 -105 -6 -68 26 -216 33
-265 12 -22 -9 -37 -21 -35 -28 6 -18 100 -22 181 -8 65 11 70 11 92 -10 22
-21 25 -21 191 -11 106 6 185 15 212 25 40 14 45 14 69 -1 23 -15 30 -15 94 0
65 16 72 16 101 1 26 -13 38 -14 70 -5 22 7 94 17 161 22 93 7 134 15 172 33
37 18 79 27 165 34 63 5 132 17 153 25 37 16 37 16 37 76 l0 61 52 -20 c28
-11 66 -34 84 -51 33 -32 58 -82 47 -93 -4 -3 -49 -6 -100 -6 -65 0 -103 -5
-124 -15 -68 -36 8 -52 152 -32 58 8 116 13 130 10 16 -3 30 1 38 11 8 9 28
16 47 16 22 0 41 8 57 24 22 22 31 24 80 19 74 -8 167 10 327 62 74 24 151 46
172 50 20 4 47 18 60 32 l23 24 -48 -20 c-131 -56 -302 -94 -504 -111 l-129
-11 -73 45 c-83 51 -197 95 -316 122 -79 18 -283 25 -385 14 l-45 -5 -23 55
c-31 75 -26 169 12 234 24 42 28 44 54 36 80 -27 344 -40 382 -20 10 5 32 23
48 40 33 32 72 40 72 14 0 -8 -11 -30 -25 -48 -14 -18 -25 -45 -25 -59 0 -23
4 -27 29 -27 22 0 40 12 73 45 34 37 49 45 72 43 50 -5 54 -30 13 -79 -42 -48
-46 -65 -17 -74 25 -8 56 1 93 28 l29 20 28 -22 c83 -61 91 30 10 103 -68 61
-208 116 -298 116 -39 0 -52 18 -91 127 -55 150 -83 393 -46 393 9 0 34 9 57
21 24 12 53 19 69 17 23 -4 29 -1 29 14 0 40 -42 134 -94 211 l-56 80 28 17
c45 28 81 78 98 138 14 48 16 89 10 287 -5 151 -3 249 4 285 6 34 35 99 75
171 70 125 61 96 195 614 33 127 63 241 66 254 7 22 9 20 30 -28 l23 -52 62 3
63 3 34 85 c48 119 47 186 -2 390 -36 143 -38 163 -33 260 4 92 11 121 52 240
46 130 48 138 44 230 -2 52 -3 132 -4 177 0 44 -3 79 -8 76 -4 -2 -17 -23 -28
-45 -17 -32 -24 -77 -35 -207 -16 -200 -32 -256 -144 -492 -45 -95 -98 -229
-126 -315 -26 -82 -57 -172 -70 -201 -28 -66 -99 -142 -158 -172 l-46 -22
-107 91 c-132 112 -217 169 -444 294 -190 105 -239 142 -239 178 0 27 127 236
174 287 17 18 49 42 72 52 40 18 41 20 47 79 7 84 15 92 93 84 54 -6 64 -4 64
9 0 24 -25 44 -67 52 -58 11 -62 17 -56 100 5 64 2 84 -23 155 -15 45 -36 86
-46 91 -25 14 -127 143 -144 185 -8 19 -39 79 -69 132 -29 53 -64 128 -76 166
l-23 69 35 29 c19 17 111 67 204 113 169 83 236 124 204 125 -31 0 -123 -32
-229 -81 -59 -27 -112 -49 -118 -49 -5 0 -29 -16 -53 -35 -23 -20 -49 -35 -57
-33 -9 2 -22 28 -33 67 -10 36 -17 66 -16 67 1 1 34 18 74 38 113 56 266 114
392 149 109 29 126 31 291 31 163 0 180 -2 255 -27 44 -14 101 -40 127 -56 44
-28 76 -66 65 -78 -3 -3 -46 1 -96 7 -110 15 -205 9 -251 -16 l-35 -19 215 -6
c180 -5 226 -9 285 -27 38 -12 81 -22 94 -22 23 0 23 1 8 18 -28 31 -45 97
-56 215 -6 63 -17 131 -24 151 -12 36 -18 40 -117 77 -142 53 -178 53 -300 -7
-75 -36 -111 -47 -179 -56 -114 -14 -130 -21 -148 -67 -14 -36 -21 -41 -67
-52 -94 -22 -234 -66 -345 -109 l-109 -42 -59 60 c-60 61 -103 82 -170 82 -30
0 -33 3 -49 58 -9 31 -19 75 -21 98 l-5 40 84 13 c47 7 111 11 143 10 56 -3
60 -1 77 27 22 36 23 58 2 78 -25 25 -37 19 -30 -14 8 -43 -22 -56 -93 -41
-28 6 -70 8 -93 5 -24 -3 -55 -1 -70 5 -26 10 -28 15 -28 65 0 48 4 57 27 76
l28 22 6 -24 c5 -23 6 -23 12 -2 4 12 16 29 27 39 11 10 20 26 20 36 0 15 -9
17 -60 16 -49 -2 -60 -5 -60 -19 0 -27 -11 -48 -26 -48 -10 0 -14 14 -14 51 0
37 -5 55 -19 67 -49 43 -53 193 -11 420 74 408 96 644 66 717 -26 61 -95 77
-116 26z m1552 -1605 c35 -14 70 -27 79 -30 22 -6 49 -88 49 -145 0 -71 -13
-78 -39 -23 -35 71 -94 144 -146 176 -32 21 -42 32 -33 38 18 11 21 11 90 -16z
m-207 -33 c65 -6 117 -37 185 -108 l35 -37 -40 8 c-22 4 -83 20 -135 36 -52
16 -127 34 -166 40 -62 10 -71 14 -66 30 8 33 43 50 87 43 22 -3 67 -8 100
-12z m-285 -32 c0 -12 -26 -21 -61 -21 -19 0 -29 5 -29 15 0 11 12 15 45 15
25 0 45 -4 45 -9z m98 -5125 c3 -13 -1 -17 -14 -14 -11 2 -20 11 -22 22 -3 13
1 17 14 14 11 -2 20 -11 22 -22z m162 -61 c0 -16 -6 -25 -15 -25 -18 0 -20 21
-3 38 17 17 18 16 18 -13z m170 -56 c0 -22 -22 -49 -40 -49 -27 0 -32 13 -14
38 16 23 54 30 54 11z m-400 -273 c28 -10 36 -18 38 -44 2 -17 -4 -45 -13 -61
l-16 -31 -179 0 -180 0 0 55 0 54 53 15 c81 23 87 24 177 24 47 0 101 -5 120
-12z"/>
<path d="M3119 7986 c-43 -15 -83 -43 -122 -84 l-28 -29 41 -83 c22 -46 40
-90 40 -97 0 -7 -18 -24 -40 -38 -26 -16 -40 -33 -40 -46 0 -18 4 -20 33 -14
135 30 307 144 307 205 0 15 -20 57 -45 96 -24 38 -45 74 -45 80 0 25 -46 30
-101 10z"/>
<path d="M2270 7790 c-97 -57 -119 -63 -179 -51 -31 6 -83 20 -116 31 -60 19
-60 19 -77 -2 -10 -11 -18 -30 -18 -42 0 -22 2 -22 158 -24 l157 -3 75 37 c95
46 172 54 266 29 73 -20 74 -25 25 -99 -32 -49 -33 -93 -2 -168 13 -31 24 -72
24 -90 l2 -33 -67 -5 c-73 -5 -87 -12 -69 -34 31 -37 73 -29 142 26 28 23 41
27 67 22 27 -6 40 0 89 37 32 24 79 54 105 67 42 21 69 55 55 69 -14 13 -74
-13 -131 -57 -79 -59 -80 -60 -116 -70 -27 -8 -32 -6 -45 20 -24 46 -18 102
21 199 60 151 50 161 -176 161 -138 0 -159 -2 -190 -20z"/>
<path d="M2217 7611 c-5 -22 -9 -22 -73 -16 -54 6 -66 5 -62 -6 3 -8 24 -21
48 -29 24 -8 45 -20 47 -27 2 -6 -16 -39 -41 -73 -42 -57 -56 -97 -40 -113 4
-3 16 12 28 34 11 21 41 64 64 94 49 61 67 115 47 141 -11 15 -12 15 -18 -5z"/>
<path d="M1847 7488 c8 -78 25 -137 45 -163 23 -29 44 -34 29 -7 -7 13 -31
169 -31 205 0 4 -11 7 -24 7 -22 0 -24 -3 -19 -42z"/>
<path d="M9637 7509 c-8 -13 -21 -44 -27 -69 -17 -63 -36 -96 -84 -149 -24
-25 -70 -82 -103 -126 -34 -44 -85 -102 -113 -128 -44 -40 -64 -72 -125 -200
-40 -84 -101 -217 -135 -297 -34 -80 -101 -221 -148 -315 -68 -135 -98 -183
-144 -231 -76 -80 -78 -123 -5 -95 35 14 64 47 97 111 15 30 37 63 48 73 11
10 23 35 27 55 4 20 31 94 61 163 30 69 54 134 54 143 0 9 18 49 39 89 22 40
54 108 71 152 18 44 42 87 54 95 11 8 38 30 58 49 47 42 48 35 3 -30 -64 -94
-36 -86 83 23 85 77 127 102 197 118 44 10 48 9 66 -14 11 -14 46 -33 84 -46
36 -12 67 -25 69 -28 2 -4 -55 -7 -127 -7 -143 0 -206 -14 -279 -63 -33 -21
-68 -61 -68 -77 0 -3 26 8 58 24 115 58 202 83 303 88 76 4 102 2 127 -11 18
-9 32 -21 32 -27 0 -20 -35 -22 -101 -4 -64 16 -71 16 -91 1 -13 -9 -33 -24
-46 -33 -14 -10 -55 -19 -103 -23 -54 -5 -86 -13 -97 -24 -15 -15 -14 -16 8
-16 14 0 49 7 78 14 30 8 60 12 68 9 26 -10 9 -27 -37 -38 -29 -7 -45 -17 -47
-29 -3 -15 0 -18 19 -13 13 4 38 7 55 7 26 0 33 5 39 28 9 39 33 72 51 72 14
0 15 -9 9 -60 -8 -65 4 -80 25 -31 17 43 54 74 78 67 33 -11 50 -63 53 -166 4
-91 3 -95 -20 -106 -57 -29 -41 -72 21 -56 49 12 57 55 35 186 -20 120 -21
126 -5 126 6 0 22 10 35 22 21 19 27 21 54 11 42 -16 34 7 -9 26 -40 18 -41
31 -3 31 16 0 36 3 44 6 11 4 28 -19 62 -85 65 -125 94 -163 151 -191 27 -14
50 -25 52 -26 1 0 -16 -45 -38 -99 -83 -205 -140 -414 -163 -599 l-13 -100
-83 -37 -84 -37 -24 -77 c-23 -71 -23 -78 -9 -101 9 -13 28 -31 41 -40 24 -16
27 -15 66 10 54 36 77 31 95 -19 25 -75 22 -115 -10 -115 -38 0 -51 24 -30 55
26 40 9 41 -21 1 -27 -36 -27 -36 -108 -36 -79 0 -80 0 -124 -41 -35 -32 -50
-40 -75 -37 -32 3 -32 3 -43 83 -7 44 -19 94 -28 110 -14 28 -13 39 9 153 14
67 33 143 43 169 16 42 19 45 28 27 11 -20 27 -96 38 -176 7 -52 12 -55 64
-37 24 8 31 16 26 28 -4 9 -12 44 -19 78 -8 35 -22 75 -32 90 -18 28 -19 28
-22 5 -2 -12 4 -45 13 -72 9 -27 15 -58 12 -67 -7 -29 -38 52 -50 129 -10 63
-12 67 -33 62 -19 -5 -25 1 -42 39 -24 55 -60 82 -186 142 -97 46 -98 47 -75
63 13 9 27 21 31 26 9 14 -29 34 -81 42 -45 7 -49 2 -29 -41 6 -14 9 -28 6
-31 -3 -3 -30 2 -59 10 -29 9 -65 16 -81 16 -26 0 -28 -2 -18 -20 15 -29 54
-45 150 -65 106 -21 204 -71 265 -136 39 -42 45 -54 45 -91 0 -56 -23 -92 -50
-78 -10 5 -23 10 -28 10 -12 0 -4 -285 10 -330 6 -19 19 -47 29 -62 11 -14 19
-35 19 -46 0 -17 -10 -20 -107 -25 -130 -8 -497 -7 -575 2 l-56 6 59 80 c104
142 183 326 213 498 23 132 28 187 16 187 -17 0 -40 -64 -40 -109 0 -55 -40
-178 -117 -356 -49 -115 -74 -160 -106 -192 -40 -42 -67 -54 -67 -32 0 6 16
47 36 92 19 44 41 104 48 131 8 28 37 96 66 152 47 90 53 108 54 165 1 58 -1
64 -21 67 -13 2 -27 -5 -36 -18 -9 -13 -23 -19 -38 -18 -23 3 -24 -1 -30 -68
-10 -104 -52 -179 -95 -168 -39 10 -62 -5 -94 -60 -38 -67 -38 -87 0 -108 35
-20 36 -31 11 -90 -29 -68 -42 -74 -99 -50 -64 27 -132 40 -248 48 -79 6 -105
12 -132 31 -19 13 -58 30 -86 38 l-51 16 -25 -33 c-49 -64 -135 -150 -181
-180 -34 -22 -49 -38 -53 -61 -4 -17 -31 -63 -61 -103 -30 -39 -55 -78 -55
-87 0 -9 35 -53 78 -99 98 -107 110 -128 94 -172 -16 -43 -15 -56 5 -78 25
-28 11 -30 -41 -7 -52 23 -104 20 -126 -6 -8 -10 -15 -95 -22 -257 -5 -133
-15 -273 -22 -310 -11 -56 -11 -71 1 -87 18 -27 77 -44 121 -36 62 11 72 16
72 36 0 31 18 57 50 74 39 20 54 19 85 -7 l26 -23 -17 -140 c-17 -150 -15
-318 5 -338 8 -8 74 -14 189 -18 97 -4 191 -10 209 -14 31 -7 32 -9 35 -68 3
-57 5 -63 38 -85 33 -22 41 -23 131 -17 l95 7 95 -50 c108 -57 144 -67 183
-52 24 9 32 6 66 -21 l39 -32 98 13 c54 7 112 20 128 28 17 8 79 32 140 54 96
33 169 77 154 92 -2 2 -45 -9 -94 -25 -50 -16 -119 -34 -155 -40 -36 -6 -72
-17 -80 -24 -51 -43 -120 -57 -155 -31 -18 13 -17 15 18 29 20 9 37 20 37 24
0 5 -20 16 -45 25 -37 14 -46 15 -52 3 -14 -23 -66 -45 -111 -45 -43 0 -102
23 -102 40 0 5 26 14 58 20 88 18 85 16 67 43 -14 22 -54 47 -75 47 -4 0 -6
-8 -3 -18 9 -38 -15 -42 -205 -35 -180 6 -181 6 -211 34 -34 31 -38 46 -18 73
9 13 33 20 80 25 118 12 84 21 -80 21 -180 0 -177 -1 -196 76 -14 54 -37 75
-61 55 -9 -8 -16 -24 -16 -38 0 -28 -18 -66 -28 -59 -4 2 -31 0 -60 -5 -93
-14 -86 -53 -76 430 10 490 11 595 4 856 -7 252 3 275 121 275 l50 0 -8 -72
c-13 -116 -10 -509 4 -533 10 -17 12 -3 13 75 0 52 5 113 12 135 l12 40 7 -55
c4 -30 8 -80 9 -110 l3 -55 7 60 c4 33 8 128 9 210 1 83 4 186 7 231 l7 80
376 12 c207 7 525 12 708 12 372 0 335 8 347 -80 5 -34 25 -548 29 -730 0 -14
-3 -40 -8 -57 -5 -22 -4 -33 3 -33 27 0 30 81 22 632 -6 356 -15 330 124 336
l94 4 12 -68 c8 -41 14 -172 15 -324 2 -140 6 -289 10 -330 l7 -75 -253 -251
-252 -252 24 -33 c13 -19 78 -101 144 -184 66 -82 138 -174 160 -204 l39 -54
-36 -31 c-40 -36 -136 -106 -154 -113 -19 -7 -97 166 -164 367 -34 102 -81
226 -104 276 -43 90 -44 91 -91 103 -109 27 -193 88 -215 157 -14 41 -37 44
-100 12 -86 -45 -105 -145 -49 -258 25 -49 42 -69 80 -93 40 -24 51 -38 65
-79 14 -44 14 -51 0 -73 -22 -33 -90 -78 -180 -119 -42 -19 -76 -37 -76 -39 0
-9 83 14 123 34 63 32 136 91 191 154 47 55 48 57 29 70 -11 8 -23 28 -26 44
-5 24 -16 35 -50 51 -92 43 -165 147 -153 215 4 20 19 44 38 60 29 24 32 25
49 9 10 -9 21 -30 25 -48 17 -79 77 -130 169 -143 43 -5 55 -14 112 -72 81
-84 111 -146 172 -357 42 -149 86 -262 109 -286 17 -17 89 8 165 59 67 44 87
53 111 49 16 -3 45 -2 66 4 32 9 40 17 55 58 24 65 75 156 165 297 43 66 87
138 98 160 12 22 40 53 62 70 30 21 54 54 87 118 26 48 75 122 109 165 66 83
199 208 277 261 26 17 47 36 47 41 0 24 -33 3 -124 -78 -50 -44 -104 -77 -112
-69 -3 3 8 27 24 54 89 150 167 368 263 733 38 146 72 271 74 278 2 6 0 12 -6
12 -11 0 -17 -15 -54 -135 -45 -148 -194 -562 -242 -675 -54 -125 -113 -237
-245 -464 -55 -93 -127 -219 -160 -280 -40 -74 -80 -130 -117 -167 -33 -32
-86 -105 -129 -177 -41 -67 -78 -122 -83 -122 -21 0 -174 166 -272 298 -59 78
-110 149 -113 156 -4 9 46 55 141 131 97 77 162 138 191 178 25 33 65 78 90
100 25 22 76 77 113 121 38 45 107 124 154 176 47 52 85 96 83 97 -10 10 -69
-36 -127 -97 -76 -79 -99 -88 -99 -36 0 26 8 41 34 63 20 19 36 43 40 65 3 19
25 66 48 104 72 119 79 148 88 354 7 157 12 198 35 273 20 64 25 98 20 125 -6
34 -8 36 -21 18 -8 -11 -25 -57 -39 -102 -14 -46 -29 -85 -34 -88 -5 -3 -14
30 -21 74 -15 96 -8 177 30 372 26 132 29 160 15 146 -13 -13 -77 -265 -91
-363 -21 -139 -15 -297 15 -414 34 -131 10 -195 -36 -94 -14 32 -45 77 -69
101 -79 79 -113 185 -114 357 0 55 5 116 11 135 6 19 15 94 19 165 6 96 15
151 35 210 28 85 132 303 164 345 l20 25 36 -35 c62 -59 62 -60 6 -173 -46
-96 -135 -336 -127 -344 9 -9 45 58 81 147 75 186 142 300 178 300 5 0 38 -15
71 -34 34 -19 122 -57 196 -85 218 -83 256 -117 360 -315 29 -55 77 -136 106
-178 30 -42 71 -116 92 -165 21 -48 64 -125 95 -170 72 -103 101 -165 172
-382 42 -130 55 -182 50 -205 -3 -17 -10 -116 -15 -221 -5 -120 -18 -251 -35
-355 -49 -305 -55 -345 -64 -443 -5 -61 -13 -104 -22 -112 -15 -14 -20 -14
-287 15 -144 16 -304 65 -507 158 -80 36 -113 46 -171 50 -66 4 -114 -7 -114
-26 0 -4 28 -13 62 -19 42 -8 132 -46 278 -117 174 -86 233 -110 307 -126 51
-10 104 -25 118 -33 l26 -13 -158 -209 c-150 -200 -272 -375 -307 -443 -9 -17
-34 -97 -57 -178 -44 -156 -92 -271 -122 -288 -28 -17 -53 22 -67 102 -14 87
-30 114 -30 52 0 -43 9 -88 31 -172 7 -29 16 -39 44 -48 90 -30 113 -85 71
-176 -14 -31 -26 -62 -26 -70 0 -7 17 -26 38 -41 46 -35 49 -39 95 -148 60
-142 104 -275 118 -360 12 -72 16 -80 46 -98 22 -12 33 -27 33 -42 0 -12 3
-42 6 -67 l6 -45 -78 -16 c-87 -19 -182 -30 -444 -52 -96 -8 -199 -18 -227
-21 l-53 -7 -15 36 c-8 19 -18 61 -21 93 l-7 57 -20 -24 c-27 -34 -20 -152 11
-197 12 -16 22 -34 22 -39 0 -6 -27 -17 -60 -26 -39 -11 -74 -29 -98 -52 l-37
-34 36 8 c19 5 87 33 150 64 128 62 196 81 249 68 30 -7 32 -9 15 -16 -124
-48 -172 -69 -245 -104 -47 -23 -95 -50 -108 -60 -23 -17 -23 -18 -5 -40 13
-16 39 -27 88 -37 38 -8 73 -13 79 -11 5 2 -7 21 -27 44 -20 22 -37 43 -37 47
0 14 67 46 96 46 17 0 50 -7 72 -14 53 -19 61 -6 22 35 -16 18 -30 36 -30 40
0 17 49 20 78 5 29 -15 92 -22 92 -11 0 4 -7 19 -15 36 -9 16 -13 33 -11 38 3
5 47 13 98 20 51 6 149 18 218 26 69 8 148 21 176 28 l52 13 43 -55 c79 -100
80 -95 -14 -109 -44 -6 -86 -17 -91 -23 -8 -9 1 -10 34 -4 144 22 151 23 161
4 5 -10 9 -60 9 -112 0 -90 -1 -95 -23 -101 -45 -11 -204 -26 -279 -26 -44 0
-78 -4 -78 -10 0 -32 121 -45 231 -25 46 9 99 18 117 22 27 5 32 3 32 -14 0
-30 -18 -40 -85 -48 -33 -3 -109 -13 -168 -21 -154 -20 -156 -20 -172 20 -8
19 -19 37 -23 40 -5 3 -80 -12 -168 -33 -182 -45 -279 -61 -358 -61 -58 0 -80
20 -23 21 17 0 61 6 97 13 58 11 37 12 -210 12 -234 -1 -285 2 -340 17 -128
35 -220 97 -220 149 0 11 13 33 30 49 l30 30 35 -26 c30 -24 49 -28 150 -38
63 -5 118 -7 122 -4 3 4 0 13 -7 22 -9 11 -32 15 -81 15 -59 0 -77 5 -132 35
-35 19 -66 35 -70 35 -3 0 -33 -23 -66 -50 -51 -43 -61 -56 -61 -83 0 -41 -28
-95 -62 -120 -24 -18 -32 -19 -66 -9 -50 15 -107 15 -202 1 -69 -11 -79 -10
-116 9 -43 22 -64 20 -185 -12 -62 -16 -120 -9 -147 17 -11 11 -21 13 -39 6
-13 -5 -91 -15 -174 -24 -83 -8 -156 -18 -161 -21 -6 -4 -30 4 -54 16 l-42 24
-114 -22 c-80 -16 -177 -25 -331 -31 -120 -5 -221 -11 -224 -15 -3 -3 77 -6
180 -6 102 0 220 -5 262 -11 66 -9 84 -8 126 7 48 18 51 17 84 0 29 -16 47
-17 127 -11 51 4 143 15 203 25 l110 19 30 -30 c36 -34 63 -36 120 -10 72 32
93 34 127 10 47 -34 131 -38 169 -10 25 19 35 21 62 13 18 -6 81 -13 141 -16
60 -3 125 -11 146 -17 30 -9 47 -8 86 5 45 15 56 15 129 1 318 -61 550 -67
711 -17 46 14 68 16 98 9 26 -7 79 -6 150 1 91 9 121 8 168 -4 62 -16 100 -13
385 32 109 17 114 17 150 -1 61 -29 202 -31 371 -6 l143 22 65 -22 c55 -19 70
-20 103 -10 50 14 165 14 318 -1 67 -6 126 -9 129 -5 4 4 0 15 -10 26 -13 14
-37 19 -119 24 -56 4 -141 10 -188 13 -57 4 -93 3 -107 -5 -18 -9 -28 -8 -54
6 -29 16 -53 17 -193 14 -234 -6 -267 -6 -405 2 l-125 7 2 67 c1 38 3 116 5
175 l3 107 -77 71 c-78 72 -78 72 -78 123 0 29 -3 83 -7 120 -5 58 -9 70 -28
77 -40 15 -53 38 -60 107 -4 42 -16 84 -30 108 -12 22 -26 63 -30 92 -5 37
-18 68 -46 108 -57 82 -70 111 -84 189 -12 70 -11 72 17 125 15 30 28 60 28
68 0 7 -28 31 -62 53 -34 22 -63 42 -66 44 -8 9 50 107 82 139 28 28 37 50 54
124 12 50 26 130 33 179 6 49 14 94 17 100 4 6 38 49 75 95 37 46 136 182 220
301 l152 217 120 1 c135 0 195 12 195 38 4 114 66 369 86 349 4 -4 9 -75 13
-159 5 -137 8 -153 24 -156 10 -2 25 5 32 15 25 33 27 87 6 194 -39 207 -64
514 -63 779 2 267 -13 423 -50 543 -16 51 -47 106 -119 210 -159 230 -361 535
-419 632 -73 122 -134 185 -228 233 -74 38 -337 143 -395 157 -16 4 -38 21
-50 37 -43 58 -105 74 -127 33 -21 -39 -42 -30 -97 38 -95 119 -156 225 -203
355 -17 46 -28 62 -41 62 -10 0 -67 19 -126 42 -129 50 -203 55 -293 19 -30
-11 -59 -21 -63 -21 -18 0 5 19 50 41 70 34 212 32 346 -4 55 -15 100 -27 100
-27 1 0 0 25 -1 56 -4 52 -6 57 -35 69 -18 7 -70 18 -117 25 -120 16 -190 37
-190 56 0 9 24 41 54 72 75 80 95 147 57 193 l-18 23 -16 -25z m143 -389 c0
-5 -4 -10 -9 -10 -6 0 -13 5 -16 10 -3 6 1 10 9 10 9 0 16 -4 16 -10z m-90
-104 c0 -8 3 -21 6 -30 5 -14 -3 -16 -55 -16 -81 0 -181 -23 -256 -60 -33 -16
-61 -28 -62 -26 -2 1 13 21 33 45 60 70 134 98 262 100 56 1 72 -2 72 -13z
m113 -19 c18 -8 38 -21 46 -30 12 -15 11 -17 -3 -17 -24 0 -116 41 -116 51 0
13 36 11 73 -4z m42 -159 c28 -13 33 -28 9 -28 -21 0 -54 18 -54 30 0 13 14
13 45 -2z m-921 -1017 c-4 -14 -26 -63 -50 -109 -24 -46 -55 -115 -69 -154
-25 -69 -62 -134 -72 -124 -6 6 21 80 99 266 72 173 65 160 83 154 10 -4 13
-14 9 -33z m-203 -280 c-15 -26 -41 -27 -41 -1 0 21 31 43 43 30 5 -4 4 -17
-2 -29z m-526 -197 c49 -16 115 -29 170 -33 50 -4 103 -14 119 -22 33 -16 73
-65 63 -76 -4 -3 -64 -10 -134 -15 -97 -7 -137 -14 -169 -30 l-43 -21 -57 23
c-100 41 -144 93 -144 171 l0 42 58 -6 c31 -3 93 -18 137 -33z m511 -19 c-7
-36 -37 -80 -67 -95 -33 -18 -23 20 23 91 41 65 55 66 44 4z m-741 -98 c23
-19 25 -25 16 -50 -7 -17 -11 -110 -11 -225 0 -177 -2 -200 -19 -229 -33 -54
-93 -53 -74 2 14 43 -1 251 -22 300 -9 22 -20 74 -22 115 l-6 76 34 17 c46 23
73 21 104 -6z m2148 -70 c41 -50 64 -93 83 -156 20 -67 18 -80 -22 -118 -28
-26 -34 -37 -25 -46 19 -19 13 -38 -29 -92 -54 -71 -84 -139 -76 -179 11 -55
11 -69 -1 -73 -21 -8 -37 41 -36 112 2 87 13 117 64 173 45 48 45 71 1 29 -16
-15 -33 -27 -40 -27 -9 0 -12 58 -12 231 l0 230 30 -21 c16 -11 45 -40 63 -63z
m-2312 -122 c22 -47 26 -129 7 -123 -12 4 -97 107 -98 118 0 3 9 20 20 38 18
29 23 32 37 20 9 -7 24 -31 34 -53z m-55 -425 l27 -11 -7 -252 c-9 -312 -19
-368 -64 -341 -38 24 -46 61 -34 159 9 67 9 123 1 206 -10 102 -6 220 7 241 7
11 38 10 70 -2z m209 -42 c3 -7 6 -115 8 -241 l2 -227 -30 0 c-16 0 -47 5 -67
11 l-38 10 0 229 0 230 60 0 c39 0 62 -4 65 -12z m3655 -414 c0 -24 -4 -44 -9
-44 -12 0 -23 63 -15 84 11 28 24 6 24 -40z m-1080 -3349 c-14 -16 -46 -20
-54 -6 -9 13 5 21 37 21 25 0 28 -2 17 -15z m-643 -41 c-3 -3 -12 -4 -19 -1
-8 3 -5 6 6 6 11 1 17 -2 13 -5z"/>
<path d="M8975 7410 c-55 -22 -122 -125 -250 -380 -60 -119 -91 -169 -135
-217 -69 -74 -109 -151 -117 -226 -6 -55 -5 -56 28 -76 19 -12 43 -21 54 -21
13 0 30 -16 48 -45 16 -25 47 -61 70 -80 41 -35 139 -73 145 -57 4 12 33 66
66 124 15 26 26 56 24 65 -3 12 -18 -8 -43 -56 -22 -41 -47 -79 -56 -84 -21
-13 -137 77 -164 127 -22 40 -18 54 40 140 49 73 63 80 120 55 26 -11 49 -18
53 -15 3 4 -13 26 -36 49 -46 47 -48 54 -29 81 12 17 17 16 75 -15 34 -18 66
-29 70 -25 4 4 -17 29 -46 54 -44 40 -51 51 -45 72 7 29 47 95 62 105 6 3 30
-5 54 -19 77 -45 107 -28 37 21 -43 31 -52 45 -44 68 8 21 26 19 81 -10 60
-32 69 -17 19 34 -22 22 -36 47 -36 62 0 26 93 159 111 159 6 0 37 -19 70 -42
84 -60 122 -79 132 -69 18 18 -16 53 -77 81 -40 18 -75 43 -99 71 -20 23 -49
51 -65 61 -28 19 -82 23 -117 8z m105 -104 c-23 -62 -66 -132 -162 -266 -56
-80 -139 -208 -182 -285 -97 -170 -111 -191 -146 -205 -30 -12 -80 -4 -80 13
0 32 48 100 108 154 78 70 112 127 167 283 41 116 84 208 116 248 37 48 98 82
145 82 42 0 43 -1 34 -24z"/>
<path d="M2650 7335 c0 -20 7 -50 17 -68 24 -46 18 -132 -17 -272 -31 -124
-38 -223 -20 -284 12 -44 -2 -62 -90 -106 -55 -28 -127 -85 -107 -85 14 0 66
27 133 70 39 25 80 50 90 56 17 10 19 23 16 132 -3 117 -2 125 33 223 19 57
35 114 35 128 0 33 -49 212 -62 229 -18 21 -28 13 -28 -23z"/>
<path d="M2040 6909 c0 -24 23 -21 28 4 2 10 -3 17 -12 17 -10 0 -16 -9 -16
-21z"/>
<path d="M9154 6518 c-21 -18 -52 -56 -71 -85 -28 -45 -33 -60 -32 -110 l1
-58 9 42 c11 57 32 84 106 133 34 22 69 51 78 63 14 20 14 23 -2 34 -27 20
-50 15 -89 -19z"/>
<path d="M9325 6385 c-5 -2 -22 -6 -37 -9 -33 -7 -88 -53 -88 -73 0 -12 3 -12
17 2 9 9 27 21 40 26 32 12 115 12 147 -1 21 -7 26 -6 26 5 0 25 -75 61 -105
50z"/>
<path d="M2685 6281 c-20 -9 11 -13 185 -26 77 -6 163 -24 195 -43 16 -8 15
-10 -11 -15 -16 -4 -64 -9 -108 -13 -119 -10 -70 -25 59 -18 75 4 155 1 253
-10 104 -12 152 -14 179 -7 27 8 41 7 51 -2 8 -7 49 -14 91 -17 l76 -5 -2 -28
c-1 -16 -16 -50 -32 -76 -53 -81 -34 -77 21 5 41 59 53 86 53 115 0 56 -15 66
-67 46 -39 -15 -47 -15 -86 -2 -31 11 -83 15 -190 14 l-148 -1 -136 46 c-131
44 -140 46 -249 45 -63 0 -123 -4 -134 -8z"/>
<path d="M9831 6087 c5 -29 15 -75 24 -102 31 -103 11 -215 -38 -215 -31 0
-67 -11 -67 -20 0 -4 23 -13 50 -20 l50 -12 55 42 55 42 0 87 c0 105 -10 191
-21 191 -5 0 -9 -48 -10 -107 0 -123 -5 -118 -44 50 -22 94 -30 117 -44 117
-16 0 -17 -6 -10 -53z"/>
<path d="M8966 6117 c6 -17 64 -51 72 -42 9 9 -45 55 -63 55 -8 0 -12 -6 -9
-13z"/>
<path d="M4000 6024 c-18 -25 -73 -88 -123 -140 -51 -54 -83 -94 -74 -94 9 0
41 30 70 68 30 37 74 85 97 107 40 38 76 92 67 101 -2 2 -19 -17 -37 -42z"/>
<path d="M4887 5894 c-30 -62 -69 -105 -124 -136 -29 -16 -53 -33 -53 -37 0
-4 11 -13 25 -19 21 -10 32 -9 55 3 52 27 125 134 132 194 5 38 -16 35 -35 -5z"/>
<path d="M4593 5695 c-3 -9 -3 -18 0 -21 9 -9 27 6 27 22 0 19 -19 18 -27 -1z"/>
<path d="M2840 4920 c0 -13 14 -25 43 -39 53 -24 90 -60 167 -161 33 -43 64
-81 69 -84 18 -11 82 206 66 222 -8 9 -45 -35 -45 -54 0 -26 -23 -64 -39 -63
-9 0 -41 29 -71 64 -97 112 -190 168 -190 115z"/>
<path d="M9354 4926 c-18 -8 -34 -18 -37 -23 -4 -6 3 -33 13 -62 31 -81 26
-153 -11 -144 -33 9 -49 43 -49 105 0 64 -12 75 -29 27 -21 -61 -14 -115 20
-154 43 -49 81 -66 144 -66 58 0 89 12 117 45 20 24 48 100 48 130 0 43 -23
100 -50 128 -24 24 -36 28 -82 28 -29 -1 -67 -7 -84 -14z m83 -101 c7 -33 12
-84 13 -112 0 -52 -1 -53 -28 -53 -25 0 -31 6 -40 39 -17 55 -15 71 8 71 11 0
20 7 20 16 0 10 -7 14 -22 12 -19 -3 -24 2 -26 30 -5 49 4 64 35 60 25 -3 28
-9 40 -63z m81 -49 c6 -29 -7 -66 -23 -66 -16 0 -19 28 -9 68 7 26 27 24 32
-2z"/>
<path d="M10440 4869 c-64 -7 -100 -17 -100 -28 0 -7 150 16 159 25 9 9 -6 10
-59 3z"/>
<path d="M2202 4448 c-49 -63 -77 -215 -69 -388 8 -172 -10 -344 -69 -672
l-16 -87 -71 -58 c-100 -80 -232 -208 -271 -262 -18 -25 -36 -61 -40 -80 -3
-18 -22 -59 -41 -91 -51 -84 -48 -118 15 -179 48 -47 62 -71 40 -71 -6 0 -45
-24 -88 -54 -42 -29 -94 -59 -114 -67 -21 -7 -38 -19 -38 -26 0 -6 -16 -25
-35 -40 -43 -34 -44 -43 -4 -43 32 0 34 -5 14 -52 -9 -23 17 -25 35 -3 7 8 20
15 28 15 25 0 -59 -81 -121 -116 -28 -17 -86 -51 -127 -74 -41 -24 -98 -65
-125 -91 -65 -61 -83 -68 -177 -61 l-78 5 -10 36 c-14 50 -13 174 2 189 7 7
26 12 43 12 37 0 484 223 570 285 33 24 80 65 105 91 l45 47 -40 -23 c-22 -13
-73 -46 -114 -73 -41 -28 -108 -66 -150 -85 -42 -19 -89 -45 -106 -58 -31 -23
-280 -144 -298 -144 -5 0 -50 16 -100 36 -78 31 -98 36 -156 32 -63 -3 -70 -6
-128 -55 -34 -28 -77 -54 -95 -58 -46 -10 -88 -33 -88 -49 0 -7 -8 -38 -19
-70 -18 -55 -18 -57 0 -67 16 -8 19 -22 19 -77 0 -37 9 -98 18 -137 l18 -70
73 -3 73 -3 -6 -42 c-4 -23 -17 -76 -30 -117 -28 -89 -51 -281 -42 -342 9 -57
55 -155 110 -232 37 -53 76 -118 76 -128 0 -2 -42 0 -92 4 -98 9 -179 4 -210
-13 -14 -8 -26 -6 -44 6 -22 14 -27 14 -46 0 -25 -17 -74 -19 -135 -5 -47 11
-97 -2 -91 -23 12 -37 150 -63 198 -37 12 7 27 5 47 -5 27 -13 34 -13 62 1 26
13 40 14 82 5 67 -15 110 -14 212 4 l86 15 92 -45 c78 -38 102 -45 152 -45 57
0 60 1 115 54 31 30 66 55 77 57 27 5 55 64 55 115 0 48 -15 61 -102 93 -105
39 -162 36 -139 -7 6 -12 36 -29 72 -41 78 -26 99 -45 99 -87 0 -28 -4 -34
-36 -44 -53 -18 -117 -7 -233 40 -57 23 -105 39 -109 36 -11 -11 41 -55 97
-82 31 -15 51 -29 44 -31 -6 -2 -46 12 -88 31 -55 25 -94 53 -139 98 -103 103
-150 218 -163 398 -6 85 -5 91 14 96 16 5 22 19 31 82 16 100 15 169 -3 327
-8 72 -15 176 -15 233 l0 102 33 20 c58 36 185 22 239 -26 14 -14 16 -30 11
-117 l-5 -102 57 -62 c33 -37 65 -63 76 -63 28 0 59 -18 59 -35 0 -11 -7 -12
-32 -4 -59 16 -87 12 -100 -17 -11 -23 -10 -29 9 -44 12 -9 40 -20 61 -24 44
-7 65 -26 60 -53 -3 -16 -12 -18 -68 -15 -59 3 -67 1 -90 -23 -30 -32 -23 -47
45 -92 84 -56 83 -83 -3 -56 -42 14 -54 14 -66 3 -37 -30 -2 -68 71 -77 61 -7
87 6 112 55 26 51 38 116 51 267 6 72 13 137 16 145 8 25 351 285 452 343 l32
18 0 -46 c0 -38 3 -46 17 -43 9 2 20 14 23 28 3 14 14 26 23 28 13 3 17 -4 17
-27 0 -48 17 -36 25 17 18 127 24 141 70 168 49 28 85 64 50 50 -34 -14 -65
-19 -65 -9 0 17 32 53 61 69 30 15 30 15 84 -34 192 -175 363 -217 505 -122 8
5 33 14 56 20 104 26 259 174 364 350 103 170 104 173 146 405 9 50 31 129 49
176 21 52 38 120 45 175 22 172 32 220 60 284 15 36 31 92 35 125 3 33 18 82
31 108 14 27 24 59 22 70 -6 37 -132 -233 -182 -388 -25 -77 -77 -257 -116
-400 -110 -404 -181 -596 -271 -737 -43 -66 -81 -86 -206 -108 -60 -10 -121
-24 -136 -29 -29 -11 -99 -1 -141 21 -48 25 -203 128 -225 150 -82 80 -190
197 -201 217 -11 21 -8 27 29 65 23 23 41 48 41 56 0 8 22 61 48 116 46 97 53
106 138 176 115 96 297 286 374 391 125 168 132 197 14 55 -124 -149 -183
-215 -209 -232 -24 -16 -24 -16 -15 9 15 40 40 87 71 131 l28 42 11 413 c6
228 13 433 16 457 7 44 3 51 -14 30z m-1727 -2472 c4 -90 4 -169 1 -175 -4 -6
-20 -11 -36 -11 -26 0 -31 5 -40 41 -35 131 -41 236 -16 278 9 14 43 29 67 30
15 1 18 -20 24 -163z m500 -76 c0 -18 -33 -26 -47 -12 -6 6 -7 15 -3 22 10 16
50 8 50 -10z m-45 -330 c13 -8 13 -10 -2 -10 -9 0 -20 5 -23 10 -8 13 5 13 25
0z"/>
<path d="M8510 4113 l-35 -16 47 -8 c108 -17 188 -108 188 -211 0 -83 -52
-128 -148 -128 -50 0 -65 5 -100 30 -69 50 -101 145 -68 208 21 41 21 59 0 41
-30 -25 -54 -87 -54 -142 0 -106 77 -195 177 -204 45 -5 55 -1 121 41 95 60
123 104 130 197 l5 70 -49 50 c-50 51 -118 89 -156 89 -13 -1 -39 -8 -58 -17z"/>
<path d="M9430 3950 c0 -5 10 -10 23 -10 18 0 19 2 7 10 -19 13 -30 13 -30 0z"/>
<path d="M8527 3933 c-13 -13 -7 -31 13 -36 16 -4 20 0 20 19 0 23 -18 32 -33
17z"/>
<path d="M10273 3712 c-29 -59 -69 -150 -90 -202 -20 -52 -110 -239 -198 -416
-89 -176 -174 -360 -190 -407 -37 -116 -32 -188 24 -344 22 -62 43 -136 47
-165 3 -29 28 -111 54 -183 69 -185 116 -357 135 -489 l7 -49 126 6 c116 5
475 66 491 83 7 7 -85 -1 -287 -27 -84 -10 -182 -19 -216 -19 l-63 0 -21 88
c-12 48 -28 125 -36 170 -22 117 -44 200 -66 241 -10 20 -34 97 -53 171 -20
74 -57 191 -83 260 -52 136 -60 202 -32 255 9 17 43 66 76 111 33 44 84 127
112 185 29 57 60 115 70 129 9 14 33 72 52 130 37 108 142 368 174 430 15 30
34 151 23 150 -2 -1 -27 -49 -56 -108z"/>
<path d="M10018 3759 c-19 -10 -25 -39 -9 -39 23 0 41 14 41 31 0 21 -7 23
-32 8z"/>
<path d="M9940 3655 c-7 -8 -10 -21 -6 -30 6 -18 36 -9 36 11 0 8 0 17 1 21 1
15 -18 13 -31 -2z"/>
<path d="M9697 3492 c-10 -10 -17 -26 -17 -35 0 -25 56 -23 70 2 23 43 -20 69
-53 33z"/>
<path d="M772 1368 c-21 -21 -14 -47 16 -54 47 -10 72 -23 72 -38 0 -8 -10
-16 -21 -18 -57 -8 -43 -68 15 -68 29 0 33 4 43 43 23 81 21 91 -24 122 -40
27 -82 32 -101 13z"/>
<path d="M3977 1259 c-54 -21 -119 -50 -145 -66 -45 -27 -46 -28 -20 -31 15
-2 58 11 97 27 112 50 145 39 157 -49 6 -44 9 -50 31 -50 22 0 23 -1 8 -24
-24 -37 -102 -73 -236 -110 -169 -46 -443 -127 -448 -132 -3 -3 28 -1 67 2 67
6 77 5 143 -26 87 -40 142 -41 334 -9 l134 23 39 -22 c51 -28 122 -29 222 -1
56 16 115 22 235 25 205 6 237 15 119 34 -43 7 -94 6 -187 -5 -172 -20 -194
-19 -284 11 -77 25 -82 26 -288 21 l-210 -5 37 19 c20 10 72 28 115 40 43 12
96 30 118 41 56 29 155 110 155 128 0 47 -46 155 -76 181 -18 14 -27 13 -117
-22z"/>
<path d="M514 1246 c2 -26 11 -55 20 -64 15 -15 16 -15 15 3 0 11 -9 40 -20
65 l-20 45 5 -49z"/>
<path d="M3431 1187 c-25 -41 -28 -87 -6 -87 34 0 86 31 105 62 l20 33 -33 6
c-17 4 -39 9 -48 13 -12 5 -23 -2 -38 -27z"/>
<path d="M3587 1193 c-4 -3 -7 -17 -7 -29 0 -17 7 -25 24 -30 31 -8 66 3 66
21 0 27 -65 57 -83 38z"/>
<path d="M9328 1142 c-35 -21 -62 -76 -54 -108 9 -34 31 -30 45 9 28 76 34 82
82 85 31 2 68 -5 114 -23 70 -26 119 -31 145 -15 18 11 24 9 -125 44 -128 30
-170 32 -207 8z"/>
<path d="M9800 1035 c-29 -35 63 -125 127 -125 l34 0 -15 29 c-17 32 -63 74
-106 96 -24 13 -30 13 -40 0z"/>
<path d="M5230 859 c-44 -11 -121 -13 -180 -5 -42 6 -82 -5 -68 -19 17 -17
145 -27 214 -15 62 9 80 9 120 -5 25 -8 56 -13 67 -9 18 6 13 11 -33 35 -59
30 -67 31 -120 18z"/>
<path d="M5643 853 c-15 -3 -23 -12 -23 -25 0 -20 2 -20 278 -14 483 10 843 9
901 -3 60 -12 176 -14 236 -2 l40 7 -38 13 c-31 10 -55 11 -123 1 -76 -11 -90
-10 -131 5 -36 14 -63 16 -127 12 -45 -4 -145 -2 -223 3 -114 8 -158 7 -217
-5 -52 -10 -85 -11 -108 -4 -44 12 -107 11 -182 -2 -50 -9 -75 -9 -140 5 -77
16 -100 17 -143 9z"/>
<path d="M9269 511 c-19 -15 -21 -20 -9 -24 8 -2 40 -12 71 -21 65 -19 124
-55 124 -76 0 -10 -17 -19 -47 -25 -48 -10 -77 -28 -61 -38 5 -3 33 -7 63 -9
49 -3 54 -5 67 -35 21 -52 17 -88 -12 -101 -36 -16 -60 -15 -146 8 -90 24
-142 25 -163 4 -18 -18 -21 -34 -6 -34 6 0 51 -16 100 -35 91 -35 163 -45 199
-25 10 5 33 31 50 58 23 36 31 60 31 94 0 28 6 50 15 58 24 20 43 5 43 -33 0
-19 8 -46 17 -61 15 -22 25 -26 64 -26 26 0 71 7 100 16 l53 15 -5 39 c-6 48
10 65 53 55 24 -5 30 -11 24 -23 -37 -86 9 -116 110 -72 46 19 47 19 66 0 29
-29 86 -35 150 -18 53 14 58 14 79 -4 29 -23 54 -23 130 1 l62 19 14 -35 c8
-20 15 -51 15 -69 0 -39 8 -42 38 -14 40 38 19 144 -40 198 -28 25 -40 18 -52
-29 -8 -38 -90 -55 -115 -25 -16 19 -4 42 35 67 19 11 34 23 34 25 0 8 -64
-23 -124 -60 -82 -50 -134 -50 -171 -2 -35 46 -58 50 -84 15 -30 -41 -66 -62
-91 -54 -19 6 -21 12 -15 55 7 48 7 48 -28 59 -21 7 -91 11 -183 9 -127 -3
-154 0 -181 15 -38 20 -41 35 -13 70 11 14 20 29 20 34 0 8 -200 54 -236 53
-12 0 -32 -9 -45 -19z m469 -214 c15 -14 22 -30 20 -47 -3 -22 -8 -25 -36 -23
-33 1 -82 35 -82 56 0 6 8 19 17 29 19 21 46 16 81 -15z"/>
<path d="M11130 313 c-130 -65 -201 -78 -259 -49 -32 17 -33 17 -67 -13 -38
-34 -93 -42 -114 -16 -21 25 -7 49 34 60 56 16 60 36 5 24 -64 -15 -98 -37
-116 -74 -16 -33 -16 -36 3 -50 24 -18 88 -19 148 -1 40 12 51 12 74 0 38 -20
55 -18 132 16 81 35 137 38 195 10 43 -21 73 -60 60 -80 -12 -20 -55 -31 -76
-20 -12 7 -19 7 -19 1 0 -16 37 -23 87 -15 51 7 93 40 93 73 0 26 -43 59 -89
67 -42 8 -91 31 -91 43 0 13 38 21 98 21 30 0 52 4 52 11 0 15 -19 49 -28 49
-4 0 -59 -26 -122 -57z"/>
<path d="M11495 331 l-40 -19 47 -1 c25 -1 53 -4 62 -7 23 -9 20 23 -3 36 -24
12 -18 13 -66 -9z"/>
<path d="M11710 313 c-41 -8 -70 -42 -70 -83 0 -53 22 -77 83 -90 59 -13 186
3 287 38 54 19 55 19 100 -2 63 -28 212 -26 390 7 l135 24 47 -23 c53 -27 90
-30 107 -11 16 20 -23 53 -82 69 -41 10 -65 10 -170 -6 -219 -33 -267 -37
-326 -25 -102 21 -128 21 -231 0 -130 -27 -190 -27 -221 -2 l-24 19 45 12 c47
12 90 44 90 67 0 7 -7 13 -15 13 -8 0 -15 -9 -15 -21 0 -34 -93 -63 -130 -39
-12 7 -11 13 10 34 13 15 22 25 19 25 -2 -1 -15 -4 -29 -6z"/>
<path d="M11382 288 c-10 -10 -17 -37 -9 -38 1 0 33 -11 71 -23 81 -27 104
-51 80 -85 -13 -19 -24 -22 -89 -22 -96 0 -107 -4 -93 -36 13 -29 11 -29 83
-4 32 11 79 20 105 20 40 0 50 4 64 25 23 35 20 60 -12 96 -24 27 -37 33 -85
37 -47 4 -57 8 -57 23 0 22 -39 26 -58 7z"/>
<path d="M11010 115 c0 -20 5 -25 25 -25 14 0 29 8 35 19 15 29 13 31 -25 31
-31 0 -35 -3 -35 -25z"/>
<path d="M10078 84 c-27 -8 -22 -19 20 -37 144 -64 268 -60 340 9 33 31 34 34
12 27 -29 -9 -102 -9 -250 0 -58 3 -113 4 -122 1z"/>
</g>
</svg>
