<?xml version="1.0" standalone="no"?>
<!DOCTYPE svg PUBLIC "-//W3C//DTD SVG 20010904//EN"
 "http://www.w3.org/TR/2001/REC-SVG-20010904/DTD/svg10.dtd">
<svg version="1.0" xmlns="http://www.w3.org/2000/svg"
 width="1280.000000pt" height="814.000000pt" viewBox="0 0 1280.000000 814.000000"
 preserveAspectRatio="xMidYMid meet">
<metadata>
Created by potrace 1.15, written by Peter Selinger 2001-2017
</metadata>
<g transform="translate(0.000000,814.000000) scale(0.100000,-0.100000)"
fill="#004c40" stroke="none">
<path d="M4305 8121 c-33 -10 -115 -43 -182 -74 -171 -78 -205 -87 -399 -101
-237 -18 -272 -38 -281 -161 -7 -89 43 -151 127 -159 49 -4 46 2 75 -124 15
-67 15 -75 1 -97 -24 -37 -101 -72 -244 -109 -250 -67 -538 -201 -656 -305
-38 -34 -72 -61 -76 -61 -14 0 -125 -93 -132 -110 -4 -10 -31 -37 -61 -59
-161 -118 -516 -597 -547 -737 -6 -27 -23 -67 -39 -89 -15 -22 -31 -60 -35
-85 -4 -24 -19 -60 -33 -78 -17 -23 -30 -58 -38 -106 -7 -40 -22 -91 -34 -113
-23 -45 -90 -276 -117 -400 -23 -110 -35 -294 -38 -618 -2 -188 2 -324 11
-415 8 -74 18 -182 23 -240 9 -115 13 -122 85 -142 22 -6 72 -14 110 -17 67
-6 70 -7 73 -33 2 -15 18 -42 36 -60 18 -18 52 -66 76 -107 23 -41 73 -106
109 -146 70 -75 124 -158 184 -285 45 -96 96 -153 221 -250 110 -85 169 -144
261 -262 33 -42 68 -81 77 -87 16 -10 16 -8 4 27 -28 78 -67 156 -111 222 -50
76 -166 190 -238 235 -38 23 -71 62 -150 175 -56 80 -115 165 -131 189 -15 23
-44 57 -63 74 -32 28 -79 82 -180 209 -18 22 -33 49 -33 58 0 15 6 16 48 9 26
-5 85 -20 132 -34 135 -38 180 -46 260 -47 55 0 85 -5 115 -21 39 -20 45 -20
260 -9 362 20 439 44 557 176 40 44 103 113 140 152 37 40 74 88 82 109 20 46
20 157 2 245 -21 97 -137 316 -211 400 -63 70 -95 141 -95 209 0 32 31 104 50
116 6 3 19 24 30 45 13 26 31 43 53 51 25 9 37 22 51 56 10 24 35 68 55 97 41
61 261 306 274 306 21 0 114 66 132 94 11 17 49 53 84 81 143 111 167 133 189
165 13 20 22 48 22 72 0 42 -8 52 -108 138 -37 32 -63 83 -48 97 3 3 49 10
102 14 150 13 175 41 129 149 -37 87 -32 104 27 108 53 3 86 -10 163 -69 69
-52 114 -69 182 -69 100 0 188 55 194 121 5 54 -4 72 -61 134 -33 35 -60 67
-60 70 0 22 26 46 60 55 59 16 87 46 124 135 22 55 37 79 47 76 72 -21 113
-24 157 -13 58 15 92 51 92 96 0 41 -19 59 -92 87 -31 12 -80 41 -108 65 -52
45 -80 55 -80 30 0 -29 47 -70 115 -102 84 -39 110 -63 101 -97 -6 -24 -43
-47 -76 -47 -11 0 -43 9 -72 21 -39 16 -67 20 -108 16 -66 -5 -80 -1 -80 24 0
12 12 24 35 33 48 20 46 39 -2 30 -54 -9 -81 -29 -91 -67 -11 -40 -2 -53 46
-62 63 -12 72 -21 72 -72 0 -39 -5 -50 -38 -83 l-37 -38 -60 10 c-86 14 -168
2 -259 -38 -44 -19 -90 -34 -102 -32 l-23 3 20 45 c11 24 19 53 17 64 -3 19
-5 18 -37 -10 -28 -25 -34 -39 -39 -82 -9 -95 11 -99 160 -31 100 46 181 60
213 36 17 -13 18 -18 7 -41 -18 -40 -15 -50 19 -70 20 -12 40 -38 56 -72 26
-58 23 -79 -19 -108 -40 -28 -88 -19 -199 36 -101 50 -107 52 -209 57 l-105 6
-22 45 c-44 85 -25 231 43 331 19 28 34 52 34 54 0 2 -9 1 -21 -2 -31 -8 -64
-67 -94 -166 l-26 -88 -20 25 c-11 14 -31 51 -46 83 -14 32 -45 83 -68 113
-93 122 -199 321 -237 443 -20 66 -20 68 -2 82 37 28 144 55 223 55 51 1 82 5
95 15 29 22 55 21 468 -16 81 -7 144 -19 205 -40 48 -16 102 -29 121 -29 25 0
35 -5 39 -20 6 -23 28 -27 37 -5 7 20 23 19 150 -10 205 -46 336 -43 370 10
38 59 3 71 -100 34 -71 -25 -125 -21 -289 17 -60 14 -162 34 -226 44 -64 10
-147 28 -184 39 -37 12 -87 21 -111 21 -62 0 -55 15 14 29 31 7 81 24 111 38
68 32 122 29 316 -22 154 -39 180 -42 233 -20 64 27 82 51 82 112 0 62 -7 68
-120 108 -41 15 -88 37 -105 50 -16 12 -41 25 -55 30 -14 4 -59 27 -101 51
-41 24 -91 47 -110 50 -42 9 -98 36 -169 84 -98 66 -139 83 -215 86 -48 3 -89
-2 -130 -15z m248 -90 c71 -59 106 -78 167 -90 34 -7 99 -36 168 -75 62 -35
153 -78 202 -95 110 -40 140 -65 140 -120 0 -30 -6 -44 -22 -55 -30 -22 -90
-20 -119 2 -32 25 -298 67 -372 59 -30 -3 -78 -18 -107 -33 -43 -22 -74 -30
-159 -37 -96 -8 -158 -16 -471 -63 -52 -7 -132 -14 -178 -14 -90 0 -93 2 -109
81 l-5 25 134 12 c180 16 381 46 518 78 23 5 23 6 6 16 -13 7 -51 7 -125 0
-58 -6 -151 -14 -206 -17 -55 -4 -134 -13 -175 -21 -166 -31 -288 -2 -332 79
-14 27 8 82 40 97 16 8 90 16 177 21 168 8 214 19 389 88 149 59 213 80 274
91 96 16 114 13 165 -29z m-814 -787 c55 -151 111 -266 172 -355 24 -35 73
-120 109 -189 36 -69 87 -161 113 -205 44 -75 67 -149 59 -186 -2 -13 -18 -18
-65 -21 -73 -4 -197 -57 -197 -83 0 -27 36 -88 110 -185 l70 -94 -47 -49 c-27
-27 -134 -119 -240 -203 -211 -170 -323 -282 -358 -359 -13 -27 -37 -63 -55
-80 -18 -16 -47 -59 -65 -95 -32 -63 -70 -109 -80 -98 -12 12 28 217 56 286
32 80 36 106 17 100 -19 -6 -42 -57 -95 -202 -50 -140 -56 -143 -74 -39 -5 32
-14 69 -20 83 -10 23 -11 23 -21 6 -6 -11 -8 -42 -4 -75 3 -31 11 -105 16
-166 21 -217 71 -360 171 -490 30 -38 70 -92 88 -119 86 -125 105 -349 40
-484 -23 -47 -167 -175 -237 -211 -123 -63 -435 -89 -657 -56 -55 8 -182 33
-282 55 -257 57 -323 68 -452 80 -63 5 -116 11 -118 14 -3 2 0 21 6 43 16 56
13 132 -10 293 -15 103 -19 168 -14 224 3 43 0 154 -6 247 -10 147 -10 178 5
249 9 44 16 113 16 153 1 70 17 172 38 232 6 17 17 55 25 85 8 30 33 96 55
145 24 54 45 122 52 169 10 61 20 86 41 110 15 17 35 55 44 84 10 29 28 69 41
88 13 19 24 44 24 55 0 34 70 157 149 264 41 55 89 125 108 157 18 32 49 69
68 84 19 14 47 47 64 73 34 52 88 108 97 99 3 -4 -17 -40 -45 -80 -108 -159
-183 -324 -231 -506 -21 -82 -41 -133 -65 -170 -20 -29 -45 -76 -56 -104 -11
-29 -40 -75 -63 -103 -55 -65 -176 -229 -204 -277 -11 -21 -28 -73 -36 -115
-8 -43 -18 -86 -21 -95 -8 -21 28 -155 62 -227 18 -38 61 -92 139 -171 123
-128 160 -179 195 -273 29 -78 62 -132 94 -153 37 -24 65 -96 65 -165 0 -51
-3 -59 -18 -59 -11 0 -27 9 -37 20 -10 11 -27 22 -38 26 -12 4 -41 27 -66 53
-54 54 -148 114 -157 100 -11 -18 26 -60 69 -78 23 -10 51 -28 62 -41 11 -12
42 -38 70 -58 97 -69 105 -80 98 -128 -5 -41 -3 -46 32 -78 33 -31 46 -35 112
-42 144 -13 275 14 393 83 66 39 215 178 327 308 l61 69 16 -54 c20 -68 20
-126 0 -203 -15 -60 -65 -167 -110 -239 -13 -21 -22 -38 -18 -38 3 0 25 13 48
29 53 37 102 91 120 135 23 56 38 172 31 239 -15 128 -43 181 -169 316 -59 63
-77 90 -95 142 -12 35 -42 98 -66 139 -44 73 -54 111 -36 139 15 24 -15 81
-71 138 -29 29 -50 54 -47 56 2 2 27 16 56 32 77 41 87 67 78 219 -8 145 3
189 56 223 19 11 43 31 54 43 110 120 156 159 227 195 69 36 81 46 127 115
105 156 119 230 96 499 -8 100 -15 206 -16 234 l-1 52 -13 -40 c-9 -27 -14
-102 -14 -230 -1 -205 -9 -256 -56 -352 -40 -81 -195 -268 -195 -236 0 6 14
53 30 103 30 91 41 200 20 200 -13 0 -37 -49 -67 -138 -42 -128 -106 -239
-199 -347 -54 -63 -99 -127 -121 -174 -33 -68 -36 -81 -34 -154 1 -74 -1 -84
-34 -144 -32 -55 -38 -62 -55 -53 -24 13 -50 49 -50 70 0 8 -20 34 -44 57 -24
23 -75 89 -114 146 -66 96 -121 157 -142 157 -23 0 -19 -26 9 -67 35 -50 34
-62 -4 -45 -35 16 -75 15 -75 -1 0 -20 26 -40 116 -95 73 -44 118 -91 101
-108 -3 -4 -32 3 -63 15 -58 22 -100 26 -122 12 -10 -6 -8 -12 10 -23 40 -26
125 -67 193 -93 47 -17 79 -38 114 -74 26 -27 64 -57 84 -68 36 -18 36 -19 21
-41 -8 -12 -39 -34 -67 -48 -59 -30 -99 -63 -91 -75 11 -18 45 -7 106 34 70
48 95 60 102 49 2 -4 -2 -39 -10 -77 -8 -38 -12 -82 -8 -97 9 -43 64 -67 64
-28 0 24 13 26 35 3 22 -21 31 -48 45 -124 15 -81 27 -104 96 -178 l56 -61 -7
-77 c-7 -76 -9 -80 -54 -126 -93 -98 -215 -179 -326 -217 -75 -26 -221 -44
-280 -36 l-46 7 1 47 c1 26 -4 77 -11 114 -10 51 -10 106 -2 240 5 95 8 177 6
181 -9 15 -33 -15 -33 -40 0 -47 -25 -17 -38 45 -15 66 -28 78 -38 37 -4 -17
4 -56 25 -113 17 -48 31 -91 31 -95 0 -17 -25 -5 -67 33 -25 22 -49 40 -53 40
-4 0 -13 14 -21 31 -7 18 -22 43 -34 58 -12 14 -27 46 -34 71 -20 72 -58 128
-153 227 -102 104 -115 133 -125 274 -4 59 -1 118 11 190 16 95 20 107 50 134
18 17 53 56 77 89 24 32 59 69 79 81 28 18 55 59 137 211 163 303 312 614 294
614 -15 0 -59 -57 -112 -147 -30 -51 -58 -93 -62 -93 -14 0 4 73 34 138 16 35
53 98 83 140 29 42 65 100 80 129 14 28 34 54 44 57 11 4 25 24 32 46 10 31
28 50 89 93 175 126 365 229 561 304 150 57 282 95 293 84 4 -4 20 -73 34
-152 37 -209 60 -216 28 -9 -18 115 -19 184 -4 213 17 32 41 58 52 54 5 -1 30
-61 56 -133z"/>
<path d="M2560 4327 c0 -13 -6 -30 -14 -36 -23 -19 -69 -9 -82 18 l-12 23 -12
-21 c-19 -36 -8 -64 32 -86 l37 -20 41 40 c32 32 40 46 38 69 -4 37 -28 48
-28 13z"/>
<path d="M2479 4146 c-18 -39 -2 -60 49 -64 73 -5 106 33 63 72 -18 16 -19 16
-29 -13 -14 -39 -25 -39 -50 1 l-21 32 -12 -28z"/>
<path d="M4600 7450 c-8 -4 -40 -11 -70 -15 -90 -12 -112 -45 -30 -45 28 0 50
-3 50 -6 0 -4 -16 -24 -35 -45 -34 -38 -47 -77 -22 -66 135 60 181 69 232 45
27 -12 32 -23 14 -33 -22 -14 -69 -89 -69 -112 0 -26 21 -31 40 -8 10 12 15
11 33 -10 29 -33 44 -22 60 44 12 51 13 52 42 47 83 -16 146 -18 175 -6 16 7
30 13 30 15 0 16 -25 65 -35 69 -7 2 -28 -6 -46 -20 -54 -39 -91 -33 -173 30
-112 84 -180 125 -196 116z"/>
<path d="M3945 7416 c-22 -14 -55 -48 -73 -76 -30 -45 -32 -55 -23 -81 12 -34
43 -82 80 -122 18 -20 25 -39 26 -74 2 -37 8 -51 30 -70 38 -33 66 -26 89 20
23 48 13 61 -19 22 -32 -40 -43 -27 -57 64 -9 59 -17 80 -45 113 -23 28 -33
49 -31 67 4 36 34 31 101 -15 l52 -36 3 27 c5 37 -22 72 -73 97 -30 15 -41 25
-32 30 38 24 105 -9 153 -74 39 -53 54 -51 54 6 0 23 -12 41 -50 78 -45 44
-54 48 -97 48 -33 0 -61 -8 -88 -24z"/>
<path d="M9143 6893 c-8 -3 -11 -14 -7 -27 3 -12 -5 -44 -17 -71 -12 -28 -56
-151 -99 -275 -76 -221 -137 -380 -147 -380 -2 0 -3 30 -1 66 2 47 -1 68 -10
71 -18 7 -52 -74 -52 -125 0 -41 -51 -397 -68 -477 l-9 -40 -8 43 c-4 24 -16
53 -26 65 l-18 22 -1 -25 c0 -14 9 -81 21 -150 26 -156 30 -270 9 -295 -38
-46 -164 -61 -230 -27 l-35 17 3 100 c3 73 -4 142 -22 255 -14 85 -26 188 -26
230 l0 75 49 60 c28 33 84 89 126 125 83 71 151 157 210 265 55 100 75 127 91
121 8 -3 21 -9 29 -12 18 -7 21 30 5 70 -22 59 -88 15 -136 -91 -19 -40 -40
-76 -48 -79 -8 -3 -33 -32 -55 -64 -23 -32 -70 -85 -106 -117 -149 -135 -245
-323 -245 -480 0 -30 14 -122 30 -206 17 -84 33 -190 38 -237 l7 -85 54 -32
c59 -35 139 -56 198 -51 34 3 41 9 70 57 18 30 34 59 36 65 7 18 86 -64 98
-101 6 -21 21 -38 35 -43 37 -14 29 -27 -34 -59 -81 -41 -236 -181 -260 -234
-24 -54 -82 -106 -214 -195 -218 -146 -381 -288 -545 -475 -104 -118 -151
-192 -140 -220 3 -8 21 -18 39 -22 74 -17 218 -69 290 -107 96 -50 167 -122
196 -201 23 -60 29 -141 12 -152 -6 -4 -10 11 -10 38 0 51 -20 77 -40 52 -10
-11 -10 -25 -1 -59 9 -36 8 -51 -5 -81 -17 -42 -20 -123 -5 -172 14 -49 68
-121 112 -150 21 -14 39 -27 39 -29 0 -2 -17 -8 -38 -13 -48 -13 -101 0 -160
41 -43 30 -111 112 -112 136 0 7 14 31 30 54 26 36 38 68 26 68 -2 0 -48 -42
-101 -92 -96 -92 -231 -196 -291 -226 -66 -31 -111 8 -90 77 11 38 86 121 109
121 8 0 32 -13 53 -28 62 -45 64 -45 64 -22 0 12 -16 35 -36 53 -20 18 -49 51
-65 74 -38 54 -59 74 -70 68 -15 -10 -10 -35 16 -73 l26 -37 -56 -52 c-31 -29
-63 -53 -72 -53 -8 0 -33 18 -55 39 -35 36 -39 44 -36 83 3 43 9 49 84 94 11
6 14 13 8 17 -6 3 -33 -5 -59 -20 l-49 -26 -24 28 c-20 24 -23 35 -18 68 7 40
40 97 57 97 5 0 9 5 9 11 0 7 -10 9 -25 7 -14 -3 -28 -1 -31 4 -3 5 8 38 25
73 25 51 54 85 136 162 58 53 103 98 101 101 -6 5 -57 -22 -142 -74 -39 -24
-76 -44 -82 -44 -7 0 -12 -5 -12 -11 0 -6 -16 -29 -35 -50 -26 -29 -35 -48
-35 -74 0 -22 -6 -38 -14 -41 -24 -9 -28 -57 -10 -103 11 -29 15 -56 11 -86
-6 -41 -4 -48 33 -90 33 -38 38 -50 30 -65 -17 -32 -11 -57 24 -103 43 -56 56
-81 56 -104 0 -20 40 -63 77 -82 57 -29 138 4 257 104 44 36 92 73 106 80 26
13 27 12 85 -61 71 -91 126 -126 193 -126 90 0 142 42 162 130 8 31 6 33 -28
48 -64 26 -111 65 -132 108 -32 67 -27 89 29 130 84 62 111 100 111 154 0 27
11 72 26 107 45 106 64 167 64 205 0 21 9 57 20 81 11 24 20 54 20 66 0 24 70
98 133 142 79 54 359 203 367 194 4 -4 23 -54 41 -109 l33 -102 -31 -38 c-93
-120 -159 -303 -189 -523 -22 -169 -21 -177 25 -201 107 -54 253 -76 591 -89
l245 -10 54 32 c153 91 274 256 288 394 4 38 18 79 40 119 54 99 74 196 79
378 3 137 1 171 -17 240 -11 45 -24 124 -29 176 -6 69 -16 116 -39 173 -38 94
-38 120 -5 200 89 209 -13 482 -201 542 -35 11 -70 15 -93 11 -52 -8 -82 2
-82 28 0 11 14 57 31 100 27 70 30 87 24 141 -10 100 13 104 188 29 45 -20
103 -38 130 -41 47 -6 47 -6 47 23 0 20 -15 47 -45 84 l-45 55 -82 12 c-46 7
-111 15 -145 19 -52 6 -62 10 -67 28 -3 12 -28 50 -56 85 -68 85 -67 113 11
198 22 24 41 56 45 77 13 70 -37 136 -103 136 -35 0 -48 -10 -110 -88 -72 -89
-179 -106 -282 -42 -56 35 -133 50 -161 30 -13 -9 -13 -11 0 -20 8 -5 40 -17
70 -26 30 -9 78 -30 105 -47 33 -20 67 -32 102 -35 48 -4 59 -1 130 41 55 32
84 57 97 81 10 19 25 37 33 40 36 14 73 -37 59 -82 -4 -10 -31 -47 -61 -82
-69 -79 -71 -103 -15 -174 45 -60 64 -122 81 -270 17 -156 -6 -305 -55 -345
-27 -22 -235 -90 -386 -126 -155 -36 -343 -75 -367 -75 -7 0 -36 22 -63 50
-46 45 -50 53 -50 97 0 26 12 80 26 118 17 49 27 104 34 186 9 133 63 370 92
411 11 15 22 45 25 65 4 21 20 56 36 78 34 47 57 99 57 129 0 12 13 37 30 56
16 19 29 43 30 52 0 10 13 59 29 110 47 148 74 257 67 273 -5 15 -20 18 -43 8z
m800 -1003 c61 -11 67 -14 67 -36 0 -23 -3 -24 -37 -18 -44 8 -193 63 -193 71
0 7 65 0 163 -17z m-233 -460 c0 -5 -2 -10 -4 -10 -3 0 -8 5 -11 10 -3 6 -1
10 4 10 6 0 11 -4 11 -10z m158 -32 c3 -14 -3 -18 -27 -18 -23 0 -31 5 -31 18
0 25 53 24 58 0z m-293 -38 c0 -20 -6 -26 -28 -28 -32 -4 -46 20 -26 44 19 24
54 14 54 -16z m-245 -74 c0 -7 -9 -16 -20 -19 -19 -5 -28 12 -13 26 11 12 33
7 33 -7z m498 -38 c21 -21 13 -38 -18 -38 -34 0 -52 26 -29 41 19 12 33 11 47
-3z m-427 -51 c-10 -9 -15 -8 -27 8 -13 18 -13 21 3 33 15 11 19 10 27 -8 6
-14 5 -25 -3 -33z m177 13 c4 -38 -19 -64 -51 -56 -32 8 -33 11 -7 54 24 39
53 40 58 2z m-388 -5 c0 -8 -9 -15 -20 -15 -11 0 -20 7 -20 15 0 8 9 15 20 15
11 0 20 -7 20 -15z m820 -72 c0 -20 -4 -24 -22 -21 -26 3 -35 32 -17 54 16 19
39 0 39 -33z m-790 -4 c0 -5 -9 -9 -20 -9 -22 0 -27 16 -7 23 15 5 27 -1 27
-14z m-80 1 c0 -5 -7 -10 -16 -10 -8 0 -12 5 -9 10 3 6 10 10 16 10 5 0 9 -4
9 -10z m186 -1 c3 -6 0 -18 -9 -26 -19 -20 -57 -8 -57 18 0 14 7 19 29 19 17
0 33 -5 37 -11z m78 -9 c14 -5 26 -17 26 -25 0 -13 -9 -15 -37 -13 -31 2 -39
7 -41 26 -4 25 11 28 52 12z m-434 -30 c0 -5 -4 -10 -10 -10 -5 0 -10 5 -10
10 0 6 5 10 10 10 6 0 10 -4 10 -10z m548 -18 c3 -9 -3 -13 -19 -10 -12 1 -24
9 -27 16 -3 9 3 13 19 10 12 -1 24 -9 27 -16z m-313 -2 c4 -6 5 -75 4 -153 -2
-78 -2 -170 -1 -205 3 -65 -9 -102 -33 -102 -23 0 -29 82 -16 264 6 94 11 179
11 189 0 18 25 23 35 7z m393 -12 c19 -19 14 -28 -12 -28 -27 0 -41 14 -31 30
8 14 28 13 43 -2z m-476 -190 c-3 -199 -13 -282 -37 -314 -13 -17 -14 -13 -14
41 -1 55 8 190 25 388 4 46 11 77 18 77 8 0 10 -55 8 -192z m190 7 c-3 -127
-8 -176 -19 -193 -30 -47 -36 -20 -39 177 l-3 192 32 -3 32 -3 -3 -170z m112
125 c-7 -163 -19 -273 -31 -288 -12 -16 -14 -16 -29 3 -13 17 -15 37 -10 124
3 57 6 126 6 153 l0 49 33 -3 c30 -3 32 -5 31 -38z m253 34 c12 -3 20 -11 18
-17 -2 -7 -9 -140 -15 -297 -16 -423 -30 -680 -41 -725 -6 -22 -13 -82 -18
-133 -5 -62 -13 -98 -23 -109 -15 -14 -17 -14 -26 3 -12 23 -1 250 28 564 12
124 23 326 26 450 3 124 7 235 10 248 5 24 8 25 41 16z m-629 -175 c5 -263
-15 -389 -61 -389 -9 0 -7 90 9 335 l6 90 -23 -23 c-22 -21 -24 -32 -29 -155
-3 -72 -8 -137 -13 -144 -4 -6 -12 -44 -17 -85 -6 -50 -14 -76 -26 -85 -41
-30 -42 -16 -18 235 14 141 15 177 4 197 -9 16 -10 43 -6 87 9 83 17 95 53 82
23 -8 30 -18 37 -54 11 -55 12 -56 31 -40 9 7 15 29 15 55 0 44 7 58 24 52 7
-2 12 -60 14 -158z m454 134 c20 -18 23 -54 8 -116 -5 -23 -14 -150 -19 -282
-6 -132 -17 -330 -26 -440 -8 -110 -16 -238 -18 -285 -2 -74 -4 -85 -21 -88
-10 -2 -22 0 -27 5 -12 12 8 386 25 464 10 48 12 108 9 215 -4 102 0 195 11
293 9 79 16 165 16 191 0 63 10 73 42 43z m-660 -76 c-1 -45 -4 -182 -5 -304
-2 -208 -3 -223 -23 -250 -12 -15 -30 -28 -40 -28 -17 0 -19 8 -19 60 0 33 6
118 14 190 7 71 11 157 7 190 -10 103 20 225 57 225 9 0 11 -22 9 -83z m930
66 c14 -16 15 -52 7 -303 -13 -409 -37 -803 -59 -965 -11 -77 -20 -177 -20
-224 0 -65 -4 -89 -17 -103 -34 -38 -59 -10 -49 54 3 18 11 121 16 228 6 107
16 224 22 260 5 36 10 112 9 170 0 59 4 122 10 140 7 19 16 145 21 280 5 135
11 292 13 350 3 58 5 111 5 118 0 18 24 15 42 -5z m-178 -40 c24 -87 12 -355
-31 -683 -14 -107 -27 -258 -29 -334 -2 -109 -6 -143 -18 -155 -25 -24 -40 1
-39 62 1 28 13 221 27 427 14 206 27 427 31 490 3 63 8 141 11 172 5 52 8 57
24 48 10 -6 21 -18 24 -27z m270 -19 c12 -32 9 -121 -30 -929 -8 -176 -19
-354 -24 -395 -5 -41 -9 -100 -10 -130 0 -50 -12 -80 -31 -80 -19 0 -27 64
-18 161 4 57 8 158 9 224 0 66 9 194 21 285 14 115 23 266 29 495 5 182 12
342 16 358 7 30 28 36 38 11z m-1134 -197 c0 -230 -11 -425 -25 -444 -11 -15
-15 -15 -30 -3 -14 12 -16 24 -11 70 4 30 11 145 16 255 10 195 21 275 40 275
6 0 10 -63 10 -153z m-85 -129 c-7 -189 -8 -193 -32 -211 -13 -11 -26 -17 -28
-15 -1 1 0 77 4 168 6 139 11 173 29 214 12 27 25 46 28 43 4 -3 3 -93 -1
-199z m1315 187 c9 -11 10 -43 6 -122 -4 -60 -11 -229 -16 -378 -5 -148 -14
-301 -20 -340 -6 -38 -15 -135 -20 -215 -18 -271 -21 -290 -40 -290 -29 0 -44
51 -31 110 6 28 11 124 11 213 -1 97 5 204 15 267 8 58 22 222 30 365 14 258
31 405 45 405 4 0 13 -7 20 -15z m86 -315 c-10 -299 -51 -785 -70 -812 -15
-21 -16 -16 -16 83 0 57 9 237 20 399 10 162 22 355 26 429 l7 134 19 -24 c18
-22 19 -37 14 -209z m-653 -52 c-4 -281 -16 -434 -45 -552 -19 -78 -23 -86
-35 -70 -17 24 -17 37 12 290 16 146 25 274 25 385 0 91 3 169 7 172 3 4 14 7
22 7 15 0 16 -24 14 -232z m-888 -4 c0 -187 -3 -227 -19 -274 -30 -91 -39 -85
-32 20 3 52 8 167 11 255 7 189 12 228 28 222 9 -3 12 -62 12 -223z m805 120
c0 -66 -5 -73 -44 -58 -12 4 -16 20 -16 55 0 38 5 51 22 63 12 8 25 13 30 10
4 -3 8 -34 8 -70z m-880 -107 c0 -78 -7 -216 -16 -307 -9 -91 -17 -189 -18
-218 -1 -29 -8 -58 -14 -64 -22 -22 -25 44 -13 255 7 116 12 263 12 326 0 87
3 121 15 138 8 13 19 21 24 18 6 -4 10 -69 10 -148z m766 68 c-3 -9 -11 -13
-16 -10 -8 5 -7 11 1 21 14 18 24 11 15 -11z m-861 -92 c7 -92 3 -334 -12
-611 -5 -113 -7 -122 -22 -107 -14 14 -16 59 -13 403 3 369 7 412 32 412 5 0
11 -44 15 -97z m960 30 c12 -11 15 -26 11 -47 -3 -17 -10 -93 -16 -168 -5 -76
-19 -226 -29 -335 -11 -109 -23 -260 -27 -336 -4 -76 -12 -140 -17 -144 -6 -3
-16 2 -24 12 -18 26 -18 287 2 378 15 70 29 241 41 492 7 161 18 189 59 148z
m-1053 -330 c-3 -234 -8 -333 -16 -333 -6 0 -19 7 -29 14 -14 11 -18 34 -22
122 -3 66 0 127 6 155 9 33 9 72 1 150 -13 123 -5 174 34 207 14 13 28 22 29
20 1 -2 0 -153 -3 -335z m958 255 c0 -34 -5 -91 -11 -127 l-12 -65 -18 23
c-16 19 -18 38 -16 127 l2 104 28 0 c27 0 27 -1 27 -62z m-92 -16 c3 -43 -4
-52 -26 -30 -13 13 -16 60 -5 72 15 15 28 -3 31 -42z m-969 -35 c9 -23 -2
-319 -15 -409 -8 -59 -29 -63 -51 -10 -14 32 -14 54 -4 177 6 77 11 160 11
184 0 66 41 106 59 58z m469 -52 c-3 -34 -12 -62 -23 -75 -28 -30 -38 -25 -30
17 7 39 41 113 51 113 4 0 4 -25 2 -55z m1478 -82 c-11 -190 -26 -225 -22 -52
3 135 7 169 23 169 3 0 3 -53 -1 -117z m-2056 -98 c0 -74 -5 -146 -11 -162
l-11 -28 -20 25 c-18 22 -20 36 -16 130 4 104 27 188 49 174 5 -3 9 -65 9
-139z m-84 8 c-3 -21 -6 -64 -6 -95 0 -44 -3 -58 -15 -58 -22 0 -38 39 -32 79
6 49 33 111 48 111 8 0 10 -12 5 -37z m-91 -63 c3 -5 3 -21 -1 -35 -9 -35 -54
-36 -54 0 0 31 41 58 55 35z m1207 -165 c-1 -38 -6 -86 -12 -105 -5 -19 -10
-88 -10 -153 0 -84 -4 -128 -16 -155 -14 -35 -16 -36 -27 -17 -14 24 -13 191
2 285 6 36 11 98 11 139 0 56 4 79 17 93 16 18 17 18 27 1 5 -10 9 -49 8 -88z
m101 -36 c-1 -13 -10 -93 -19 -177 -9 -85 -14 -174 -11 -198 4 -37 2 -44 -13
-44 -39 0 -42 20 -31 205 6 97 11 185 11 195 0 11 7 20 15 20 9 0 18 7 22 15
9 24 28 12 26 -16z m265 -68 c12 -7 11 -31 -3 -145 -16 -138 -35 -213 -51
-209 -26 5 -30 116 -9 239 23 131 27 138 63 115z m-90 -18 c6 -12 4 -49 -5
-103 -8 -47 -14 -113 -14 -147 0 -59 -15 -93 -37 -79 -5 3 -9 77 -10 165 -1
142 1 161 16 170 25 15 40 13 50 -6z m172 -130 c-1 -131 -10 -188 -35 -212
-16 -15 -17 -8 -11 114 8 168 15 215 32 215 11 0 14 -25 14 -117z m80 106 l33
-12 -6 -81 c-7 -82 -24 -152 -50 -203 l-15 -28 -12 45 c-10 35 -10 66 -1 140
6 52 11 107 11 123 0 31 -2 30 40 16z"/>
<path d="M6359 6790 c-138 -24 -229 -107 -229 -211 0 -52 38 -38 143 53 38 32
78 59 90 60 41 2 70 -3 91 -18 11 -8 35 -14 53 -14 48 0 43 30 -13 90 -49 52
-53 54 -135 40z"/>
<path d="M6627 6653 c-18 -18 5 -37 155 -128 158 -96 259 -145 329 -160 18 -4
86 -30 149 -57 157 -69 215 -88 270 -88 57 0 89 25 55 44 -10 6 -32 23 -48 39
-16 15 -39 27 -52 27 -13 0 -81 18 -150 40 -69 22 -151 43 -183 46 -98 10
-268 86 -423 190 -82 55 -91 59 -102 47z"/>
<path d="M7875 6632 c-26 -16 -41 -49 -119 -253 -94 -245 -147 -403 -186 -553
l-24 -88 -19 26 c-16 23 -26 26 -75 26 -80 0 -229 33 -289 64 l-52 26 -35 -42
c-20 -23 -45 -66 -56 -96 -11 -30 -38 -75 -59 -100 -38 -45 -62 -96 -75 -154
-13 -58 41 -18 99 73 38 59 79 98 90 87 8 -8 -48 -219 -61 -233 -11 -11 -30
-13 -79 -8 -75 7 -83 -4 -40 -55 45 -54 145 -62 198 -15 42 38 57 98 91 360 3
20 -1 36 -10 44 -8 6 -14 20 -14 31 0 18 4 20 48 13 26 -4 87 -22 136 -41 48
-19 112 -37 142 -40 63 -8 62 7 6 -169 -43 -138 -55 -261 -26 -286 43 -37 143
-51 179 -25 16 11 25 10 64 -10 97 -50 278 -56 449 -14 66 16 86 17 102 8 29
-18 39 1 12 23 -50 40 -164 50 -335 30 -68 -8 -85 -6 -142 13 -36 12 -70 27
-76 33 -16 16 -2 118 55 406 23 119 39 217 35 217 -20 0 -82 -180 -163 -472
-50 -179 -59 -198 -93 -198 -51 0 -56 11 -49 87 8 77 16 108 74 270 23 61 46
139 52 172 6 34 19 76 30 94 10 17 23 57 29 89 5 31 19 73 30 94 12 21 21 53
21 71 0 18 18 65 41 110 70 131 76 146 94 210 31 113 68 130 175 83 40 -18
101 -36 135 -41 35 -5 78 -18 97 -30 196 -123 296 -152 273 -78 -8 23 -122 81
-185 94 -19 4 -42 13 -50 20 -8 7 -42 21 -75 30 -33 10 -102 39 -153 66 -105
55 -163 63 -217 31z"/>
<path d="M6090 6518 c0 -48 32 -92 84 -118 44 -21 48 -21 71 -6 43 28 32 51
-34 75 -36 13 -70 34 -85 51 -31 38 -36 38 -36 -2z"/>
<path d="M6460 6305 c0 -9 11 -20 24 -27 40 -18 41 -38 1 -38 -18 0 -36 -4
-39 -8 -2 -4 -8 -59 -12 -122 -7 -112 -7 -114 -43 -153 -20 -22 -54 -48 -76
-58 -53 -25 -126 -25 -156 0 -22 17 -22 21 -11 72 11 50 36 90 118 191 11 15
36 33 56 41 19 8 43 25 52 38 16 24 16 24 -21 31 -87 16 -109 11 -147 -34 -47
-54 -96 -183 -102 -267 -12 -156 96 -231 269 -186 84 22 154 60 172 95 19 36
19 117 0 195 -8 33 -14 74 -15 92 0 36 -6 37 139 -9 97 -30 147 -31 158 -1 9
24 -21 44 -86 59 -40 9 -78 27 -108 50 -58 44 -83 54 -134 54 -28 0 -39 -4
-39 -15z"/>
<path d="M6830 6305 c0 -20 55 -44 240 -105 148 -50 390 -110 438 -110 35 1
62 22 62 48 0 27 -8 31 -82 41 -77 11 -504 104 -573 125 -63 20 -85 20 -85 1z"/>
<path d="M8972 6205 c-26 -57 -8 -170 35 -217 21 -23 37 -23 28 0 -4 9 -16 66
-26 126 -11 60 -21 111 -22 113 -2 2 -9 -8 -15 -22z"/>
<path d="M9200 6190 c-20 -12 -11 -19 46 -33 63 -16 68 -38 17 -70 -49 -32
-76 -61 -71 -82 2 -12 19 -5 78 34 86 57 145 114 135 131 -5 8 -14 7 -32 -5
-23 -15 -27 -15 -76 9 -55 28 -74 31 -97 16z"/>
<path d="M6910 6130 c0 -14 49 -48 83 -59 18 -6 91 -20 162 -31 98 -16 139
-27 165 -45 66 -45 136 -59 160 -30 16 20 3 54 -23 59 -12 3 -107 21 -212 41
-104 20 -223 44 -262 55 -40 10 -73 14 -73 10z"/>
<path d="M5973 6091 c-26 -19 -51 -50 -68 -86 -26 -51 -27 -62 -22 -143 7
-122 32 -176 92 -203 52 -23 93 -19 120 11 35 39 -4 80 -77 80 -30 0 -42 6
-61 33 -25 32 -65 133 -57 140 71 55 161 131 180 151 21 23 22 29 10 36 -29
18 -76 10 -117 -19z"/>
<path d="M6642 6063 c2 -13 43 -27 173 -60 93 -24 183 -43 200 -41 l30 3 -32
33 c-30 30 -36 32 -102 32 -47 0 -96 8 -148 25 -94 30 -126 32 -121 8z"/>
<path d="M6592 5878 c-64 -118 -66 -175 -4 -123 20 17 41 53 61 106 17 44 31
83 31 85 0 2 -11 4 -24 4 -20 0 -32 -14 -64 -72z"/>
<path d="M6780 5748 c-28 -35 -68 -98 -91 -140 -44 -85 -84 -226 -75 -263 14
-54 146 -91 161 -45 10 30 -2 40 -49 40 -23 0 -51 6 -62 14 -24 18 -23 19 95
174 130 172 150 201 160 236 11 42 7 46 -44 46 -42 0 -47 -3 -95 -62z"/>
<path d="M9978 5677 c8 -9 37 -24 65 -33 63 -21 237 -96 447 -194 248 -116
442 -181 605 -205 l50 -7 -20 22 c-11 12 -38 33 -60 45 -34 20 -408 152 -594
210 -29 9 -97 38 -150 65 -112 56 -232 99 -305 107 -46 6 -50 5 -38 -10z"/>
<path d="M7262 5668 c12 -34 110 -78 176 -78 26 0 33 4 30 18 -2 11 -28 26
-78 44 -82 29 -134 36 -128 16z"/>
<path d="M8843 5594 c-8 -21 21 -47 92 -82 63 -32 81 -32 90 -1 3 10 8 28 11
39 6 24 -23 29 -32 5 -9 -22 -26 -19 -93 20 -52 29 -63 32 -68 19z"/>
<path d="M11235 5387 c-33 -18 -61 -40 -63 -49 -4 -22 0 -22 62 -3 88 27 157
17 206 -30 18 -17 39 -25 75 -27 58 -3 65 -20 23 -51 -43 -32 -127 -34 -220
-4 -85 27 -92 23 -63 -32 22 -43 78 -61 188 -61 l93 0 49 50 48 49 -12 56
c-14 61 -30 75 -84 75 -19 0 -60 11 -90 25 -86 40 -140 40 -212 2z"/>
<path d="M11630 5136 c0 -7 23 -57 50 -111 42 -81 50 -107 50 -151 0 -50 -2
-56 -32 -74 -55 -34 -107 -22 -122 28 -3 9 -12 58 -20 108 -15 97 -40 154 -60
134 -7 -7 -5 -41 11 -118 11 -59 19 -133 18 -165 -3 -56 -6 -62 -92 -175 -117
-156 -201 -242 -288 -301 -92 -61 -152 -77 -215 -57 -118 39 -224 86 -253 113
-18 17 -48 33 -68 37 -25 4 -54 24 -103 71 -37 36 -72 65 -79 65 -6 0 -56 27
-111 60 -107 63 -175 95 -183 86 -13 -12 33 -60 95 -100 37 -24 108 -76 157
-116 179 -146 462 -310 562 -326 53 -8 190 11 258 37 54 20 97 59 134 122 13
20 31 42 42 48 11 5 27 27 37 47 18 39 32 43 97 28 61 -15 168 94 181 182 4
28 16 57 30 72 87 94 71 334 -29 438 -32 33 -67 43 -67 18z m18 -472 c45 -13
15 -92 -48 -124 -22 -11 -59 -20 -85 -20 -43 0 -46 1 -40 23 15 48 49 90 89
108 45 21 51 21 84 13z"/>
<path d="M3434 3747 c9 -98 33 -178 101 -326 30 -65 72 -169 94 -232 22 -63
54 -152 70 -199 27 -75 31 -98 31 -195 0 -71 6 -128 16 -160 8 -27 16 -93 18
-145 2 -88 5 -101 39 -167 60 -117 52 -180 -46 -373 -15 -30 -68 -66 -116 -80
-45 -12 -166 -13 -251 0 -130 19 -272 31 -303 25 -22 -4 -38 -16 -49 -36 -15
-25 -23 -29 -58 -29 -77 0 -134 39 -165 114 -9 21 -26 90 -39 152 -25 128 -21
136 39 83 20 -18 39 -29 43 -25 13 13 -82 171 -141 235 -67 72 -79 97 -97 194
-12 66 -42 126 -67 135 -20 6 -16 -62 7 -143 11 -38 20 -86 20 -106 0 -25 9
-48 30 -75 88 -115 100 -146 100 -268 1 -106 20 -228 45 -277 38 -75 102 -117
190 -126 48 -5 63 -1 152 41 119 55 145 57 271 16 108 -35 228 -48 290 -31 92
25 160 118 226 309 49 140 49 201 0 337 -66 184 -68 197 -48 281 21 89 15 163
-21 270 -14 41 -25 83 -25 94 0 53 -105 291 -221 501 -38 70 -81 158 -95 195
-37 101 -48 104 -40 11z"/>
<path d="M1880 3614 c0 -8 13 -43 30 -77 16 -34 43 -114 60 -177 17 -63 51
-155 75 -205 35 -72 46 -108 55 -178 14 -112 20 -127 84 -207 29 -36 63 -90
75 -120 41 -99 73 -116 91 -49 22 80 -11 159 -119 289 -42 51 -51 68 -46 88 5
19 -13 62 -73 181 -53 103 -91 193 -112 266 -36 125 -62 180 -89 195 -26 14
-31 13 -31 -6z"/>
<path d="M10030 3482 c0 -45 24 -129 71 -249 27 -68 49 -137 49 -152 0 -15 15
-52 33 -82 17 -30 50 -92 72 -139 64 -138 102 -200 156 -251 48 -46 69 -59 69
-42 0 4 -27 64 -59 133 -33 69 -63 142 -66 162 l-7 37 90 -88 c83 -80 95 -97
142 -197 69 -147 103 -181 205 -204 44 -10 68 -25 234 -152 53 -41 54 -42 33
-56 -23 -15 -30 -42 -11 -42 6 0 32 15 58 33 72 53 75 52 115 -9 20 -29 36
-60 36 -68 0 -29 -167 -175 -385 -337 -77 -57 -173 -130 -214 -162 -118 -93
-155 -98 -192 -24 -12 23 -28 50 -37 59 -42 49 -45 -55 -3 -128 26 -44 35 -52
68 -57 90 -15 113 -6 222 92 31 28 83 69 116 90 33 21 94 66 135 101 41 35
104 82 140 105 37 23 88 68 114 99 61 71 89 75 86 14 -2 -24 -2 -49 -1 -57 2
-24 29 7 36 42 13 64 26 87 52 87 24 0 24 -2 18 -54 -5 -36 -3 -56 4 -61 20
-12 40 15 43 58 3 41 4 42 40 45 33 3 38 0 44 -23 3 -14 2 -49 -4 -77 -12 -64
-7 -80 26 -76 37 4 55 63 48 154 -8 99 -9 102 -70 109 -59 8 -173 3 -197 -8
-12 -6 -21 7 -43 61 -34 89 -63 117 -111 109 -30 -5 -35 -3 -35 13 0 11 -10
22 -22 25 -13 4 -77 44 -143 88 -66 44 -140 88 -165 98 -52 19 -127 104 -181
205 -26 48 -40 64 -61 68 -21 4 -28 11 -28 28 0 31 -7 39 -60 75 -63 43 -238
210 -264 253 -13 19 -44 87 -70 150 -51 121 -87 190 -111 210 -12 10 -15 9
-15 -8z"/>
<path d="M8799 3214 c-39 -55 -89 -122 -110 -150 -21 -29 -67 -77 -102 -109
-36 -31 -80 -78 -98 -103 -59 -84 -211 -225 -324 -302 -71 -47 -142 -107 -200
-167 -50 -51 -96 -93 -103 -93 -25 0 -90 -40 -118 -73 -16 -19 -47 -59 -69
-90 l-40 -56 -34 27 c-27 20 -49 27 -96 30 -57 3 -64 1 -131 -42 -47 -30 -93
-51 -139 -61 -108 -25 -109 -26 -101 -99 3 -33 24 -131 46 -216 22 -85 40
-167 40 -182 0 -57 93 -75 173 -34 l47 23 0 -27 c0 -15 -7 -44 -15 -63 -8 -20
-15 -56 -15 -79 0 -27 -13 -70 -34 -117 -36 -78 -36 -92 -2 -156 21 -39 20
-48 -4 -70 -21 -19 -27 -45 -11 -45 5 0 21 4 36 10 25 10 27 8 52 -48 17 -40
24 -68 20 -94 -4 -31 -2 -37 18 -42 12 -3 39 -24 59 -46 36 -40 46 -73 25 -85
-21 -13 -2 -29 38 -31 55 -3 98 -27 129 -74 20 -30 33 -40 53 -40 14 0 43 -5
65 -11 37 -10 41 -9 107 38 38 26 84 58 102 70 62 41 77 60 77 99 0 87 -120
204 -209 204 -60 0 -48 -42 23 -84 58 -34 76 -61 76 -111 0 -30 -6 -47 -23
-63 -44 -42 -87 -26 -235 87 -52 39 -98 71 -103 71 -4 0 -16 15 -25 33 -9 17
-23 36 -30 40 -8 4 -39 50 -70 102 -57 98 -75 116 -67 68 l5 -28 -17 24 c-24
32 -55 115 -55 147 0 14 7 39 17 57 14 28 17 30 23 13 15 -43 24 13 28 165 l4
156 -34 45 c-36 47 -50 98 -63 228 -4 36 -10 80 -15 97 -6 23 -5 35 3 40 7 5
73 11 147 14 74 3 143 8 152 10 12 3 35 -19 76 -71 31 -41 80 -90 107 -108 28
-19 56 -46 64 -60 7 -15 37 -49 65 -77 46 -44 126 -145 224 -279 38 -54 86
-73 116 -47 10 9 27 34 38 56 28 55 63 90 130 131 71 43 79 65 48 135 -28 65
-21 93 29 118 24 13 41 30 45 45 3 14 40 58 82 98 82 80 113 125 139 207 10
31 34 72 55 95 20 23 58 85 83 138 56 116 97 159 210 219 90 48 151 97 173
140 23 45 -2 45 -44 1 -29 -30 -79 -58 -232 -127 -107 -48 -231 -101 -275
-117 -47 -17 -109 -51 -150 -81 -38 -28 -103 -73 -143 -100 -49 -32 -78 -59
-87 -80 -16 -38 -12 -47 20 -47 15 0 58 29 119 80 184 155 311 235 404 255
l33 7 -68 -85 c-65 -81 -110 -151 -204 -320 -38 -69 -81 -125 -235 -304 -25
-29 -53 -53 -63 -53 -9 0 -30 13 -45 29 -15 16 -37 31 -47 34 -16 4 -19 0 -19
-28 0 -33 46 -102 99 -150 48 -42 46 -49 -25 -120 -37 -36 -70 -65 -74 -65 -3
0 -15 15 -26 34 -19 34 -40 52 -156 138 -32 23 -58 47 -58 53 0 12 -133 137
-200 187 -41 31 -149 170 -150 193 0 12 64 81 95 101 21 14 25 13 53 -16 21
-20 40 -30 61 -30 39 0 41 21 6 62 -14 16 -25 33 -25 38 0 16 124 122 288 248
92 70 216 175 277 234 60 59 128 121 150 138 23 18 78 90 130 168 94 142 139
242 118 263 -8 8 -30 -14 -84 -87z m-1464 -1283 c8 -16 20 -74 26 -128 7 -68
19 -118 40 -165 16 -36 29 -69 29 -72 0 -3 -15 -6 -34 -6 -19 0 -47 -4 -61
-10 -26 -10 -27 -8 -65 73 -46 97 -70 186 -70 254 l0 50 53 15 c28 9 55 16 59
17 4 0 14 -12 23 -28z m199 -1007 c11 -27 7 -37 -9 -24 -16 14 -20 40 -6 40 5
0 12 -7 15 -16z m54 -92 c6 -18 -15 -14 -22 4 -4 10 -1 14 6 12 6 -2 14 -10
16 -16z m113 -112 c32 -32 80 -70 107 -84 26 -13 55 -32 63 -42 13 -15 12 -16
-11 -9 -74 23 -150 79 -211 156 -47 60 -12 46 52 -21z"/>
<path d="M9116 3231 c-6 -10 27 -41 70 -66 16 -9 48 -42 70 -72 21 -30 68 -92
103 -137 35 -44 117 -156 183 -248 73 -103 137 -182 166 -205 26 -21 90 -81
142 -134 52 -53 129 -121 170 -152 98 -71 126 -103 193 -217 30 -52 74 -113
97 -135 23 -22 59 -65 79 -95 20 -30 39 -59 42 -64 9 -12 53 20 208 153 125
108 152 143 82 107 -16 -9 -65 -45 -108 -81 -85 -71 -131 -92 -148 -68 -5 9
-37 53 -70 99 -33 46 -78 110 -100 142 -48 69 -416 429 -509 498 -36 26 -77
64 -90 83 -13 20 -54 70 -91 111 -37 41 -79 93 -94 115 -31 48 -254 284 -318
338 -45 37 -67 45 -77 28z"/>
<path d="M9261 2870 c-30 -11 -64 -17 -76 -14 -16 4 -24 0 -27 -13 -3 -12 -22
-24 -49 -32 -24 -7 -123 -44 -220 -82 -134 -53 -185 -78 -213 -105 -20 -19
-36 -39 -36 -44 0 -18 28 -10 59 15 43 37 187 103 425 194 115 45 211 81 213
81 2 0 1 5 -2 10 -8 13 -10 13 -74 -10z"/>
<path d="M9672 2809 c2 -7 10 -15 17 -17 8 -3 12 1 9 9 -2 7 -10 15 -17 17 -8
3 -12 -1 -9 -9z"/>
<path d="M2138 2684 c-24 -28 -37 -66 -44 -139 -5 -50 -11 -66 -25 -70 -37
-12 -116 -113 -148 -189 -17 -41 -31 -79 -31 -85 0 -27 138 -121 179 -121 28
0 75 -43 137 -126 61 -84 112 -124 190 -154 98 -36 200 -17 241 46 14 21 12
22 -79 39 -157 28 -163 31 -228 109 -81 100 -94 110 -195 157 -131 60 -145 72
-145 122 0 48 26 97 73 136 18 14 52 44 76 67 41 38 44 44 43 90 -1 27 -7 69
-14 93 -12 41 -14 42 -30 25z"/>
<path d="M2448 2598 c-4 -33 -58 -64 -140 -82 -101 -23 -107 -28 -75 -60 49
-49 163 -23 206 48 25 41 40 116 23 116 -6 0 -12 -10 -14 -22z"/>
<path d="M12073 2465 c-12 -8 -44 -57 -70 -108 -27 -51 -68 -118 -91 -149 -44
-60 -51 -78 -28 -78 25 0 65 48 104 126 46 91 76 122 126 134 32 7 39 5 51
-13 12 -19 12 -34 -1 -107 -11 -70 -55 -224 -81 -290 -5 -13 -4 -13 11 -1 32
27 57 92 86 225 15 72 35 145 44 161 21 39 21 39 -15 80 -26 30 -38 35 -73 35
-23 0 -51 -7 -63 -15z"/>
<path d="M12257 2392 c-11 -12 -17 -36 -17 -68 0 -90 -62 -298 -131 -442 -74
-154 -204 -252 -354 -267 -121 -13 -326 -94 -371 -148 -21 -25 -24 -36 -18
-76 l6 -47 -58 -41 c-74 -51 -321 -175 -341 -171 -9 2 -22 13 -30 25 -14 21
-13 22 25 34 22 6 69 34 103 61 35 27 76 57 91 66 40 24 34 36 -13 29 -25 -3
-66 -23 -107 -50 -37 -25 -85 -50 -107 -56 -38 -10 -41 -9 -78 27 -60 57 -78
89 -96 160 -17 69 -34 88 -45 50 -23 -88 13 -198 91 -276 29 -29 53 -58 53
-63 0 -19 32 -74 54 -91 30 -25 61 -22 120 11 28 16 88 46 134 65 99 42 184
99 236 156 35 39 37 45 34 98 l-3 56 40 23 c22 12 82 32 134 45 l93 22 18 -22
c29 -35 51 -29 48 14 -2 24 2 39 12 44 46 25 132 52 178 57 l52 6 -6 32 c-5
31 -2 36 73 99 62 52 114 87 151 102 1 1 7 38 12 84 12 105 40 163 91 193 21
12 39 27 39 33 0 5 -13 20 -29 31 -26 20 -28 26 -28 90 -1 68 -15 123 -31 123
-5 0 -16 -8 -25 -18z"/>
<path d="M9135 2379 c-4 -6 -5 -13 -2 -16 7 -7 27 6 27 18 0 12 -17 12 -25 -2z"/>
<path d="M11758 2113 c-45 -4 -48 -6 -59 -43 -10 -32 -9 -47 2 -77 13 -32 19
-38 44 -38 28 0 30 3 35 45 5 41 8 45 35 48 31 4 54 26 55 55 0 18 -4 18 -112
10z"/>
<path d="M1785 1964 c-66 -74 -151 -161 -190 -194 -72 -62 -191 -140 -212
-140 -7 0 -37 -22 -67 -49 -65 -59 -91 -69 -115 -47 -16 15 -28 15 -92 6 -217
-32 -225 -35 -293 -114 -26 -31 -73 -76 -105 -101 -32 -25 -66 -61 -76 -80
l-19 -33 31 -35 c17 -20 68 -90 113 -156 75 -112 157 -201 184 -201 6 0 25 9
41 20 17 11 38 20 48 20 26 0 53 -69 67 -170 15 -117 24 -140 71 -186 23 -21
61 -67 86 -101 70 -98 150 -151 298 -199 82 -27 55 -31 -60 -9 -44 9 -98 15
-120 14 -25 -2 -51 4 -68 16 -22 14 -39 16 -87 11 -38 -4 -67 -3 -81 4 -33 18
-163 25 -199 10 -23 -10 -36 -10 -59 -1 -22 10 -39 10 -71 1 -35 -9 -48 -9
-76 5 -19 9 -39 13 -45 9 -6 -3 -34 -12 -62 -20 -49 -13 -53 -12 -75 9 -19 18
-37 23 -95 25 -40 1 -121 7 -180 12 -68 6 -117 6 -133 0 -14 -6 -49 -10 -79
-10 -49 0 -53 -2 -60 -27 -5 -21 -1 -31 16 -44 37 -27 85 -38 124 -28 29 8 39
6 65 -12 26 -20 34 -21 67 -11 21 6 75 13 121 15 64 3 85 0 95 -11 15 -19 86
-52 112 -52 11 0 31 6 45 13 22 12 27 11 48 -11 24 -25 28 -25 114 -1 45 12
49 12 79 -10 l31 -23 81 38 c72 33 89 38 161 38 56 1 97 -5 132 -18 43 -16 57
-17 84 -7 28 9 36 8 53 -6 32 -30 149 -24 214 10 61 31 63 32 63 12 0 -8 5
-15 10 -15 6 0 10 6 10 14 0 23 11 25 85 10 105 -20 231 -18 282 5 63 29 78
59 64 128 -6 31 -11 74 -11 94 0 36 -3 40 -50 64 -27 14 -107 39 -177 55 -182
43 -190 46 -202 81 -13 37 -34 46 -66 25 -27 -18 -34 -46 -10 -46 8 0 26 -18
41 -41 32 -51 81 -74 191 -89 114 -15 181 -37 209 -67 31 -33 30 -48 -1 -69
-40 -26 -141 -19 -305 21 -80 19 -156 37 -168 40 -38 9 -15 -15 35 -37 25 -11
83 -23 129 -28 85 -7 128 -25 102 -41 -26 -17 -105 -9 -208 21 -58 16 -115 30
-127 30 -12 0 -60 21 -106 46 -68 37 -96 60 -143 117 -144 175 -154 194 -154
310 0 73 -15 121 -56 175 -27 35 -79 72 -102 72 -23 0 -24 -29 -3 -56 26 -33
27 -54 4 -54 -34 0 -82 39 -140 115 -84 112 -143 195 -143 204 0 11 73 61 88
61 7 0 12 -7 12 -15 0 -8 13 -29 29 -47 15 -18 40 -56 55 -85 22 -45 49 -73
70 -73 9 0 -7 33 -56 114 -49 81 -68 130 -68 178 0 42 57 66 196 83 63 8 124
20 135 26 26 13 33 6 48 -51 13 -48 58 -121 79 -128 18 -6 15 24 -9 99 -12 37
-19 74 -16 83 8 20 83 57 187 91 79 26 91 34 169 109 186 179 185 178 244 293
90 176 82 176 -78 -3z"/>
<path d="M2133 1857 c-21 -18 -102 -82 -180 -141 -180 -137 -233 -188 -314
-306 -40 -58 -77 -100 -95 -109 -16 -8 -46 -29 -67 -47 -20 -19 -46 -34 -57
-34 -21 0 -26 -16 -11 -38 4 -8 37 -24 72 -37 57 -20 64 -26 67 -52 3 -26 0
-29 -25 -28 -41 0 -36 -27 7 -41 29 -10 35 -16 35 -40 0 -25 -6 -31 -42 -44
-24 -8 -43 -18 -43 -23 0 -5 18 -16 40 -24 41 -16 52 -41 28 -60 -7 -6 -40
-13 -73 -17 -66 -7 -98 -27 -77 -48 14 -14 184 -18 215 -6 15 6 17 22 17 130
-1 68 -7 159 -15 203 l-14 79 39 51 c21 27 63 80 93 117 30 37 63 84 72 105 9
21 32 49 51 61 19 12 58 55 88 95 29 39 80 93 113 119 52 41 143 143 143 161
0 17 -33 4 -67 -26z m-589 -632 c-4 -8 -10 -15 -15 -15 -5 0 -9 7 -9 15 0 8 7
15 15 15 9 0 12 -6 9 -15z"/>
<path d="M3140 1752 c0 -38 174 -449 230 -544 25 -41 45 -93 55 -136 8 -38 26
-96 40 -128 15 -33 35 -102 45 -154 17 -85 18 -99 5 -135 -20 -57 -19 -93 12
-254 l28 -144 51 -38 c52 -38 104 -93 104 -110 0 -5 9 -18 20 -29 31 -31 91
-26 159 12 31 18 108 56 172 84 181 79 214 111 203 197 -6 42 -5 45 30 66 20
13 73 29 119 38 45 8 98 23 117 33 19 10 61 25 93 33 92 24 301 192 379 305
16 23 37 42 46 42 9 0 25 7 36 15 15 11 17 21 12 50 -5 26 -1 52 17 98 14 34
28 78 32 97 4 21 20 46 38 61 l31 26 -21 49 c-11 27 -26 74 -33 104 -29 128
-50 149 -130 132 -26 -6 -42 -4 -65 10 -67 40 -108 11 -150 -110 -56 -160 -66
-180 -131 -251 -73 -81 -86 -125 -36 -119 22 2 29 10 37 44 6 22 28 61 50 86
23 26 58 88 83 144 23 55 50 109 60 120 16 20 21 21 61 10 42 -11 44 -14 67
-75 l23 -64 -24 -86 c-13 -47 -35 -129 -50 -181 -22 -79 -33 -102 -65 -135
-36 -37 -66 -92 -56 -102 12 -12 49 12 84 55 36 43 42 61 82 227 36 148 43
198 44 282 1 57 4 103 7 103 28 0 54 -141 44 -238 -14 -133 -111 -365 -186
-447 -53 -57 -172 -142 -266 -189 -71 -36 -89 -40 -303 -66 -96 -11 -179 -46
-204 -85 -18 -27 -15 -30 29 -37 11 -2 21 -12 23 -24 5 -35 -79 -98 -238 -179
l-148 -75 -26 21 c-14 11 -26 30 -26 43 0 35 67 90 177 145 55 29 107 59 114
68 28 32 -54 3 -205 -73 l-150 -76 -32 34 c-38 42 -65 111 -92 235 l-20 92 27
5 c14 3 55 10 90 16 127 22 251 87 251 131 0 19 -4 21 -42 17 -24 -3 -77 -21
-118 -40 -41 -20 -93 -38 -116 -42 l-40 -6 -22 93 c-12 50 -22 101 -22 113 0
53 -332 769 -381 819 -16 16 -29 24 -29 17z"/>
<path d="M3530 1696 c0 -29 89 -323 122 -406 55 -135 126 -243 237 -359 l44
-46 13 32 c19 46 31 48 63 12 31 -34 51 -32 51 5 0 51 51 62 75 16 20 -39 52
-41 57 -2 3 26 5 27 52 25 32 -1 55 -8 67 -20 17 -17 18 -24 7 -75 -13 -63
-10 -73 21 -63 46 14 68 124 36 184 -18 35 -51 47 -166 63 -101 13 -183 3
-253 -32 -38 -19 -42 -19 -51 -4 -5 10 -33 51 -61 93 -27 42 -85 143 -128 225
-59 113 -81 167 -92 223 -16 85 -25 106 -56 127 -28 20 -38 20 -38 2z"/>
<path d="M7978 1593 c-10 -21 -24 -30 -55 -37 -24 -6 -43 -13 -43 -18 0 -6 26
-25 58 -43 1 -1 -5 -18 -13 -38 -13 -32 -20 -37 -48 -37 -45 0 -65 -14 -48
-34 7 -8 21 -18 32 -21 22 -7 25 -33 5 -60 -14 -19 -15 -19 -82 2 -48 16 -72
19 -85 12 -19 -10 -26 -29 -11 -29 4 0 32 -22 61 -49 l54 -50 -22 -28 -23 -28
26 -22 c30 -25 32 -40 10 -71 -23 -33 -7 -48 22 -21 30 28 47 81 39 118 -5 25
1 36 51 89 48 50 60 71 77 128 11 38 21 96 22 129 2 33 6 68 10 77 18 46 -16
75 -37 31z"/>
<path d="M4466 1005 c-3 -9 -6 -45 -6 -80 0 -60 1 -63 27 -69 32 -9 43 6 42
54 -1 74 -45 140 -63 95z"/>
<path d="M4564 984 c3 -9 6 -18 6 -20 0 -2 7 -4 15 -4 8 0 15 9 15 20 0 14 -7
20 -21 20 -15 0 -19 -4 -15 -16z"/>
<path d="M1500 670 c-30 -30 -25 -40 21 -40 55 0 107 29 93 52 -11 17 -94 8
-114 -12z"/>
<path d="M7830 258 c-14 -6 -91 -14 -171 -17 -116 -5 -151 -10 -173 -24 -44
-29 -28 -42 58 -43 77 -2 77 -2 115 -43 21 -22 45 -41 55 -41 9 0 43 14 76 30
33 17 67 30 76 30 10 0 38 -12 63 -27 44 -26 51 -27 166 -24 74 2 132 8 153
17 30 12 37 12 72 -6 52 -26 64 -25 162 11 67 26 97 31 157 31 40 -1 82 3 92
8 13 8 34 5 76 -10 34 -12 83 -20 121 -20 57 0 68 -3 99 -30 18 -16 40 -30 47
-30 7 0 39 14 71 31 l59 31 55 -16 c110 -33 124 -35 167 -24 32 9 55 9 95 0
48 -11 56 -10 107 13 30 14 55 25 57 25 1 0 14 -11 29 -25 33 -31 38 -31 105
0 l54 26 29 -31 c16 -18 34 -29 41 -26 82 34 119 40 175 28 45 -9 65 -9 91 1
32 11 34 11 60 -21 33 -38 64 -41 86 -8 9 13 34 36 56 50 l40 27 29 -21 29
-21 70 21 c59 18 76 20 105 10 30 -9 42 -8 95 15 80 33 95 32 121 -10 12 -19
27 -35 33 -36 61 -6 168 2 197 14 19 8 76 18 125 22 50 3 112 11 138 18 34 8
50 8 55 1 14 -21 60 -25 96 -8 33 16 36 16 71 -5 45 -26 61 -26 105 1 34 21
96 27 307 31 42 1 78 -19 92 -49 9 -21 13 -22 41 -12 25 8 49 7 111 -7 83 -17
95 -16 225 19 44 12 58 12 90 1 47 -17 140 -19 182 -4 44 15 31 29 -26 29 -26
0 -93 7 -150 17 -96 15 -106 15 -156 0 -70 -22 -84 -22 -148 8 -29 14 -71 25
-93 25 -22 0 -60 9 -84 20 -53 25 -67 25 -160 0 -65 -17 -77 -17 -95 -4 -24
16 -64 18 -100 4 -19 -7 -36 -4 -70 11 -37 16 -52 18 -88 10 -26 -6 -59 -6
-81 -1 -23 5 -50 5 -65 -1 -15 -5 -79 -13 -143 -18 -64 -5 -125 -13 -135 -19
-14 -7 -25 -6 -39 4 -14 10 -41 14 -88 13 -58 -2 -71 1 -91 20 l-24 22 -92
-17 c-58 -10 -112 -14 -146 -10 -31 4 -55 2 -59 -4 -9 -15 -47 -12 -69 5 -25
19 -78 19 -141 -1 -39 -12 -74 -14 -160 -9 -85 5 -124 3 -171 -9 -82 -21 -107
-20 -130 5 -14 16 -25 19 -49 14 -63 -14 -137 -16 -163 -6 -21 9 -40 7 -88 -8
-37 -11 -67 -15 -75 -10 -8 5 -45 6 -84 2 -53 -4 -80 -1 -109 11 -52 22 -70
20 -181 -11 -79 -22 -98 -24 -117 -14 -13 6 -36 19 -51 27 -36 20 -172 20
-295 0 -64 -11 -101 -12 -126 -5 -26 7 -61 5 -128 -6 -69 -12 -103 -14 -133
-6 -77 19 -103 20 -236 6 l-134 -13 -38 25 c-46 29 -92 37 -127 21z"/>
<path d="M2475 194 c-29 -11 -62 -13 -125 -9 -75 5 -89 4 -117 -14 -54 -34
-37 -73 21 -51 24 9 32 7 58 -15 35 -30 57 -31 138 -6 l61 19 43 -24 c23 -13
63 -27 89 -30 43 -6 46 -5 61 25 27 52 78 53 138 3 31 -26 95 -41 203 -46 22
-2 58 -10 79 -20 59 -27 134 -31 180 -12 32 13 45 14 72 4 27 -9 37 -9 46 0 7
7 45 12 98 12 72 0 90 3 103 18 26 29 21 38 -35 62 -73 32 -111 34 -209 16
-107 -20 -157 -20 -202 -1 -20 8 -48 15 -62 15 -14 0 -51 10 -83 22 -50 19
-78 22 -222 23 -104 0 -175 5 -193 13 -37 16 -92 14 -142 -4z"/>
<path d="M5775 169 c-22 -5 -49 -17 -60 -25 -33 -25 -1 -36 80 -28 90 10 178
9 395 -1 130 -6 182 -5 198 4 67 36 -4 48 -313 54 -152 3 -277 2 -300 -4z"/>
<path d="M7253 165 c-19 -8 -33 -21 -33 -31 0 -13 6 -15 33 -10 17 4 49 9 70
13 43 7 47 15 12 31 -32 15 -42 15 -82 -3z"/>
<path d="M4363 159 c-110 -8 -184 -33 -202 -67 -10 -18 -6 -20 82 -27 51 -4
118 -7 149 -6 39 2 65 -3 80 -13 29 -21 84 -20 139 1 33 12 81 17 194 18 83 1
160 5 173 9 22 7 23 9 7 27 -22 24 -63 36 -148 43 -37 4 -78 11 -92 16 -18 7
-42 4 -87 -10 -79 -25 -90 -25 -138 0 -22 11 -43 19 -47 19 -4 -1 -54 -5 -110
-10z"/>
<path d="M5235 150 c-116 -15 -150 -24 -153 -43 -4 -21 49 -22 293 -6 168 12
220 24 175 41 -34 13 -238 18 -315 8z"/>
</g>
</svg>
