<?xml version="1.0" standalone="no"?>
<!DOCTYPE svg PUBLIC "-//W3C//DTD SVG 20010904//EN"
 "http://www.w3.org/TR/2001/REC-SVG-20010904/DTD/svg10.dtd">
<svg version="1.0" xmlns="http://www.w3.org/2000/svg"
 width="846.000000pt" height="1280.000000pt" viewBox="0 0 846.000000 1280.000000"
 preserveAspectRatio="xMidYMid meet">
<metadata>
Created by potrace 1.15, written by Peter Selinger 2001-2017
</metadata>
<g transform="translate(0.000000,1280.000000) scale(0.100000,-0.100000)"
fill="#004c42" stroke="none">
<path d="M5862 12790 c-152 -9 -258 -25 -287 -44 -11 -7 -42 -21 -70 -32 -68
-25 -226 -145 -332 -251 -49 -48 -146 -139 -215 -200 -70 -62 -169 -159 -220
-216 -81 -90 -97 -114 -126 -188 -18 -46 -32 -100 -32 -120 0 -76 76 -122 165
-100 47 12 314 142 370 180 41 28 55 26 55 -8 0 -19 13 -43 38 -72 l39 -43
-60 -91 c-76 -115 -108 -186 -114 -255 -4 -46 -2 -59 16 -77 31 -32 78 -38
152 -17 35 10 84 18 108 18 46 1 55 -7 66 -56 3 -15 19 -41 35 -58 17 -17 30
-38 30 -48 0 -21 -33 -78 -65 -112 -29 -30 -55 -90 -55 -124 0 -34 39 -76 70
-77 14 0 139 6 277 12 139 7 256 9 260 6 3 -4 -7 -21 -23 -38 -28 -29 -29 -33
-26 -116 1 -56 -3 -106 -13 -139 -10 -36 -13 -71 -9 -108 6 -51 4 -58 -23 -93
-124 -157 -155 -403 -72 -564 l30 -57 -7 -143 c-4 -86 -2 -192 5 -264 7 -66
18 -268 26 -448 23 -524 54 -649 203 -825 30 -35 52 -65 50 -67 -1 -2 -23 1
-48 5 -54 11 -134 13 -143 4 -4 -4 9 -24 28 -46 19 -21 35 -42 35 -47 0 -5
-11 -16 -25 -25 -14 -9 -25 -25 -25 -35 0 -25 -166 -273 -339 -506 -77 -104
-141 -196 -141 -202 0 -25 40 -12 75 25 64 65 166 184 224 262 32 41 81 106
109 143 29 38 73 104 98 147 65 114 142 177 221 181 15 1 49 -1 76 -6 34 -5
47 -4 47 5 0 15 42 9 47 -7 5 -14 -66 -57 -124 -75 -24 -7 -43 -19 -43 -25 0
-19 24 -16 80 8 53 23 84 20 78 -8 -4 -22 -66 -52 -208 -101 -155 -55 -180
-65 -180 -75 0 -4 17 -5 38 -1 57 10 232 63 264 80 16 8 33 12 38 9 17 -11 -2
-34 -53 -66 -73 -45 -45 -47 59 -4 92 38 139 42 158 13 14 -23 9 -26 -69 -37
-37 -6 -73 -15 -78 -20 -8 -8 -7 -11 3 -11 40 0 -13 -12 -148 -35 -83 -14
-164 -30 -179 -36 -26 -10 -27 -11 -9 -21 29 -16 214 2 379 38 15 3 27 1 27
-4 0 -9 -78 -47 -200 -97 -103 -42 -107 -60 -6 -30 102 31 85 8 -19 -25 -132
-43 -243 -100 -194 -100 6 0 68 18 136 40 69 22 135 40 146 40 l21 0 -20 -14
c-11 -8 -51 -27 -89 -42 -37 -15 -88 -43 -114 -63 -46 -35 -100 -60 -134 -61
-43 -1 -170 -71 -155 -85 2 -2 93 25 202 61 244 79 271 75 94 -16 -42 -22 -79
-44 -82 -49 -12 -19 11 -19 53 0 24 11 47 17 50 13 10 -10 -41 -46 -118 -81
-43 -20 -75 -42 -78 -53 -6 -22 -124 -74 -150 -66 -10 4 -34 19 -53 35 l-34
29 37 41 c20 23 37 50 37 62 0 28 -23 69 -57 101 l-28 27 -68 -59 c-37 -33
-78 -62 -90 -64 -12 -3 -65 -7 -117 -9 -98 -5 -150 -20 -150 -44 0 -7 12 -18
26 -24 l27 -10 -24 -25 c-13 -14 -61 -50 -106 -80 -76 -50 -119 -91 -108 -102
7 -7 126 63 215 127 68 48 93 61 123 61 24 0 37 -5 37 -13 0 -14 -62 -104
-145 -210 -25 -32 -45 -65 -45 -73 0 -17 27 -19 33 -1 5 14 2 17 49 -53 42
-63 68 -120 68 -150 0 -33 -17 -23 -24 15 -12 64 -25 36 -19 -41 5 -63 4 -76
-8 -72 -17 6 -48 82 -48 121 -1 16 -6 38 -12 50 -21 39 -86 112 -117 130 -44
25 -50 4 -11 -40 17 -20 40 -55 50 -78 34 -77 47 -295 17 -295 -16 0 -36 62
-58 176 -27 143 -41 194 -51 194 -5 0 -9 -15 -9 -33 0 -18 -5 -38 -11 -44 -16
-16 -8 -410 9 -440 11 -21 10 -23 -8 -23 -59 0 -98 237 -64 384 5 22 4 28 -7
24 -17 -6 -48 -100 -48 -149 -1 -27 -10 -45 -36 -72 -19 -20 -35 -43 -35 -52
0 -18 16 -20 23 -2 8 22 27 -43 27 -96 0 -59 -15 -95 -25 -62 -3 11 -17 41
-30 68 -19 36 -25 62 -25 115 l0 67 -23 -27 c-26 -31 -81 -61 -105 -56 -13 2
-2 20 44 69 85 91 91 102 113 209 17 85 35 140 96 288 19 45 15 63 -10 42 -25
-21 -93 -167 -121 -259 -40 -133 -88 -215 -172 -298 -41 -40 -72 -78 -69 -85
6 -19 105 -15 144 5 69 36 47 -7 -88 -176 -44 -54 -95 -128 -113 -165 -19 -38
-51 -88 -71 -112 -21 -25 -65 -81 -98 -125 -108 -143 -169 -215 -183 -215 -20
0 -144 -160 -279 -360 -197 -292 -315 -456 -589 -823 -436 -584 -554 -761
-451 -678 19 16 19 15 4 -9 -9 -14 -27 -27 -40 -28 -13 -2 -30 -9 -38 -15 -32
-27 -221 -271 -306 -397 -85 -126 -243 -349 -353 -500 -26 -36 -90 -126 -142
-201 -247 -354 -538 -736 -631 -829 -100 -101 -189 -223 -189 -259 0 -15 -6
-21 -21 -21 -13 0 -53 -32 -104 -83 -45 -46 -120 -109 -166 -140 l-84 -56
-125 9 c-166 12 -406 12 -452 0 -35 -10 -56 -34 -38 -45 16 -10 291 -30 405
-30 100 0 117 3 193 33 102 40 103 26 1 -44 -222 -151 -509 -188 -627 -81 -23
21 -29 51 -12 62 6 3 9 25 9 48 -1 23 2 53 6 66 8 23 8 23 -18 7 -35 -23 -93
-110 -113 -169 -19 -55 -14 -119 10 -146 25 -28 83 -42 200 -48 90 -5 108 -4
104 8 -3 10 -31 16 -93 21 -84 7 -104 12 -94 22 3 3 88 8 189 12 206 7 271 19
369 69 142 71 260 174 394 345 50 63 123 151 162 195 218 245 438 545 420 575
-3 4 8 10 23 13 19 4 50 34 107 104 44 54 145 174 224 268 79 93 188 235 241
315 53 80 139 201 190 270 51 68 111 158 133 200 47 90 111 181 407 580 124
168 282 383 350 478 68 96 140 188 159 205 20 17 47 49 62 71 14 23 59 77 99
121 101 111 268 314 433 525 32 41 79 96 104 123 25 26 55 68 68 92 27 51 258
361 380 510 45 55 94 119 110 143 30 46 49 52 65 23 18 -34 41 -51 69 -51 34
0 51 18 60 63 6 29 10 32 53 37 41 5 56 16 154 106 60 55 128 115 152 133 30
24 52 53 75 104 30 65 133 195 144 183 2 -2 -3 -18 -11 -35 -23 -43 -20 -58 5
-35 23 20 69 109 69 134 0 8 14 39 31 69 l31 53 44 -43 c39 -38 44 -41 44 -21
0 12 -34 72 -76 133 -41 61 -73 113 -70 116 3 3 27 -9 55 -27 37 -25 55 -44
71 -81 11 -27 23 -49 26 -49 2 0 21 7 41 15 55 23 63 20 56 -20 -9 -53 10 -43
63 33 63 89 114 142 137 142 17 0 18 -5 13 -35 -4 -20 -16 -56 -27 -81 -52
-122 -108 -336 -134 -509 -29 -194 -41 -235 -77 -259 -12 -8 -81 -26 -153 -40
-173 -35 -224 -52 -237 -82 -6 -13 -8 -27 -5 -31 4 -3 40 1 80 10 83 18 259
41 332 42 28 1 64 8 80 17 17 8 55 23 85 33 30 10 85 33 123 52 37 18 67 29
67 24 0 -5 -27 -39 -60 -75 -33 -37 -60 -73 -60 -81 0 -21 32 -35 79 -35 55 0
91 -15 91 -39 0 -36 -23 -73 -125 -202 -110 -141 -169 -231 -163 -251 3 -8 56
37 130 110 l125 122 11 -164 c6 -91 15 -173 21 -183 8 -14 10 -9 11 27 0 25 5
52 10 60 23 35 39 -47 21 -109 -7 -25 -15 -32 -70 -52 -78 -29 -234 -205 -346
-388 -63 -103 -245 -465 -245 -487 0 -37 24 -3 85 119 77 151 197 337 312 482
127 158 242 270 260 252 9 -10 -17 -44 -111 -147 -158 -171 -281 -337 -374
-501 -71 -125 -29 -84 128 126 150 200 332 420 362 436 11 6 24 7 28 2 5 -4
14 -46 20 -93 6 -47 24 -155 40 -241 31 -164 37 -229 20 -229 -19 0 -41 80
-80 300 -11 63 -25 129 -30 145 -19 57 -1 -175 25 -330 27 -161 30 -195 16
-195 -5 0 -17 34 -26 75 -9 41 -18 75 -20 75 -1 0 0 -40 3 -89 l5 -89 -139
-149 c-174 -185 -287 -316 -439 -508 -150 -190 -140 -175 -126 -175 7 0 44 33
83 73 80 81 436 467 548 595 46 51 77 79 83 73 5 -5 19 -79 32 -164 13 -85 31
-193 41 -241 22 -104 21 -106 -81 -130 -233 -57 -527 -305 -641 -541 -34 -70
-42 -99 -25 -93 5 1 38 46 73 98 71 106 167 196 310 290 99 66 319 190 336
190 7 0 14 -11 18 -25 14 -56 -1 -75 -191 -248 -27 -25 -47 -49 -43 -52 16
-17 212 121 223 156 13 40 34 19 55 -53 32 -113 49 -154 70 -173 11 -10 20
-24 20 -31 0 -8 17 -16 40 -20 39 -6 40 -7 18 -18 -13 -6 -24 -22 -26 -34 -2
-12 -6 -22 -9 -22 -2 0 -30 22 -61 50 -30 27 -58 47 -61 44 -9 -9 184 -191
211 -199 35 -11 78 -56 78 -82 0 -13 4 -23 10 -23 28 0 151 -142 137 -157 -13
-12 -89 49 -103 83 -8 19 -22 38 -32 41 -9 3 -34 22 -54 41 -42 39 -55 39 -37
-2 7 -14 9 -29 5 -33 -12 -12 -40 12 -66 58 -35 62 -39 26 -6 -47 14 -31 26
-60 26 -65 0 -5 -18 -21 -40 -35 -39 -26 -55 -27 -120 -9 l-25 8 22 -22 c27
-25 21 -45 -17 -61 -20 -8 -34 -9 -48 -1 -28 15 -31 14 -25 -8 3 -13 -5 -29
-22 -47 -22 -22 -33 -26 -66 -21 -33 4 -39 2 -39 -14 0 -42 -109 -55 -169 -18
-47 28 -56 20 -20 -19 l30 -32 -79 0 c-124 0 -172 9 -172 32 0 11 -9 22 -20
25 -18 5 -91 88 -149 169 -13 19 -30 34 -37 34 -7 0 -19 10 -25 22 -7 13 -18
29 -26 36 -15 16 -17 58 -3 67 11 7 51 -14 182 -97 47 -30 119 -66 160 -79 64
-21 91 -24 228 -24 99 0 162 4 175 12 19 11 19 12 -5 17 -14 2 -81 7 -150 10
-142 6 -211 22 -325 75 -104 49 -262 147 -275 171 -7 13 -5 31 5 60 19 55 19
57 -6 35 -11 -11 -36 -50 -56 -87 -19 -37 -39 -68 -44 -68 -21 0 -41 51 -36
91 l5 41 -22 -21 c-20 -19 -24 -20 -36 -7 -10 12 -10 26 0 66 15 63 7 74 -25
35 -29 -36 -32 -19 -8 47 22 61 9 73 -29 28 l-29 -35 7 30 c3 17 18 56 31 87
32 73 25 96 -13 41 -38 -55 -59 -57 -50 -5 18 101 38 145 87 197 47 50 53 73
14 59 -15 -6 -16 -4 -4 17 6 13 15 31 19 39 4 8 31 29 60 45 60 34 63 50 8 49
-21 0 -38 3 -38 7 0 19 32 145 42 163 6 12 30 42 54 68 24 26 44 52 44 58 0 5
-13 10 -29 10 -41 0 -46 14 -22 54 12 18 21 40 21 47 0 8 12 32 26 52 29 43
26 56 -11 39 -23 -11 -25 -9 -25 11 0 32 23 62 86 108 30 22 54 44 54 49 0 19
-38 9 -79 -21 -24 -17 -45 -29 -47 -26 -2 2 8 28 24 58 20 39 45 67 89 99 59
43 78 70 49 70 -7 0 -30 -13 -51 -30 -45 -36 -55 -37 -55 -7 0 39 54 110 126
167 38 29 73 57 79 62 5 4 -5 8 -22 8 -19 0 -43 -10 -61 -25 -27 -22 -62 -34
-62 -20 0 3 38 59 85 126 134 191 157 233 150 271 -5 27 1 44 31 93 20 33 54
90 74 126 20 37 60 95 89 130 28 35 51 67 51 72 0 11 -33 -8 -50 -28 -19 -23
-68 -47 -74 -36 -11 17 4 36 65 90 84 75 90 91 51 140 -20 25 -32 51 -32 70 0
21 -5 31 -15 31 -32 0 -48 -77 -20 -100 8 -7 15 -26 15 -43 0 -26 -12 -42 -65
-92 l-65 -60 0 -69 c0 -68 -1 -71 -62 -165 -168 -257 -350 -688 -424 -1001
-14 -58 -36 -130 -50 -161 -21 -46 -23 -60 -14 -84 14 -38 -6 -142 -69 -361
-67 -233 -75 -272 -75 -409 -1 -99 2 -124 17 -145 35 -50 162 -248 179 -279 9
-17 28 -35 42 -41 13 -5 27 -18 31 -29 3 -11 35 -47 71 -79 47 -44 64 -66 64
-85 0 -20 6 -26 27 -29 32 -4 38 -17 20 -42 -17 -23 -41 -16 -92 24 -42 33
-55 37 -55 16 0 -22 78 -84 150 -119 l65 -32 270 0 270 0 60 -28 c33 -15 92
-47 130 -71 39 -24 120 -71 180 -106 125 -71 302 -190 330 -220 24 -26 11 -39
-15 -15 -29 26 -35 12 -10 -23 56 -76 25 -428 -66 -756 -34 -122 -65 -195
-112 -263 -21 -32 -46 -70 -56 -85 -9 -16 -32 -35 -52 -43 -20 -8 -49 -26 -66
-40 -16 -14 -34 -25 -39 -25 -9 0 -261 -120 -438 -208 -71 -35 -100 -62 -67
-62 27 0 108 31 216 82 58 28 121 57 140 65 l35 15 -33 -35 c-44 -45 -100 -75
-267 -142 -133 -54 -139 -55 -234 -55 -114 0 -182 -17 -236 -60 -21 -16 -48
-30 -61 -30 -36 0 -67 -47 -61 -93 7 -52 28 -72 95 -91 74 -21 83 -27 107 -77
26 -55 42 -59 60 -15 9 20 19 36 23 36 17 0 143 -39 185 -58 33 -15 47 -27 47
-41 0 -21 43 -61 66 -61 7 0 20 13 28 29 14 27 19 29 106 35 84 7 92 9 100 32
12 30 28 30 74 -1 20 -14 39 -25 42 -25 2 0 21 11 42 25 48 32 144 59 199 57
23 -1 75 -16 117 -32 47 -19 92 -30 123 -30 64 0 315 63 376 95 27 14 61 25
76 25 23 0 30 -7 48 -49 11 -27 32 -57 47 -66 62 -41 192 -24 286 35 25 16 62
36 83 45 28 12 39 23 44 45 7 35 20 39 25 8 6 -42 26 -30 33 19 10 76 15 94
25 88 6 -3 10 -18 10 -33 0 -37 11 -72 21 -72 5 0 9 14 9 30 0 37 13 39 28 5
21 -45 33 -33 45 45 4 25 4 25 12 2 4 -12 11 -22 15 -22 15 0 20 32 14 86 -4
34 -3 54 4 54 12 0 22 -23 23 -53 0 -21 1 -21 10 2 16 40 30 213 20 246 l-8
30 -12 -28 c-6 -16 -11 -36 -11 -45 0 -9 -5 -24 -11 -32 -8 -11 -9 -4 -6 27 6
49 61 173 76 173 7 0 11 -53 11 -152 1 -117 3 -148 12 -133 6 11 21 31 33 45
27 29 41 77 50 170 3 36 8 77 11 92 5 23 1 30 -21 38 -14 5 -38 23 -52 40 -13
16 -31 30 -38 30 -21 0 -25 25 -25 143 0 114 11 180 33 194 6 4 36 10 67 14
67 10 101 42 126 121 21 68 30 249 15 305 -18 67 -70 133 -131 167 -51 29 -62
31 -150 31 -52 0 -114 -4 -138 -8 -40 -8 -44 -7 -49 13 -5 17 -11 20 -32 15
-88 -19 -341 173 -404 308 l-25 52 11 203 11 202 28 0 c30 0 35 9 16 28 -20
20 22 15 44 -5 28 -25 44 -2 63 88 8 42 33 120 55 172 55 132 67 215 50 361
-12 109 -12 118 6 158 14 32 19 65 19 133 0 115 -5 132 -61 197 -65 75 -87
117 -135 252 l-42 119 22 116 c11 64 21 130 21 146 0 17 7 43 15 59 9 16 18
57 21 90 9 97 71 395 96 461 19 52 22 79 23 215 0 142 -2 160 -24 212 l-24 56
25 44 c14 23 31 59 37 79 7 21 21 41 36 47 15 7 27 23 30 39 8 40 37 125 79
223 33 80 37 85 68 88 52 6 131 -16 192 -53 62 -37 116 -49 161 -37 37 10 43
34 16 68 -35 44 -22 84 26 84 37 0 45 39 51 252 5 219 -6 359 -43 544 -40 199
-86 313 -218 539 -56 96 -59 132 -21 250 33 101 45 278 21 310 -15 20 -16 19
-26 -7 -6 -16 -15 -28 -19 -28 -11 0 -22 59 -22 123 0 75 -39 246 -71 308 -46
92 -72 179 -65 222 6 35 4 39 -23 48 -34 12 -54 55 -65 134 -11 76 -15 83 -51
100 -44 22 -89 106 -122 232 -22 87 -26 127 -33 358 -12 385 -42 538 -147 749
-57 113 -282 448 -368 546 -36 41 -78 94 -93 117 -15 24 -37 46 -49 49 -36 10
-79 67 -102 137 -24 71 -82 167 -124 206 -21 19 -32 22 -61 17 -32 -6 -35 -4
-40 21 -63 307 -69 358 -68 656 0 159 3 291 6 294 3 4 6 21 6 38 0 28 8 39 54
73 78 59 101 111 101 229 0 109 -13 134 -91 173 l-49 25 -330 1 c-181 1 -390
-2 -463 -6z m656 -32 c7 -7 12 -21 12 -32 0 -19 0 -19 14 -1 12 17 15 17 36 2
15 -10 33 -14 51 -10 19 3 29 1 29 -6 0 -7 -65 -78 -144 -159 -153 -157 -172
-182 -154 -200 8 -8 7 -13 -6 -18 -21 -8 -66 11 -66 27 0 7 48 62 108 123 143
148 167 175 160 182 -4 3 -83 -71 -176 -165 -149 -150 -202 -193 -202 -163 0
5 11 19 24 31 24 23 41 61 26 61 -12 0 -89 -87 -102 -115 -6 -14 -15 -25 -19
-25 -39 0 10 88 89 160 36 33 63 62 60 65 -13 13 -49 -18 -173 -150 -114 -121
-155 -154 -155 -126 0 5 20 37 45 72 58 83 68 99 57 99 -5 0 -40 -34 -77 -76
-38 -43 -71 -72 -73 -66 -2 6 18 41 43 77 26 36 45 68 43 71 -5 4 -71 -64
-146 -149 -36 -41 -57 -48 -49 -17 3 11 1 20 -4 20 -5 0 -9 -4 -9 -9 0 -11
-69 -37 -117 -45 -37 -6 -40 -2 -18 20 16 16 20 44 7 44 -5 0 -21 -14 -38 -31
-44 -48 -144 -88 -144 -59 0 6 11 16 25 22 15 7 25 19 25 33 0 11 14 40 31 63
17 24 29 45 26 48 -4 5 -158 -180 -215 -259 -13 -18 -27 -33 -33 -35 -15 -6
-10 24 6 38 17 14 20 30 6 30 -5 0 -35 -23 -65 -51 -31 -28 -56 -49 -56 -47 0
2 9 24 21 47 26 55 16 66 -19 21 -54 -69 -95 -110 -111 -110 -9 0 -27 -9 -41
-20 -24 -19 -50 -26 -50 -14 0 3 5 14 11 25 6 11 9 25 6 32 -2 6 -23 -18 -48
-53 -34 -51 -45 -61 -47 -44 -2 11 11 49 28 85 16 35 30 73 30 84 0 26 36 85
52 85 9 0 9 -3 0 -12 -7 -7 -12 -21 -12 -32 0 -18 1 -18 20 -1 11 10 41 52 67
94 90 146 263 368 263 337 0 -4 -39 -65 -88 -134 -104 -152 -154 -228 -171
-262 -23 -47 34 27 152 199 145 213 183 254 253 280 65 25 78 26 70 6 -9 -25
18 -17 48 14 34 35 61 44 77 25 19 -24 2 -72 -56 -155 -66 -94 -81 -125 -43
-91 14 13 38 25 54 27 17 1 39 16 56 36 43 52 89 122 83 128 -7 6 -62 -58 -70
-81 -8 -21 -35 -24 -35 -4 0 19 75 113 102 127 12 7 54 16 93 21 38 4 87 11
108 14 52 9 49 -10 -18 -93 -30 -37 -55 -71 -55 -75 0 -17 23 -6 64 32 39 36
48 40 96 40 l53 0 -6 30 c-6 27 -4 30 31 40 20 6 55 24 76 40 71 54 75 36 11
-39 -25 -29 -45 -55 -45 -58 0 -3 29 22 65 56 94 87 110 83 35 -9 -63 -77 -56
-78 22 -2 95 90 156 120 186 90z m-658 -28 c-19 -12 -135 -24 -149 -15 -26 15
6 25 82 25 54 0 77 -3 67 -10z m876 -75 c13 -20 14 -30 5 -58 -7 -19 -21 -43
-31 -52 -28 -25 -25 -35 10 -35 35 0 38 -10 9 -36 -19 -17 -21 -18 -30 -1 -15
25 -48 21 -59 -7 -8 -22 -57 -65 -63 -55 -25 44 -25 47 -10 68 8 12 33 33 54
47 39 24 66 66 47 73 -5 1 -63 -50 -129 -114 -66 -65 -122 -115 -125 -112 -15
14 16 58 105 147 76 77 179 160 198 160 1 0 10 -11 19 -25z m-301 -356 l-7
-22 30 22 c31 22 58 28 47 11 -4 -6 10 -17 30 -26 44 -18 37 -34 -16 -34 -22
0 -72 -5 -110 -11 -39 -6 -73 -8 -76 -5 -3 3 12 24 34 46 45 45 79 54 68 19z
m-95 -2 c0 -7 -13 -26 -29 -41 -22 -21 -44 -30 -99 -38 -71 -10 -122 -6 -122
11 0 13 53 29 121 36 32 4 70 15 85 25 35 23 44 24 44 7z m-1296 -49 c-5 -7
-28 -44 -53 -83 -25 -38 -58 -101 -74 -140 -31 -72 -87 -168 -106 -179 -18
-12 -12 27 9 54 27 34 27 59 0 35 -36 -33 -21 2 35 82 122 171 177 243 186
243 6 0 7 -6 3 -12z m1371 -74 c-25 -38 -11 -40 23 -3 l31 33 35 -17 c20 -9
36 -20 36 -24 0 -5 -11 -30 -25 -57 -14 -27 -25 -56 -25 -63 0 -21 -56 -127
-76 -144 -16 -13 -17 -11 -12 28 4 24 15 62 27 86 12 24 21 46 21 50 0 18 -19
3 -47 -37 l-32 -45 -58 2 c-42 1 -67 -3 -86 -16 -29 -19 -71 -77 -82 -114 -11
-38 13 -26 35 16 49 96 143 94 190 -4 31 -64 25 -179 -13 -256 -30 -63 -91
-133 -109 -127 -8 3 -14 24 -16 51 -3 44 -2 47 31 60 56 24 98 117 77 172 -5
13 -22 31 -38 39 -38 19 -46 43 -27 72 17 27 19 34 5 34 -19 0 -48 -43 -59
-85 -13 -54 -1 -95 29 -95 22 0 28 25 8 33 -7 3 -1 6 15 6 41 1 35 -29 -24
-114 -41 -59 -53 -84 -57 -124 -4 -45 -1 -54 27 -89 17 -22 31 -46 31 -53 0
-28 59 46 118 149 l63 109 -3 99 c-2 97 -2 101 39 189 23 50 51 116 63 148 31
84 45 70 44 -44 -2 -155 -18 -271 -43 -313 l-23 -36 24 2 c35 4 35 -36 -1
-128 -17 -43 -29 -79 -27 -81 2 -2 15 12 30 32 15 19 31 35 35 35 5 0 11 -26
14 -58 4 -32 15 -78 26 -103 11 -25 23 -63 26 -85 7 -39 6 -40 -43 -72 -59
-38 -143 -76 -189 -86 -18 -4 -43 -20 -55 -36 -24 -29 -66 -55 -75 -46 -3 3
19 38 50 78 30 40 63 89 72 108 l18 35 -23 -20 c-12 -11 -68 -81 -125 -155
-57 -74 -116 -147 -131 -162 -64 -60 -93 -64 -654 -82 -61 -2 -62 17 -6 111
25 43 48 93 52 113 10 61 20 75 85 110 35 18 100 55 143 82 66 41 85 48 112
44 26 -5 32 -3 37 15 8 30 -7 63 -39 88 -35 27 -101 28 -172 1 -95 -36 -198
-22 -259 37 -31 28 -35 37 -31 73 2 22 0 40 -4 40 -15 0 -30 -44 -32 -99 -3
-70 -6 -75 -59 -103 -40 -22 -41 -23 -15 -26 24 -3 75 19 119 50 13 9 28 7 70
-10 80 -32 124 -35 233 -18 54 9 102 14 105 10 12 -11 -99 -78 -231 -138 l-76
-35 -27 40 c-39 60 -74 71 -204 63 -106 -7 -108 -6 -124 17 -10 13 -17 35 -17
49 0 36 40 115 93 186 76 100 82 129 37 195 -34 51 -37 83 -12 122 29 44 79
75 166 103 72 23 91 26 169 20 53 -4 87 -3 87 3 0 5 -6 11 -12 14 -18 6 37 64
83 87 54 28 68 6 23 -35 -35 -33 -11 -32 28 0 39 33 57 37 333 81 55 8 134 21
175 28 41 8 86 14 99 15 23 1 23 0 6 -25z m-692 -5 c-8 -8 -309 -88 -335 -89
-15 0 -8 30 10 38 9 6 42 13 72 17 30 4 80 16 110 26 62 20 161 26 143 8z
m-902 -167 c-27 -54 -54 -117 -61 -140 -6 -24 -20 -52 -31 -63 -19 -19 -69
-27 -69 -10 0 10 198 311 205 311 3 0 -17 -44 -44 -98z m379 -62 c0 -14 -91
-71 -102 -64 -13 8 17 39 55 58 38 18 47 20 47 6z m-130 -64 c0 -25 -72 -78
-166 -123 -89 -42 -114 -50 -114 -36 0 16 45 53 65 53 12 0 34 14 51 31 62 67
164 113 164 75z m1640 -652 c0 -18 -68 -121 -99 -148 -31 -28 -25 -11 14 41
51 66 43 75 -12 16 -103 -111 -528 -505 -565 -524 -36 -18 -42 -19 -62 -5 -32
20 -50 68 -42 111 5 27 17 41 47 61 22 14 75 54 117 90 104 87 294 215 400
268 48 24 104 58 126 75 42 33 76 40 76 15z m103 -78 l36 -54 -29 -11 c-24 -8
-30 -16 -30 -39 0 -44 -26 -109 -70 -177 -50 -78 -190 -432 -190 -483 0 -30
-16 -43 -71 -57 -60 -16 -209 -77 -209 -86 0 -6 257 -136 279 -141 8 -2 17 8
21 22 7 23 8 23 15 6 5 -11 4 -32 -2 -47 -9 -23 -8 -31 4 -37 12 -7 10 -12
-11 -26 -14 -9 -26 -23 -26 -31 0 -7 -5 -17 -12 -21 -11 -7 -8 30 8 84 5 16 2
22 -9 22 -18 0 -33 -39 -78 -195 -31 -111 -60 -175 -123 -281 -20 -32 -36 -66
-36 -75 0 -9 -10 -24 -21 -35 -12 -10 -34 -44 -48 -74 -15 -30 -43 -80 -63
-110 -54 -85 -146 -262 -184 -353 l-34 -82 0 151 c0 226 27 460 69 592 11 33
23 93 26 134 11 118 25 189 52 253 14 33 29 74 34 90 7 30 134 340 182 445 51
113 210 360 286 444 26 28 69 83 96 121 63 90 76 105 90 105 7 0 28 -24 48
-54z m-259 -133 c-9 -16 -29 -46 -43 -68 -14 -22 -52 -71 -84 -110 -105 -126
-216 -323 -291 -515 -21 -52 -47 -119 -58 -148 -11 -29 -22 -51 -24 -49 -2 2
3 59 11 126 14 114 37 193 90 316 7 17 44 66 82 110 38 44 95 114 128 155 106
134 246 269 189 183z m306 -32 c0 -13 -40 -61 -51 -61 -16 0 -10 23 13 47 22
24 38 30 38 14z m53 -69 c-4 -9 -19 -37 -35 -61 -37 -59 -27 -65 18 -13 19 23
40 42 45 42 5 0 9 -16 9 -37 0 -34 1 -35 18 -20 28 26 38 21 86 -40 l45 -57
-74 -78 c-41 -43 -75 -83 -75 -90 0 -12 5 -8 92 70 49 43 75 51 96 30 24 -24
11 -49 -54 -110 -115 -109 -110 -134 8 -38 40 33 81 60 91 60 33 0 17 -35 -45
-97 -34 -34 -60 -65 -57 -67 3 -3 38 17 78 44 79 54 89 58 97 35 9 -23 -4 -62
-31 -91 -37 -39 -31 -45 21 -22 55 24 75 14 56 -27 -16 -35 -16 -36 15 -29 19
5 30 2 39 -10 16 -23 6 -55 -50 -159 -25 -46 -46 -88 -46 -92 0 -17 41 30 69
79 49 87 55 88 94 9 41 -81 126 -322 169 -483 24 -86 32 -137 32 -202 1 -129
-22 -135 -50 -13 -40 176 -52 188 -178 193 -68 3 -95 -1 -159 -22 -79 -27
-157 -69 -157 -85 0 -5 26 0 57 11 125 43 300 61 340 33 32 -23 60 -130 48
-186 -7 -32 -3 -31 -190 -49 -78 -7 -130 -17 -149 -28 -43 -25 -44 -42 -2 -42
36 0 298 36 327 45 24 8 36 -13 69 -114 39 -120 82 -213 111 -240 20 -18 21
-23 9 -31 -8 -5 -23 -10 -33 -10 -39 0 -117 -61 -117 -91 0 -16 30 -9 69 16
21 14 51 27 67 28 43 3 42 -26 -2 -75 -44 -49 -32 -62 27 -29 38 21 38 21 48
2 14 -25 14 -68 1 -76 -5 -3 -10 -13 -10 -21 0 -12 7 -14 29 -9 28 6 29 5 40
-44 6 -27 24 -72 41 -99 31 -50 39 -95 19 -107 -6 -5 3 -20 25 -40 26 -23 36
-41 36 -62 0 -17 9 -40 20 -53 24 -27 25 -49 5 -76 -24 -32 -19 -46 18 -42 46
4 50 -31 7 -73 l-31 -31 26 6 c53 13 85 -15 49 -44 -13 -12 -12 -16 11 -34 63
-51 43 -325 -25 -343 -11 -3 -20 -11 -20 -19 0 -19 -109 -178 -180 -262 -50
-60 -59 -76 -49 -88 6 -8 21 -14 34 -14 57 0 125 -39 125 -72 0 -10 4 -18 9
-18 27 0 45 18 65 64 26 57 67 106 91 106 19 0 19 -23 0 -60 -9 -17 -20 -42
-25 -57 -10 -27 -9 -27 19 6 28 34 29 34 40 13 16 -30 14 -53 -9 -87 -29 -44
-26 -64 5 -35 28 26 46 20 27 -10 -17 -27 -15 -37 7 -43 20 -5 32 -48 47 -154
9 -68 -7 -69 -34 -3 -12 28 -26 50 -32 50 -12 0 8 -53 44 -115 35 -60 49 -112
41 -152 l-7 -37 -46 74 c-25 40 -48 68 -50 62 -4 -12 27 -73 91 -176 36 -58
45 -86 29 -86 -12 0 -53 46 -116 133 -58 79 -84 99 -65 50 5 -15 39 -71 74
-125 87 -132 105 -170 112 -231 l5 -52 -66 70 c-36 39 -65 66 -66 62 0 -11 22
-55 83 -160 55 -96 55 -125 0 -62 l-34 40 29 -60 c43 -88 56 -135 43 -148 -8
-8 -26 6 -66 49 -53 58 -65 60 -46 11 14 -36 4 -39 -42 -15 -144 73 -255 199
-436 496 l-63 102 54 59 c59 63 121 174 162 291 27 74 41 100 56 100 5 0 23
-12 40 -26 23 -20 34 -24 43 -15 16 16 -19 60 -73 90 -30 17 -67 26 -127 32
-47 4 -88 10 -91 14 -4 3 4 24 16 47 13 22 21 42 18 46 -9 9 -53 -36 -66 -68
-16 -39 0 -65 52 -82 39 -13 43 -18 46 -52 8 -96 -119 -283 -299 -441 -42 -36
-91 -86 -108 -111 -39 -53 -59 -55 -112 -13 -46 36 -48 47 -11 51 l27 3 -38
24 c-91 56 -207 237 -215 335 -4 48 -2 54 22 69 32 21 36 52 6 42 -17 -5 -20
-2 -20 20 0 14 -9 38 -20 53 -22 30 -29 120 -14 197 6 35 5 39 -8 27 -9 -7
-38 -59 -66 -115 -27 -56 -56 -108 -64 -114 -8 -7 -42 -21 -76 -32 -189 -58
-522 -352 -522 -459 0 -36 21 -23 64 44 54 80 156 178 262 251 158 107 207
124 224 77 22 -57 -26 -184 -147 -386 -88 -148 -136 -206 -156 -189 -11 8 -18
-1 -36 -45 -44 -105 -224 -272 -377 -349 -65 -33 -66 -33 -85 -14 -14 14 -18
27 -13 47 11 43 33 82 48 82 17 0 22 22 36 160 37 354 184 708 414 995 133
166 135 172 97 262 -29 67 -25 86 19 94 19 3 49 14 65 23 17 9 35 16 41 16 5
0 50 16 100 36 49 20 151 58 228 85 76 26 141 50 143 53 3 3 2 10 -2 17 -5 8
-31 10 -84 7 -128 -8 -338 -87 -473 -179 -31 -22 -60 -39 -64 -39 -11 0 4 152
22 230 10 38 14 73 10 78 -12 12 -34 -27 -46 -82 -13 -60 -24 -81 -39 -72 -34
21 23 326 94 501 46 113 53 145 34 145 -31 0 -161 -344 -180 -475 -6 -44 -13
-84 -16 -88 -8 -14 -70 -1 -108 23 -37 23 -42 38 -24 71 6 11 14 58 19 105 5
46 12 105 15 131 6 44 5 47 -9 29 -9 -11 -21 -45 -27 -76 -16 -80 -23 -90 -49
-65 -46 46 -50 220 -9 418 11 54 18 105 16 115 -12 48 -80 -202 -95 -350 l-8
-73 -23 60 c-34 90 -39 165 -12 208 31 50 25 68 -9 27 -35 -40 -34 -47 -20
126 25 307 106 528 300 814 44 65 92 159 110 215 17 54 21 59 31 44 5 -8 6
-37 3 -66 -12 -105 45 -251 136 -345 76 -79 112 -80 49 -2 -65 80 -118 230
-134 374 -7 67 7 150 25 150 13 0 18 -29 24 -150 8 -155 51 -274 146 -400 48
-64 56 -89 42 -129 -17 -49 8 -58 28 -11 13 31 30 40 30 17 0 -8 -13 -60 -29
-118 -39 -142 -44 -166 -32 -173 16 -10 38 32 62 119 22 82 42 129 58 140 23
13 18 -19 -19 -126 -22 -63 -40 -115 -40 -116 0 -1 7 0 15 3 8 3 31 42 52 85
33 71 53 97 53 69 0 -6 -20 -65 -45 -132 -25 -66 -43 -123 -41 -126 9 -8 35
18 42 41 12 39 57 127 65 127 9 0 -6 -51 -50 -168 -33 -88 -40 -137 -18 -130
6 3 30 55 52 117 22 62 45 114 50 115 22 3 14 -54 -20 -147 -37 -103 -43 -141
-23 -135 7 3 23 37 35 77 21 72 37 101 54 101 17 0 9 -77 -16 -151 -14 -40
-23 -79 -21 -86 10 -26 25 -12 40 40 23 77 31 86 53 64 16 -16 18 -38 18 -178
0 -146 2 -162 19 -174 26 -20 12 -35 -78 -84 -90 -50 -113 -67 -103 -77 4 -4
50 14 102 40 81 43 102 49 156 50 49 1 64 -2 66 -14 4 -19 -82 -70 -226 -134
-56 -26 -120 -59 -143 -74 -22 -15 -51 -33 -63 -39 -12 -7 -28 -20 -35 -28
-43 -52 148 28 370 154 157 89 170 91 114 16 -67 -89 -52 -114 74 -126 51 -5
101 -13 112 -19 15 -8 24 -6 40 10 22 22 24 29 12 46 -14 22 -54 35 -123 41
-38 3 -69 8 -69 10 0 2 20 29 45 60 86 106 71 137 -72 148 -49 3 -98 8 -110
11 -34 7 -37 42 -9 106 65 147 42 251 -118 542 -39 69 -51 102 -55 150 -5 54
-9 61 -28 64 -30 4 -29 15 7 112 47 126 35 149 -20 40 -16 -32 -34 -61 -40
-65 -21 -13 -9 57 26 152 54 147 64 182 54 188 -5 3 -36 -50 -69 -117 l-61
-123 3 68 c3 71 -1 79 -21 47 -15 -25 -32 -26 -32 -2 0 9 29 79 64 155 77 164
66 182 -25 42 -34 -52 -66 -95 -70 -95 -17 0 14 58 76 145 66 92 76 115 50
115 -34 0 -204 -252 -228 -337 -13 -49 -19 -52 -35 -20 -66 128 -92 361 -53
485 15 51 63 146 183 366 30 54 27 84 -4 46 -11 -13 -38 -56 -60 -95 -95 -165
-128 -204 -114 -133 17 87 158 319 254 420 30 32 53 61 50 63 -7 8 -108 -55
-131 -80 -27 -31 -120 -190 -173 -298 -47 -95 -72 -118 -66 -62 2 16 15 51 29
79 26 52 154 270 212 360 32 51 39 72 21 61 -6 -4 -49 -66 -97 -138 -102 -155
-92 -142 -98 -135 -10 10 27 102 68 171 30 51 37 71 28 80 -26 26 -2 86 69
176 58 73 132 115 113 63z m-903 -408 c0 -23 -20 -55 -31 -49 -10 7 -12 48 -2
58 12 13 33 7 33 -9z m8 -325 c-5 -77 -13 -104 -29 -94 -13 9 -11 178 2 212
l12 28 9 -35 c6 -19 8 -69 6 -111z m500 79 c15 -15 15 -30 -1 -52 -12 -17 -16
-16 -70 10 l-58 29 33 12 c43 15 81 16 96 1z m-598 -36 c0 -14 -7 -67 -16
-118 -16 -86 -16 -95 0 -127 17 -38 21 -83 7 -91 -5 -3 -21 13 -37 37 -26 37
-29 51 -29 122 0 96 8 139 35 183 23 37 40 34 40 -6z m1570 -89 c17 -41 29
-77 26 -80 -6 -6 -69 128 -81 169 -12 46 23 -11 55 -89z m-1594 -573 c16 -96
15 -253 -2 -295 -13 -31 -22 43 -30 240 -7 193 4 213 32 55z m891 -116 c-4
-70 -2 -94 6 -91 7 2 13 13 15 25 5 30 18 28 26 -3 4 -15 0 -38 -9 -56 -19
-36 -32 -30 -72 38 -28 48 -28 79 1 146 28 67 40 47 33 -59z m84 -177 c-12
-31 -37 -28 -33 3 5 48 12 57 27 37 9 -12 11 -27 6 -40z m-835 -408 c-19 -85
-37 -173 -41 -196 -8 -52 -18 -54 -33 -7 -8 27 -7 48 4 92 31 120 89 280 99
270 3 -2 -10 -74 -29 -159z m-48 -433 c-2 -11 -9 -21 -15 -24 -9 -2 -13 9 -13
40 1 40 2 42 16 23 8 -11 13 -29 12 -39z m98 -231 c36 -73 71 -139 79 -145 15
-12 16 -11 19 10 3 27 21 11 24 -21 4 -50 -18 -57 -61 -19 -40 35 -89 124
-123 222 -50 149 -22 127 62 -47z m29 -304 c-6 -11 -64 -25 -72 -18 -12 13 11
27 43 27 19 0 33 -4 29 -9z m360 -360 c7 -12 -33 -41 -57 -41 -23 0 -13 24 15
38 28 14 35 14 42 3z m5 -68 c0 -14 -70 -96 -102 -119 -45 -34 -67 -12 -30 31
50 58 132 113 132 88z m1590 -82 c0 -14 -93 -134 -107 -139 -26 -8 -11 25 38
86 48 58 69 74 69 53z m-130 -69 c0 -32 -16 -52 -41 -52 -30 0 -30 17 -3 49
32 38 44 39 44 3z m-1644 -97 c-28 -48 -46 -64 -46 -43 0 22 63 115 67 100 3
-7 -7 -32 -21 -57z m-116 7 c0 -10 -40 -30 -82 -42 -47 -14 -31 4 25 27 62 26
57 25 57 15z m15 -131 c-21 -60 -34 -81 -50 -81 -21 0 -19 7 17 67 38 63 53
69 33 14z m2093 -80 c56 -147 87 -323 77 -436 -4 -44 -10 -149 -14 -233 -7
-147 -15 -183 -40 -168 -13 9 -15 111 -2 134 6 11 5 36 -2 66 -8 35 -8 56 1
79 9 23 9 55 0 128 -7 70 -8 114 0 151 9 45 7 58 -9 90 -24 47 -65 188 -74
257 -12 87 14 59 63 -68z m-1451 22 c-9 -16 -23 -36 -33 -44 -16 -13 -17 -12
-10 16 11 44 36 79 48 67 6 -6 5 -20 -5 -39z m27 -80 c-11 -33 -44 -44 -44
-16 0 10 7 29 16 42 22 31 42 13 28 -26z m-740 -15 c-11 -38 -25 -48 -63 -48
l-36 1 39 34 c46 41 71 46 60 13z m817 -145 c84 -177 99 -213 89 -213 -12 0
-133 183 -159 240 -19 43 -15 80 9 80 5 0 33 -48 61 -107z m-995 75 c-9 -13
-23 -37 -31 -55 -16 -34 -69 -59 -103 -49 -29 10 -67 55 -56 66 15 15 145 58
178 59 28 1 28 0 12 -21z m830 -73 c-15 -24 -31 -47 -38 -51 -20 -13 0 58 30
101 24 36 27 38 30 17 2 -12 -8 -43 -22 -67z m-1327 8 c-26 -43 -127 -153
-141 -153 -5 0 28 45 73 100 83 101 111 123 68 53z m111 -17 c0 -14 -50 -187
-62 -216 -19 -45 -65 -100 -84 -100 -8 0 -26 25 -41 55 -26 53 -26 55 -10 89
20 44 80 110 131 148 34 25 66 36 66 24z m1322 -69 c67 -123 181 -245 281
-303 30 -17 57 -24 95 -24 30 0 83 -11 124 -25 79 -27 98 -30 98 -14 0 5 -32
25 -70 42 l-70 32 47 41 c27 22 60 48 74 57 24 16 27 16 41 0 9 -10 28 -47 43
-83 15 -36 60 -128 100 -205 119 -227 170 -373 141 -402 -4 -4 -21 7 -37 26
-38 46 -47 33 -21 -32 23 -55 28 -87 14 -87 -12 0 -26 29 -67 140 -37 96 -50
120 -67 120 -15 0 0 -56 52 -188 88 -221 76 -261 -23 -76 -32 60 -65 116 -73
124 -12 12 -14 11 -14 -8 0 -13 9 -40 20 -62 26 -51 26 -68 -1 -44 -34 31
-148 180 -224 293 -70 104 -95 129 -95 94 0 -34 147 -317 211 -407 72 -101
171 -206 194 -206 16 0 19 -20 9 -58 l-7 -23 -23 22 c-33 31 -39 19 -19 -36
12 -31 15 -49 8 -56 -7 -7 -21 15 -43 66 -48 109 -62 82 -16 -31 19 -49 33
-90 31 -92 -6 -6 -59 70 -89 131 -33 64 -56 84 -56 46 0 -30 62 -158 104 -212
19 -24 37 -54 41 -66 5 -18 9 -20 21 -10 8 6 14 22 14 35 0 12 5 26 10 29 6 3
10 19 10 34 0 35 8 43 31 30 21 -11 24 -38 9 -101 -5 -24 -12 -55 -15 -70 -6
-32 -29 -37 -44 -11 -18 33 -21 6 -4 -40 9 -25 14 -49 10 -53 -15 -15 -37 9
-71 80 -19 42 -38 76 -42 76 -11 0 6 -51 47 -149 38 -89 49 -158 24 -155 -5 1
-20 31 -33 65 -13 35 -27 68 -33 73 -18 19 -9 -34 22 -118 19 -54 29 -98 27
-123 -4 -48 -18 -43 -40 15 -18 48 -34 69 -43 60 -3 -3 8 -49 25 -102 33 -104
36 -152 9 -150 -15 1 -16 -8 -11 -80 5 -72 3 -80 -10 -68 -9 7 -21 33 -28 57
-13 46 -30 69 -30 41 0 -8 11 -50 25 -93 27 -85 31 -113 15 -113 -17 0 -48 61
-80 156 -31 91 -59 145 -60 114 0 -9 17 -67 38 -130 59 -174 87 -289 75 -301
-7 -7 -19 12 -39 63 -55 146 -183 436 -206 469 -16 22 -17 23 -17 4 -1 -25 43
-150 147 -415 44 -113 86 -227 93 -255 26 -107 49 -114 49 -15 0 39 4 70 8 70
5 0 16 -38 25 -84 9 -46 44 -167 77 -270 33 -102 60 -199 60 -214 l-1 -27 -20
24 c-32 39 -32 17 1 -65 22 -56 30 -91 28 -123 -4 -60 -27 -66 -52 -14 -10 21
-21 33 -23 26 -5 -15 25 -74 46 -90 13 -9 14 -14 4 -24 -22 -22 -74 41 -227
271 -197 297 -432 610 -457 610 -15 0 23 -67 100 -175 38 -55 91 -130 117
-167 26 -38 44 -71 40 -75 -4 -4 -39 28 -79 72 -80 88 -288 278 -295 270 -7
-7 85 -113 273 -316 90 -97 193 -214 230 -260 37 -46 90 -102 118 -124 47 -37
90 -93 118 -155 16 -35 23 -124 11 -145 -9 -16 -11 -15 -27 11 -108 176 -125
171 -31 -10 62 -119 86 -189 71 -204 -6 -6 -30 17 -97 97 -15 18 -32 30 -38
26 -15 -9 -12 -41 5 -55 8 -7 24 -31 35 -54 10 -22 31 -56 46 -73 57 -70 1
-28 -121 92 -174 170 -191 168 -50 -5 42 -51 83 -106 91 -122 24 -46 -9 -36
-74 24 -126 116 -135 123 -129 105 4 -9 25 -42 48 -72 23 -31 39 -58 36 -61
-20 -21 -250 156 -400 307 -64 66 -122 119 -127 119 -72 0 242 -330 400 -421
33 -19 60 -37 60 -41 0 -5 -31 -8 -69 -8 -53 0 -78 5 -115 25 -26 14 -53 25
-60 25 -8 0 -20 8 -27 17 -12 15 -12 16 4 10 9 -3 17 -2 17 3 0 6 -3 10 -7 11
-48 5 -80 27 -139 95 -78 92 -61 52 20 -48 42 -51 76 -99 76 -105 0 -38 -89
20 -142 93 -59 81 -71 111 -63 160 6 43 -1 54 -21 34 -6 -6 -18 -8 -27 -4 -23
8 -87 113 -87 141 0 13 -13 35 -29 49 -51 45 -84 159 -96 334 -8 117 -11 127
-35 133 -27 7 -48 60 -76 192 -24 117 -64 386 -64 432 1 48 18 4 41 -106 12
-55 25 -101 30 -101 4 0 6 15 3 33 -27 204 -30 262 -14 272 19 12 39 -62 50
-180 13 -130 7 -200 -16 -191 -18 7 -18 7 6 -46 11 -25 26 -88 35 -141 17
-105 23 -127 35 -127 5 0 31 -45 60 -101 28 -55 54 -98 57 -95 3 3 -18 61 -46
130 -32 79 -52 142 -54 173 -2 44 0 48 21 46 26 -3 26 -6 8 66 -8 31 -26 135
-41 232 -14 97 -47 300 -74 450 -69 388 -76 441 -56 479 17 32 13 50 -10 50
-18 0 -23 18 -30 130 -6 90 11 284 35 396 5 22 19 130 30 239 12 110 26 221
31 249 10 55 69 156 149 256 51 63 117 168 181 288 21 39 40 61 49 59 8 -1 31
-33 52 -70z m-1269 12 c10 -28 -8 -84 -23 -74 -15 9 -13 108 3 103 6 -3 16
-16 20 -29z m1838 -134 c-13 -29 -29 -49 -46 -55 -36 -14 -55 -12 -55 4 0 18
113 122 118 108 2 -6 -6 -32 -17 -57z m153 -47 c18 -40 63 -122 100 -182 66
-109 79 -140 51 -116 -37 31 -205 316 -205 349 0 40 21 21 54 -51z m-427 -90
c9 -10 12 -18 7 -18 -15 0 -84 50 -84 61 0 12 55 -19 77 -43z m-2074 -191 c9
-30 26 -62 37 -72 11 -10 20 -26 20 -36 0 -23 -70 -73 -84 -59 -21 21 -19 220
3 220 4 0 15 -24 24 -53z m167 -14 c0 -13 -4 -23 -9 -23 -12 0 -21 26 -21 58
1 26 1 26 15 8 8 -11 15 -30 15 -43z m3115 -120 c-3 -13 -10 -21 -16 -17 -10
6 -8 24 8 97 8 32 8 32 11 -12 2 -25 1 -55 -3 -68z m-558 4 c17 -34 24 -120
10 -134 -5 -4 -15 1 -23 12 -20 27 -57 152 -49 165 10 16 42 -6 62 -43z
m-1437 0 c0 -18 -17 -117 -36 -204 -23 -107 -38 -94 -31 25 5 93 19 152 40
180 12 16 27 15 27 -1z m-105 -155 c-6 -37 -15 -73 -19 -80 -9 -15 -106 -16
-106 -1 0 12 120 149 131 149 3 0 1 -31 -6 -68z m-1925 -526 c0 -16 -129 -140
-138 -132 -7 8 66 114 92 132 26 18 46 18 46 0z m-120 -191 c0 -12 -68 -111
-89 -130 l-22 -19 10 28 c6 15 11 43 11 61 0 24 7 39 22 49 21 15 68 22 68 11z
m-134 -82 c-5 -40 -17 -75 -41 -115 -19 -31 -35 -60 -35 -65 -1 -4 -16 -15
-34 -24 -34 -15 -34 -15 -39 10 -3 15 3 42 15 66 28 54 121 184 132 185 5 0 6
-26 2 -57z m-197 -250 c-15 -40 -49 -93 -60 -93 -12 0 -11 6 7 43 15 29 53 77
60 77 2 0 -1 -12 -7 -27z m-193 -282 c-15 -21 -41 -51 -58 -67 l-31 -29 23 40
c37 63 84 119 88 106 2 -7 -8 -29 -22 -50z m-516 -700 c-24 -42 -107 -138 -91
-106 13 27 99 145 107 145 3 0 -5 -17 -16 -39z m4495 -252 c17 -62 19 -103 6
-95 -10 7 -51 135 -51 162 0 35 30 -9 45 -67z m-4770 -114 c-20 -25 -40 -44
-43 -41 -2 3 12 26 33 51 20 25 40 44 43 41 2 -3 -12 -26 -33 -51z m4803 -366
c-5 -35 -28 -36 -28 -1 0 16 3 32 7 36 11 11 25 -10 21 -35z m-8 -104 c10 -12
10 -18 0 -30 -16 -19 -40 -3 -40 26 0 23 23 25 40 4z m-5180 -80 c0 -30 -156
-254 -391 -560 -155 -204 -205 -262 -212 -255 -3 3 86 131 199 285 112 154
246 337 297 407 81 112 107 142 107 123z m2960 -27 c0 -22 -26 -58 -42 -58
-10 0 -11 64 -1 73 15 16 43 6 43 -15z m1355 -323 c44 -29 88 -67 98 -84 10
-17 14 -31 10 -31 -19 0 -263 177 -263 190 0 15 72 -20 155 -75z m-108 -1
c266 -181 673 -525 673 -570 0 -15 -2 -16 -17 -2 -10 8 -70 57 -133 108 -63
52 -153 126 -200 165 -83 69 -190 148 -319 235 -71 48 -141 108 -141 121 0 23
48 3 137 -57z m-76 -52 c41 -27 153 -112 250 -188 758 -599 883 -702 929 -766
29 -40 39 -91 21 -102 -5 -3 -54 43 -109 102 -120 129 -249 239 -522 447 -113
85 -274 208 -358 273 -84 64 -176 131 -205 149 -120 73 -139 87 -150 110 -8
19 -8 26 2 33 22 13 63 -4 142 -58z m743 -13 c-1 -19 -5 -98 -9 -176 -5 -96
-5 -143 2 -143 15 0 23 36 23 112 0 69 14 98 26 53 13 -50 -17 -245 -37 -245
-5 0 -9 8 -9 18 0 9 -13 24 -29 33 -24 14 -30 26 -36 70 -8 54 -8 54 -17 21
-5 -19 -14 -32 -21 -29 -17 5 -21 53 -8 104 9 35 9 49 -4 73 -15 30 -13 50 5
50 5 0 15 -20 22 -44 20 -66 32 -59 41 22 9 86 22 125 40 119 7 -2 12 -19 11
-38z m-336 -28 c-2 -9 -11 -17 -20 -19 -20 -4 -34 37 -23 65 6 16 8 16 26 -6
11 -13 18 -31 17 -40z m-523 4 c55 -27 259 -175 251 -182 -2 -3 -44 22 -93 55
-114 76 -183 116 -189 109 -3 -3 21 -23 53 -45 552 -373 615 -422 1056 -813
67 -58 105 -75 57 -24 -37 40 -14 29 35 -16 41 -38 62 -70 34 -53 -7 4 -10 1
-7 -7 2 -8 16 -20 31 -27 48 -23 48 -93 0 -115 -24 -11 -28 -9 -57 28 -53 68
-205 222 -336 339 -145 130 -166 146 -197 146 -13 0 -23 6 -23 14 0 32 -303
265 -550 423 -175 113 -219 137 -228 128 -10 -9 39 -47 130 -103 42 -25 75
-48 73 -50 -2 -2 -64 27 -136 65 -124 65 -162 93 -125 93 8 0 30 13 48 29 18
15 40 31 48 34 23 10 70 -1 125 -28z m590 -39 c7 -44 2 -66 -15 -66 -13 0 -22
54 -14 84 9 39 22 32 29 -18z m113 -80 c2 -71 0 -86 -12 -86 -26 0 -36 36 -34
113 3 70 4 74 23 67 18 -6 20 -18 23 -94z m520 -627 c48 -28 97 -60 110 -72
27 -25 29 -57 4 -57 -19 0 -158 108 -207 161 -38 41 -21 35 93 -32z m-688 -86
c0 -79 -34 -227 -83 -363 -124 -348 -307 -667 -334 -585 -2 6 22 49 53 95 141
212 253 495 314 792 26 126 27 128 40 128 6 0 10 -28 10 -67z m1023 -38 c15
-57 32 -60 28 -5 -2 37 12 56 21 28 3 -9 9 -8 22 5 21 21 29 21 70 2 37 -18
45 -30 81 -120 25 -62 27 -76 23 -174 -7 -157 -50 -229 -103 -171 -25 28 -39
25 -72 -15 -41 -50 -76 -155 -76 -226 1 -67 -12 -85 -28 -40 -20 56 -27 33
-13 -40 12 -65 12 -75 -6 -122 -23 -59 -24 -67 -10 -67 5 0 16 16 25 36 18 45
35 36 35 -19 -1 -102 -135 -321 -294 -483 -104 -104 -173 -158 -219 -169 -22
-6 -27 -3 -32 18 -4 14 0 51 8 84 20 77 84 216 97 208 40 -25 83 280 46 330
-10 14 -11 25 -4 39 7 14 5 42 -7 99 -35 160 10 313 96 332 31 7 52 36 31 43
-18 6 -14 43 8 80 24 40 38 41 32 3 -11 -77 92 -300 124 -268 3 3 -6 27 -19
54 -49 96 -78 321 -46 359 9 11 9 18 1 26 -16 16 -15 38 1 38 7 0 22 7 33 15
18 14 18 15 -10 38 -24 19 -28 28 -22 50 3 15 11 27 17 27 5 0 22 12 36 26 24
24 27 24 42 10 9 -9 21 -30 26 -46 14 -41 30 -33 31 15 3 74 8 74 27 0z m-954
26 c37 -23 -24 -259 -134 -516 -77 -182 -214 -455 -231 -462 -8 -3 -21 0 -27
6 -13 13 -14 11 63 136 110 176 248 541 275 724 19 128 22 132 54 112z m91
-69 c0 -5 -9 -44 -20 -87 -11 -43 -20 -89 -20 -103 0 -47 -212 -546 -288 -679
-34 -59 -62 -81 -62 -49 0 8 38 91 84 184 97 197 150 327 177 429 16 62 59
187 98 286 10 25 31 38 31 19z m217 -132 c33 -47 79 -118 103 -159 l44 -74
-24 -16 c-45 -30 -65 -49 -58 -56 4 -4 23 2 43 14 20 11 38 21 39 21 7 0 -17
-108 -31 -138 -15 -31 -14 -39 22 -165 21 -73 47 -157 58 -187 30 -77 28 -240
-3 -240 -5 0 -15 16 -22 37 l-13 36 -6 -61 c-4 -45 -12 -68 -32 -92 -15 -17
-27 -40 -27 -50 0 -30 -18 -33 -36 -5 -11 17 -14 34 -9 53 3 15 9 43 11 62 5
31 4 33 -9 18 -20 -25 -27 -12 -27 46 -1 73 -18 37 -28 -56 -6 -68 -9 -73 -31
-73 -20 0 -23 5 -25 40 -4 79 -101 252 -155 274 -44 19 -56 59 -55 181 0 117
24 218 110 476 51 154 81 221 94 208 4 -5 34 -47 67 -94z m-177 29 c0 -22 -4
-38 -9 -35 -11 7 -23 65 -15 77 11 19 24 -3 24 -42z m287 34 c34 -22 153 -162
153 -180 0 -28 -45 -12 -84 31 -39 41 -114 166 -101 166 3 0 17 -8 32 -17z
m303 -114 c0 -17 -20 -51 -54 -91 -17 -21 -41 -50 -53 -65 -19 -24 -24 -26
-33 -13 -16 24 -12 49 13 74 12 12 37 41 56 64 30 39 71 57 71 31z m-6558 -70
c-28 -45 -121 -149 -133 -149 -6 0 0 15 12 33 25 34 129 147 137 147 2 0 -5
-14 -16 -31z m5868 -166 c-38 -135 -127 -396 -156 -458 -23 -51 -28 -56 -31
-35 -4 25 14 81 85 270 21 58 56 154 77 215 43 122 58 128 25 8z m514 61 c25
-24 21 -56 -6 -52 -23 3 -34 28 -24 54 7 18 11 18 30 -2z m-60 -230 c10 -25 7
-84 -4 -84 -5 0 -12 12 -16 28 -3 15 -8 33 -10 40 -9 29 19 44 30 16z m-7568
-288 c7 -29 -11 -66 -31 -66 -18 0 -20 42 -5 71 14 26 28 24 36 -5z m6501 -81
c-3 -19 -1 -37 5 -41 6 -4 8 -23 4 -46 l-7 -40 38 30 c21 16 49 42 62 56 29
31 41 33 41 8 0 -20 -24 -50 -162 -205 -111 -124 -118 -150 -23 -82 72 50 163
142 202 202 l33 52 118 0 c64 -1 128 4 142 9 25 11 25 11 -7 11 -62 2 -45 31
18 31 15 0 62 7 103 16 82 18 106 12 106 -29 0 -11 9 -34 19 -51 16 -25 91
-266 91 -290 0 -3 -6 -6 -14 -6 -8 0 -36 -18 -61 -40 -58 -51 -117 -81 -220
-113 -156 -48 -181 -45 -177 22 4 59 -30 91 -95 91 -38 0 -70 -11 -162 -57
l-114 -58 -171 0 c-142 0 -190 4 -281 23 -227 49 -365 99 -365 132 0 26 48 58
108 71 41 10 58 9 105 -6 63 -20 127 -68 127 -95 0 -23 47 -50 84 -50 16 0 42
-14 66 -36 35 -32 60 -38 60 -14 0 21 -64 80 -98 91 -42 13 -72 36 -72 55 0
32 100 51 144 29 39 -20 85 -19 149 5 63 24 137 83 137 111 0 31 -25 22 -95
-36 -82 -67 -109 -73 -57 -13 23 27 5 40 -29 22 -39 -20 -45 -14 -24 26 9 18
15 34 12 36 -2 2 -30 -11 -62 -31 -58 -34 -112 -51 -137 -42 -7 2 30 25 82 50
59 28 120 67 160 102 81 71 177 135 203 135 17 0 19 -5 14 -35z m57 -12 c-13
-38 -34 -41 -34 -6 0 34 19 58 34 43 6 -6 7 -19 0 -37z m793 -381 c-10 -10
-17 -24 -17 -31 0 -20 -47 -32 -77 -20 l-28 11 24 16 c27 19 79 40 100 41 11
1 11 -3 -2 -17z m81 -141 c6 -83 -6 -92 -38 -27 -18 39 -20 50 -10 87 10 38
13 40 27 26 10 -10 17 -41 21 -86z m-1761 58 c28 -10 376 -99 463 -117 l45
-10 -65 -1 c-36 0 -101 8 -145 18 -92 23 -315 98 -329 112 -13 12 -4 11 31 -2z
m1073 2 c0 -13 -98 -34 -135 -29 l-30 4 35 17 c38 17 130 23 130 8z"/>
<path d="M6371 12656 c-42 -42 -59 -66 -51 -71 12 -7 99 75 120 114 19 37 -4
22 -69 -43z"/>
<path d="M6440 12643 c-59 -60 -73 -109 -14 -52 45 43 78 88 70 96 -3 3 -28
-16 -56 -44z"/>
<path d="M5529 12569 c-45 -56 -142 -196 -159 -229 -37 -73 116 109 179 213
34 55 20 67 -20 16z"/>
<path d="M5814 12578 c-38 -40 -57 -75 -45 -82 15 -10 86 83 79 104 -2 6 -17
-4 -34 -22z"/>
<path d="M5613 12577 c-35 -39 -163 -225 -163 -237 0 -37 89 72 165 203 30 53
30 70 -2 34z"/>
<path d="M5786 12390 c-89 -106 -111 -138 -102 -147 14 -15 144 136 185 215
25 47 -10 19 -83 -68z"/>
<path d="M5846 12373 c-36 -42 -66 -80 -66 -85 0 -28 60 29 119 115 49 72 22
56 -53 -30z"/>
<path d="M5301 12354 c-12 -15 -21 -33 -21 -41 0 -7 -7 -16 -15 -19 -16 -7
-115 -149 -115 -166 0 -23 120 121 155 185 37 67 34 90 -4 41z"/>
<path d="M6062 12014 c-28 -48 -49 -90 -46 -93 9 -9 43 37 76 102 46 93 28 87
-30 -9z"/>
<path d="M6156 12017 c-57 -87 -72 -125 -38 -94 24 22 106 166 99 173 -3 4
-31 -32 -61 -79z"/>
<path d="M5800 11963 c-67 -40 -150 -102 -150 -113 0 -17 16 -11 72 28 118 81
174 141 78 85z"/>
<path d="M5346 11905 c-44 -15 -74 -41 -62 -52 11 -11 156 -10 181 1 19 8 18
9 -9 21 l-28 12 33 8 c33 7 33 7 9 15 -38 12 -81 11 -124 -5z"/>
<path d="M5785 11833 c-11 -2 -57 -18 -103 -35 -73 -27 -86 -30 -110 -18 -34
16 -192 24 -212 11 -12 -8 -12 -12 3 -29 9 -10 17 -28 17 -39 0 -35 30 -36 96
-3 75 36 84 37 84 5 0 -31 -30 -51 -100 -65 -85 -17 -86 -18 -68 -37 14 -14
23 -14 65 -4 61 16 128 55 149 87 33 50 159 104 246 104 42 0 68 8 68 21 0 9
-97 11 -135 2z"/>
<path d="M5930 11508 c0 -6 7 -20 16 -29 21 -23 31 -145 16 -188 -8 -23 -7
-32 2 -41 25 -20 40 18 44 109 5 107 -12 161 -52 161 -15 0 -26 -5 -26 -12z"/>
<path d="M6276 11324 c-49 -75 -59 -113 -13 -52 27 36 70 118 65 123 -2 2 -25
-30 -52 -71z"/>
<path d="M6256 11200 c-14 -17 -26 -36 -26 -42 0 -14 38 20 52 45 16 32 2 29
-26 -3z"/>
<path d="M6331 10018 c-34 -70 -67 -130 -72 -133 -16 -10 -9 38 11 84 22 49
26 75 9 69 -11 -4 -99 -228 -99 -251 0 -6 10 -2 22 9 l21 19 -7 -34 c-3 -19
-24 -74 -46 -121 -22 -48 -40 -95 -40 -104 0 -24 22 -15 37 15 24 49 186 423
209 487 43 113 19 92 -45 -40z"/>
<path d="M6212 9584 c-44 -88 -95 -224 -87 -232 5 -6 60 109 107 226 16 41 27
76 24 79 -2 3 -22 -30 -44 -73z"/>
<path d="M7028 10253 c-35 -6 -36 -21 -1 -34 35 -13 205 -8 210 7 2 7 -7 14
-20 18 -35 9 -158 15 -189 9z"/>
<path d="M7377 8496 c-51 -14 -86 -40 -73 -53 10 -10 317 -17 374 -8 23 3 42
10 42 15 0 5 -30 19 -67 30 -87 27 -212 34 -276 16z"/>
<path d="M7585 8131 c-16 -27 115 -52 165 -31 59 25 27 40 -87 40 -39 0 -74
-4 -78 -9z"/>
<path d="M7440 7914 c-29 -14 -94 -55 -144 -92 -49 -37 -105 -76 -124 -87 -19
-11 -34 -24 -34 -30 1 -5 26 -10 54 -11 77 -3 170 -49 139 -69 -6 -3 -89 -9
-186 -14 l-175 -7 -92 -47 c-146 -72 -324 -217 -268 -217 7 0 25 11 42 25 16
14 42 25 56 25 15 0 113 30 217 66 378 130 390 132 379 74 -6 -26 -4 -30 15
-30 25 0 55 44 73 105 17 60 44 83 130 110 109 35 198 47 307 43 108 -3 120 5
73 51 -20 21 -43 31 -77 37 -70 10 -225 -2 -271 -21 -35 -15 -212 -40 -221
-32 -2 2 26 19 61 37 118 60 161 137 46 84z m0 -153 c0 -18 -53 -51 -80 -51
-15 0 -33 7 -40 15 -10 13 -7 17 21 30 38 16 99 20 99 6z m-384 -207 c-47 -26
-238 -95 -250 -91 -17 6 65 44 162 77 96 32 132 38 88 14z"/>
<path d="M7950 7728 c-42 -18 -51 -19 -127 -7 -47 7 -109 9 -145 5 -80 -8
-196 -42 -228 -67 l-25 -19 41 0 c22 0 74 9 115 19 82 22 197 37 164 22 -11
-5 -45 -16 -75 -25 -31 -8 -65 -23 -75 -31 -20 -15 -20 -15 -1 -30 31 -23 65
-18 208 31 141 49 182 67 211 92 41 36 7 42 -63 10z"/>
<path d="M7150 7483 c-76 -86 -156 -238 -145 -273 9 -27 30 -11 38 28 3 15 40
78 81 140 71 107 88 142 67 142 -5 0 -23 -17 -41 -37z"/>
<path d="M7270 7412 c0 -19 82 -81 128 -96 93 -32 233 -12 280 41 32 36 16 45
-48 28 -107 -29 -234 -18 -342 30 -11 4 -18 3 -18 -3z"/>
<path d="M7080 7265 c-22 -26 -4 -45 42 -45 88 -1 192 -76 267 -194 48 -76 84
-111 107 -102 19 7 14 38 -19 105 -31 61 -160 180 -239 219 -72 35 -137 42
-158 17z"/>
<path d="M7034 7029 c13 -68 130 -185 241 -242 53 -27 191 -36 220 -14 30 23
8 39 -67 49 -101 14 -218 76 -306 164 -41 41 -79 74 -84 74 -6 0 -8 -12 -4
-31z"/>
<path d="M6713 5789 c14 -161 112 -517 204 -739 93 -227 130 -297 160 -312 24
-11 35 -34 76 -148 108 -307 197 -510 223 -510 12 0 14 5 9 18 -5 9 -28 71
-52 137 -24 66 -62 170 -84 230 -23 61 -69 189 -102 285 -70 198 -76 210 -88
187 -6 -9 -2 -32 8 -61 18 -48 12 -70 -12 -45 -8 8 -37 88 -65 179 -28 91 -80
253 -115 360 -35 107 -81 260 -103 339 -44 166 -69 200 -59 80z"/>
<path d="M8045 1569 c-9 -14 23 -49 62 -65 38 -17 49 -55 39 -145 -6 -59 1
-72 23 -45 17 20 25 114 14 156 -7 26 -23 45 -63 73 -58 40 -65 43 -75 26z"/>
<path d="M7920 1104 c0 -24 19 -54 35 -54 19 0 19 6 -2 41 -19 32 -33 38 -33
13z"/>
<path d="M7787 1103 c-8 -13 13 -123 29 -154 8 -16 21 -29 29 -29 19 0 19 -2
-11 96 -24 80 -37 104 -47 87z"/>
<path d="M7850 1065 c0 -39 34 -115 51 -115 6 0 9 6 7 13 -23 78 -44 137 -50
137 -5 0 -8 -16 -8 -35z"/>
<path d="M7736 1002 c-6 -11 10 -111 25 -148 13 -36 29 -29 29 14 -1 79 -35
164 -54 134z"/>
<path d="M7875 630 c-26 -27 -27 -30 -9 -30 19 0 64 38 64 53 0 17 -29 5 -55
-23z"/>
<path d="M7817 536 c-8 -8 -30 -19 -48 -23 -19 -5 -34 -16 -34 -24 0 -20 50
-23 77 -5 12 9 31 16 41 16 23 0 34 29 16 41 -20 13 -36 11 -52 -5z"/>
<path d="M7149 629 c-36 -39 -36 -47 0 -41 34 5 46 -10 31 -39 -10 -18 -10
-19 8 -10 36 19 41 33 29 79 -13 50 -29 53 -68 11z"/>
<path d="M6898 547 c-109 -21 -148 -41 -60 -31 139 15 209 27 232 39 24 14 24
14 -20 14 -25 -1 -93 -10 -152 -22z"/>
<path d="M7199 505 c-50 -26 -81 -55 -58 -55 17 0 119 62 119 72 0 12 -11 9
-61 -17z"/>
<path d="M6975 480 c-8 -12 10 -37 37 -51 26 -14 36 16 13 41 -20 22 -40 26
-50 10z"/>
<path d="M7198 440 c-36 -19 -54 -37 -46 -45 6 -6 105 41 112 54 11 17 -25 12
-66 -9z"/>
<path d="M6923 364 c-10 -26 38 -47 52 -24 8 14 -13 40 -32 40 -7 0 -16 -7
-20 -16z"/>
<path d="M6207 3534 c-119 -42 -432 -260 -468 -326 -17 -31 6 -20 101 51 51
38 151 102 222 142 133 76 209 131 192 141 -5 3 -26 0 -47 -8z"/>
<path d="M5592 3028 c5 -17 169 -98 271 -133 149 -51 376 -46 488 11 90 45 73
57 -31 22 -51 -17 -90 -21 -180 -22 -107 0 -125 3 -255 41 -77 23 -170 53
-208 68 -76 28 -90 30 -85 13z"/>
<path d="M1006 823 c-147 -31 -405 -130 -435 -166 -23 -28 3 -22 204 53 104
39 219 80 257 91 37 12 65 25 62 30 -6 11 -2 11 -88 -8z"/>
<path d="M1141 785 c-121 -27 -279 -88 -295 -114 -13 -20 14 -20 61 0 26 11
121 38 211 59 90 21 166 41 170 45 11 10 -21 25 -53 24 -16 0 -59 -7 -94 -14z"/>
<path d="M8346 687 c-3 -14 -8 -71 -12 -128 -4 -78 -3 -100 6 -86 6 9 20 17
30 17 23 0 42 32 38 63 -2 17 -9 21 -27 19 -22 -3 -23 -2 -16 45 11 79 10 86
-1 90 -7 2 -14 -7 -18 -20z"/>
<path d="M8448 550 c-12 -26 -28 -94 -28 -117 0 -36 28 -28 35 10 8 41 2 128
-7 107z"/>
</g>
</svg>
